M48
;Layer_Color=9474304
;FILE_FORMAT=2:4
INCH,LZ
;TYPE=PLATED
T01F00S00C0.0197
T02F00S00C0.0310
T03F00S00C0.0350
T04F00S00C0.0402
T05F00S00C0.0433
T06F00S00C0.0512
;TYPE=NON_PLATED
T07F00S00C0.1181
%
T01
X02725Y0024
X0273Y004172
X019087Y005163
X014163
X01622Y00828
X018836Y01572
X0147Y0171
X02345Y01085
X02475Y0102
X02625Y0108
T02
X0079Y01285
X0089
Y01585
X0079
X02155Y01725
X02255
Y01425
X02155
X0247Y01465
X0257
Y01165
X0247
T03
X004Y00135
X005
X006
X007
X008
X009
X01
X011
X003
X002
Y00835
X003
X004
X005
X006
X007
X008
X009
X01
X011
T04
X002Y00955
X003
X004
X005
X0143Y00985
Y00885
Y00785
Y00685
X02195
Y00785
Y00885
Y00985
T05
X000277Y0115
X00445
X007366Y01855
Y01955
X009334
Y01855
X02565Y019748
X02745Y018623
X02985
X03155Y019748
Y015575
X02985Y01445
X02745
X02565Y015575
X029425Y0071
X030425
X031425
T06
X03035Y003366
Y005334
X016984Y0019
X015016
X00185Y0136
X-000512Y014387
Y019191
X004212
Y014387
X03035Y011184
Y009216
X029634Y0226
X027666
X02515
X023182
X021213
X017334
X015366
X013397
X009334
X007366
X004818
X00285
X000882
T07
X032071Y000835
X-001023
X032071Y024316
X-001023Y024166
M30
