G04*
G04 #@! TF.GenerationSoftware,Altium Limited,Altium Designer,24.5.2 (23)*
G04*
G04 Layer_Physical_Order=1*
G04 Layer_Color=255*
%FSLAX24Y24*%
%MOIN*%
G70*
G04*
G04 #@! TF.SameCoordinates,26E0946A-0AB7-4A17-999B-C9CC4906AAC0*
G04*
G04*
G04 #@! TF.FilePolarity,Positive*
G04*
G01*
G75*
%ADD20R,0.0650X0.0236*%
%ADD23R,0.0669X0.0394*%
%ADD26R,0.0591X0.0472*%
%ADD27R,0.0591X0.1299*%
%ADD30R,0.0984X0.0433*%
%ADD31R,0.0413X0.0256*%
%ADD32R,0.0256X0.0413*%
%ADD33R,0.0520X0.0220*%
%ADD35O,0.0984X0.0276*%
%ADD64R,0.0551X0.0551*%
%ADD65C,0.0551*%
%ADD66C,0.0669*%
%ADD71R,0.0433X0.0531*%
%ADD72R,0.0276X0.0394*%
%ADD73R,0.0531X0.0433*%
%ADD74R,0.0394X0.0531*%
%ADD75R,0.0433X0.0433*%
%ADD76R,0.0394X0.0276*%
%ADD77R,0.2559X0.2323*%
%ADD78R,0.0531X0.0394*%
%ADD79C,0.0787*%
%ADD80C,0.0236*%
%ADD81C,0.0394*%
%ADD82C,0.0315*%
%ADD83C,0.0472*%
%ADD84C,0.0709*%
%ADD85R,0.0709X0.0709*%
%ADD86C,0.0768*%
G04:AMPARAMS|DCode=87|XSize=76.8mil|YSize=76.8mil|CornerRadius=19.2mil|HoleSize=0mil|Usage=FLASHONLY|Rotation=180.000|XOffset=0mil|YOffset=0mil|HoleType=Round|Shape=RoundedRectangle|*
%AMROUNDEDRECTD87*
21,1,0.0768,0.0384,0,0,180.0*
21,1,0.0384,0.0768,0,0,180.0*
1,1,0.0384,-0.0192,0.0192*
1,1,0.0384,0.0192,0.0192*
1,1,0.0384,0.0192,-0.0192*
1,1,0.0384,-0.0192,-0.0192*
%
%ADD87ROUNDEDRECTD87*%
%ADD88C,0.0650*%
%ADD89R,0.0650X0.0650*%
G04:AMPARAMS|DCode=90|XSize=63mil|YSize=63mil|CornerRadius=15.7mil|HoleSize=0mil|Usage=FLASHONLY|Rotation=0.000|XOffset=0mil|YOffset=0mil|HoleType=Round|Shape=RoundedRectangle|*
%AMROUNDEDRECTD90*
21,1,0.0630,0.0315,0,0,0.0*
21,1,0.0315,0.0630,0,0,0.0*
1,1,0.0315,0.0157,-0.0157*
1,1,0.0315,-0.0157,-0.0157*
1,1,0.0315,-0.0157,0.0157*
1,1,0.0315,0.0157,0.0157*
%
%ADD90ROUNDEDRECTD90*%
%ADD91C,0.0630*%
G04:AMPARAMS|DCode=92|XSize=76.8mil|YSize=76.8mil|CornerRadius=19.2mil|HoleSize=0mil|Usage=FLASHONLY|Rotation=90.000|XOffset=0mil|YOffset=0mil|HoleType=Round|Shape=RoundedRectangle|*
%AMROUNDEDRECTD92*
21,1,0.0768,0.0384,0,0,90.0*
21,1,0.0384,0.0768,0,0,90.0*
1,1,0.0384,0.0192,0.0192*
1,1,0.0384,0.0192,-0.0192*
1,1,0.0384,-0.0192,-0.0192*
1,1,0.0384,-0.0192,0.0192*
%
%ADD92ROUNDEDRECTD92*%
%ADD93R,0.0620X0.0620*%
%ADD94C,0.0620*%
G04:AMPARAMS|DCode=95|XSize=63mil|YSize=63mil|CornerRadius=15.7mil|HoleSize=0mil|Usage=FLASHONLY|Rotation=90.000|XOffset=0mil|YOffset=0mil|HoleType=Round|Shape=RoundedRectangle|*
%AMROUNDEDRECTD95*
21,1,0.0630,0.0315,0,0,90.0*
21,1,0.0315,0.0630,0,0,90.0*
1,1,0.0315,0.0157,0.0157*
1,1,0.0315,0.0157,-0.0157*
1,1,0.0315,-0.0157,-0.0157*
1,1,0.0315,-0.0157,0.0157*
%
%ADD95ROUNDEDRECTD95*%
%ADD96C,0.1181*%
%ADD97R,0.0709X0.0709*%
%ADD98C,0.0598*%
G04:AMPARAMS|DCode=99|XSize=59.8mil|YSize=59.8mil|CornerRadius=15mil|HoleSize=0mil|Usage=FLASHONLY|Rotation=270.000|XOffset=0mil|YOffset=0mil|HoleType=Round|Shape=RoundedRectangle|*
%AMROUNDEDRECTD99*
21,1,0.0598,0.0299,0,0,270.0*
21,1,0.0299,0.0598,0,0,270.0*
1,1,0.0299,-0.0150,-0.0150*
1,1,0.0299,-0.0150,0.0150*
1,1,0.0299,0.0150,0.0150*
1,1,0.0299,0.0150,-0.0150*
%
%ADD99ROUNDEDRECTD99*%
G04:AMPARAMS|DCode=100|XSize=59.8mil|YSize=59.8mil|CornerRadius=15mil|HoleSize=0mil|Usage=FLASHONLY|Rotation=180.000|XOffset=0mil|YOffset=0mil|HoleType=Round|Shape=RoundedRectangle|*
%AMROUNDEDRECTD100*
21,1,0.0598,0.0299,0,0,180.0*
21,1,0.0299,0.0598,0,0,180.0*
1,1,0.0299,-0.0150,0.0150*
1,1,0.0299,0.0150,0.0150*
1,1,0.0299,0.0150,-0.0150*
1,1,0.0299,-0.0150,-0.0150*
%
%ADD100ROUNDEDRECTD100*%
%ADD101C,0.0394*%
G36*
X-1069Y25048D02*
X32147Y25048D01*
X32151Y25047D01*
Y25047D01*
X32151Y25048D01*
X32287Y25034D01*
X32418Y24994D01*
X32538Y24930D01*
X32644Y24843D01*
X32731Y24738D01*
X32795Y24617D01*
X32835Y24486D01*
X32848Y24351D01*
X32848Y24350D01*
X32848Y800D01*
X32848Y799D01*
X32835Y664D01*
X32795Y533D01*
X32731Y412D01*
X32644Y307D01*
X32538Y220D01*
X32418Y156D01*
X32287Y116D01*
X32151Y102D01*
X32151Y103D01*
Y103D01*
X32147Y102D01*
X-1069D01*
X-1071Y102D01*
X-1206Y115D01*
X-1336Y155D01*
X-1457Y219D01*
X-1563Y306D01*
X-1649Y412D01*
X-1714Y532D01*
X-1753Y663D01*
X-1767Y798D01*
X-1767Y799D01*
X-1767Y24351D01*
X-1767Y24352D01*
X-1753Y24487D01*
X-1714Y24618D01*
X-1649Y24738D01*
X-1563Y24844D01*
X-1457Y24931D01*
X-1336Y24995D01*
X-1206Y25035D01*
X-1071Y25048D01*
X-1069Y25048D01*
D02*
G37*
%LPC*%
G36*
X-1023Y24809D02*
X-1149Y24797D01*
X-1270Y24760D01*
X-1381Y24701D01*
X-1478Y24621D01*
X-1558Y24523D01*
X-1618Y24412D01*
X-1655Y24291D01*
X-1667Y24166D01*
X-1655Y24040D01*
X-1618Y23919D01*
X-1558Y23808D01*
X-1478Y23711D01*
X-1381Y23631D01*
X-1270Y23571D01*
X-1149Y23534D01*
X-1023Y23522D01*
X-898Y23534D01*
X-777Y23571D01*
X-666Y23631D01*
X-568Y23711D01*
X-488Y23808D01*
X-429Y23919D01*
X-392Y24040D01*
X-380Y24166D01*
X-392Y24291D01*
X-429Y24412D01*
X-488Y24523D01*
X-568Y24621D01*
X-666Y24701D01*
X-777Y24760D01*
X-898Y24797D01*
X-1023Y24809D01*
D02*
G37*
G36*
X23182Y23038D02*
X23068Y23023D01*
X22963Y22979D01*
X22872Y22909D01*
X22803Y22819D01*
X22759Y22713D01*
X22744Y22600D01*
X22759Y22487D01*
X22803Y22381D01*
X22872Y22291D01*
X22963Y22221D01*
X23068Y22177D01*
X23182Y22162D01*
X23295Y22177D01*
X23400Y22221D01*
X23491Y22291D01*
X23560Y22381D01*
X23604Y22487D01*
X23619Y22600D01*
X23604Y22713D01*
X23560Y22819D01*
X23491Y22909D01*
X23400Y22979D01*
X23295Y23023D01*
X23182Y23038D01*
D02*
G37*
G36*
X21213D02*
X21100Y23023D01*
X20994Y22979D01*
X20904Y22909D01*
X20834Y22819D01*
X20790Y22713D01*
X20775Y22600D01*
X20790Y22487D01*
X20810Y22439D01*
X19949Y21579D01*
X19912Y21523D01*
X19899Y21457D01*
Y19239D01*
X19755D01*
Y18706D01*
X20386D01*
Y18801D01*
X20707D01*
X20779Y18729D01*
X20834Y18692D01*
X20900Y18679D01*
X21300D01*
Y18662D01*
X21794D01*
Y19038D01*
X21300D01*
Y19021D01*
X20971D01*
X20899Y19094D01*
X20843Y19131D01*
X20778Y19144D01*
X20386D01*
Y19239D01*
X20242D01*
Y21386D01*
X21052Y22197D01*
X21100Y22177D01*
X21213Y22162D01*
X21326Y22177D01*
X21432Y22221D01*
X21522Y22291D01*
X21592Y22381D01*
X21636Y22487D01*
X21651Y22600D01*
X21636Y22713D01*
X21592Y22819D01*
X21522Y22909D01*
X21432Y22979D01*
X21326Y23023D01*
X21213Y23038D01*
D02*
G37*
G36*
X15366D02*
X15252Y23023D01*
X15147Y22979D01*
X15056Y22909D01*
X14987Y22819D01*
X14943Y22713D01*
X14928Y22600D01*
X14943Y22487D01*
X14987Y22381D01*
X15056Y22291D01*
X15147Y22221D01*
X15252Y22177D01*
X15366Y22162D01*
X15479Y22177D01*
X15585Y22221D01*
X15675Y22291D01*
X15745Y22381D01*
X15788Y22487D01*
X15803Y22600D01*
X15788Y22713D01*
X15745Y22819D01*
X15675Y22909D01*
X15585Y22979D01*
X15479Y23023D01*
X15366Y23038D01*
D02*
G37*
G36*
X2850D02*
X2737Y23023D01*
X2631Y22979D01*
X2541Y22909D01*
X2471Y22819D01*
X2427Y22713D01*
X2412Y22600D01*
X2427Y22487D01*
X2471Y22381D01*
X2541Y22291D01*
X2631Y22221D01*
X2737Y22177D01*
X2850Y22162D01*
X2963Y22177D01*
X3069Y22221D01*
X3159Y22291D01*
X3229Y22381D01*
X3273Y22487D01*
X3288Y22600D01*
X3273Y22713D01*
X3229Y22819D01*
X3159Y22909D01*
X3069Y22979D01*
X2963Y23023D01*
X2850Y23038D01*
D02*
G37*
G36*
X17526Y23039D02*
X17142D01*
X17048Y23020D01*
X16968Y22966D01*
X16914Y22886D01*
X16896Y22792D01*
Y22408D01*
X16914Y22314D01*
X16968Y22234D01*
X17048Y22180D01*
X17142Y22161D01*
X17526D01*
X17621Y22180D01*
X17701Y22234D01*
X17754Y22314D01*
X17773Y22408D01*
Y22792D01*
X17754Y22886D01*
X17701Y22966D01*
X17621Y23020D01*
X17526Y23039D01*
D02*
G37*
G36*
X882Y23038D02*
X768Y23023D01*
X663Y22979D01*
X572Y22909D01*
X503Y22819D01*
X459Y22713D01*
X444Y22600D01*
X459Y22487D01*
X503Y22381D01*
X572Y22291D01*
X593Y22275D01*
Y20582D01*
X603Y20508D01*
X631Y20438D01*
X677Y20378D01*
X1510Y19546D01*
X1570Y19500D01*
X1639Y19471D01*
X1714Y19461D01*
X4133D01*
X4194Y19414D01*
X4288Y19375D01*
X4388Y19362D01*
X4489Y19375D01*
X4582Y19414D01*
X4663Y19476D01*
X4724Y19556D01*
X4763Y19650D01*
X4776Y19750D01*
X4763Y19850D01*
X4724Y19944D01*
X4663Y20024D01*
X4582Y20086D01*
X4489Y20125D01*
X4388Y20138D01*
X4288Y20125D01*
X4194Y20086D01*
X4133Y20039D01*
X1834D01*
X1170Y20702D01*
Y22275D01*
X1191Y22291D01*
X1260Y22381D01*
X1304Y22487D01*
X1319Y22600D01*
X1304Y22713D01*
X1260Y22819D01*
X1191Y22909D01*
X1100Y22979D01*
X995Y23023D01*
X882Y23038D01*
D02*
G37*
G36*
X17529Y19916D02*
X16996D01*
Y19757D01*
X16435D01*
X16419Y19754D01*
X16110D01*
X16110Y19754D01*
X16060D01*
Y19710D01*
X16056Y19700D01*
Y19271D01*
X16072Y19232D01*
X16110Y19216D01*
X16337D01*
X16375Y19232D01*
X16391Y19271D01*
Y19413D01*
X16479D01*
Y19271D01*
X16495Y19232D01*
X16533Y19216D01*
X16760D01*
X16798Y19232D01*
X16814Y19271D01*
Y19414D01*
X16996D01*
Y19284D01*
X17529D01*
Y19916D01*
D02*
G37*
G36*
X9526Y23039D02*
X9142D01*
X9048Y23020D01*
X8968Y22966D01*
X8914Y22886D01*
X8896Y22792D01*
Y22408D01*
X8914Y22314D01*
X8968Y22234D01*
X9046Y22182D01*
Y19773D01*
X9015Y19734D01*
X8979Y19645D01*
X8966Y19550D01*
X8979Y19455D01*
X9015Y19366D01*
X9074Y19290D01*
X9150Y19231D01*
X9239Y19194D01*
X9334Y19182D01*
X9430Y19194D01*
X9518Y19231D01*
X9595Y19290D01*
X9653Y19366D01*
X9690Y19455D01*
X9702Y19550D01*
X9690Y19645D01*
X9653Y19734D01*
X9623Y19773D01*
Y22182D01*
X9701Y22234D01*
X9754Y22314D01*
X9773Y22408D01*
Y22792D01*
X9754Y22886D01*
X9701Y22966D01*
X9621Y23020D01*
X9526Y23039D01*
D02*
G37*
G36*
X5010D02*
X4627D01*
X4532Y23020D01*
X4452Y22966D01*
X4399Y22886D01*
X4380Y22792D01*
Y22408D01*
X4399Y22314D01*
X4452Y22234D01*
X4532Y22180D01*
X4627Y22161D01*
X5010D01*
X5105Y22180D01*
X5185Y22234D01*
X5237Y22311D01*
X7040D01*
X7056Y22291D01*
X7077Y22275D01*
Y19773D01*
X7047Y19734D01*
X7010Y19645D01*
X6998Y19550D01*
X7010Y19455D01*
X7047Y19366D01*
X7105Y19290D01*
X7182Y19231D01*
X7270Y19194D01*
X7366Y19182D01*
X7461Y19194D01*
X7550Y19231D01*
X7626Y19290D01*
X7685Y19366D01*
X7721Y19455D01*
X7734Y19550D01*
X7721Y19645D01*
X7685Y19734D01*
X7654Y19773D01*
Y22275D01*
X7675Y22291D01*
X7745Y22381D01*
X7788Y22487D01*
X7803Y22600D01*
X7788Y22713D01*
X7745Y22819D01*
X7675Y22909D01*
X7585Y22979D01*
X7479Y23023D01*
X7366Y23038D01*
X7252Y23023D01*
X7147Y22979D01*
X7056Y22909D01*
X7040Y22889D01*
X5237D01*
X5185Y22966D01*
X5105Y23020D01*
X5010Y23039D01*
D02*
G37*
G36*
X16760Y18419D02*
X16533D01*
X16495Y18403D01*
X16479Y18365D01*
Y18222D01*
X16391D01*
Y18365D01*
X16375Y18403D01*
X16337Y18419D01*
X16110D01*
X16072Y18403D01*
X16056Y18365D01*
Y18221D01*
X15842D01*
Y18317D01*
X14758D01*
Y17783D01*
X15842D01*
Y17879D01*
X16108D01*
X16110Y17878D01*
X16760D01*
X16762Y17879D01*
X16996D01*
Y17734D01*
X17529D01*
Y18366D01*
X16996D01*
Y18221D01*
X16814D01*
Y18365D01*
X16798Y18403D01*
X16760Y18419D01*
D02*
G37*
G36*
X22700Y18664D02*
X22206D01*
Y18288D01*
X22700D01*
Y18305D01*
X23076D01*
X23184Y18197D01*
Y17906D01*
X23816D01*
Y18439D01*
X23427D01*
X23268Y18597D01*
X23213Y18634D01*
X23147Y18647D01*
X22700D01*
Y18664D01*
D02*
G37*
G36*
X14100Y24704D02*
X14100Y24704D01*
X11400D01*
X11362Y24688D01*
X11062Y24388D01*
X11046Y24350D01*
X11046Y24350D01*
Y17850D01*
X11062Y17812D01*
X11362Y17512D01*
X11400Y17496D01*
X11400Y17496D01*
X14150D01*
X14188Y17512D01*
X14488Y17812D01*
X14504Y17850D01*
X14504Y17850D01*
Y24300D01*
X14504Y24300D01*
X14488Y24338D01*
X14488Y24338D01*
X14138Y24688D01*
X14100Y24704D01*
D02*
G37*
G36*
X18474Y19916D02*
X17941D01*
Y19284D01*
X18036D01*
Y18366D01*
X17941D01*
Y17734D01*
X18035D01*
Y17284D01*
X17895D01*
Y16964D01*
X18515D01*
Y17284D01*
X18378D01*
Y17734D01*
X18474D01*
Y18366D01*
X18379D01*
Y19284D01*
X18474D01*
Y19916D01*
D02*
G37*
G36*
X22550Y17628D02*
X22452Y17615D01*
X22361Y17578D01*
X22283Y17517D01*
X22222Y17439D01*
X22185Y17348D01*
X22172Y17250D01*
X22185Y17152D01*
X22222Y17061D01*
X22283Y16983D01*
X22361Y16922D01*
X22452Y16885D01*
X22550Y16872D01*
X22648Y16885D01*
X22739Y16922D01*
X22817Y16983D01*
X22878Y17061D01*
X22880Y17067D01*
X23184D01*
Y16961D01*
X23816D01*
Y17494D01*
X23184D01*
Y17410D01*
X22890D01*
X22878Y17439D01*
X22817Y17517D01*
X22739Y17578D01*
X22648Y17615D01*
X22550Y17628D01*
D02*
G37*
G36*
X20386Y18294D02*
X19755D01*
Y17761D01*
X19899D01*
Y17410D01*
X19804D01*
Y16877D01*
X20337D01*
Y17410D01*
X20242D01*
Y17761D01*
X20386D01*
Y18294D01*
D02*
G37*
G36*
X9492Y18919D02*
X9177D01*
X9096Y18903D01*
X9027Y18857D01*
X8981Y18788D01*
X8965Y18707D01*
Y18393D01*
X8981Y18312D01*
X9027Y18243D01*
X9096Y18197D01*
X9163Y18184D01*
Y17816D01*
X9176Y17750D01*
X9213Y17695D01*
X9906Y17001D01*
X9962Y16964D01*
X10028Y16951D01*
X14503D01*
X14522Y16922D01*
X14604Y16867D01*
X14700Y16848D01*
X14796Y16867D01*
X14878Y16922D01*
X14897Y16951D01*
X16119D01*
Y16876D01*
X16751D01*
Y16952D01*
X17264D01*
X17326Y16964D01*
X17575D01*
Y17284D01*
X17322D01*
X17265Y17295D01*
X17261Y17295D01*
X16751D01*
Y17369D01*
X16119D01*
Y17294D01*
X14854D01*
X14796Y17333D01*
X14700Y17352D01*
X14604Y17333D01*
X14546Y17294D01*
X10098D01*
X9506Y17887D01*
Y18184D01*
X9573Y18197D01*
X9641Y18243D01*
X9687Y18312D01*
X9703Y18393D01*
Y18707D01*
X9687Y18788D01*
X9641Y18857D01*
X9573Y18903D01*
X9492Y18919D01*
D02*
G37*
G36*
X21550Y17628D02*
X21452Y17615D01*
X21361Y17578D01*
X21283Y17517D01*
X21222Y17439D01*
X21185Y17348D01*
X21172Y17250D01*
X21174Y17230D01*
X20552Y16608D01*
X20337D01*
Y16623D01*
X19804D01*
Y16090D01*
X20337D01*
Y16105D01*
X20656D01*
X20753Y16124D01*
X20834Y16178D01*
X21252Y16596D01*
X21298Y16577D01*
Y16350D01*
X21317Y16254D01*
X21372Y16172D01*
X21922Y15622D01*
X22004Y15567D01*
X22100Y15548D01*
X22946D01*
X23198Y15296D01*
Y12504D01*
X22046Y11352D01*
X15550D01*
X15454Y11333D01*
X15372Y11278D01*
X14297Y10203D01*
X14150D01*
X14073Y10188D01*
X14006Y10144D01*
X13962Y10077D01*
X13947Y10000D01*
Y9700D01*
X13962Y9623D01*
X14006Y9556D01*
X14073Y9512D01*
X14150Y9497D01*
X14450D01*
X14527Y9512D01*
X14594Y9556D01*
X14638Y9623D01*
X14653Y9700D01*
Y9847D01*
X15654Y10848D01*
X22046D01*
X24822Y8072D01*
X24904Y8017D01*
X25000Y7998D01*
X26188D01*
X26271Y7915D01*
Y7100D01*
Y6050D01*
X26215D01*
Y5602D01*
X24385D01*
Y5636D01*
X23695D01*
Y5064D01*
X24385D01*
Y5098D01*
X26215D01*
Y4650D01*
X26905D01*
Y6050D01*
X26774D01*
Y6427D01*
X26820Y6446D01*
X27344Y5922D01*
X27426Y5867D01*
X27522Y5848D01*
X30765D01*
X30848Y5765D01*
Y1485D01*
X30765Y1402D01*
X24509D01*
X24385Y1526D01*
Y1781D01*
X23695D01*
Y1208D01*
X23991D01*
X24227Y972D01*
X24309Y917D01*
X24405Y898D01*
X30869D01*
X30966Y917D01*
X31047Y972D01*
X31278Y1203D01*
X31333Y1284D01*
X31352Y1381D01*
Y5869D01*
X31333Y5966D01*
X31278Y6047D01*
X31047Y6278D01*
X30966Y6333D01*
X30869Y6352D01*
X29098D01*
X29079Y6398D01*
X29412Y6731D01*
X29582D01*
X29663Y6747D01*
X29732Y6793D01*
X29778Y6862D01*
X29794Y6943D01*
Y7257D01*
X29778Y7338D01*
X29732Y7407D01*
X29663Y7453D01*
X29582Y7469D01*
X29267D01*
X29186Y7453D01*
X29118Y7407D01*
X29072Y7338D01*
X29056Y7257D01*
Y7087D01*
X28321Y6352D01*
X27627D01*
X26774Y7204D01*
Y8019D01*
X26755Y8116D01*
X26700Y8197D01*
X26470Y8428D01*
X26388Y8483D01*
X26292Y8502D01*
X25104D01*
X25068Y8538D01*
X25087Y8584D01*
X25522D01*
Y9216D01*
X25231D01*
X23684Y10762D01*
X23702Y10850D01*
X23683Y10946D01*
X23628Y11028D01*
X23546Y11083D01*
X23450Y11102D01*
X23354Y11083D01*
X23272Y11028D01*
X23217Y10946D01*
X23198Y10850D01*
X23217Y10754D01*
X23272Y10672D01*
X23346Y10623D01*
X23359Y10603D01*
X24989Y8973D01*
Y8683D01*
X24942Y8664D01*
X22506Y11100D01*
X23628Y12222D01*
X23683Y12304D01*
X23702Y12400D01*
Y15400D01*
X23683Y15496D01*
X23628Y15578D01*
X23228Y15978D01*
X23146Y16033D01*
X23050Y16052D01*
X22204D01*
X21802Y16454D01*
Y16970D01*
X21817Y16983D01*
X21878Y17061D01*
X21915Y17152D01*
X21928Y17250D01*
X21915Y17348D01*
X21878Y17439D01*
X21817Y17517D01*
X21739Y17578D01*
X21648Y17615D01*
X21550Y17628D01*
D02*
G37*
G36*
X4388Y17138D02*
X4288Y17125D01*
X4194Y17086D01*
X4114Y17024D01*
X4052Y16944D01*
X4013Y16850D01*
X4000Y16750D01*
X4013Y16650D01*
X4052Y16556D01*
X4114Y16476D01*
X4194Y16414D01*
X4288Y16375D01*
X4388Y16362D01*
X4489Y16375D01*
X4582Y16414D01*
X4663Y16476D01*
X4724Y16556D01*
X4763Y16650D01*
X4776Y16750D01*
X4763Y16850D01*
X4724Y16944D01*
X4663Y17024D01*
X4582Y17086D01*
X4489Y17125D01*
X4388Y17138D01*
D02*
G37*
G36*
X18515Y16536D02*
X17895D01*
Y16216D01*
X17970D01*
Y15967D01*
X17906D01*
Y15473D01*
X18198D01*
X18222Y15468D01*
X18246Y15473D01*
X18538D01*
Y15549D01*
X18654D01*
X18658Y15542D01*
X18740Y15487D01*
X18836Y15468D01*
X18932Y15487D01*
X19014Y15542D01*
X19069Y15624D01*
X19088Y15720D01*
X19069Y15816D01*
X19014Y15898D01*
X18932Y15952D01*
X18836Y15972D01*
X18740Y15952D01*
X18658Y15898D01*
X18654Y15891D01*
X18538D01*
Y15967D01*
X18474D01*
Y16216D01*
X18515D01*
Y16536D01*
D02*
G37*
G36*
X17265Y16541D02*
X17241Y16536D01*
X16955D01*
Y16216D01*
X17013D01*
Y15359D01*
X16930Y15276D01*
X15031D01*
Y15288D01*
X14808D01*
X14784Y15293D01*
X14715D01*
X14691Y15288D01*
X14399D01*
Y15276D01*
X14339D01*
Y15416D01*
X13806D01*
Y14784D01*
X14012D01*
X14072Y14772D01*
X14715D01*
X14758Y14781D01*
X14801Y14772D01*
X17034D01*
X17131Y14791D01*
X17212Y14846D01*
X17443Y15077D01*
X17498Y15158D01*
X17517Y15255D01*
Y16216D01*
X17575D01*
Y16536D01*
X17289D01*
X17265Y16541D01*
D02*
G37*
G36*
X6044Y16438D02*
X5550D01*
Y16062D01*
X5579D01*
Y15289D01*
X5434D01*
Y15194D01*
X5022D01*
X4957Y15181D01*
X4901Y15144D01*
X4267Y14509D01*
X4230Y14454D01*
X4217Y14388D01*
Y13076D01*
X4063D01*
Y12424D01*
X4167D01*
Y11793D01*
X4162Y11788D01*
X4097Y11704D01*
X4056Y11606D01*
X4042Y11500D01*
X4056Y11394D01*
X4097Y11296D01*
X4162Y11212D01*
X4246Y11147D01*
X4344Y11106D01*
X4450Y11092D01*
X4556Y11106D01*
X4654Y11147D01*
X4738Y11212D01*
X4803Y11296D01*
X4844Y11394D01*
X4858Y11500D01*
X4844Y11606D01*
X4803Y11704D01*
X4738Y11788D01*
X4671Y11840D01*
Y12424D01*
X4714D01*
Y13076D01*
X4560D01*
Y14317D01*
X5093Y14851D01*
X5434D01*
Y14756D01*
X6066D01*
Y15289D01*
X5921D01*
Y16062D01*
X6044D01*
Y16438D01*
D02*
G37*
G36*
X9275Y16225D02*
X8525D01*
Y15475D01*
X9275D01*
Y15679D01*
X9529D01*
X9829Y15379D01*
Y15039D01*
X9684D01*
Y14506D01*
X10316D01*
Y15039D01*
X10171D01*
Y15450D01*
X10158Y15516D01*
X10121Y15571D01*
X9721Y15971D01*
X9666Y16008D01*
X9600Y16021D01*
X9275D01*
Y16225D01*
D02*
G37*
G36*
X21925Y14625D02*
X21175D01*
Y14433D01*
X20616D01*
Y14539D01*
X19984D01*
Y14006D01*
X20616D01*
Y14090D01*
X21175D01*
Y13875D01*
X21925D01*
Y14625D01*
D02*
G37*
G36*
X32071Y24959D02*
X31946Y24947D01*
X31825Y24910D01*
X31714Y24851D01*
X31616Y24771D01*
X31536Y24673D01*
X31477Y24562D01*
X31458Y24500D01*
X25000D01*
X24127Y23627D01*
X24174Y14276D01*
X24750Y13700D01*
X25708D01*
X25879Y13529D01*
X25934Y13492D01*
X26000Y13479D01*
X26261D01*
Y13334D01*
X26794D01*
Y13700D01*
X27206D01*
Y13334D01*
X27739D01*
Y13700D01*
X32050D01*
X32750Y14400D01*
Y23650D01*
X32532Y23868D01*
X32606Y23958D01*
X32666Y24069D01*
X32703Y24190D01*
X32715Y24316D01*
X32703Y24441D01*
X32666Y24562D01*
X32606Y24673D01*
X32526Y24771D01*
X32429Y24851D01*
X32318Y24910D01*
X32197Y24947D01*
X32071Y24959D01*
D02*
G37*
G36*
X6950Y16064D02*
X6456D01*
Y15688D01*
X6555D01*
Y13689D01*
X6434D01*
Y13156D01*
X7066D01*
Y13689D01*
X6898D01*
Y15688D01*
X6950D01*
Y16064D01*
D02*
G37*
G36*
X20616Y13594D02*
X19984D01*
Y13499D01*
X15978D01*
X15912Y13486D01*
X15856Y13449D01*
X11104Y8697D01*
X11094Y8701D01*
X11000Y8713D01*
X10906Y8701D01*
X10818Y8664D01*
X10743Y8607D01*
X10686Y8532D01*
X10649Y8444D01*
X10637Y8350D01*
X10649Y8256D01*
X10686Y8168D01*
X10743Y8093D01*
X10818Y8036D01*
X10906Y7999D01*
X11000Y7987D01*
X11094Y7999D01*
X11182Y8036D01*
X11257Y8093D01*
X11314Y8168D01*
X11351Y8256D01*
X11363Y8350D01*
X11351Y8444D01*
X11347Y8454D01*
X16049Y13156D01*
X19984D01*
Y13061D01*
X20616D01*
Y13594D01*
D02*
G37*
G36*
X6066Y14344D02*
X5434D01*
Y13811D01*
X5579D01*
Y13567D01*
X5483D01*
Y13033D01*
X6017D01*
Y13567D01*
X5921D01*
Y13811D01*
X6066D01*
Y14344D01*
D02*
G37*
G36*
X7900Y13228D02*
X7802Y13215D01*
X7711Y13178D01*
X7633Y13117D01*
X7572Y13039D01*
X7535Y12948D01*
X7522Y12850D01*
X7525Y12829D01*
X7345Y12649D01*
X7066D01*
Y12744D01*
X6434D01*
Y12211D01*
X7066D01*
Y12306D01*
X7416D01*
X7481Y12319D01*
X7537Y12356D01*
X7706Y12526D01*
X7711Y12522D01*
X7802Y12485D01*
X7900Y12472D01*
X7998Y12485D01*
X8089Y12522D01*
X8167Y12583D01*
X8228Y12661D01*
X8265Y12752D01*
X8278Y12850D01*
X8265Y12948D01*
X8228Y13039D01*
X8167Y13117D01*
X8089Y13178D01*
X7998Y13215D01*
X7900Y13228D01*
D02*
G37*
G36*
X30350Y11622D02*
X30237Y11607D01*
X30131Y11563D01*
X30041Y11494D01*
X29971Y11403D01*
X29927Y11298D01*
X29920Y11239D01*
X28527D01*
X28525Y11240D01*
X27875D01*
X27873Y11239D01*
X27418D01*
X27352Y11226D01*
X27297Y11189D01*
X27029Y10921D01*
X26992Y10866D01*
X26979Y10800D01*
Y9800D01*
X26962D01*
Y9306D01*
X27338D01*
Y9800D01*
X27321D01*
Y10729D01*
X27489Y10896D01*
X27821D01*
Y10753D01*
X27837Y10714D01*
X27875Y10699D01*
X28102D01*
X28140Y10714D01*
X28156Y10753D01*
Y10895D01*
X28244D01*
Y10753D01*
X28260Y10714D01*
X28298Y10699D01*
X28525D01*
X28563Y10714D01*
X28579Y10753D01*
Y10896D01*
X30024D01*
X30041Y10875D01*
X30131Y10805D01*
X30237Y10762D01*
X30350Y10747D01*
X30463Y10762D01*
X30569Y10805D01*
X30659Y10875D01*
X30729Y10965D01*
X30773Y11071D01*
X30788Y11184D01*
X30773Y11298D01*
X30729Y11403D01*
X30659Y11494D01*
X30569Y11563D01*
X30463Y11607D01*
X30350Y11622D01*
D02*
G37*
G36*
X8900Y13228D02*
X8802Y13215D01*
X8711Y13178D01*
X8633Y13117D01*
X8572Y13039D01*
X8535Y12948D01*
X8522Y12850D01*
X8535Y12752D01*
X8572Y12661D01*
X8633Y12583D01*
X8648Y12570D01*
Y11654D01*
X7705Y10711D01*
X5483D01*
X5463Y10758D01*
X5928Y11222D01*
X5983Y11304D01*
X6002Y11400D01*
Y12246D01*
X6017D01*
Y12779D01*
X5483D01*
Y12246D01*
X5498D01*
Y11504D01*
X4705Y10711D01*
X3910D01*
X3813Y10692D01*
X3732Y10638D01*
X3000Y9906D01*
X2297Y10609D01*
X2215Y10664D01*
X2119Y10683D01*
X1450D01*
X681Y11452D01*
Y11904D01*
X528D01*
Y12456D01*
X552Y12466D01*
X620Y12518D01*
X673Y12586D01*
X705Y12665D01*
X717Y12750D01*
X705Y12835D01*
X673Y12914D01*
X620Y12982D01*
X552Y13034D01*
X473Y13067D01*
X388Y13078D01*
X303Y13067D01*
X224Y13034D01*
X156Y12982D01*
X104Y12914D01*
X71Y12835D01*
X60Y12750D01*
X64Y12721D01*
X44Y12692D01*
X25Y12596D01*
Y11904D01*
X-128D01*
Y11096D01*
X325D01*
X1168Y10253D01*
X1249Y10199D01*
X1346Y10179D01*
X2015D01*
X2648Y9546D01*
X2660Y9459D01*
X2695Y9374D01*
X2748Y9304D01*
Y8611D01*
X2743Y8607D01*
X2686Y8532D01*
X2649Y8444D01*
X2637Y8350D01*
X2649Y8256D01*
X2686Y8168D01*
X2743Y8093D01*
X2818Y8036D01*
X2906Y7999D01*
X3000Y7987D01*
X3094Y7999D01*
X3182Y8036D01*
X3257Y8093D01*
X3314Y8168D01*
X3351Y8256D01*
X3363Y8350D01*
X3351Y8444D01*
X3314Y8532D01*
X3257Y8607D01*
X3252Y8611D01*
Y9304D01*
X3305Y9374D01*
X3340Y9459D01*
X3352Y9546D01*
X4014Y10208D01*
X7810D01*
X7906Y10227D01*
X7988Y10282D01*
X9078Y11372D01*
X9133Y11454D01*
X9152Y11550D01*
X9152Y11550D01*
Y12570D01*
X9167Y12583D01*
X9228Y12661D01*
X9265Y12752D01*
X9278Y12850D01*
X9265Y12948D01*
X9228Y13039D01*
X9167Y13117D01*
X9089Y13178D01*
X8998Y13215D01*
X8900Y13228D01*
D02*
G37*
G36*
X25700Y12028D02*
X25602Y12015D01*
X25511Y11978D01*
X25433Y11917D01*
X25372Y11839D01*
X25335Y11748D01*
X25322Y11650D01*
X25335Y11552D01*
X25372Y11461D01*
X25433Y11383D01*
X25511Y11322D01*
X25542Y11309D01*
Y11116D01*
X25406D01*
Y10484D01*
X25939D01*
Y10629D01*
X26068D01*
X26072Y10622D01*
X26154Y10567D01*
X26250Y10548D01*
X26346Y10567D01*
X26428Y10622D01*
X26483Y10704D01*
X26502Y10800D01*
X26483Y10896D01*
X26428Y10978D01*
X26346Y11033D01*
X26250Y11052D01*
X26154Y11033D01*
X26072Y10978D01*
X26068Y10971D01*
X25939D01*
Y11116D01*
X25885D01*
Y11321D01*
X25889Y11322D01*
X25967Y11383D01*
X26028Y11461D01*
X26065Y11552D01*
X26078Y11650D01*
X26065Y11748D01*
X26028Y11839D01*
X25967Y11917D01*
X25889Y11978D01*
X25798Y12015D01*
X25700Y12028D01*
D02*
G37*
G36*
X24994Y11116D02*
X24461D01*
Y10484D01*
X24567D01*
Y10371D01*
X24517Y10296D01*
X24498Y10200D01*
X24517Y10104D01*
X24572Y10022D01*
X24654Y9967D01*
X24750Y9948D01*
X24846Y9967D01*
X24928Y10022D01*
X24983Y10104D01*
X25002Y10200D01*
X24983Y10296D01*
X24928Y10378D01*
X24910Y10390D01*
Y10484D01*
X24994D01*
Y11116D01*
D02*
G37*
G36*
X22100Y10203D02*
X21800D01*
X21723Y10188D01*
X21656Y10144D01*
X21612Y10077D01*
X21601Y10021D01*
X20900D01*
X20834Y10008D01*
X20779Y9971D01*
X20656Y9848D01*
X19474D01*
Y9855D01*
X18960D01*
Y9848D01*
X17840D01*
Y9855D01*
X17326D01*
Y9848D01*
X16877D01*
X16811Y9835D01*
X16756Y9798D01*
X16529Y9571D01*
X16492Y9516D01*
X16479Y9450D01*
Y8462D01*
X16429Y8440D01*
X16410Y8457D01*
Y8840D01*
X16397Y8906D01*
X16360Y8961D01*
X16358Y8963D01*
Y9057D01*
X16355Y9074D01*
Y9324D01*
X15999D01*
Y8810D01*
X16039D01*
X16065Y8771D01*
X16067Y8769D01*
Y8489D01*
X14471D01*
X14461Y8539D01*
X14476Y8545D01*
X14549Y8601D01*
X14605Y8674D01*
X14640Y8759D01*
X14652Y8850D01*
X14640Y8941D01*
X14605Y9026D01*
X14549Y9099D01*
X14476Y9155D01*
X14391Y9190D01*
X14300Y9202D01*
X14209Y9190D01*
X14124Y9155D01*
X14051Y9099D01*
X13995Y9026D01*
X13993Y9021D01*
X12750D01*
X12684Y9008D01*
X12629Y8971D01*
X11479Y7821D01*
X6771D01*
X6347Y8246D01*
X6351Y8256D01*
X6363Y8350D01*
X6351Y8444D01*
X6314Y8532D01*
X6257Y8607D01*
X6182Y8664D01*
X6094Y8701D01*
X6000Y8713D01*
X5906Y8701D01*
X5818Y8664D01*
X5743Y8607D01*
X5686Y8532D01*
X5649Y8444D01*
X5637Y8350D01*
X5649Y8256D01*
X5686Y8168D01*
X5743Y8093D01*
X5818Y8036D01*
X5906Y7999D01*
X6000Y7987D01*
X6094Y7999D01*
X6104Y8003D01*
X6526Y7581D01*
X6507Y7535D01*
X5057D01*
X4347Y8246D01*
X4351Y8256D01*
X4363Y8350D01*
X4351Y8444D01*
X4314Y8532D01*
X4257Y8607D01*
X4182Y8664D01*
X4094Y8701D01*
X4000Y8713D01*
X3906Y8701D01*
X3818Y8664D01*
X3743Y8607D01*
X3686Y8532D01*
X3649Y8444D01*
X3637Y8350D01*
X3649Y8256D01*
X3686Y8168D01*
X3743Y8093D01*
X3818Y8036D01*
X3906Y7999D01*
X4000Y7987D01*
X4094Y7999D01*
X4104Y8003D01*
X4865Y7243D01*
X4921Y7205D01*
X4986Y7192D01*
X11669D01*
X11734Y7205D01*
X11790Y7243D01*
X12693Y8146D01*
X14035D01*
X14045Y8117D01*
X14049Y8096D01*
X13995Y8026D01*
X13960Y7941D01*
X13948Y7850D01*
X13960Y7759D01*
X13995Y7674D01*
X14051Y7601D01*
X14124Y7545D01*
X14209Y7510D01*
X14300Y7498D01*
X14391Y7510D01*
X14476Y7545D01*
X14549Y7601D01*
X14605Y7674D01*
X14640Y7759D01*
X14652Y7850D01*
X14640Y7941D01*
X14605Y8026D01*
X14551Y8096D01*
X14555Y8117D01*
X14565Y8146D01*
X16007D01*
X16017Y8139D01*
X16042Y8102D01*
X16048Y8098D01*
Y8033D01*
X16018Y7988D01*
X16005Y7922D01*
Y7690D01*
X15999D01*
Y7176D01*
X16355D01*
Y7690D01*
X16348D01*
Y7855D01*
X16378Y7900D01*
X16391Y7965D01*
Y8098D01*
X16398Y8102D01*
X16429Y8148D01*
X16479Y8133D01*
Y6971D01*
X15942Y6434D01*
X12913D01*
X12847Y6421D01*
X12792Y6384D01*
X8104Y1697D01*
X8094Y1701D01*
X8000Y1713D01*
X7906Y1701D01*
X7818Y1664D01*
X7743Y1607D01*
X7686Y1532D01*
X7649Y1444D01*
X7637Y1350D01*
X7649Y1256D01*
X7686Y1168D01*
X7743Y1093D01*
X7818Y1036D01*
X7906Y999D01*
X8000Y987D01*
X8094Y999D01*
X8182Y1036D01*
X8257Y1093D01*
X8314Y1168D01*
X8351Y1256D01*
X8363Y1350D01*
X8351Y1444D01*
X8347Y1454D01*
X12984Y6092D01*
X13284D01*
X13303Y6045D01*
X9879Y2621D01*
X9842Y2566D01*
X9829Y2500D01*
Y1669D01*
X9818Y1664D01*
X9743Y1607D01*
X9686Y1532D01*
X9649Y1444D01*
X9637Y1350D01*
X9649Y1256D01*
X9686Y1168D01*
X9743Y1093D01*
X9818Y1036D01*
X9906Y999D01*
X10000Y987D01*
X10094Y999D01*
X10182Y1036D01*
X10257Y1093D01*
X10314Y1168D01*
X10351Y1256D01*
X10363Y1350D01*
X10351Y1444D01*
X10314Y1532D01*
X10257Y1607D01*
X10182Y1664D01*
X10171Y1669D01*
Y2429D01*
X13548Y5805D01*
X17326D01*
Y5799D01*
X17840D01*
Y5805D01*
X18960D01*
Y5799D01*
X19474D01*
Y5805D01*
X21077D01*
X21142Y5818D01*
X21198Y5856D01*
X21854Y6512D01*
X21859Y6510D01*
X21950Y6498D01*
X22041Y6510D01*
X22126Y6545D01*
X22199Y6601D01*
X22255Y6674D01*
X22290Y6759D01*
X22302Y6850D01*
X22290Y6941D01*
X22255Y7026D01*
X22199Y7099D01*
X22126Y7155D01*
X22041Y7190D01*
X21950Y7202D01*
X21859Y7190D01*
X21774Y7155D01*
X21701Y7099D01*
X21645Y7026D01*
X21610Y6941D01*
X21598Y6850D01*
X21610Y6759D01*
X21612Y6754D01*
X21006Y6148D01*
X19474D01*
Y6155D01*
X18960D01*
Y6148D01*
X17840D01*
Y6155D01*
X17326D01*
Y6148D01*
X16206D01*
X16187Y6194D01*
X16771Y6779D01*
X16808Y6834D01*
X16821Y6900D01*
Y9379D01*
X16948Y9505D01*
X17326D01*
Y9499D01*
X17840D01*
Y9505D01*
X18960D01*
Y9499D01*
X19474D01*
Y9505D01*
X20727D01*
X20792Y9518D01*
X20848Y9556D01*
X20971Y9679D01*
X21601D01*
X21612Y9623D01*
X21656Y9556D01*
X21723Y9512D01*
X21800Y9497D01*
X22100D01*
X22177Y9512D01*
X22244Y9556D01*
X22288Y9623D01*
X22303Y9700D01*
Y10000D01*
X22288Y10077D01*
X22244Y10144D01*
X22177Y10188D01*
X22100Y10203D01*
D02*
G37*
G36*
X28525Y9901D02*
X28298D01*
X28260Y9886D01*
X28244Y9847D01*
Y9705D01*
X28156D01*
Y9847D01*
X28140Y9886D01*
X28102Y9901D01*
X27875D01*
X27837Y9886D01*
X27821Y9847D01*
Y9418D01*
X27825Y9408D01*
Y9364D01*
X27875D01*
X27875Y9364D01*
X28053D01*
X28069Y9361D01*
X29911D01*
Y9024D01*
X29930Y8929D01*
X29984Y8849D01*
X30064Y8796D01*
X30158Y8777D01*
X30216D01*
Y7400D01*
X30165Y7360D01*
X30106Y7284D01*
X30069Y7195D01*
X30057Y7100D01*
X30069Y7005D01*
X30106Y6916D01*
X30165Y6840D01*
X30241Y6781D01*
X30330Y6744D01*
X30425Y6732D01*
X30520Y6744D01*
X30609Y6781D01*
X30685Y6840D01*
X30744Y6916D01*
X30780Y7005D01*
X30793Y7100D01*
X30780Y7195D01*
X30744Y7284D01*
X30685Y7360D01*
X30609Y7419D01*
X30559Y7440D01*
Y8781D01*
X30636Y8796D01*
X30716Y8849D01*
X30770Y8929D01*
X30789Y9024D01*
Y9408D01*
X30770Y9502D01*
X30716Y9582D01*
X30636Y9636D01*
X30542Y9654D01*
X30158D01*
X30154Y9654D01*
X30099Y9691D01*
X30033Y9704D01*
X28579D01*
Y9847D01*
X28563Y9886D01*
X28525Y9901D01*
D02*
G37*
G36*
X10316Y14094D02*
X9684D01*
Y13561D01*
X9829D01*
Y9521D01*
X9018Y8711D01*
X9000Y8713D01*
X8906Y8701D01*
X8818Y8664D01*
X8743Y8607D01*
X8686Y8532D01*
X8649Y8444D01*
X8637Y8350D01*
X8649Y8256D01*
X8686Y8168D01*
X8743Y8093D01*
X8818Y8036D01*
X8906Y7999D01*
X9000Y7987D01*
X9094Y7999D01*
X9182Y8036D01*
X9257Y8093D01*
X9314Y8168D01*
X9351Y8256D01*
X9363Y8350D01*
X9351Y8444D01*
X9317Y8525D01*
X10121Y9329D01*
X10158Y9384D01*
X10171Y9450D01*
Y13561D01*
X10316D01*
Y14094D01*
D02*
G37*
G36*
X13394Y15416D02*
X12861D01*
Y14784D01*
X12956D01*
Y11549D01*
X10104Y8697D01*
X10094Y8701D01*
X10000Y8713D01*
X9906Y8701D01*
X9818Y8664D01*
X9743Y8607D01*
X9686Y8532D01*
X9649Y8444D01*
X9637Y8350D01*
X9649Y8256D01*
X9686Y8168D01*
X9743Y8093D01*
X9818Y8036D01*
X9906Y7999D01*
X10000Y7987D01*
X10094Y7999D01*
X10182Y8036D01*
X10257Y8093D01*
X10314Y8168D01*
X10351Y8256D01*
X10363Y8350D01*
X10351Y8444D01*
X10347Y8454D01*
X13249Y11356D01*
X13286Y11412D01*
X13299Y11478D01*
Y14784D01*
X13394D01*
Y15416D01*
D02*
G37*
G36*
X19955Y9324D02*
X19599D01*
Y8810D01*
X19605D01*
Y7690D01*
X19599D01*
Y7176D01*
X19955D01*
Y7447D01*
X21186Y8679D01*
X21643D01*
X21645Y8674D01*
X21701Y8601D01*
X21774Y8545D01*
X21859Y8510D01*
X21950Y8498D01*
X22041Y8510D01*
X22126Y8545D01*
X22199Y8601D01*
X22255Y8674D01*
X22290Y8759D01*
X22302Y8850D01*
X22290Y8941D01*
X22255Y9026D01*
X22199Y9099D01*
X22126Y9155D01*
X22041Y9190D01*
X21950Y9202D01*
X21859Y9190D01*
X21774Y9155D01*
X21701Y9099D01*
X21645Y9026D01*
X21643Y9021D01*
X21115D01*
X21049Y9008D01*
X20994Y8971D01*
X19994Y7972D01*
X19948Y7991D01*
Y8810D01*
X19955D01*
Y9324D01*
D02*
G37*
G36*
X26467Y9216D02*
X25933D01*
Y8584D01*
X26467D01*
Y8660D01*
X26521D01*
X26588Y8593D01*
Y8400D01*
X26964D01*
Y8894D01*
X26772D01*
X26713Y8952D01*
X26658Y8989D01*
X26592Y9003D01*
X26467D01*
Y9216D01*
D02*
G37*
G36*
X8000Y8713D02*
X7906Y8701D01*
X7818Y8664D01*
X7743Y8607D01*
X7686Y8532D01*
X7649Y8444D01*
X7637Y8350D01*
X7649Y8256D01*
X7686Y8168D01*
X7743Y8093D01*
X7818Y8036D01*
X7906Y7999D01*
X8000Y7987D01*
X8094Y7999D01*
X8182Y8036D01*
X8257Y8093D01*
X8314Y8168D01*
X8351Y8256D01*
X8363Y8350D01*
X8351Y8444D01*
X8314Y8532D01*
X8257Y8607D01*
X8182Y8664D01*
X8094Y8701D01*
X8000Y8713D01*
D02*
G37*
G36*
X5150Y9903D02*
X4850D01*
X4773Y9888D01*
X4706Y9844D01*
X4662Y9777D01*
X4647Y9700D01*
Y9400D01*
X4662Y9323D01*
X4706Y9256D01*
X4773Y9212D01*
X4850Y9197D01*
X5150D01*
X5227Y9212D01*
X5294Y9256D01*
X5338Y9323D01*
X5349Y9379D01*
X5729D01*
X6653Y8454D01*
X6649Y8444D01*
X6637Y8350D01*
X6649Y8256D01*
X6686Y8168D01*
X6743Y8093D01*
X6818Y8036D01*
X6906Y7999D01*
X7000Y7987D01*
X7094Y7999D01*
X7182Y8036D01*
X7257Y8093D01*
X7314Y8168D01*
X7351Y8256D01*
X7363Y8350D01*
X7351Y8444D01*
X7314Y8532D01*
X7257Y8607D01*
X7182Y8664D01*
X7094Y8701D01*
X7000Y8713D01*
X6906Y8701D01*
X6896Y8697D01*
X5921Y9671D01*
X5866Y9708D01*
X5800Y9721D01*
X5349D01*
X5338Y9777D01*
X5294Y9844D01*
X5227Y9888D01*
X5150Y9903D01*
D02*
G37*
G36*
X4000Y9902D02*
X3909Y9890D01*
X3824Y9855D01*
X3751Y9799D01*
X3695Y9726D01*
X3660Y9641D01*
X3648Y9550D01*
X3660Y9459D01*
X3695Y9374D01*
X3751Y9301D01*
X3824Y9245D01*
X3909Y9210D01*
X4000Y9198D01*
X4012Y9199D01*
X4684Y8528D01*
X4649Y8444D01*
X4637Y8350D01*
X4649Y8256D01*
X4686Y8168D01*
X4743Y8093D01*
X4818Y8036D01*
X4906Y7999D01*
X5000Y7987D01*
X5094Y7999D01*
X5182Y8036D01*
X5257Y8093D01*
X5314Y8168D01*
X5351Y8256D01*
X5363Y8350D01*
X5351Y8444D01*
X5314Y8532D01*
X5257Y8607D01*
X5182Y8664D01*
X5094Y8701D01*
X5000Y8713D01*
X4985Y8711D01*
X4310Y9386D01*
X4340Y9459D01*
X4352Y9550D01*
X4340Y9641D01*
X4305Y9726D01*
X4249Y9799D01*
X4176Y9855D01*
X4091Y9890D01*
X4000Y9902D01*
D02*
G37*
G36*
X21950Y8202D02*
X21859Y8190D01*
X21774Y8155D01*
X21701Y8099D01*
X21645Y8026D01*
X21610Y7941D01*
X21598Y7850D01*
X21610Y7759D01*
X21645Y7674D01*
X21701Y7601D01*
X21774Y7545D01*
X21859Y7510D01*
X21950Y7498D01*
X22041Y7510D01*
X22126Y7545D01*
X22199Y7601D01*
X22255Y7674D01*
X22290Y7759D01*
X22302Y7850D01*
X22290Y7941D01*
X22255Y8026D01*
X22199Y8099D01*
X22126Y8155D01*
X22041Y8190D01*
X21950Y8202D01*
D02*
G37*
G36*
X31425Y7468D02*
X31330Y7456D01*
X31241Y7419D01*
X31165Y7360D01*
X31106Y7284D01*
X31069Y7195D01*
X31057Y7100D01*
X31069Y7005D01*
X31106Y6916D01*
X31165Y6840D01*
X31241Y6781D01*
X31330Y6744D01*
X31425Y6732D01*
X31520Y6744D01*
X31609Y6781D01*
X31685Y6840D01*
X31744Y6916D01*
X31780Y7005D01*
X31793Y7100D01*
X31780Y7195D01*
X31744Y7284D01*
X31685Y7360D01*
X31609Y7419D01*
X31520Y7456D01*
X31425Y7468D01*
D02*
G37*
G36*
X16866Y5489D02*
X16234D01*
Y5404D01*
X16089D01*
Y5479D01*
X15556D01*
Y4848D01*
X16089D01*
Y4981D01*
X16234D01*
Y4956D01*
X16866D01*
Y4981D01*
X16961D01*
Y4848D01*
X17016D01*
Y4484D01*
X17032Y4404D01*
X17078Y4335D01*
X17262Y4150D01*
X17331Y4105D01*
X17412Y4088D01*
X18479D01*
X18754Y3813D01*
X18735Y3767D01*
X18184D01*
Y3712D01*
X16616D01*
X16535Y3695D01*
X16466Y3650D01*
X15155Y2339D01*
X14824D01*
X14729Y2320D01*
X14649Y2266D01*
X14596Y2186D01*
X14577Y2092D01*
Y1708D01*
X14596Y1614D01*
X14649Y1534D01*
X14729Y1480D01*
X14824Y1461D01*
X15208D01*
X15302Y1480D01*
X15382Y1534D01*
X15436Y1614D01*
X15454Y1708D01*
Y2039D01*
X16703Y3288D01*
X18184D01*
Y3233D01*
X18816D01*
X18816Y3233D01*
Y3233D01*
X18850Y3201D01*
X18850Y3200D01*
X18919Y3155D01*
X19000Y3138D01*
X20000D01*
X20081Y3155D01*
X20150Y3200D01*
X20195Y3269D01*
X20212Y3350D01*
X20195Y3431D01*
X20150Y3500D01*
X20081Y3545D01*
X20000Y3562D01*
X19099D01*
X19076Y3591D01*
X19098Y3638D01*
X20000D01*
X20081Y3655D01*
X20150Y3700D01*
X20195Y3769D01*
X20212Y3850D01*
X20195Y3931D01*
X20150Y4000D01*
X20081Y4045D01*
X20000Y4062D01*
X19104D01*
X18716Y4450D01*
X18647Y4495D01*
X18566Y4512D01*
X17500D01*
X17439Y4572D01*
Y4848D01*
X17494D01*
Y5479D01*
X16961D01*
Y5404D01*
X16866D01*
Y5489D01*
D02*
G37*
G36*
X30350Y5772D02*
X30237Y5757D01*
X30131Y5713D01*
X30041Y5644D01*
X29996Y5586D01*
X29484D01*
X29388Y5567D01*
X29306Y5512D01*
X28218Y4424D01*
X24473D01*
X24385Y4512D01*
Y4731D01*
X23695D01*
Y4656D01*
X22494D01*
X22414Y4640D01*
X22345Y4594D01*
X22312Y4562D01*
X21200D01*
X21119Y4545D01*
X21050Y4500D01*
X21005Y4431D01*
X20988Y4350D01*
X21005Y4269D01*
X21050Y4200D01*
X21119Y4155D01*
X21200Y4138D01*
X22400D01*
X22481Y4155D01*
X22550Y4200D01*
X22582Y4233D01*
X23695D01*
Y4158D01*
X24027D01*
X24191Y3994D01*
X24273Y3940D01*
X24369Y3921D01*
X28322D01*
X28347Y3926D01*
X28366D01*
Y3929D01*
X28419Y3940D01*
X28500Y3994D01*
X29588Y5083D01*
X29996D01*
X30041Y5025D01*
X30131Y4955D01*
X30237Y4912D01*
X30350Y4897D01*
X30463Y4912D01*
X30569Y4955D01*
X30659Y5025D01*
X30729Y5115D01*
X30773Y5221D01*
X30788Y5334D01*
X30773Y5448D01*
X30729Y5553D01*
X30659Y5644D01*
X30569Y5713D01*
X30463Y5757D01*
X30350Y5772D01*
D02*
G37*
G36*
X15144Y5479D02*
X14611D01*
Y5415D01*
X14163D01*
X14067Y5396D01*
X13985Y5341D01*
X13472Y4828D01*
X13417Y4746D01*
X13398Y4650D01*
Y1504D01*
X12646Y752D01*
X3504D01*
X3270Y986D01*
Y1110D01*
X3314Y1168D01*
X3351Y1256D01*
X3363Y1350D01*
X3351Y1444D01*
X3314Y1532D01*
X3257Y1607D01*
X3182Y1664D01*
X3094Y1701D01*
X3000Y1713D01*
X2906Y1701D01*
X2818Y1664D01*
X2743Y1607D01*
X2686Y1532D01*
X2649Y1444D01*
X2637Y1350D01*
X2649Y1256D01*
X2686Y1168D01*
X2743Y1093D01*
X2766Y1075D01*
Y882D01*
X2786Y786D01*
X2840Y704D01*
X3222Y322D01*
X3304Y267D01*
X3400Y248D01*
X16754D01*
X16850Y267D01*
X16932Y322D01*
X17162Y553D01*
X17217Y634D01*
X17236Y731D01*
Y1546D01*
X17294Y1591D01*
X17338Y1648D01*
X21900D01*
X21996Y1667D01*
X22078Y1722D01*
X22504Y2148D01*
X23695D01*
Y2114D01*
X24385D01*
Y2148D01*
X26215D01*
Y1700D01*
X26905D01*
Y2229D01*
X27068D01*
X27072Y2222D01*
X27154Y2167D01*
X27250Y2148D01*
X27346Y2167D01*
X27428Y2222D01*
X27483Y2304D01*
X27502Y2400D01*
X27483Y2496D01*
X27428Y2578D01*
X27346Y2633D01*
X27250Y2652D01*
X27154Y2633D01*
X27072Y2578D01*
X27068Y2571D01*
X26905D01*
Y3100D01*
X26215D01*
Y2652D01*
X24385D01*
Y2686D01*
X23695D01*
Y2652D01*
X22400D01*
X22304Y2633D01*
X22222Y2578D01*
X21796Y2152D01*
X17338D01*
X17294Y2209D01*
X17203Y2279D01*
X17098Y2323D01*
X16984Y2338D01*
X16871Y2323D01*
X16765Y2279D01*
X16675Y2209D01*
X16605Y2119D01*
X16562Y2013D01*
X16547Y1900D01*
X16562Y1787D01*
X16605Y1681D01*
X16675Y1591D01*
X16733Y1546D01*
Y835D01*
X16649Y752D01*
X13423D01*
X13404Y798D01*
X13828Y1222D01*
X13883Y1304D01*
X13902Y1400D01*
Y4546D01*
X14268Y4912D01*
X14611D01*
Y4848D01*
X15144D01*
Y5479D01*
D02*
G37*
G36*
X18439D02*
X17906D01*
Y4848D01*
X18439D01*
Y4952D01*
X18959D01*
X18990Y4931D01*
X19027Y4924D01*
X19363Y4588D01*
X19344Y4541D01*
X19281D01*
X19208Y4527D01*
X19146Y4485D01*
X19104Y4423D01*
X19090Y4350D01*
X19104Y4277D01*
X19146Y4215D01*
X19208Y4173D01*
X19281Y4159D01*
X19990D01*
X20063Y4173D01*
X20125Y4215D01*
X20167Y4277D01*
X20181Y4350D01*
X20167Y4423D01*
X20125Y4485D01*
X20063Y4527D01*
X19990Y4541D01*
X19847D01*
Y4615D01*
X19831Y4696D01*
X19785Y4764D01*
X19326Y5223D01*
X19319Y5260D01*
X19265Y5341D01*
X19183Y5396D01*
X19087Y5415D01*
X18990Y5396D01*
X18959Y5375D01*
X18439D01*
Y5479D01*
D02*
G37*
G36*
X21919Y4041D02*
X21210D01*
X21137Y4027D01*
X21075Y3985D01*
X21033Y3923D01*
X21019Y3850D01*
X21033Y3777D01*
X21075Y3715D01*
X21137Y3673D01*
X21210Y3659D01*
X21919D01*
X21992Y3673D01*
X22054Y3715D01*
X22096Y3777D01*
X22110Y3850D01*
X22096Y3923D01*
X22054Y3985D01*
X21992Y4027D01*
X21919Y4041D01*
D02*
G37*
G36*
Y3541D02*
X21210D01*
X21137Y3527D01*
X21075Y3485D01*
X21033Y3423D01*
X21019Y3350D01*
X21033Y3277D01*
X21075Y3215D01*
X21137Y3173D01*
X21210Y3159D01*
X21919D01*
X21992Y3173D01*
X22054Y3215D01*
X22096Y3277D01*
X22110Y3350D01*
X22096Y3423D01*
X22054Y3485D01*
X21992Y3527D01*
X21919Y3541D01*
D02*
G37*
G36*
Y3041D02*
X21210D01*
X21137Y3027D01*
X21075Y2985D01*
X21033Y2923D01*
X21019Y2850D01*
X21033Y2777D01*
X21075Y2715D01*
X21137Y2673D01*
X21210Y2659D01*
X21919D01*
X21992Y2673D01*
X22054Y2715D01*
X22096Y2777D01*
X22110Y2850D01*
X22096Y2923D01*
X22054Y2985D01*
X21992Y3027D01*
X21919Y3041D01*
D02*
G37*
G36*
X11000Y1713D02*
X10906Y1701D01*
X10818Y1664D01*
X10743Y1607D01*
X10686Y1532D01*
X10649Y1444D01*
X10637Y1350D01*
X10649Y1256D01*
X10686Y1168D01*
X10743Y1093D01*
X10818Y1036D01*
X10906Y999D01*
X11000Y987D01*
X11094Y999D01*
X11182Y1036D01*
X11257Y1093D01*
X11314Y1168D01*
X11351Y1256D01*
X11363Y1350D01*
X11351Y1444D01*
X11314Y1532D01*
X11257Y1607D01*
X11182Y1664D01*
X11094Y1701D01*
X11000Y1713D01*
D02*
G37*
G36*
X9000D02*
X8906Y1701D01*
X8818Y1664D01*
X8743Y1607D01*
X8686Y1532D01*
X8649Y1444D01*
X8637Y1350D01*
X8649Y1256D01*
X8686Y1168D01*
X8743Y1093D01*
X8818Y1036D01*
X8906Y999D01*
X9000Y987D01*
X9094Y999D01*
X9182Y1036D01*
X9257Y1093D01*
X9314Y1168D01*
X9351Y1256D01*
X9363Y1350D01*
X9351Y1444D01*
X9314Y1532D01*
X9257Y1607D01*
X9182Y1664D01*
X9094Y1701D01*
X9000Y1713D01*
D02*
G37*
G36*
X7000D02*
X6906Y1701D01*
X6818Y1664D01*
X6743Y1607D01*
X6686Y1532D01*
X6649Y1444D01*
X6637Y1350D01*
X6649Y1256D01*
X6686Y1168D01*
X6743Y1093D01*
X6818Y1036D01*
X6906Y999D01*
X7000Y987D01*
X7094Y999D01*
X7182Y1036D01*
X7257Y1093D01*
X7314Y1168D01*
X7351Y1256D01*
X7363Y1350D01*
X7351Y1444D01*
X7314Y1532D01*
X7257Y1607D01*
X7182Y1664D01*
X7094Y1701D01*
X7000Y1713D01*
D02*
G37*
G36*
X6000D02*
X5906Y1701D01*
X5818Y1664D01*
X5743Y1607D01*
X5686Y1532D01*
X5649Y1444D01*
X5637Y1350D01*
X5649Y1256D01*
X5686Y1168D01*
X5743Y1093D01*
X5818Y1036D01*
X5906Y999D01*
X6000Y987D01*
X6094Y999D01*
X6182Y1036D01*
X6257Y1093D01*
X6314Y1168D01*
X6351Y1256D01*
X6363Y1350D01*
X6351Y1444D01*
X6314Y1532D01*
X6257Y1607D01*
X6182Y1664D01*
X6094Y1701D01*
X6000Y1713D01*
D02*
G37*
G36*
X5000D02*
X4906Y1701D01*
X4818Y1664D01*
X4743Y1607D01*
X4686Y1532D01*
X4649Y1444D01*
X4637Y1350D01*
X4649Y1256D01*
X4686Y1168D01*
X4743Y1093D01*
X4818Y1036D01*
X4906Y999D01*
X5000Y987D01*
X5094Y999D01*
X5182Y1036D01*
X5257Y1093D01*
X5314Y1168D01*
X5351Y1256D01*
X5363Y1350D01*
X5351Y1444D01*
X5314Y1532D01*
X5257Y1607D01*
X5182Y1664D01*
X5094Y1701D01*
X5000Y1713D01*
D02*
G37*
G36*
X4000D02*
X3906Y1701D01*
X3818Y1664D01*
X3743Y1607D01*
X3686Y1532D01*
X3649Y1444D01*
X3637Y1350D01*
X3649Y1256D01*
X3686Y1168D01*
X3743Y1093D01*
X3818Y1036D01*
X3906Y999D01*
X4000Y987D01*
X4094Y999D01*
X4182Y1036D01*
X4257Y1093D01*
X4314Y1168D01*
X4351Y1256D01*
X4363Y1350D01*
X4351Y1444D01*
X4314Y1532D01*
X4257Y1607D01*
X4182Y1664D01*
X4094Y1701D01*
X4000Y1713D01*
D02*
G37*
G36*
X32071Y1478D02*
X31946Y1466D01*
X31825Y1429D01*
X31714Y1370D01*
X31616Y1290D01*
X31536Y1192D01*
X31477Y1081D01*
X31440Y960D01*
X31428Y835D01*
X31440Y709D01*
X31477Y588D01*
X31536Y477D01*
X31616Y380D01*
X31714Y299D01*
X31825Y240D01*
X31946Y203D01*
X32071Y191D01*
X32197Y203D01*
X32318Y240D01*
X32429Y299D01*
X32526Y380D01*
X32606Y477D01*
X32666Y588D01*
X32703Y709D01*
X32715Y835D01*
X32703Y960D01*
X32666Y1081D01*
X32606Y1192D01*
X32526Y1290D01*
X32429Y1370D01*
X32318Y1429D01*
X32197Y1466D01*
X32071Y1478D01*
D02*
G37*
G36*
X-1023D02*
X-1149Y1466D01*
X-1270Y1429D01*
X-1381Y1370D01*
X-1478Y1290D01*
X-1558Y1192D01*
X-1618Y1081D01*
X-1655Y960D01*
X-1667Y835D01*
X-1655Y709D01*
X-1618Y588D01*
X-1558Y477D01*
X-1478Y380D01*
X-1381Y299D01*
X-1270Y240D01*
X-1149Y203D01*
X-1023Y191D01*
X-898Y203D01*
X-777Y240D01*
X-666Y299D01*
X-568Y380D01*
X-488Y477D01*
X-429Y588D01*
X-392Y709D01*
X-380Y835D01*
X-392Y960D01*
X-429Y1081D01*
X-488Y1192D01*
X-568Y1290D01*
X-666Y1370D01*
X-777Y1429D01*
X-898Y1466D01*
X-1023Y1478D01*
D02*
G37*
%LPD*%
G36*
X16760Y19271D02*
X16533D01*
Y19467D01*
X16337D01*
Y19271D01*
X16110D01*
Y19700D01*
X16760D01*
Y19271D01*
D02*
G37*
G36*
Y17932D02*
X16110D01*
Y18365D01*
X16337D01*
Y18168D01*
X16533D01*
Y18365D01*
X16760D01*
Y17932D01*
D02*
G37*
G36*
X14450Y24300D02*
Y17850D01*
X14150Y17550D01*
X11400D01*
X11100Y17850D01*
Y24350D01*
X11400Y24650D01*
X14100D01*
X14450Y24300D01*
D02*
G37*
G36*
X28525Y10753D02*
X28298D01*
Y10950D01*
X28102D01*
Y10753D01*
X27875D01*
Y11186D01*
X28525D01*
Y10753D01*
D02*
G37*
G36*
X13995Y8674D02*
X14051Y8601D01*
X14124Y8545D01*
X14139Y8539D01*
X14129Y8489D01*
X12696D01*
X12677Y8535D01*
X12821Y8679D01*
X13993D01*
X13995Y8674D01*
D02*
G37*
G36*
X28525Y9418D02*
X27875D01*
Y9847D01*
X28102D01*
Y9650D01*
X28298D01*
Y9847D01*
X28525D01*
Y9418D01*
D02*
G37*
D20*
X28200Y9532D02*
D03*
Y11068D02*
D03*
X16435Y19585D02*
D03*
Y18050D02*
D03*
D23*
X15550Y15024D02*
D03*
Y16323D02*
D03*
D26*
X24040Y3306D02*
D03*
Y2400D02*
D03*
Y1494D02*
D03*
Y4444D02*
D03*
Y5350D02*
D03*
Y6256D02*
D03*
D27*
X26560Y2400D02*
D03*
Y5350D02*
D03*
D30*
X15300Y18050D02*
D03*
Y19845D02*
D03*
D31*
X19217Y5977D02*
D03*
X17583D02*
D03*
X19217Y6823D02*
D03*
X17583D02*
D03*
X19217Y9677D02*
D03*
X17583D02*
D03*
X19217Y10523D02*
D03*
X17583D02*
D03*
D32*
X16177Y7433D02*
D03*
Y9067D02*
D03*
X17023Y7433D02*
D03*
Y9067D02*
D03*
X19777Y7433D02*
D03*
Y9067D02*
D03*
X20623Y7433D02*
D03*
Y9067D02*
D03*
D33*
X17265Y17124D02*
D03*
Y16750D02*
D03*
Y16376D02*
D03*
X18205D02*
D03*
Y17124D02*
D03*
D35*
X21565Y2850D02*
D03*
Y3350D02*
D03*
Y3850D02*
D03*
Y4350D02*
D03*
X19635Y2850D02*
D03*
Y3350D02*
D03*
Y3850D02*
D03*
Y4350D02*
D03*
D64*
X4388Y12750D02*
D03*
D65*
X388D02*
D03*
D66*
X4388Y16750D02*
D03*
Y19750D02*
D03*
D71*
X25255Y8900D02*
D03*
X26200D02*
D03*
X25672Y10800D02*
D03*
X24728D02*
D03*
X18207Y18050D02*
D03*
X17263D02*
D03*
X18207Y19600D02*
D03*
X17263D02*
D03*
X14072Y15100D02*
D03*
X13128D02*
D03*
X26528Y13650D02*
D03*
X27472D02*
D03*
X14878Y5163D02*
D03*
X15822D02*
D03*
X17228D02*
D03*
X18172D02*
D03*
D72*
X26776Y8647D02*
D03*
X27524D02*
D03*
X27150Y9553D02*
D03*
D73*
X18500Y2555D02*
D03*
Y3500D02*
D03*
X6750Y12478D02*
D03*
Y13422D02*
D03*
X10000Y14772D02*
D03*
Y13828D02*
D03*
X5750Y14078D02*
D03*
Y15022D02*
D03*
X23500Y17228D02*
D03*
Y18172D02*
D03*
X20070Y18972D02*
D03*
Y18028D02*
D03*
X20300Y13328D02*
D03*
Y14272D02*
D03*
X16550Y5222D02*
D03*
Y4278D02*
D03*
D74*
X26522Y7100D02*
D03*
X25578D02*
D03*
D75*
X5750Y12513D02*
D03*
Y13300D02*
D03*
X20070Y17144D02*
D03*
Y16356D02*
D03*
D76*
X5797Y16250D02*
D03*
X6703Y16624D02*
D03*
Y15876D02*
D03*
X22453Y18476D02*
D03*
Y19224D02*
D03*
X21547Y18850D02*
D03*
D77*
X12885Y18948D02*
D03*
D78*
X14715Y15986D02*
D03*
Y15041D02*
D03*
X18222Y14775D02*
D03*
Y15720D02*
D03*
X16435Y16178D02*
D03*
Y17123D02*
D03*
X23014Y3345D02*
D03*
Y2400D02*
D03*
X28050Y3228D02*
D03*
Y4172D02*
D03*
D79*
X27450Y18623D02*
X27666Y18839D01*
Y22600D01*
X29634Y18839D02*
X29850Y18623D01*
X29634Y18839D02*
Y22600D01*
X29914Y18687D02*
X30975Y19748D01*
X29850Y18623D02*
X29914Y18687D01*
X30975Y19748D02*
X31550D01*
X25650D02*
X26325D01*
X27450Y18623D01*
D80*
X23480Y10724D02*
X25255Y8949D01*
X23450Y10850D02*
X23480Y10820D01*
X25255Y8900D02*
Y8949D01*
X23480Y10724D02*
Y10820D01*
X16220Y8280D02*
X16239Y8299D01*
X16177Y7433D02*
Y7922D01*
X16220Y7965D01*
Y8280D01*
X16239Y8299D02*
Y8840D01*
X16109Y8280D02*
X16220D01*
X12622Y8317D02*
X16071D01*
X16109Y8280D01*
X16187Y8892D02*
X16239Y8840D01*
X16187Y8892D02*
Y9057D01*
X16177Y9067D02*
X16187Y9057D01*
X17583Y9677D02*
X19217D01*
X16013Y6263D02*
X16650Y6900D01*
Y9450D01*
X16877Y9677D02*
X17583D01*
X16650Y9450D02*
X16877Y9677D01*
X26220Y8831D02*
X26592D01*
X26200Y8851D02*
Y8900D01*
X26592Y8831D02*
X26776Y8647D01*
X26200Y8851D02*
X26220Y8831D01*
X28200Y9532D02*
X30033D01*
X28069D02*
X28200D01*
X30249Y11184D02*
X30350D01*
X27418Y11068D02*
X30132D01*
X30249Y11184D01*
X27150Y10800D02*
X27418Y11068D01*
X27150Y9553D02*
Y10800D01*
X30033Y9532D02*
X30350Y9216D01*
X30387Y9178D01*
Y7137D02*
X30425Y7100D01*
X30387Y7137D02*
Y9178D01*
X24739Y10211D02*
Y10789D01*
X24728Y10800D02*
X24739Y10789D01*
Y10211D02*
X24750Y10200D01*
X25714Y10800D02*
Y11636D01*
Y10764D02*
Y10800D01*
X26250D01*
X25672D02*
X25714D01*
X25700Y13950D02*
Y14650D01*
X26000Y13650D02*
X26528D01*
X25700Y13950D02*
X26000Y13650D01*
X27472D02*
Y14428D01*
X27450Y14450D02*
X27472Y14428D01*
X29614Y14214D02*
X29850Y14450D01*
X25714Y10764D02*
X25728Y10750D01*
X25700Y11650D02*
X25714Y11636D01*
X18222Y15720D02*
X18836D01*
X5022Y15022D02*
X5750D01*
X4388Y14388D02*
X5022Y15022D01*
X4388Y12750D02*
Y14388D01*
X26560Y2400D02*
X27250D01*
X11000Y8350D02*
X15978Y13328D01*
X20300D01*
X10028Y17123D02*
X16435D01*
X8000Y1350D02*
X12913Y6263D01*
X16013D01*
X13477Y5977D02*
X17583D01*
X10000Y2500D02*
X13477Y5977D01*
X17583D02*
X19217D01*
X10000Y1350D02*
Y2500D01*
X11669Y7364D02*
X12622Y8317D01*
X4986Y7364D02*
X11669D01*
X4000Y8350D02*
X4986Y7364D01*
X6700Y7650D02*
X11550D01*
X12750Y8850D02*
X14300D01*
X11550Y7650D02*
X12750Y8850D01*
X6000Y8350D02*
X6700Y7650D01*
X9334Y17816D02*
X10028Y17123D01*
X9334Y17816D02*
Y18550D01*
X5750Y13300D02*
Y14078D01*
Y15022D02*
Y16230D01*
X5770Y16250D01*
X5797D01*
X6750Y12478D02*
X7416D01*
X7788Y12850D01*
X7900D01*
X6703Y15876D02*
X6707D01*
X6726Y15856D01*
Y13446D02*
Y15856D01*
Y13446D02*
X6750Y13422D01*
X10000Y14772D02*
Y15450D01*
X8900Y15850D02*
X9600D01*
X10000Y15450D01*
X18205Y17150D02*
X18206Y17151D01*
Y18049D01*
X18207Y18050D01*
X17264Y17123D02*
X17265Y17124D01*
X16436Y17123D02*
X17264D01*
X16435Y17123D02*
X16436Y17123D01*
X18207Y18050D02*
Y19600D01*
X16435Y19585D02*
X17248D01*
X17263Y19600D01*
X16900Y18050D02*
X17263D01*
X15300D02*
X16900D01*
X17263D02*
X17263Y18050D01*
X15300Y18050D02*
X15300Y18050D01*
X4388Y12750D02*
X4419Y12719D01*
Y11531D02*
X4450Y11500D01*
X20070Y18972D02*
Y21457D01*
X21213Y22600D01*
X22561Y17239D02*
X23489D01*
X22550Y17250D02*
X22561Y17239D01*
X23489D02*
X23500Y17228D01*
X23147Y18476D02*
X23451Y18172D01*
X22453Y18476D02*
X23147D01*
X23451Y18172D02*
X23500D01*
X20900Y18850D02*
X21547D01*
X20778Y18972D02*
X20900Y18850D01*
X20070Y18972D02*
X20778D01*
X20070Y17144D02*
Y18028D01*
X21539Y14261D02*
X21550Y14250D01*
X20300Y14272D02*
X20311Y14261D01*
X21539D01*
X19777Y7512D02*
X21115Y8850D01*
X21950D01*
X19777Y7512D02*
Y9067D01*
Y7433D02*
Y7512D01*
X19217Y5977D02*
X21077D01*
X21950Y6850D01*
X19217Y9677D02*
X20727D01*
X20900Y9850D02*
X21950D01*
X20727Y9677D02*
X20900Y9850D01*
X2000Y8350D02*
Y9550D01*
X4070Y9470D02*
X4150Y9550D01*
X4070Y9384D02*
X5000Y8454D01*
X4070Y9384D02*
Y9470D01*
X5000Y8350D02*
Y8454D01*
X5800Y9550D02*
X7000Y8350D01*
X5150Y9550D02*
X5800D01*
X9000Y8350D02*
Y8450D01*
X10000Y9450D01*
Y13828D01*
X13128Y11478D02*
Y15100D01*
X10000Y8350D02*
X13128Y11478D01*
D81*
X28425Y6100D02*
X30869D01*
X27522D02*
X28425D01*
X29425Y7100D01*
X26522D02*
X27522Y6100D01*
X30869D02*
X31100Y5869D01*
Y1381D02*
Y5869D01*
X30869Y1150D02*
X31100Y1381D01*
X24405Y1150D02*
X30869D01*
X27450Y14450D02*
X29850D01*
X15550Y11100D02*
X22150D01*
X14300Y9850D02*
X15550Y11100D01*
X17265Y15255D02*
Y16289D01*
X17034Y15024D02*
X17265Y15255D01*
X14801Y15024D02*
X17034D01*
X13650Y4650D02*
X14163Y5163D01*
X13650Y1400D02*
Y4650D01*
X14163Y5163D02*
X14878D01*
X28050Y4172D02*
X28322D01*
X27300D02*
X28050D01*
X24369D02*
X27300D01*
X26522Y5387D02*
Y7100D01*
X25000Y8250D02*
X26292D01*
X26522Y7100D02*
Y8019D01*
X26292Y8250D02*
X26522Y8019D01*
Y5387D02*
X26560Y5350D01*
X24139Y1417D02*
Y1455D01*
Y1417D02*
X24405Y1150D01*
X23014Y2400D02*
X24040D01*
X22400D02*
X23014D01*
X24040Y5350D02*
X26560D01*
X24139Y4403D02*
Y4405D01*
X24040Y4444D02*
X24099D01*
X24139Y4405D01*
Y4403D02*
X24369Y4172D01*
X14072Y15024D02*
X14715D01*
Y15041D02*
X14784D01*
X14801Y15024D01*
X18222Y15720D02*
Y16250D01*
X12750Y500D02*
X16754D01*
X3400D02*
X12750D01*
X13650Y1400D01*
X16754Y500D02*
X16984Y731D01*
Y1900D01*
X3000Y1350D02*
X3018Y1332D01*
Y882D02*
Y1332D01*
Y882D02*
X3400Y500D01*
X24040Y2400D02*
X26560D01*
X23450Y12400D02*
Y15400D01*
X22150Y11100D02*
X23450Y12400D01*
X22150Y11100D02*
X25000Y8250D01*
X21900Y1900D02*
X22400Y2400D01*
X16984Y1900D02*
X21900D01*
X30212Y3228D02*
X30350Y3366D01*
X28119Y3228D02*
X30212D01*
X27981D02*
X28050D01*
X28322Y4172D02*
X29484Y5334D01*
X23050Y15800D02*
X23450Y15400D01*
X22100Y15800D02*
X23050D01*
X21550Y16350D02*
X22100Y15800D01*
X21550Y16350D02*
Y17250D01*
X20656Y16356D02*
X21550Y17250D01*
X8900Y11550D02*
Y12850D01*
X7810Y10460D02*
X8900Y11550D01*
X4810Y10460D02*
X7810D01*
X3910D02*
X4810D01*
X3000Y9550D02*
X3910Y10460D01*
X1346Y10431D02*
X2119D01*
X277Y11500D02*
X1346Y10431D01*
X2119D02*
X3000Y9550D01*
X5750Y11400D02*
Y12513D01*
X4810Y10460D02*
X5750Y11400D01*
X4419Y11531D02*
Y12719D01*
X388Y12707D02*
Y12750D01*
X277Y11500D02*
Y12596D01*
X388Y12707D01*
X20070Y16356D02*
X20656D01*
X29484Y5334D02*
X30350D01*
X3000Y8350D02*
Y9550D01*
D82*
X17412Y4300D02*
X18566D01*
X17228Y4484D02*
Y5163D01*
X19635Y3850D02*
X20000D01*
X17228Y4484D02*
X17412Y4300D01*
X22494Y4444D02*
X24040D01*
X21565Y4350D02*
X22400D01*
X21200D02*
X21565D01*
X22400D02*
X22494Y4444D01*
X15852Y5193D02*
X16521D01*
X15822Y5163D02*
X15852Y5193D01*
X16521D02*
X16550Y5222D01*
X16579Y5193D02*
X17198D01*
X16550Y5222D02*
X16579Y5193D01*
X17198D02*
X17228Y5163D01*
X19016Y3850D02*
X19635D01*
X18566Y4300D02*
X19016Y3850D01*
X19635Y4450D02*
Y4615D01*
X18172Y5163D02*
X19087D01*
X19635Y4615D01*
Y2850D02*
X20000D01*
X19100D02*
X19635D01*
X18500Y2555D02*
X18805D01*
X19100Y2850D01*
X16616Y3500D02*
X18500D01*
X15016Y1900D02*
X16616Y3500D01*
X19635Y3350D02*
X20000D01*
X19000D02*
X19635D01*
X18500Y3500D02*
X18850D01*
X19000Y3350D01*
D83*
X9334Y22600D02*
X9334Y22600D01*
Y19550D02*
Y22600D01*
X7366Y19550D02*
Y22600D01*
X4818D02*
X7366D01*
X882Y20582D02*
X1714Y19750D01*
X4388D01*
X882Y20582D02*
Y22600D01*
D84*
X25650Y15575D02*
D03*
X4450Y11500D02*
D03*
X29850Y18623D02*
D03*
X31550Y15575D02*
D03*
X27450Y18623D02*
D03*
D85*
X25650Y19748D02*
D03*
X29850Y14450D02*
D03*
X31550Y19748D02*
D03*
X27450Y14450D02*
D03*
D86*
X27666Y22600D02*
D03*
X30350Y11184D02*
D03*
Y5334D02*
D03*
X882Y22600D02*
D03*
X2850D02*
D03*
X7366D02*
D03*
X13397D02*
D03*
X15366D02*
D03*
X16984Y1900D02*
D03*
X23182Y22600D02*
D03*
X21213D02*
D03*
D87*
X29634D02*
D03*
X4818D02*
D03*
X9334D02*
D03*
X17334D02*
D03*
X15016Y1900D02*
D03*
X25150Y22600D02*
D03*
D88*
X25700Y11650D02*
D03*
X24700D02*
D03*
Y14650D02*
D03*
X8900Y12850D02*
D03*
X7900D02*
D03*
Y15850D02*
D03*
X21550Y17250D02*
D03*
X22550D02*
D03*
Y14250D02*
D03*
D89*
X25700Y14650D02*
D03*
X8900Y15850D02*
D03*
X21550Y14250D02*
D03*
D90*
X29425Y7100D02*
D03*
D91*
X30425D02*
D03*
X31425D02*
D03*
X9334Y19550D02*
D03*
X7366D02*
D03*
D92*
X30350Y9216D02*
D03*
Y3366D02*
D03*
D93*
X2000Y1350D02*
D03*
Y8350D02*
D03*
D94*
X3000Y1350D02*
D03*
X4000D02*
D03*
X5000D02*
D03*
X6000D02*
D03*
X7000D02*
D03*
X8000D02*
D03*
X9000D02*
D03*
X10000D02*
D03*
X11000D02*
D03*
X3000Y8350D02*
D03*
X4000D02*
D03*
X5000D02*
D03*
X6000D02*
D03*
X7000D02*
D03*
X8000D02*
D03*
X9000D02*
D03*
X10000D02*
D03*
X11000D02*
D03*
D95*
X9334Y18550D02*
D03*
X7366D02*
D03*
D96*
X-1023Y835D02*
D03*
X32071D02*
D03*
Y24316D02*
D03*
X-1023Y24166D02*
D03*
D97*
X277Y11500D02*
D03*
D98*
X21950Y8850D02*
D03*
Y7850D02*
D03*
Y6850D02*
D03*
X2000Y9550D02*
D03*
X3000D02*
D03*
X4000D02*
D03*
X14300Y8850D02*
D03*
Y7850D02*
D03*
Y6850D02*
D03*
D99*
X21950Y9850D02*
D03*
X14300D02*
D03*
D100*
X5000Y9550D02*
D03*
D101*
X23450Y10850D02*
D03*
X16220Y8280D02*
D03*
X24750Y10200D02*
D03*
X27250Y2400D02*
D03*
X14163Y5163D02*
D03*
X19087D02*
D03*
X18836Y15720D02*
D03*
X26250Y10800D02*
D03*
X27300Y4172D02*
D03*
X14700Y17100D02*
D03*
M02*
