G04*
G04 #@! TF.GenerationSoftware,Altium Limited,Altium Designer,24.5.2 (23)*
G04*
G04 Layer_Color=32768*
%FSLAX24Y24*%
%MOIN*%
G70*
G04*
G04 #@! TF.SameCoordinates,8AAE441C-8CDC-4473-BA07-673157910C72*
G04*
G04*
G04 #@! TF.FilePolarity,Positive*
G04*
G01*
G75*
%ADD15C,0.0039*%
D15*
X28925Y7600D02*
X31925D01*
X28925Y6600D02*
X31925D01*
X28925D02*
Y7600D01*
X31925Y6600D02*
Y7600D01*
X28716Y8231D02*
Y12169D01*
X31984Y8231D02*
Y12169D01*
X28716D02*
X31984D01*
X28962Y7995D02*
X29218D01*
X29169Y8231D02*
X29218Y7995D01*
X28962D02*
X29011Y8231D01*
X28716D02*
X29011D01*
X31482Y7995D02*
X31738D01*
X31689Y8231D02*
X31738Y7995D01*
X31482D02*
X31531Y8231D01*
X31689D02*
X31984D01*
X29169D02*
X31531D01*
X28716Y2382D02*
Y6319D01*
X31984Y2382D02*
Y6319D01*
X28716D02*
X31984D01*
X28962Y2145D02*
X29218D01*
X29169Y2382D02*
X29218Y2145D01*
X28962D02*
X29011Y2382D01*
X28716D02*
X29011D01*
X31482Y2145D02*
X31738D01*
X31689Y2382D02*
X31738Y2145D01*
X31482D02*
X31531Y2382D01*
X31689D02*
X31984D01*
X29169D02*
X31531D01*
X8834Y18050D02*
Y20050D01*
X9834D01*
Y18050D02*
Y20050D01*
X8834Y18050D02*
X9834D01*
X6866D02*
Y20050D01*
X7866D01*
Y18050D02*
Y20050D01*
X6866Y18050D02*
X7866D01*
X-103Y20966D02*
X5803D01*
X-103Y24234D02*
X5803D01*
X-103Y20966D02*
Y24234D01*
X6039Y21212D02*
Y21468D01*
X5803Y21419D02*
X6039Y21468D01*
X5803Y21261D02*
X6039Y21212D01*
X5803Y20966D02*
Y21261D01*
X6039Y23732D02*
Y23988D01*
X5803Y23939D02*
X6039Y23988D01*
X5803Y23781D02*
X6039Y23732D01*
X5803Y23939D02*
Y24234D01*
Y21419D02*
Y23781D01*
X10318Y21419D02*
Y23781D01*
Y23939D02*
Y24234D01*
Y23781D02*
X10555Y23732D01*
X10318Y23939D02*
X10555Y23988D01*
Y23732D02*
Y23988D01*
X10318Y20966D02*
Y21261D01*
X10555Y21212D01*
X10318Y21419D02*
X10555Y21468D01*
Y21212D02*
Y21468D01*
X6381Y20966D02*
Y24234D01*
X10318D01*
X6381Y20966D02*
X10318D01*
X12413D02*
X18319D01*
X12413Y24234D02*
X18319D01*
X12413Y20966D02*
Y24234D01*
X18555Y21212D02*
Y21468D01*
X18319Y21419D02*
X18555Y21468D01*
X18319Y21261D02*
X18555Y21212D01*
X18319Y20966D02*
Y21261D01*
X18555Y23732D02*
Y23988D01*
X18319Y23939D02*
X18555Y23988D01*
X18319Y23781D02*
X18555Y23732D01*
X18319Y23939D02*
Y24234D01*
Y21419D02*
Y23781D01*
X17573Y5770D02*
X19227D01*
X17573D02*
Y7030D01*
X19227D01*
Y5770D02*
Y7030D01*
X17573Y9470D02*
X19227D01*
X17573D02*
Y10730D01*
X19227D01*
Y9470D02*
Y10730D01*
X22442Y6252D02*
Y10448D01*
X21458Y6252D02*
X22442D01*
X21458D02*
Y10448D01*
X22442D01*
X15970Y7423D02*
Y9077D01*
X17230D01*
Y7423D02*
Y9077D01*
X15970Y7423D02*
X17230D01*
X19570D02*
Y9077D01*
X20830D01*
Y7423D02*
Y9077D01*
X19570Y7423D02*
X20830D01*
X5598Y9058D02*
Y10042D01*
X1402D02*
X5598D01*
X1402Y9058D02*
Y10042D01*
Y9058D02*
X5598D01*
X14031Y3534D02*
X17968D01*
X14031Y266D02*
X17968D01*
Y3534D01*
X13795Y3032D02*
Y3288D01*
Y3032D02*
X14031Y3081D01*
X13795Y3288D02*
X14031Y3239D01*
Y3534D01*
X13795Y512D02*
Y768D01*
Y512D02*
X14031Y561D01*
X13795Y768D02*
X14031Y719D01*
Y266D02*
Y561D01*
Y719D02*
Y3081D01*
X14792Y6252D02*
Y10448D01*
X13808Y6252D02*
X14792D01*
X13808D02*
Y10448D01*
X14792D01*
X26134Y21419D02*
Y23781D01*
Y23939D02*
Y24234D01*
Y23781D02*
X26370Y23732D01*
X26134Y23939D02*
X26370Y23988D01*
Y23732D02*
Y23988D01*
X26134Y20966D02*
Y21261D01*
X26370Y21212D01*
X26134Y21419D02*
X26370Y21468D01*
Y21212D02*
Y21468D01*
X20229Y20966D02*
Y24234D01*
X26134D01*
X20229Y20966D02*
X26134D01*
X26681D02*
X30619D01*
X26681Y24234D02*
X30619D01*
X26681Y20966D02*
Y24234D01*
X30855Y21212D02*
Y21468D01*
X30619Y21419D02*
X30855Y21468D01*
X30619Y21261D02*
X30855Y21212D01*
X30619Y20966D02*
Y21261D01*
X30855Y23732D02*
Y23988D01*
X30619Y23939D02*
X30855Y23988D01*
X30619Y23781D02*
X30855Y23732D01*
X30619Y23939D02*
Y24234D01*
Y21419D02*
Y23781D01*
M02*
