G04*
G04 #@! TF.GenerationSoftware,Altium Limited,Altium Designer,24.5.2 (23)*
G04*
G04 Layer_Color=32768*
%FSLAX24Y24*%
%MOIN*%
G70*
G04*
G04 #@! TF.SameCoordinates,ED3D9C19-DC03-4723-BF3F-0792F9F3BFAD*
G04*
G04*
G04 #@! TF.FilePolarity,Positive*
G04*
G01*
G75*
%ADD11C,0.0079*%
%ADD13C,0.0100*%
%ADD15C,0.0039*%
%ADD105C,0.0020*%
D11*
X23706Y3758D02*
X26894D01*
Y1042D02*
Y3758D01*
X23706Y1042D02*
X26894D01*
X23706D02*
Y3758D01*
X-159Y12215D02*
Y20285D01*
X4959D01*
Y12215D02*
Y20285D01*
X-159Y12215D02*
X4959D01*
X23706Y3992D02*
Y6708D01*
Y3992D02*
X26894D01*
Y6708D01*
X23706D02*
X26894D01*
D13*
X-500Y8850D02*
G03*
X-1500Y7850I0J-1000D01*
G01*
Y1850D02*
G03*
X-500Y850I1000J0D01*
G01*
X13500Y7850D02*
G03*
X12500Y8850I-1000J0D01*
G01*
Y850D02*
G03*
X13500Y1850I0J1000D01*
G01*
X-1500Y1820D02*
Y7850D01*
X-500Y8850D02*
X12500D01*
X13500Y1820D02*
Y7850D01*
X-500Y850D02*
X12500D01*
D15*
X27150Y8903D02*
Y9297D01*
X26953Y9100D02*
X27347D01*
X6250Y16053D02*
Y16447D01*
X6053Y16250D02*
X6447D01*
X21803Y18850D02*
X22197D01*
X22000Y18653D02*
Y19047D01*
X20600Y3403D02*
Y3797D01*
X20403Y3600D02*
X20797D01*
X18946Y2419D02*
X22254D01*
X18946Y4781D02*
X22254D01*
Y2419D02*
Y4781D01*
X18946Y2419D02*
Y4781D01*
D105*
X26603Y20887D02*
X30933D01*
X26603D02*
Y24313D01*
X30933D01*
Y20887D02*
Y24313D01*
X28787Y7708D02*
X32063D01*
Y6492D02*
Y7708D01*
X28787Y6492D02*
X32063D01*
X28787D02*
Y7708D01*
X28637Y7917D02*
X32063D01*
Y12247D01*
X28637D02*
X32063D01*
X28637Y7917D02*
Y12247D01*
Y2067D02*
X32063D01*
Y6397D01*
X28637D02*
X32063D01*
X28637Y2067D02*
Y6397D01*
X8726Y17912D02*
Y20188D01*
X9943D01*
Y17912D02*
Y20188D01*
X8726Y17912D02*
X9943D01*
X6757D02*
Y20188D01*
X7974D01*
Y17912D02*
Y20188D01*
X6757Y17912D02*
X7974D01*
X6118Y20887D02*
Y24313D01*
X-181D02*
X6118D01*
X-181Y20887D02*
Y24313D01*
Y20887D02*
X6118D01*
X6303D02*
X10633D01*
X6303D02*
Y24313D01*
X10633D01*
Y20887D02*
Y24313D01*
X18633Y20887D02*
Y24313D01*
X12334D02*
X18633D01*
X12334Y20887D02*
Y24313D01*
Y20887D02*
X18633D01*
X18203Y6400D02*
X18597D01*
X18400Y6203D02*
Y6597D01*
X17298Y5691D02*
X19502D01*
X17298D02*
Y7109D01*
X19502D01*
Y5691D02*
Y7109D01*
X18203Y10100D02*
X18597D01*
X18400Y9903D02*
Y10297D01*
X17298Y9391D02*
X19502D01*
X17298D02*
Y10809D01*
X19502D01*
Y9391D02*
Y10809D01*
X22560Y6124D02*
Y10576D01*
X21340Y6124D02*
X22560D01*
X21340D02*
Y10576D01*
X22560D01*
X16600Y8053D02*
Y8447D01*
X16403Y8250D02*
X16797D01*
X15891Y7148D02*
Y9352D01*
X17309D01*
Y7148D02*
Y9352D01*
X15891Y7148D02*
X17309D01*
X20200Y8053D02*
Y8447D01*
X20003Y8250D02*
X20397D01*
X19491Y7148D02*
Y9352D01*
X20909D01*
Y7148D02*
Y9352D01*
X19491Y7148D02*
X20909D01*
X5726Y8940D02*
Y10160D01*
X1274D02*
X5726D01*
X1274Y8940D02*
Y10160D01*
Y8940D02*
X5726D01*
X13717Y187D02*
Y3613D01*
Y187D02*
X18047D01*
Y3613D01*
X13717D02*
X18047D01*
X14910Y6124D02*
Y10576D01*
X13690Y6124D02*
X14910D01*
X13690D02*
Y10576D01*
X14910D01*
X20150Y20887D02*
X26449D01*
X20150D02*
Y24313D01*
X26449D01*
Y20887D02*
Y24313D01*
M02*
