G04*
G04 #@! TF.GenerationSoftware,Altium Limited,Altium Designer,24.5.2 (23)*
G04*
G04 Layer_Color=65535*
%FSLAX24Y24*%
%MOIN*%
G70*
G04*
G04 #@! TF.SameCoordinates,8AAE441C-8CDC-4473-BA07-673157910C72*
G04*
G04*
G04 #@! TF.FilePolarity,Positive*
G04*
G01*
G75*
%ADD10C,0.0098*%
%ADD11C,0.0079*%
%ADD12C,0.0100*%
%ADD13C,0.0080*%
%ADD14C,0.0050*%
%ADD15C,0.0039*%
%ADD16C,0.0040*%
%ADD17C,0.0025*%
%ADD18C,0.0080*%
%ADD19C,0.0060*%
D10*
X28738Y7100D02*
G03*
X28738Y7100I-49J0D01*
G01*
X23499Y3325D02*
G03*
X23499Y3325I-49J0D01*
G01*
X9383Y17814D02*
G03*
X9383Y17814I-49J0D01*
G01*
X7415D02*
G03*
X7415Y17814I-49J0D01*
G01*
X4437Y12018D02*
G03*
X4437Y12018I-49J0D01*
G01*
X21999Y10689D02*
G03*
X21999Y10689I-49J0D01*
G01*
X5888Y9550D02*
G03*
X5888Y9550I-49J0D01*
G01*
X23499Y6275D02*
G03*
X23499Y6275I-49J0D01*
G01*
X14349Y10689D02*
G03*
X14349Y10689I-49J0D01*
G01*
X19685Y4704D02*
G03*
X19685Y4704I-49J0D01*
G01*
D11*
X28239Y9237D02*
G03*
X28239Y9237I-39J0D01*
G01*
X15590Y17618D02*
G03*
X15590Y17618I-39J0D01*
G01*
X16474Y19881D02*
G03*
X16474Y19881I-39J0D01*
G01*
X31984Y6570D02*
Y7630D01*
X28866D02*
X31984D01*
X28866Y6570D02*
Y7630D01*
Y6570D02*
X31984D01*
X29169Y8231D02*
X31531D01*
X31689D02*
X31984D01*
X31482Y7995D02*
X31531Y8231D01*
X31689D02*
X31738Y7995D01*
X31482D02*
X31738D01*
X28716Y8231D02*
X29011D01*
X28962Y7995D02*
X29011Y8231D01*
X29169D02*
X29218Y7995D01*
X28962D02*
X29218D01*
X28716Y12169D02*
X31984D01*
Y8231D02*
Y12169D01*
X28716Y8231D02*
Y12169D01*
X26540Y9248D02*
Y9406D01*
X26874D01*
X27770Y9248D02*
Y9406D01*
X27426D02*
X27770D01*
X24572Y3719D02*
X26028D01*
Y1081D02*
Y3719D01*
X24572Y1081D02*
X26028D01*
X24572D02*
Y3719D01*
X29169Y2382D02*
X31531D01*
X31689D02*
X31984D01*
X31482Y2145D02*
X31531Y2382D01*
X31689D02*
X31738Y2145D01*
X31482D02*
X31738D01*
X28716Y2382D02*
X29011D01*
X28962Y2145D02*
X29011Y2382D01*
X29169D02*
X29218Y2145D01*
X28962D02*
X29218D01*
X28716Y6319D02*
X31984D01*
Y2382D02*
Y6319D01*
X28716Y2382D02*
Y6319D01*
X8805Y20109D02*
X9864D01*
X8805Y17991D02*
Y20109D01*
Y17991D02*
X9864D01*
Y20109D01*
X6836D02*
X7895D01*
X6836Y17991D02*
Y20109D01*
Y17991D02*
X7895D01*
Y20109D01*
X-120Y12254D02*
Y20246D01*
X4920D01*
Y12254D02*
Y20246D01*
X-120Y12254D02*
X4920D01*
X5803Y21419D02*
Y23781D01*
Y23939D02*
Y24234D01*
Y23781D02*
X6039Y23732D01*
X5803Y23939D02*
X6039Y23988D01*
Y23732D02*
Y23988D01*
X5803Y20966D02*
Y21261D01*
X6039Y21212D01*
X5803Y21419D02*
X6039Y21468D01*
Y21212D02*
Y21468D01*
X-103Y20966D02*
Y24234D01*
X5803D01*
X-103Y20966D02*
X5803D01*
X6381D02*
X10318D01*
X6381Y24234D02*
X10318D01*
X6381Y20966D02*
Y24234D01*
X10555Y21212D02*
Y21468D01*
X10318Y21419D02*
X10555Y21468D01*
X10318Y21261D02*
X10555Y21212D01*
X10318Y20966D02*
Y21261D01*
X10555Y23732D02*
Y23988D01*
X10318Y23939D02*
X10555Y23988D01*
X10318Y23781D02*
X10555Y23732D01*
X10318Y23939D02*
Y24234D01*
Y21419D02*
Y23781D01*
X5944Y16526D02*
Y16870D01*
X6102D01*
X5944Y15640D02*
Y15974D01*
Y15640D02*
X6102D01*
X18319Y21419D02*
Y23781D01*
Y23939D02*
Y24234D01*
Y23781D02*
X18555Y23732D01*
X18319Y23939D02*
X18555Y23988D01*
Y23732D02*
Y23988D01*
X18319Y20966D02*
Y21261D01*
X18555Y21212D01*
X18319Y21419D02*
X18555Y21468D01*
Y21212D02*
Y21468D01*
X12413Y20966D02*
Y24234D01*
X18319D01*
X12413Y20966D02*
X18319D01*
X21694Y18240D02*
X21852D01*
X21694D02*
Y18574D01*
Y19470D02*
X21852D01*
X21694Y19126D02*
Y19470D01*
X17888Y5770D02*
X18912D01*
X17888Y7030D02*
X18912D01*
X19227Y6223D02*
Y6577D01*
X17573Y6223D02*
Y6577D01*
X17888Y9470D02*
X18912D01*
X17888Y10730D02*
X18912D01*
X19227Y9923D02*
Y10277D01*
X17573Y9923D02*
Y10277D01*
X22482Y6202D02*
Y10498D01*
X21418Y6202D02*
X22482D01*
X21418D02*
Y10498D01*
X22482D01*
X15970Y7738D02*
Y8762D01*
X17230Y7738D02*
Y8762D01*
X16423Y7423D02*
X16777D01*
X16423Y9077D02*
X16777D01*
X19570Y7738D02*
Y8762D01*
X20830Y7738D02*
Y8762D01*
X20023Y7423D02*
X20377D01*
X20023Y9077D02*
X20377D01*
X5648Y9018D02*
Y10081D01*
X1352D02*
X5648D01*
X1352Y9018D02*
Y10081D01*
Y9018D02*
X5648D01*
X14031Y719D02*
Y3081D01*
Y266D02*
Y561D01*
X13795Y768D02*
X14031Y719D01*
X13795Y512D02*
X14031Y561D01*
X13795Y512D02*
Y768D01*
X14031Y3239D02*
Y3534D01*
X13795Y3288D02*
X14031Y3239D01*
X13795Y3032D02*
X14031Y3081D01*
X13795Y3032D02*
Y3288D01*
X17968Y266D02*
Y3534D01*
X14031Y266D02*
X17968D01*
X14031Y3534D02*
X17968D01*
X24572Y4031D02*
Y6669D01*
Y4031D02*
X26028D01*
Y6669D01*
X24572D02*
X26028D01*
X14832Y6202D02*
Y10498D01*
X13769Y6202D02*
X14832D01*
X13769D02*
Y10498D01*
X14832D01*
X20229Y20966D02*
X26134D01*
X20229Y24234D02*
X26134D01*
X20229Y20966D02*
Y24234D01*
X26370Y21212D02*
Y21468D01*
X26134Y21419D02*
X26370Y21468D01*
X26134Y21261D02*
X26370Y21212D01*
X26134Y20966D02*
Y21261D01*
X26370Y23732D02*
Y23988D01*
X26134Y23939D02*
X26370Y23988D01*
X26134Y23781D02*
X26370Y23732D01*
X26134Y23939D02*
Y24234D01*
Y21419D02*
Y23781D01*
X30619Y21419D02*
Y23781D01*
Y23939D02*
Y24234D01*
Y23781D02*
X30855Y23732D01*
X30619Y23939D02*
X30855Y23988D01*
Y23732D02*
Y23988D01*
X30619Y20966D02*
Y21261D01*
X30855Y21212D01*
X30619Y21419D02*
X30855Y21468D01*
Y21212D02*
Y21468D01*
X26681Y20966D02*
Y24234D01*
X30619D01*
X26681Y20966D02*
X30619D01*
X20285Y2616D02*
X20915D01*
X20285Y4584D02*
X20915D01*
Y2616D02*
Y4584D01*
X20285Y2616D02*
Y4584D01*
X19529Y1310D02*
X19739D01*
X19634D01*
Y996D01*
X20054Y1310D02*
X19844D01*
Y996D01*
X20054D01*
X19844Y1153D02*
X19949D01*
X20158Y996D02*
Y1310D01*
X20263Y1205D01*
X20368Y1310D01*
Y996D01*
X20473D02*
Y1310D01*
X20631D01*
X20683Y1258D01*
Y1153D01*
X20631Y1101D01*
X20473D01*
X19739Y691D02*
X19686Y744D01*
X19581D01*
X19529Y691D01*
Y639D01*
X19581Y586D01*
X19686D01*
X19739Y534D01*
Y481D01*
X19686Y429D01*
X19581D01*
X19529Y481D01*
X20054Y744D02*
X19844D01*
Y429D01*
X20054D01*
X19844Y586D02*
X19949D01*
X20158Y429D02*
Y744D01*
X20368Y429D01*
Y744D01*
X20683Y691D02*
X20631Y744D01*
X20526D01*
X20473Y691D01*
Y639D01*
X20526Y586D01*
X20631D01*
X20683Y534D01*
Y481D01*
X20631Y429D01*
X20526D01*
X20473Y481D01*
X20946Y744D02*
X20841D01*
X20788Y691D01*
Y481D01*
X20841Y429D01*
X20946D01*
X20998Y481D01*
Y691D01*
X20946Y744D01*
X21103Y429D02*
Y744D01*
X21260D01*
X21313Y691D01*
Y586D01*
X21260Y534D01*
X21103D01*
X21208D02*
X21313Y429D01*
X32344Y11281D02*
Y11071D01*
X32291Y9313D02*
Y9103D01*
X32396Y9208D02*
X32186D01*
X29829Y12744D02*
Y12429D01*
X29986D01*
X30039Y12481D01*
Y12534D01*
X29986Y12586D01*
X29829D01*
X29986D01*
X30039Y12639D01*
Y12691D01*
X29986Y12744D01*
X29829D01*
X30144D02*
Y12481D01*
X30196Y12429D01*
X30301D01*
X30354Y12481D01*
Y12744D01*
X30458D02*
X30668D01*
Y12691D01*
X30458Y12481D01*
Y12429D01*
X30668D01*
X30773Y12744D02*
X30983D01*
Y12691D01*
X30773Y12481D01*
Y12429D01*
X30983D01*
X31298Y12744D02*
X31088D01*
Y12429D01*
X31298D01*
X31088Y12586D02*
X31193D01*
X31403Y12429D02*
Y12744D01*
X31560D01*
X31613Y12691D01*
Y12586D01*
X31560Y12534D01*
X31403D01*
X31508D02*
X31613Y12429D01*
X24088Y15457D02*
Y15195D01*
X24140Y15143D01*
X24245D01*
X24298Y15195D01*
Y15457D01*
X24402Y15405D02*
X24455Y15457D01*
X24560D01*
X24612Y15405D01*
Y15352D01*
X24560Y15300D01*
X24612Y15248D01*
Y15195D01*
X24560Y15143D01*
X24455D01*
X24402Y15195D01*
Y15248D01*
X24455Y15300D01*
X24402Y15352D01*
Y15405D01*
X24455Y15300D02*
X24560D01*
X26322Y14715D02*
Y14662D01*
X26270D01*
Y14715D01*
X26322D01*
X27938Y7293D02*
Y7607D01*
X28095D01*
X28148Y7555D01*
Y7450D01*
X28095Y7398D01*
X27938D01*
X28252Y7555D02*
X28305Y7607D01*
X28410D01*
X28462Y7555D01*
Y7502D01*
X28410Y7450D01*
X28357D01*
X28410D01*
X28462Y7398D01*
Y7345D01*
X28410Y7293D01*
X28305D01*
X28252Y7345D01*
X28066Y8757D02*
X27961D01*
X28014D01*
Y8495D01*
X27961Y8443D01*
X27909D01*
X27856Y8495D01*
X28171Y8443D02*
X28276D01*
X28224D01*
Y8757D01*
X28171Y8705D01*
X28434D02*
X28486Y8757D01*
X28591D01*
X28644Y8705D01*
Y8495D01*
X28591Y8443D01*
X28486D01*
X28434Y8495D01*
Y8705D01*
X27806Y11757D02*
Y11443D01*
X27964D01*
X28016Y11495D01*
Y11705D01*
X27964Y11757D01*
X27806D01*
X28121Y11443D02*
X28226D01*
X28174D01*
Y11757D01*
X28121Y11705D01*
X28384D02*
X28436Y11757D01*
X28541D01*
X28594Y11705D01*
Y11495D01*
X28541Y11443D01*
X28436D01*
X28384Y11495D01*
Y11705D01*
X25306Y9293D02*
Y9607D01*
X25464D01*
X25516Y9555D01*
Y9450D01*
X25464Y9398D01*
X25306D01*
X25411D02*
X25516Y9293D01*
X25621D02*
X25726D01*
X25674D01*
Y9607D01*
X25621Y9555D01*
X26094Y9607D02*
X25989Y9555D01*
X25884Y9450D01*
Y9345D01*
X25936Y9293D01*
X26041D01*
X26094Y9345D01*
Y9398D01*
X26041Y9450D01*
X25884D01*
X27098Y8095D02*
Y8305D01*
X27045Y8357D01*
X26940D01*
X26888Y8305D01*
Y8095D01*
X26940Y8043D01*
X27045D01*
X26993Y8148D02*
X27098Y8043D01*
X27045D02*
X27098Y8095D01*
X27360Y8043D02*
Y8357D01*
X27202Y8200D01*
X27412D01*
X9350Y16350D02*
Y16298D01*
X9298D01*
Y16350D01*
X9350D01*
X6829Y11279D02*
Y11594D01*
X6986D01*
X7039Y11541D01*
Y11436D01*
X6986Y11384D01*
X6829D01*
X6934D02*
X7039Y11279D01*
X7354Y11594D02*
X7144D01*
Y11279D01*
X7354D01*
X7144Y11436D02*
X7249D01*
X7458Y11594D02*
Y11279D01*
X7668D01*
X7773D02*
Y11489D01*
X7878Y11594D01*
X7983Y11489D01*
Y11279D01*
Y11436D01*
X7773D01*
X8088Y11594D02*
Y11541D01*
X8193Y11436D01*
X8298Y11541D01*
Y11594D01*
X8193Y11436D02*
Y11279D01*
X8718Y11594D02*
Y11279D01*
X8875D01*
X8928Y11331D01*
Y11541D01*
X8875Y11594D01*
X8718D01*
X9033Y11279D02*
Y11594D01*
X9190D01*
X9243Y11541D01*
Y11436D01*
X9190Y11384D01*
X9033D01*
X9138D02*
X9243Y11279D01*
X9348Y11594D02*
X9453D01*
X9400D01*
Y11279D01*
X9348D01*
X9453D01*
X9610Y11594D02*
Y11384D01*
X9715Y11279D01*
X9820Y11384D01*
Y11594D01*
X10135D02*
X9925D01*
Y11279D01*
X10135D01*
X9925Y11436D02*
X10030D01*
X10240Y11279D02*
Y11594D01*
X10397D01*
X10450Y11541D01*
Y11436D01*
X10397Y11384D01*
X10240D01*
X10345D02*
X10450Y11279D01*
X17237Y24641D02*
X17447D01*
X17342Y24746D02*
Y24536D01*
X13300Y24694D02*
X13510D01*
X20928Y14185D02*
Y14238D01*
X20980D01*
Y14185D01*
X20928D01*
X28079Y579D02*
Y894D01*
X28236D01*
X28289Y841D01*
Y736D01*
X28236Y684D01*
X28079D01*
X28184D02*
X28289Y579D01*
X28604Y894D02*
X28394D01*
Y579D01*
X28604D01*
X28394Y736D02*
X28499D01*
X28918Y841D02*
X28866Y894D01*
X28761D01*
X28708Y841D01*
Y631D01*
X28761Y579D01*
X28866D01*
X28918Y631D01*
Y736D01*
X28813D01*
X29023Y894D02*
Y631D01*
X29076Y579D01*
X29181D01*
X29233Y631D01*
Y894D01*
X29338D02*
Y579D01*
X29548D01*
X29653D02*
Y789D01*
X29758Y894D01*
X29863Y789D01*
Y579D01*
Y736D01*
X29653D01*
X29968Y894D02*
X30178D01*
X30073D01*
Y579D01*
X30440Y894D02*
X30335D01*
X30283Y841D01*
Y631D01*
X30335Y579D01*
X30440D01*
X30493Y631D01*
Y841D01*
X30440Y894D01*
X30598Y579D02*
Y894D01*
X30755D01*
X30808Y841D01*
Y736D01*
X30755Y684D01*
X30598D01*
X30703D02*
X30808Y579D01*
X31122Y841D02*
X31070Y894D01*
X30965D01*
X30912Y841D01*
Y789D01*
X30965Y736D01*
X31070D01*
X31122Y684D01*
Y631D01*
X31070Y579D01*
X30965D01*
X30912Y631D01*
X29829Y13379D02*
Y13589D01*
X29934Y13694D01*
X30039Y13589D01*
Y13379D01*
Y13536D01*
X29829D01*
X30354Y13641D02*
X30301Y13694D01*
X30196D01*
X30144Y13641D01*
Y13431D01*
X30196Y13379D01*
X30301D01*
X30354Y13431D01*
X30773Y13694D02*
Y13379D01*
X30931D01*
X30983Y13431D01*
Y13641D01*
X30931Y13694D01*
X30773D01*
X31088Y13379D02*
Y13694D01*
X31246D01*
X31298Y13641D01*
Y13536D01*
X31246Y13484D01*
X31088D01*
X31193D02*
X31298Y13379D01*
X31403Y13694D02*
X31508D01*
X31456D01*
Y13379D01*
X31403D01*
X31508D01*
X31665Y13694D02*
Y13484D01*
X31770Y13379D01*
X31875Y13484D01*
Y13694D01*
X32190D02*
X31980D01*
Y13379D01*
X32190D01*
X31980Y13536D02*
X32085D01*
X32295Y13379D02*
Y13694D01*
X32453D01*
X32505Y13641D01*
Y13536D01*
X32453Y13484D01*
X32295D01*
X32400D02*
X32505Y13379D01*
X11579Y12229D02*
Y12544D01*
X11684Y12439D01*
X11789Y12544D01*
Y12229D01*
X12051Y12544D02*
X11946D01*
X11894Y12491D01*
Y12281D01*
X11946Y12229D01*
X12051D01*
X12104Y12281D01*
Y12491D01*
X12051Y12544D01*
X12418Y12491D02*
X12366Y12544D01*
X12261D01*
X12208Y12491D01*
Y12439D01*
X12261Y12386D01*
X12366D01*
X12418Y12334D01*
Y12281D01*
X12366Y12229D01*
X12261D01*
X12208Y12281D01*
X12733Y12544D02*
X12523D01*
Y12386D01*
X12628D01*
X12523D01*
Y12229D01*
X13048Y12544D02*
X12838D01*
Y12229D01*
X13048D01*
X12838Y12386D02*
X12943D01*
X13153Y12544D02*
X13363D01*
X13258D01*
Y12229D01*
X13783Y12544D02*
Y12229D01*
X13940D01*
X13993Y12281D01*
Y12491D01*
X13940Y12544D01*
X13783D01*
X14098Y12229D02*
Y12544D01*
X14255D01*
X14308Y12491D01*
Y12386D01*
X14255Y12334D01*
X14098D01*
X14203D02*
X14308Y12229D01*
X14412Y12544D02*
X14517D01*
X14465D01*
Y12229D01*
X14412D01*
X14517D01*
X14675Y12544D02*
Y12334D01*
X14780Y12229D01*
X14885Y12334D01*
Y12544D01*
X15200D02*
X14990D01*
Y12229D01*
X15200D01*
X14990Y12386D02*
X15095D01*
X15305Y12229D02*
Y12544D01*
X15462D01*
X15514Y12491D01*
Y12386D01*
X15462Y12334D01*
X15305D01*
X15410D02*
X15514Y12229D01*
X15029Y7305D02*
Y7620D01*
X15239Y7305D01*
Y7620D01*
X15553Y7567D02*
X15501Y7620D01*
X15396D01*
X15344Y7567D01*
Y7358D01*
X15396Y7305D01*
X15501D01*
X15553Y7358D01*
X15186Y8620D02*
X15081D01*
X15029Y8567D01*
Y8358D01*
X15081Y8305D01*
X15186D01*
X15239Y8358D01*
Y8567D01*
X15186Y8620D01*
X15344D02*
Y8358D01*
X15396Y8305D01*
X15501D01*
X15553Y8358D01*
Y8620D01*
X15658D02*
X15868D01*
X15763D01*
Y8305D01*
X15239Y6567D02*
X15186Y6620D01*
X15081D01*
X15029Y6567D01*
Y6358D01*
X15081Y6305D01*
X15186D01*
X15239Y6358D01*
Y6462D01*
X15134D01*
X15344Y6305D02*
Y6620D01*
X15553Y6305D01*
Y6620D01*
X15658D02*
Y6305D01*
X15816D01*
X15868Y6358D01*
Y6567D01*
X15816Y6620D01*
X15658D01*
X15239Y9620D02*
X15029D01*
Y9462D01*
X15134Y9515D01*
X15186D01*
X15239Y9462D01*
Y9358D01*
X15186Y9305D01*
X15081D01*
X15029Y9358D01*
X15344Y9620D02*
Y9410D01*
X15449Y9305D01*
X15553Y9410D01*
Y9620D01*
X5089Y10491D02*
X5036Y10544D01*
X4931D01*
X4879Y10491D01*
Y10439D01*
X4931Y10386D01*
X5036D01*
X5089Y10334D01*
Y10281D01*
X5036Y10229D01*
X4931D01*
X4879Y10281D01*
X5404Y10491D02*
X5351Y10544D01*
X5246D01*
X5194Y10491D01*
Y10281D01*
X5246Y10229D01*
X5351D01*
X5404Y10281D01*
X5508Y10544D02*
Y10229D01*
X5718D01*
X3917Y10491D02*
X3865Y10544D01*
X3760D01*
X3707Y10491D01*
Y10439D01*
X3760Y10386D01*
X3865D01*
X3917Y10334D01*
Y10281D01*
X3865Y10229D01*
X3760D01*
X3707Y10281D01*
X4022Y10544D02*
Y10229D01*
X4179D01*
X4232Y10281D01*
Y10491D01*
X4179Y10544D01*
X4022D01*
X4337Y10229D02*
Y10439D01*
X4442Y10544D01*
X4547Y10439D01*
Y10229D01*
Y10386D01*
X4337D01*
X3060Y10544D02*
X2850D01*
Y10386D01*
X2955Y10439D01*
X3008D01*
X3060Y10386D01*
Y10281D01*
X3008Y10229D01*
X2903D01*
X2850Y10281D01*
X3165Y10544D02*
Y10334D01*
X3270Y10229D01*
X3375Y10334D01*
Y10544D01*
X1889Y10491D02*
X1836Y10544D01*
X1731D01*
X1679Y10491D01*
Y10281D01*
X1731Y10229D01*
X1836D01*
X1889Y10281D01*
Y10386D01*
X1784D01*
X1994Y10229D02*
Y10544D01*
X2204Y10229D01*
Y10544D01*
X2308D02*
Y10229D01*
X2466D01*
X2518Y10281D01*
Y10491D01*
X2466Y10544D01*
X2308D01*
X-1371Y9079D02*
Y9394D01*
X-1266Y9289D01*
X-1161Y9394D01*
Y9079D01*
X-847Y9341D02*
X-899Y9394D01*
X-1004D01*
X-1056Y9341D01*
Y9131D01*
X-1004Y9079D01*
X-899D01*
X-847Y9131D01*
X-742Y9394D02*
Y9131D01*
X-689Y9079D01*
X-584D01*
X-532Y9131D01*
Y9394D01*
X493Y24694D02*
X388D01*
X336Y24641D01*
Y24431D01*
X388Y24379D01*
X493D01*
X546Y24431D01*
Y24641D01*
X493Y24694D01*
X651D02*
Y24431D01*
X703Y24379D01*
X808D01*
X861Y24431D01*
Y24694D01*
X966D02*
X1176D01*
X1071D01*
Y24379D01*
X4622Y24694D02*
X4832D01*
X9137Y24641D02*
X9347D01*
X9242Y24746D02*
Y24536D01*
X7169Y24694D02*
X7379D01*
X32541Y3625D02*
X32594Y3677D01*
Y3782D01*
X32541Y3835D01*
X32331D01*
X32279Y3782D01*
Y3677D01*
X32331Y3625D01*
X32436D01*
Y3730D01*
X32279Y3520D02*
X32594D01*
X32279Y3310D01*
X32594D01*
Y3205D02*
X32279D01*
Y3048D01*
X32331Y2995D01*
X32541D01*
X32594Y3048D01*
Y3205D01*
X32279Y5764D02*
Y5659D01*
Y5712D01*
X32594D01*
X32541Y5764D01*
X32279Y5292D02*
Y5502D01*
X32489Y5292D01*
X32541D01*
X32594Y5344D01*
Y5449D01*
X32541Y5502D01*
X32594Y5187D02*
X32384D01*
X32279Y5082D01*
X32384Y4977D01*
X32594D01*
X22939Y24694D02*
X22886Y24746D01*
X22781D01*
X22729Y24694D01*
Y24641D01*
X22781Y24589D01*
X22886D01*
X22939Y24536D01*
Y24484D01*
X22886Y24431D01*
X22781D01*
X22729Y24484D01*
X23254Y24694D02*
X23201Y24746D01*
X23096D01*
X23044Y24694D01*
Y24641D01*
X23096Y24589D01*
X23201D01*
X23254Y24536D01*
Y24484D01*
X23201Y24431D01*
X23096D01*
X23044Y24484D01*
X23358Y24431D02*
Y24746D01*
X23516D01*
X23568Y24694D01*
Y24589D01*
X23516Y24536D01*
X23358D01*
X23463D02*
X23568Y24431D01*
X27469D02*
Y24746D01*
X27679Y24431D01*
Y24746D01*
X29647D02*
X29437D01*
Y24589D01*
X29542D01*
X29437D01*
Y24431D01*
X16785Y17562D02*
X16995Y17353D01*
X16785D02*
X16995Y17562D01*
X16785Y17457D02*
X16995D01*
X16890Y17353D02*
Y17562D01*
X6657Y18838D02*
X6343D01*
Y18995D01*
X6395Y19048D01*
X6500D01*
X6552Y18995D01*
Y18838D01*
X6657Y19362D02*
Y19152D01*
X6448Y19362D01*
X6395D01*
X6343Y19310D01*
Y19205D01*
X6395Y19152D01*
X10342Y18888D02*
X10027D01*
Y19045D01*
X10079Y19098D01*
X10184D01*
X10237Y19045D01*
Y18888D01*
X10342Y19202D02*
Y19307D01*
Y19255D01*
X10027D01*
X10079Y19202D01*
X23106Y18543D02*
Y18857D01*
X23264D01*
X23316Y18805D01*
Y18700D01*
X23264Y18648D01*
X23106D01*
X23211D02*
X23316Y18543D01*
X23421D02*
X23526D01*
X23474D01*
Y18857D01*
X23421Y18805D01*
X23894Y18857D02*
X23684D01*
Y18700D01*
X23789Y18752D01*
X23841D01*
X23894Y18700D01*
Y18595D01*
X23841Y18543D01*
X23736D01*
X23684Y18595D01*
X19808Y15857D02*
Y15543D01*
X19965D01*
X20018Y15595D01*
Y15805D01*
X19965Y15857D01*
X19808D01*
X20123Y15595D02*
X20175Y15543D01*
X20280D01*
X20333Y15595D01*
Y15805D01*
X20280Y15857D01*
X20175D01*
X20123Y15805D01*
Y15753D01*
X20175Y15700D01*
X20333D01*
X16338Y9757D02*
Y9443D01*
X16495D01*
X16548Y9495D01*
Y9548D01*
X16495Y9600D01*
X16338D01*
X16495D01*
X16548Y9652D01*
Y9705D01*
X16495Y9757D01*
X16338D01*
X16810Y9443D02*
Y9757D01*
X16652Y9600D01*
X16862D01*
X19988Y9757D02*
Y9443D01*
X20145D01*
X20198Y9495D01*
Y9548D01*
X20145Y9600D01*
X19988D01*
X20145D01*
X20198Y9652D01*
Y9705D01*
X20145Y9757D01*
X19988D01*
X20302Y9705D02*
X20355Y9757D01*
X20460D01*
X20512Y9705D01*
Y9652D01*
X20460Y9600D01*
X20407D01*
X20460D01*
X20512Y9548D01*
Y9495D01*
X20460Y9443D01*
X20355D01*
X20302Y9495D01*
X18138Y7507D02*
Y7193D01*
X18295D01*
X18348Y7245D01*
Y7298D01*
X18295Y7350D01*
X18138D01*
X18295D01*
X18348Y7402D01*
Y7455D01*
X18295Y7507D01*
X18138D01*
X18662Y7193D02*
X18452D01*
X18662Y7402D01*
Y7455D01*
X18610Y7507D01*
X18505D01*
X18452Y7455D01*
X18138Y9307D02*
Y8993D01*
X18295D01*
X18348Y9045D01*
Y9098D01*
X18295Y9150D01*
X18138D01*
X18295D01*
X18348Y9202D01*
Y9255D01*
X18295Y9307D01*
X18138D01*
X18452Y8993D02*
X18557D01*
X18505D01*
Y9307D01*
X18452Y9255D01*
X20948Y6557D02*
X20843D01*
X20895D01*
Y6295D01*
X20843Y6243D01*
X20790D01*
X20738Y6295D01*
X21052D02*
X21105Y6243D01*
X21210D01*
X21262Y6295D01*
Y6505D01*
X21210Y6557D01*
X21105D01*
X21052Y6505D01*
Y6452D01*
X21105Y6400D01*
X21262D01*
X11355Y18950D02*
X11145D01*
X11093Y18898D01*
Y18793D01*
X11145Y18740D01*
X11355D01*
X11407Y18793D01*
Y18898D01*
X11302Y18845D02*
X11407Y18950D01*
Y18898D02*
X11355Y18950D01*
X11407Y19055D02*
Y19160D01*
Y19107D01*
X11093D01*
X11145Y19055D01*
X21788Y13657D02*
Y13395D01*
X21840Y13343D01*
X21945D01*
X21998Y13395D01*
Y13657D01*
X22102D02*
X22312D01*
Y13605D01*
X22102Y13395D01*
Y13343D01*
X8088Y16657D02*
Y16395D01*
X8140Y16343D01*
X8245D01*
X8298Y16395D01*
Y16657D01*
X8612D02*
X8507Y16605D01*
X8402Y16500D01*
Y16395D01*
X8455Y16343D01*
X8560D01*
X8612Y16395D01*
Y16448D01*
X8560Y16500D01*
X8402D01*
X18643Y16488D02*
X18905D01*
X18957Y16540D01*
Y16645D01*
X18905Y16698D01*
X18643D01*
Y17012D02*
Y16802D01*
X18800D01*
X18748Y16907D01*
Y16960D01*
X18800Y17012D01*
X18905D01*
X18957Y16960D01*
Y16855D01*
X18905Y16802D01*
X20338Y5207D02*
Y4945D01*
X20390Y4893D01*
X20495D01*
X20548Y4945D01*
Y5207D01*
X20810Y4893D02*
Y5207D01*
X20652Y5050D01*
X20862D01*
X26606Y12893D02*
Y13207D01*
X26764D01*
X26816Y13155D01*
Y13050D01*
X26764Y12998D01*
X26606D01*
X26711D02*
X26816Y12893D01*
X26921D02*
X27026D01*
X26974D01*
Y13207D01*
X26921Y13155D01*
X27341Y12893D02*
Y13207D01*
X27184Y13050D01*
X27394D01*
X24357Y10456D02*
X24043D01*
Y10614D01*
X24095Y10666D01*
X24200D01*
X24252Y10614D01*
Y10456D01*
Y10561D02*
X24357Y10666D01*
Y10771D02*
Y10876D01*
Y10824D01*
X24043D01*
X24095Y10771D01*
Y11034D02*
X24043Y11086D01*
Y11191D01*
X24095Y11244D01*
X24148D01*
X24200Y11191D01*
Y11139D01*
Y11191D01*
X24252Y11244D01*
X24305D01*
X24357Y11191D01*
Y11086D01*
X24305Y11034D01*
X19706Y19393D02*
Y19707D01*
X19864D01*
X19916Y19655D01*
Y19550D01*
X19864Y19498D01*
X19706D01*
X19811D02*
X19916Y19393D01*
X20021D02*
X20126D01*
X20074D01*
Y19707D01*
X20021Y19655D01*
X20494Y19393D02*
X20284D01*
X20494Y19602D01*
Y19655D01*
X20441Y19707D01*
X20336D01*
X20284Y19655D01*
X19959Y12643D02*
Y12957D01*
X20116D01*
X20169Y12905D01*
Y12800D01*
X20116Y12748D01*
X19959D01*
X20064D02*
X20169Y12643D01*
X20274D02*
X20379D01*
X20326D01*
Y12957D01*
X20274Y12905D01*
X20536Y12643D02*
X20641D01*
X20589D01*
Y12957D01*
X20536Y12905D01*
X13206Y15543D02*
Y15857D01*
X13364D01*
X13416Y15805D01*
Y15700D01*
X13364Y15648D01*
X13206D01*
X13311D02*
X13416Y15543D01*
X13521D02*
X13626D01*
X13574D01*
Y15857D01*
X13521Y15805D01*
X13784D02*
X13836Y15857D01*
X13941D01*
X13994Y15805D01*
Y15595D01*
X13941Y15543D01*
X13836D01*
X13784Y15595D01*
Y15805D01*
X6538Y13793D02*
Y14107D01*
X6695D01*
X6748Y14055D01*
Y13950D01*
X6695Y13898D01*
X6538D01*
X6643D02*
X6748Y13793D01*
X6852Y13845D02*
X6905Y13793D01*
X7010D01*
X7062Y13845D01*
Y14055D01*
X7010Y14107D01*
X6905D01*
X6852Y14055D01*
Y14002D01*
X6905Y13950D01*
X7062D01*
X6507Y14338D02*
X6193D01*
Y14495D01*
X6245Y14548D01*
X6350D01*
X6402Y14495D01*
Y14338D01*
Y14443D02*
X6507Y14548D01*
X6245Y14652D02*
X6193Y14705D01*
Y14810D01*
X6245Y14862D01*
X6298D01*
X6350Y14810D01*
X6402Y14862D01*
X6455D01*
X6507Y14810D01*
Y14705D01*
X6455Y14652D01*
X6402D01*
X6350Y14705D01*
X6298Y14652D01*
X6245D01*
X6350Y14705D02*
Y14810D01*
X9788Y15193D02*
Y15507D01*
X9945D01*
X9998Y15455D01*
Y15350D01*
X9945Y15298D01*
X9788D01*
X9893D02*
X9998Y15193D01*
X10102Y15507D02*
X10312D01*
Y15455D01*
X10102Y15245D01*
Y15193D01*
X17488Y20043D02*
Y20357D01*
X17645D01*
X17698Y20305D01*
Y20200D01*
X17645Y20148D01*
X17488D01*
X17593D02*
X17698Y20043D01*
X18012Y20357D02*
X17907Y20305D01*
X17802Y20200D01*
Y20095D01*
X17855Y20043D01*
X17960D01*
X18012Y20095D01*
Y20148D01*
X17960Y20200D01*
X17802D01*
X17488Y18493D02*
Y18807D01*
X17645D01*
X17698Y18755D01*
Y18650D01*
X17645Y18598D01*
X17488D01*
X17593D02*
X17698Y18493D01*
X18012Y18807D02*
X17802D01*
Y18650D01*
X17907Y18702D01*
X17960D01*
X18012Y18650D01*
Y18545D01*
X17960Y18493D01*
X17855D01*
X17802Y18545D01*
X18238Y3943D02*
Y4257D01*
X18395D01*
X18448Y4205D01*
Y4100D01*
X18395Y4048D01*
X18238D01*
X18343D02*
X18448Y3943D01*
X18710D02*
Y4257D01*
X18552Y4100D01*
X18762D01*
X16157Y4088D02*
X15843D01*
Y4245D01*
X15895Y4298D01*
X16000D01*
X16052Y4245D01*
Y4088D01*
Y4193D02*
X16157Y4298D01*
X15895Y4402D02*
X15843Y4455D01*
Y4560D01*
X15895Y4612D01*
X15948D01*
X16000Y4560D01*
Y4507D01*
Y4560D01*
X16052Y4612D01*
X16105D01*
X16157Y4560D01*
Y4455D01*
X16105Y4402D01*
X17438Y4443D02*
Y4757D01*
X17595D01*
X17648Y4705D01*
Y4600D01*
X17595Y4548D01*
X17438D01*
X17543D02*
X17648Y4443D01*
X17962D02*
X17752D01*
X17962Y4652D01*
Y4705D01*
X17910Y4757D01*
X17805D01*
X17752Y4705D01*
X15140Y4443D02*
Y4757D01*
X15298D01*
X15350Y4705D01*
Y4600D01*
X15298Y4548D01*
X15140D01*
X15245D02*
X15350Y4443D01*
X15455D02*
X15560D01*
X15507D01*
Y4757D01*
X15455Y4705D01*
X21898Y19745D02*
Y19955D01*
X21845Y20007D01*
X21740D01*
X21688Y19955D01*
Y19745D01*
X21740Y19693D01*
X21845D01*
X21793Y19798D02*
X21898Y19693D01*
X21845D02*
X21898Y19745D01*
X22002Y19955D02*
X22055Y20007D01*
X22160D01*
X22212Y19955D01*
Y19902D01*
X22160Y19850D01*
X22107D01*
X22160D01*
X22212Y19798D01*
Y19745D01*
X22160Y19693D01*
X22055D01*
X22002Y19745D01*
X6098Y17056D02*
Y17266D01*
X6045Y17319D01*
X5940D01*
X5888Y17266D01*
Y17056D01*
X5940Y17004D01*
X6045D01*
X5993Y17109D02*
X6098Y17004D01*
X6045D02*
X6098Y17056D01*
X6412Y17004D02*
X6202D01*
X6412Y17214D01*
Y17266D01*
X6360Y17319D01*
X6255D01*
X6202Y17266D01*
X18457Y375D02*
X18143D01*
X18457Y585D01*
X18143D01*
Y690D02*
Y900D01*
Y795D01*
X18457D01*
X18195Y1215D02*
X18143Y1162D01*
Y1057D01*
X18195Y1005D01*
X18405D01*
X18457Y1057D01*
Y1162D01*
X18405Y1215D01*
X18457Y1320D02*
Y1425D01*
Y1372D01*
X18143D01*
X18195Y1320D01*
X-10Y20757D02*
Y20443D01*
Y20548D01*
X200Y20757D01*
X43Y20600D01*
X200Y20443D01*
X305D02*
X410D01*
X357D01*
Y20757D01*
X305Y20705D01*
X20348Y20757D02*
X20243D01*
X20295D01*
Y20495D01*
X20243Y20443D01*
X20190D01*
X20138Y20495D01*
X20452Y20705D02*
X20505Y20757D01*
X20610D01*
X20662Y20705D01*
Y20652D01*
X20610Y20600D01*
X20662Y20548D01*
Y20495D01*
X20610Y20443D01*
X20505D01*
X20452Y20495D01*
Y20548D01*
X20505Y20600D01*
X20452Y20652D01*
Y20705D01*
X20505Y20600D02*
X20610D01*
X28748Y20757D02*
X28643D01*
X28695D01*
Y20495D01*
X28643Y20443D01*
X28590D01*
X28538Y20495D01*
X28852Y20757D02*
X29062D01*
Y20705D01*
X28852Y20495D01*
Y20443D01*
X2748Y20757D02*
X2643D01*
X2695D01*
Y20495D01*
X2643Y20443D01*
X2590D01*
X2538Y20495D01*
X3062Y20757D02*
X2957Y20705D01*
X2852Y20600D01*
Y20495D01*
X2905Y20443D01*
X3010D01*
X3062Y20495D01*
Y20548D01*
X3010Y20600D01*
X2852D01*
X8298Y20757D02*
X8193D01*
X8245D01*
Y20495D01*
X8193Y20443D01*
X8140D01*
X8088Y20495D01*
X8612Y20757D02*
X8402D01*
Y20600D01*
X8507Y20652D01*
X8560D01*
X8612Y20600D01*
Y20495D01*
X8560Y20443D01*
X8455D01*
X8402Y20495D01*
X15248Y20757D02*
X15143D01*
X15195D01*
Y20495D01*
X15143Y20443D01*
X15090D01*
X15038Y20495D01*
X15510Y20443D02*
Y20757D01*
X15352Y20600D01*
X15562D01*
X843Y9498D02*
Y9393D01*
Y9445D01*
X1105D01*
X1157Y9393D01*
Y9340D01*
X1105Y9288D01*
X895Y9602D02*
X843Y9655D01*
Y9760D01*
X895Y9812D01*
X948D01*
X1000Y9760D01*
Y9707D01*
Y9760D01*
X1052Y9812D01*
X1105D01*
X1157Y9760D01*
Y9655D01*
X1105Y9602D01*
X13261Y10198D02*
X13156D01*
X13209D01*
Y9936D01*
X13156Y9883D01*
X13104D01*
X13051Y9936D01*
X13576Y9883D02*
X13366D01*
X13576Y10093D01*
Y10146D01*
X13524Y10198D01*
X13419D01*
X13366Y10146D01*
X32193Y17488D02*
X32507D01*
Y17645D01*
X32455Y17698D01*
X32245D01*
X32193Y17645D01*
Y17488D01*
X32245Y17802D02*
X32193Y17855D01*
Y17960D01*
X32245Y18012D01*
X32298D01*
X32350Y17960D01*
X32402Y18012D01*
X32455D01*
X32507Y17960D01*
Y17855D01*
X32455Y17802D01*
X32402D01*
X32350Y17855D01*
X32298Y17802D01*
X32245D01*
X32350Y17855D02*
Y17960D01*
X24643Y17488D02*
X24957D01*
Y17645D01*
X24905Y17698D01*
X24695D01*
X24643Y17645D01*
Y17488D01*
Y17802D02*
Y18012D01*
X24695D01*
X24905Y17802D01*
X24957D01*
X29632Y19772D02*
Y19457D01*
X29790D01*
X29842Y19510D01*
Y19720D01*
X29790Y19772D01*
X29632D01*
X30157D02*
X30052Y19720D01*
X29947Y19615D01*
Y19510D01*
X30000Y19457D01*
X30105D01*
X30157Y19510D01*
Y19562D01*
X30105Y19615D01*
X29947D01*
X27232Y19772D02*
Y19457D01*
X27390D01*
X27442Y19510D01*
Y19720D01*
X27390Y19772D01*
X27232D01*
X27757D02*
X27547D01*
Y19615D01*
X27652Y19667D01*
X27705D01*
X27757Y19615D01*
Y19510D01*
X27705Y19457D01*
X27600D01*
X27547Y19510D01*
X15273Y14671D02*
Y14356D01*
X15430D01*
X15483Y14409D01*
Y14618D01*
X15430Y14671D01*
X15273D01*
X15745Y14356D02*
Y14671D01*
X15588Y14513D01*
X15797D01*
X-607Y11288D02*
X-293D01*
Y11445D01*
X-345Y11498D01*
X-555D01*
X-607Y11445D01*
Y11288D01*
X-555Y11602D02*
X-607Y11655D01*
Y11760D01*
X-555Y11812D01*
X-502D01*
X-450Y11760D01*
Y11707D01*
Y11760D01*
X-398Y11812D01*
X-345D01*
X-293Y11760D01*
Y11655D01*
X-345Y11602D01*
X5488Y12107D02*
Y11793D01*
X5645D01*
X5698Y11845D01*
Y12055D01*
X5645Y12107D01*
X5488D01*
X6012Y11793D02*
X5802D01*
X6012Y12002D01*
Y12055D01*
X5960Y12107D01*
X5855D01*
X5802Y12055D01*
X16893Y18640D02*
X17207D01*
Y18798D01*
X17155Y18850D01*
X16945D01*
X16893Y18798D01*
Y18640D01*
X17207Y18955D02*
Y19060D01*
Y19007D01*
X16893D01*
X16945Y18955D01*
X14648Y14618D02*
X14595Y14671D01*
X14490D01*
X14438Y14618D01*
Y14409D01*
X14490Y14356D01*
X14595D01*
X14648Y14409D01*
X14962Y14671D02*
X14857Y14618D01*
X14752Y14513D01*
Y14409D01*
X14805Y14356D01*
X14910D01*
X14962Y14409D01*
Y14461D01*
X14910Y14513D01*
X14752D01*
X17495Y15248D02*
X17443Y15195D01*
Y15090D01*
X17495Y15038D01*
X17705D01*
X17757Y15090D01*
Y15195D01*
X17705Y15248D01*
X17443Y15562D02*
Y15352D01*
X17600D01*
X17548Y15457D01*
Y15510D01*
X17600Y15562D01*
X17705D01*
X17757Y15510D01*
Y15405D01*
X17705Y15352D01*
X15695Y16648D02*
X15643Y16595D01*
Y16490D01*
X15695Y16438D01*
X15905D01*
X15957Y16490D01*
Y16595D01*
X15905Y16648D01*
X15957Y16910D02*
X15643D01*
X15800Y16752D01*
Y16962D01*
X22998Y4005D02*
X22945Y4057D01*
X22840D01*
X22788Y4005D01*
Y3795D01*
X22840Y3743D01*
X22945D01*
X22998Y3795D01*
X23102Y4005D02*
X23155Y4057D01*
X23260D01*
X23312Y4005D01*
Y3952D01*
X23260Y3900D01*
X23207D01*
X23260D01*
X23312Y3848D01*
Y3795D01*
X23260Y3743D01*
X23155D01*
X23102Y3795D01*
X26945Y7048D02*
X26893Y6995D01*
Y6890D01*
X26945Y6838D01*
X27155D01*
X27207Y6890D01*
Y6995D01*
X27155Y7048D01*
X27207Y7362D02*
Y7152D01*
X26998Y7362D01*
X26945D01*
X26893Y7310D01*
Y7205D01*
X26945Y7152D01*
X28050Y4827D02*
X27998Y4880D01*
X27893D01*
X27840Y4827D01*
Y4617D01*
X27893Y4565D01*
X27998D01*
X28050Y4617D01*
X28155Y4565D02*
X28260D01*
X28207D01*
Y4880D01*
X28155Y4827D01*
X-162Y707D02*
Y445D01*
X-110Y393D01*
X-5D01*
X48Y445D01*
Y707D01*
X152Y655D02*
X205Y707D01*
X310D01*
X362Y655D01*
Y602D01*
X310Y550D01*
X257D01*
X310D01*
X362Y498D01*
Y445D01*
X310Y393D01*
X205D01*
X152Y445D01*
X27038Y1407D02*
Y1145D01*
X27090Y1093D01*
X27195D01*
X27248Y1145D01*
Y1407D01*
X27562Y1093D02*
X27352D01*
X27562Y1302D01*
Y1355D01*
X27510Y1407D01*
X27405D01*
X27352Y1355D01*
X23740Y7157D02*
Y6895D01*
X23793Y6843D01*
X23898D01*
X23950Y6895D01*
Y7157D01*
X24055Y6843D02*
X24160D01*
X24107D01*
Y7157D01*
X24055Y7105D01*
X30450Y2007D02*
X30345D01*
X30398D01*
Y1745D01*
X30345Y1693D01*
X30293D01*
X30240Y1745D01*
X30555Y1693D02*
X30660D01*
X30607D01*
Y2007D01*
X30555Y1955D01*
D12*
X27600Y13000D02*
X32800D01*
X26650Y12050D02*
X27600Y13000D01*
X26650Y10200D02*
Y12050D01*
X26300Y9850D02*
X26650Y10200D01*
X24450Y9850D02*
X26300D01*
X24350Y9750D02*
X24450Y9850D01*
X24350Y7950D02*
Y9750D01*
X10900Y10850D02*
X19200D01*
X10900Y25050D02*
X19200D01*
Y10850D02*
Y25050D01*
X10900Y10850D02*
Y25050D01*
X32800Y7950D02*
Y13000D01*
X23550Y7950D02*
X32800D01*
X32800Y24600D02*
X32800Y12650D01*
X32354Y25046D02*
X32800Y24600D01*
X-1150Y25050D02*
X10750D01*
Y21000D02*
Y25050D01*
X19450Y19569D02*
Y25046D01*
X20414D02*
X21378D01*
X19450D02*
X20414D01*
X21378D02*
X22020D01*
X22650Y10175D02*
Y10850D01*
X19450D02*
X22650D01*
X19450D02*
Y19569D01*
X22650Y7950D02*
Y10175D01*
X10250Y10700D02*
X12850D01*
Y9150D02*
X13591Y8409D01*
X12850Y9150D02*
Y10700D01*
X10023D02*
X10250D01*
X-1750Y10050D02*
Y10700D01*
Y10850D02*
X10750D01*
X-1750D02*
Y24450D01*
X10750Y10850D02*
Y21000D01*
X13750Y5100D02*
Y5650D01*
Y150D02*
Y2100D01*
X22570Y680D02*
Y7801D01*
Y150D02*
Y680D01*
Y150D02*
X32400D01*
X32800Y550D01*
Y7801D01*
X30151D02*
X32800D01*
X22570D02*
X30151D01*
X22650Y7950D02*
X23550D01*
X14500Y150D02*
X16100D01*
X-1750Y10700D02*
X10023D01*
X-1750Y550D02*
Y10050D01*
Y550D02*
X-1350Y150D01*
X13591D01*
Y8409D01*
X22020Y25046D02*
X22346D01*
X32354D01*
X13750Y150D02*
X14500D01*
X-1750Y24450D02*
X-1150Y25050D01*
X13750Y2100D02*
Y5100D01*
X16100Y150D02*
X22450Y150D01*
Y5650D01*
X13750D02*
X22450D01*
D13*
X25950Y12650D02*
X26200D01*
X25950D02*
Y13650D01*
X26200D01*
Y12150D02*
Y14150D01*
X24200D02*
X26200D01*
X24200Y12150D02*
X26200D01*
X25950Y12650D02*
X26200D01*
X25950D02*
Y13650D01*
X26200D01*
X24200Y12150D02*
Y14150D01*
X11500Y850D02*
Y1850D01*
X1500Y850D02*
X11500D01*
X1500D02*
Y1850D01*
X2250D01*
X11500Y7850D02*
Y8850D01*
X1500Y7850D02*
X11500D01*
X1500D02*
Y8850D01*
X2250D01*
X9150Y13850D02*
X9400D01*
X9150D02*
Y14850D01*
X9400D01*
Y13350D02*
Y15350D01*
X7400D02*
X9400D01*
X7400Y13350D02*
X9400D01*
X9150Y13850D02*
X9400D01*
X9150D02*
Y14850D01*
X9400D01*
X7400Y13350D02*
Y15350D01*
X5435Y12237D02*
Y13576D01*
X6065Y12237D02*
Y13576D01*
X5435D02*
X6065D01*
X5435Y12237D02*
X6065Y12237D01*
X5483Y13623D02*
X6065D01*
X5435Y13671D02*
X6065D01*
X5435Y13576D02*
Y13671D01*
X6065Y13576D02*
Y13671D01*
X5435Y13576D02*
X6065D01*
X19755Y17419D02*
X20385D01*
Y17515D01*
X19755Y17419D02*
Y17515D01*
X20385D01*
X19803Y17467D02*
X20385D01*
X19755Y16081D02*
X20385Y16081D01*
X19755Y17419D02*
X20385D01*
Y16081D02*
Y17419D01*
X19755Y16081D02*
Y17419D01*
X21050Y16250D02*
X21300D01*
Y15250D02*
Y16250D01*
X21050Y15250D02*
X21300D01*
X21050Y14750D02*
Y16750D01*
Y14750D02*
X23050D01*
X21050Y16750D02*
X23050D01*
X21050Y16250D02*
X21300D01*
Y15250D02*
Y16250D01*
X21050Y15250D02*
X21300D01*
X23050Y14750D02*
Y16750D01*
D14*
X27905Y9973D02*
Y10627D01*
X28495Y9973D02*
Y10627D01*
X27905Y10017D02*
X28495D01*
X27905Y9977D02*
X28495D01*
X1665Y12032D02*
X3387D01*
X1340D02*
X1665D01*
X1340Y10969D02*
X1665D01*
X3387D01*
X1665D02*
Y12032D01*
X1340Y11500D02*
Y12032D01*
Y10969D02*
Y11500D01*
X3387Y10969D02*
Y11500D01*
Y12032D01*
X828Y11500D02*
X1340D01*
X3387D02*
X3899D01*
X12233Y17648D02*
X14635D01*
Y20247D01*
X12233D02*
X14635D01*
X12233Y17648D02*
Y17729D01*
Y20166D02*
Y20247D01*
X16730Y18491D02*
Y19145D01*
X16140Y18491D02*
Y19145D01*
Y19101D02*
X16730D01*
X16140Y19141D02*
X16730D01*
X29850Y17560D02*
Y18072D01*
Y15001D02*
Y15513D01*
X29318Y17560D02*
X29850D01*
X30382D01*
X29850Y15513D02*
X30382D01*
X29318D02*
X29850D01*
X29318Y15838D02*
X30382D01*
Y17560D01*
Y15513D02*
Y15838D01*
X29318Y15513D02*
Y15838D01*
Y17560D01*
X31550Y16126D02*
Y16638D01*
Y18685D02*
Y19197D01*
Y16638D02*
X32081D01*
X31019D02*
X31550D01*
X31019Y18685D02*
X31550D01*
X32081D01*
X31019Y18360D02*
X32081D01*
X31019Y16638D02*
Y18360D01*
Y18685D01*
X32081Y18360D02*
Y18685D01*
Y16638D02*
Y18360D01*
X27450Y17560D02*
Y18072D01*
Y15001D02*
Y15513D01*
X26918Y17560D02*
X27450D01*
X27982D01*
X27450Y15513D02*
X27982D01*
X26918D02*
X27450D01*
X26918Y15838D02*
X27982D01*
Y17560D01*
Y15513D02*
Y15838D01*
X26918Y15513D02*
Y15838D01*
Y17560D01*
X25650Y16126D02*
Y16638D01*
Y18685D02*
Y19197D01*
Y16638D02*
X26181D01*
X25119D02*
X25650D01*
X25119Y18685D02*
X25650D01*
X26181D01*
X25119Y18360D02*
X26181D01*
X25119Y16638D02*
Y18360D01*
Y18685D01*
X26181Y18360D02*
Y18685D01*
Y16638D02*
Y18360D01*
D15*
X24999Y9215D02*
X26456D01*
X24999Y8585D02*
X26456D01*
Y9215D01*
X24999Y8585D02*
Y9215D01*
X18185Y3756D02*
X18815D01*
X18185Y2299D02*
X18815D01*
X18185D02*
Y3756D01*
X18815Y2299D02*
Y3756D01*
X25322Y7415D02*
X26778D01*
X25322Y6785D02*
X26778D01*
Y7415D01*
X25322Y6785D02*
Y7415D01*
X6435Y12222D02*
Y13678D01*
X7065Y12222D02*
Y13678D01*
X6435D02*
X7065D01*
X6435Y12222D02*
X7065D01*
X9685Y13572D02*
X10315D01*
X9685Y15028D02*
X10315D01*
Y13572D02*
Y15028D01*
X9685Y13572D02*
Y15028D01*
X5435Y15278D02*
X6065D01*
X5435Y13822D02*
X6065D01*
X5435D02*
Y15278D01*
X6065Y13822D02*
Y15278D01*
X23185Y16972D02*
Y18428D01*
X23815Y16972D02*
Y18428D01*
X23185D02*
X23815D01*
X23185Y16972D02*
X23815D01*
X24472Y10485D02*
X25928D01*
X24472Y11115D02*
X25928D01*
X24472Y10485D02*
Y11115D01*
X25928Y10485D02*
Y11115D01*
X17007Y17735D02*
X18463D01*
X17007Y18365D02*
X18463D01*
X17007Y17735D02*
Y18365D01*
X18463Y17735D02*
Y18365D01*
X14400Y16242D02*
X15030D01*
X14400Y14785D02*
X15030D01*
X14400D02*
Y16242D01*
X15030Y14785D02*
Y16242D01*
X17907Y14519D02*
X18537D01*
X17907Y15976D02*
X18537D01*
Y14519D02*
Y15976D01*
X17907Y14519D02*
Y15976D01*
X17007Y19285D02*
X18463D01*
X17007Y19915D02*
X18463D01*
X17007Y19285D02*
Y19915D01*
X18463Y19285D02*
Y19915D01*
X16120Y15922D02*
X16750D01*
X16120Y17378D02*
X16750D01*
Y15922D02*
Y17378D01*
X16120Y15922D02*
Y17378D01*
X12872Y14785D02*
X14328D01*
X12872Y15415D02*
X14328D01*
X12872Y14785D02*
Y15415D01*
X14328Y14785D02*
Y15415D01*
X22700Y3601D02*
X23329D01*
X22700Y2144D02*
X23329D01*
X22700D02*
Y3601D01*
X23329Y2144D02*
Y3601D01*
X20385Y17772D02*
Y19228D01*
X19755Y17772D02*
Y19228D01*
Y17772D02*
X20385D01*
X19755Y19228D02*
X20385D01*
X26272Y13965D02*
X27728D01*
X26272Y13335D02*
X27728D01*
Y13965D01*
X26272Y13335D02*
Y13965D01*
X19985Y13072D02*
Y14528D01*
X20615Y13072D02*
Y14528D01*
X19985D02*
X20615D01*
X19985Y13072D02*
X20615D01*
X27735Y2972D02*
X28365D01*
X27735Y4428D02*
X28365D01*
Y2972D02*
Y4428D01*
X27735Y2972D02*
Y4428D01*
X14622Y5478D02*
X16078D01*
X14622Y4848D02*
X16078D01*
Y5478D01*
X14622Y4848D02*
Y5478D01*
X16972D02*
X18428D01*
X16972Y4848D02*
X18428D01*
Y5478D01*
X16972Y4848D02*
Y5478D01*
X16865Y4022D02*
Y5478D01*
X16235Y4022D02*
Y5478D01*
Y4022D02*
X16865D01*
X16235Y5478D02*
X16865D01*
D16*
X26990Y8650D02*
X27040Y8600D01*
X26990Y8650D02*
X27040Y8700D01*
X26990Y8650D02*
X27130D01*
X6700Y16090D02*
Y16230D01*
X6650Y16140D02*
X6700Y16090D01*
X6750Y16140D01*
X22450Y18690D02*
X22500Y18740D01*
X22400D02*
X22450Y18690D01*
Y18830D01*
D17*
X15107Y15374D02*
X15993D01*
X15107Y15324D02*
X15993D01*
Y14783D02*
Y16574D01*
X15107Y14778D02*
X15993D01*
X15107D02*
Y16569D01*
Y16574D02*
X15993D01*
D18*
X2250Y1850D02*
X11500D01*
X2250Y8850D02*
X11500D01*
D19*
X17340Y16110D02*
X18130D01*
Y16617D02*
Y16883D01*
X17340Y17390D02*
X18130D01*
M02*
