G04*
G04 #@! TF.GenerationSoftware,Altium Limited,Altium Designer,24.5.2 (23)*
G04*
G04 Layer_Color=12632256*
%FSLAX24Y24*%
%MOIN*%
G70*
G04*
G04 #@! TF.SameCoordinates,4401697E-1760-462A-BA91-34E0085D76CE*
G04*
G04*
G04 #@! TF.FilePolarity,Positive*
G04*
G01*
G75*
%ADD82C,0.0984*%
%ADD83C,0.0709*%
%ADD84R,0.0709X0.0709*%
%ADD85C,0.0768*%
G04:AMPARAMS|DCode=86|XSize=76.8mil|YSize=76.8mil|CornerRadius=19.2mil|HoleSize=0mil|Usage=FLASHONLY|Rotation=180.000|XOffset=0mil|YOffset=0mil|HoleType=Round|Shape=RoundedRectangle|*
%AMROUNDEDRECTD86*
21,1,0.0768,0.0384,0,0,180.0*
21,1,0.0384,0.0768,0,0,180.0*
1,1,0.0384,-0.0192,0.0192*
1,1,0.0384,0.0192,0.0192*
1,1,0.0384,0.0192,-0.0192*
1,1,0.0384,-0.0192,-0.0192*
%
%ADD86ROUNDEDRECTD86*%
%ADD87C,0.0650*%
%ADD88R,0.0650X0.0650*%
G04:AMPARAMS|DCode=89|XSize=63mil|YSize=63mil|CornerRadius=15.7mil|HoleSize=0mil|Usage=FLASHONLY|Rotation=0.000|XOffset=0mil|YOffset=0mil|HoleType=Round|Shape=RoundedRectangle|*
%AMROUNDEDRECTD89*
21,1,0.0630,0.0315,0,0,0.0*
21,1,0.0315,0.0630,0,0,0.0*
1,1,0.0315,0.0157,-0.0157*
1,1,0.0315,-0.0157,-0.0157*
1,1,0.0315,-0.0157,0.0157*
1,1,0.0315,0.0157,0.0157*
%
%ADD89ROUNDEDRECTD89*%
%ADD90C,0.0630*%
G04:AMPARAMS|DCode=91|XSize=76.8mil|YSize=76.8mil|CornerRadius=19.2mil|HoleSize=0mil|Usage=FLASHONLY|Rotation=90.000|XOffset=0mil|YOffset=0mil|HoleType=Round|Shape=RoundedRectangle|*
%AMROUNDEDRECTD91*
21,1,0.0768,0.0384,0,0,90.0*
21,1,0.0384,0.0768,0,0,90.0*
1,1,0.0384,0.0192,0.0192*
1,1,0.0384,0.0192,-0.0192*
1,1,0.0384,-0.0192,-0.0192*
1,1,0.0384,-0.0192,0.0192*
%
%ADD91ROUNDEDRECTD91*%
%ADD92R,0.0620X0.0620*%
%ADD93C,0.0620*%
G04:AMPARAMS|DCode=94|XSize=63mil|YSize=63mil|CornerRadius=15.7mil|HoleSize=0mil|Usage=FLASHONLY|Rotation=90.000|XOffset=0mil|YOffset=0mil|HoleType=Round|Shape=RoundedRectangle|*
%AMROUNDEDRECTD94*
21,1,0.0630,0.0315,0,0,90.0*
21,1,0.0315,0.0630,0,0,90.0*
1,1,0.0315,0.0157,0.0157*
1,1,0.0315,0.0157,-0.0157*
1,1,0.0315,-0.0157,-0.0157*
1,1,0.0315,-0.0157,0.0157*
%
%ADD94ROUNDEDRECTD94*%
%ADD95C,0.1181*%
%ADD96R,0.0709X0.0709*%
%ADD97C,0.0598*%
G04:AMPARAMS|DCode=98|XSize=59.8mil|YSize=59.8mil|CornerRadius=15mil|HoleSize=0mil|Usage=FLASHONLY|Rotation=270.000|XOffset=0mil|YOffset=0mil|HoleType=Round|Shape=RoundedRectangle|*
%AMROUNDEDRECTD98*
21,1,0.0598,0.0299,0,0,270.0*
21,1,0.0299,0.0598,0,0,270.0*
1,1,0.0299,-0.0150,-0.0150*
1,1,0.0299,-0.0150,0.0150*
1,1,0.0299,0.0150,0.0150*
1,1,0.0299,0.0150,-0.0150*
%
%ADD98ROUNDEDRECTD98*%
G04:AMPARAMS|DCode=99|XSize=59.8mil|YSize=59.8mil|CornerRadius=15mil|HoleSize=0mil|Usage=FLASHONLY|Rotation=180.000|XOffset=0mil|YOffset=0mil|HoleType=Round|Shape=RoundedRectangle|*
%AMROUNDEDRECTD99*
21,1,0.0598,0.0299,0,0,180.0*
21,1,0.0299,0.0598,0,0,180.0*
1,1,0.0299,-0.0150,0.0150*
1,1,0.0299,0.0150,0.0150*
1,1,0.0299,0.0150,-0.0150*
1,1,0.0299,-0.0150,-0.0150*
%
%ADD99ROUNDEDRECTD99*%
D82*
X4212Y19191D02*
D03*
X-512D02*
D03*
X4212Y14387D02*
D03*
X-512D02*
D03*
X1850Y13600D02*
D03*
D83*
X25650Y15575D02*
D03*
X4450Y11500D02*
D03*
X29850Y18623D02*
D03*
X31550Y15575D02*
D03*
X27450Y18623D02*
D03*
D84*
X25650Y19748D02*
D03*
X29850Y14450D02*
D03*
X31550Y19748D02*
D03*
X27450Y14450D02*
D03*
D85*
X27666Y22600D02*
D03*
X30350Y11184D02*
D03*
Y5334D02*
D03*
X882Y22600D02*
D03*
X2850D02*
D03*
X7366D02*
D03*
X13397D02*
D03*
X15366D02*
D03*
X16984Y1900D02*
D03*
X23182Y22600D02*
D03*
X21213D02*
D03*
D86*
X29634D02*
D03*
X4818D02*
D03*
X9334D02*
D03*
X17334D02*
D03*
X15016Y1900D02*
D03*
X25150Y22600D02*
D03*
D87*
X25700Y11650D02*
D03*
X24700D02*
D03*
Y14650D02*
D03*
X8900Y12850D02*
D03*
X7900D02*
D03*
Y15850D02*
D03*
X21550Y17250D02*
D03*
X22550D02*
D03*
Y14250D02*
D03*
D88*
X25700Y14650D02*
D03*
X8900Y15850D02*
D03*
X21550Y14250D02*
D03*
D89*
X29425Y7100D02*
D03*
D90*
X30425D02*
D03*
X31425D02*
D03*
X9334Y19550D02*
D03*
X7366D02*
D03*
D91*
X30350Y9216D02*
D03*
Y3366D02*
D03*
D92*
X2000Y1350D02*
D03*
Y8350D02*
D03*
D93*
X3000Y1350D02*
D03*
X4000D02*
D03*
X5000D02*
D03*
X6000D02*
D03*
X7000D02*
D03*
X8000D02*
D03*
X9000D02*
D03*
X10000D02*
D03*
X11000D02*
D03*
X3000Y8350D02*
D03*
X4000D02*
D03*
X5000D02*
D03*
X6000D02*
D03*
X7000D02*
D03*
X8000D02*
D03*
X9000D02*
D03*
X10000D02*
D03*
X11000D02*
D03*
D94*
X9334Y18550D02*
D03*
X7366D02*
D03*
D95*
X-1023Y835D02*
D03*
X32071D02*
D03*
Y24316D02*
D03*
X-1023Y24166D02*
D03*
D96*
X277Y11500D02*
D03*
D97*
X21950Y8850D02*
D03*
Y7850D02*
D03*
Y6850D02*
D03*
X2000Y9550D02*
D03*
X3000D02*
D03*
X4000D02*
D03*
X14300Y8850D02*
D03*
Y7850D02*
D03*
Y6850D02*
D03*
D98*
X21950Y9850D02*
D03*
X14300D02*
D03*
D99*
X5000Y9550D02*
D03*
M02*
