G04*
G04 #@! TF.GenerationSoftware,Altium Limited,Altium Designer,24.5.2 (23)*
G04*
G04 Layer_Color=16711935*
%FSLAX24Y24*%
%MOIN*%
G70*
G04*
G04 #@! TF.SameCoordinates,ED3D9C19-DC03-4723-BF3F-0792F9F3BFAD*
G04*
G04*
G04 #@! TF.FilePolarity,Positive*
G04*
G01*
G75*
%ADD11C,0.0079*%
%ADD12C,0.0050*%
%ADD13C,0.0100*%
%ADD15C,0.0039*%
%ADD17C,0.0025*%
%ADD102C,0.0010*%
D11*
X15590Y17618D02*
G03*
X15590Y17618I-39J0D01*
G01*
D12*
X25556Y7346D02*
X26544D01*
Y6854D02*
Y7346D01*
X25556Y6854D02*
X26544D01*
X25556D02*
Y7346D01*
X25557Y6854D02*
X26544D01*
X25556Y6855D02*
X25557Y6854D01*
X25556Y6855D02*
Y7346D01*
X26544D01*
Y6854D02*
Y7346D01*
X12233Y17648D02*
X14635D01*
Y20247D01*
X12233D02*
X14635D01*
X12233Y17648D02*
Y20247D01*
X14469Y15020D02*
X14961D01*
Y16007D01*
X14470D02*
X14961D01*
X14469Y16006D02*
X14470Y16007D01*
X14469Y15020D02*
Y16006D01*
Y16007D02*
X14961D01*
X14469Y15020D02*
Y16007D01*
Y15020D02*
X14961D01*
Y16007D01*
X17976Y15741D02*
X18468D01*
X17976Y14754D02*
Y15741D01*
Y14754D02*
X18467D01*
X18468Y14755D01*
Y15741D01*
X17976Y14754D02*
X18468D01*
Y15741D01*
X17976D02*
X18468D01*
X17976Y14754D02*
Y15741D01*
X16189Y17144D02*
X16681D01*
X16189Y16156D02*
Y17144D01*
Y16156D02*
X16680D01*
X16681Y16157D01*
Y17144D01*
X16189Y16156D02*
X16681D01*
Y17144D01*
X16189D02*
X16681D01*
X16189Y16156D02*
Y17144D01*
X22768Y2379D02*
X23260D01*
Y3366D01*
X22769D02*
X23260D01*
X22768Y3365D02*
X22769Y3366D01*
X22768Y2379D02*
Y3365D01*
Y3366D02*
X23260D01*
X22768Y2379D02*
Y3366D01*
Y2379D02*
X23260D01*
Y3366D01*
X27804Y4194D02*
X28296D01*
X27804Y3206D02*
Y4194D01*
Y3206D02*
X28295D01*
X28296Y3207D01*
Y4194D01*
X27804Y3206D02*
X28296D01*
Y4194D01*
X27804D02*
X28296D01*
X27804Y3206D02*
Y4194D01*
D13*
X32950Y24350D02*
G03*
X32151Y25149I-799J0D01*
G01*
X-1069Y25150D02*
G03*
X-1868Y24351I0J-799D01*
G01*
X-1868Y799D02*
G03*
X-1069Y0I799J0D01*
G01*
X32151Y1D02*
G03*
X32950Y800I0J799D01*
G01*
X-1069Y0D02*
X32150D01*
X-1069Y25150D02*
X32150Y25150D01*
X-1868Y799D02*
X-1868Y24351D01*
X32950Y800D02*
X32950Y24350D01*
X5367Y13241D02*
X5820D01*
X5367Y12592D02*
Y13241D01*
Y12592D02*
X5820D01*
Y13241D01*
X20140Y16435D02*
Y17085D01*
X19688Y16435D02*
X20140D01*
X19688D02*
Y17085D01*
X20140D01*
D15*
X27741Y8604D02*
Y9588D01*
X26559Y8604D02*
Y9588D01*
X27741D01*
X26559Y8604D02*
X27741D01*
X6746Y15659D02*
Y16841D01*
X5762Y15659D02*
Y16841D01*
Y15659D02*
X6746D01*
X5762Y16841D02*
X6746D01*
X21512Y19441D02*
X22496D01*
X21512Y18259D02*
X22496D01*
X21512D02*
Y19441D01*
X22496Y18259D02*
Y19441D01*
D17*
X15250Y14985D02*
X15850D01*
Y16362D01*
X15250D02*
X15850D01*
X15250Y14985D02*
Y16362D01*
D102*
X25234Y8653D02*
Y9145D01*
Y8653D02*
X26221D01*
Y9145D01*
X25234D02*
X26221D01*
X26221Y8653D02*
Y9145D01*
X25234D02*
X26221D01*
X25234Y8653D02*
Y9145D01*
Y8653D02*
X26221D01*
X18253Y2534D02*
Y3521D01*
X18745D01*
Y2534D02*
Y3521D01*
X18253Y2534D02*
X18745D01*
Y2534D02*
Y3521D01*
X18253Y2534D02*
X18745D01*
X18253D02*
Y3521D01*
X18745D01*
X6505Y12456D02*
X6997D01*
Y13444D01*
X6505D02*
X6997D01*
X6505Y12456D02*
Y13444D01*
Y13444D02*
X6997D01*
X6505Y12456D02*
Y13444D01*
Y12456D02*
X6997D01*
Y13444D01*
X10247Y13806D02*
Y14794D01*
X9755Y13806D02*
X10247D01*
X9755D02*
Y14794D01*
X10247D01*
X9755Y13806D02*
Y14794D01*
X10247D01*
Y13806D02*
Y14794D01*
X9755Y13806D02*
X10247D01*
X5503Y14056D02*
Y15044D01*
X5995D01*
Y14056D02*
Y15044D01*
X5503Y14056D02*
X5995D01*
Y14056D02*
Y15044D01*
X5503Y14056D02*
X5995D01*
X5503D02*
Y15044D01*
X5995D01*
X23255Y17206D02*
X23747D01*
Y18194D01*
X23255D02*
X23747D01*
X23255Y17206D02*
Y18194D01*
Y18194D02*
X23747D01*
X23255Y17206D02*
Y18194D01*
Y17206D02*
X23747D01*
Y18194D01*
X25694Y10555D02*
Y11047D01*
X24706D02*
X25694D01*
X24706Y10555D02*
Y11047D01*
Y10555D02*
X25694D01*
X24706D02*
Y11047D01*
Y10555D02*
X25694D01*
Y11047D01*
X24706D02*
X25694D01*
X18229Y17805D02*
Y18297D01*
X17241D02*
X18229D01*
X17241Y17805D02*
Y18297D01*
Y17805D02*
X18229D01*
X17241D02*
Y18297D01*
Y17805D02*
X18229D01*
Y18297D01*
X17241D02*
X18229D01*
X18229Y19355D02*
Y19847D01*
X17241D02*
X18229D01*
X17241Y19355D02*
Y19847D01*
Y19355D02*
X18229D01*
X17241D02*
Y19847D01*
Y19355D02*
X18229D01*
Y19847D01*
X17241D02*
X18229D01*
X14094Y14855D02*
Y15347D01*
X13106D02*
X14094D01*
X13106Y14855D02*
Y15347D01*
Y14855D02*
X14094D01*
X13106D02*
Y15347D01*
Y14855D02*
X14094D01*
Y15347D01*
X13106D02*
X14094D01*
X19823Y18994D02*
X20315D01*
X19823Y18006D02*
Y18994D01*
Y18006D02*
X20315D01*
Y18994D01*
X19823Y18006D02*
X20315D01*
Y18994D01*
X19823D02*
X20315D01*
X19823Y18006D02*
Y18994D01*
X26506Y13403D02*
Y13895D01*
Y13403D02*
X27494D01*
Y13895D01*
X26506D02*
X27494D01*
X27494Y13403D02*
Y13895D01*
X26506D02*
X27494D01*
X26506Y13403D02*
Y13895D01*
Y13403D02*
X27494D01*
X20055Y13306D02*
X20547D01*
Y14294D01*
X20055D02*
X20547D01*
X20055Y13306D02*
Y14294D01*
Y14294D02*
X20547D01*
X20055Y13306D02*
Y14294D01*
Y13306D02*
X20547D01*
Y14294D01*
X14856Y4916D02*
Y5408D01*
Y4916D02*
X15844D01*
Y5408D01*
X14856D02*
X15844D01*
X15844Y4916D02*
Y5408D01*
X14856D02*
X15844D01*
X14856Y4916D02*
Y5408D01*
Y4916D02*
X15844D01*
X17206D02*
Y5408D01*
Y4916D02*
X18194D01*
Y5408D01*
X17206D02*
X18194D01*
X18194Y4916D02*
Y5408D01*
X17206D02*
X18194D01*
X17206Y4916D02*
Y5408D01*
Y4916D02*
X18194D01*
X16303Y5244D02*
X16795D01*
X16303Y4256D02*
Y5244D01*
Y4256D02*
X16795D01*
Y5244D01*
X16303Y4256D02*
X16795D01*
Y5244D01*
X16303D02*
X16795D01*
X16303Y4256D02*
Y5244D01*
M02*
