G04*
G04 #@! TF.GenerationSoftware,Altium Limited,Altium Designer,24.5.2 (23)*
G04*
G04 Layer_Physical_Order=2*
G04 Layer_Color=16711680*
%FSLAX24Y24*%
%MOIN*%
G70*
G04*
G04 #@! TF.SameCoordinates,8AAE441C-8CDC-4473-BA07-673157910C72*
G04*
G04*
G04 #@! TF.FilePolarity,Positive*
G04*
G01*
G75*
%ADD62R,0.0551X0.0551*%
%ADD63C,0.0551*%
%ADD64C,0.0669*%
%ADD79C,0.0236*%
%ADD80C,0.0394*%
%ADD82C,0.0472*%
%ADD83C,0.0650*%
%ADD84R,0.0650X0.0650*%
G04:AMPARAMS|DCode=85|XSize=63mil|YSize=63mil|CornerRadius=15.7mil|HoleSize=0mil|Usage=FLASHONLY|Rotation=0.000|XOffset=0mil|YOffset=0mil|HoleType=Round|Shape=RoundedRectangle|*
%AMROUNDEDRECTD85*
21,1,0.0630,0.0315,0,0,0.0*
21,1,0.0315,0.0630,0,0,0.0*
1,1,0.0315,0.0157,-0.0157*
1,1,0.0315,-0.0157,-0.0157*
1,1,0.0315,-0.0157,0.0157*
1,1,0.0315,0.0157,0.0157*
%
%ADD85ROUNDEDRECTD85*%
%ADD86C,0.0630*%
G04:AMPARAMS|DCode=87|XSize=76.8mil|YSize=76.8mil|CornerRadius=19.2mil|HoleSize=0mil|Usage=FLASHONLY|Rotation=90.000|XOffset=0mil|YOffset=0mil|HoleType=Round|Shape=RoundedRectangle|*
%AMROUNDEDRECTD87*
21,1,0.0768,0.0384,0,0,90.0*
21,1,0.0384,0.0768,0,0,90.0*
1,1,0.0384,0.0192,0.0192*
1,1,0.0384,0.0192,-0.0192*
1,1,0.0384,-0.0192,-0.0192*
1,1,0.0384,-0.0192,0.0192*
%
%ADD87ROUNDEDRECTD87*%
%ADD88C,0.0768*%
%ADD89R,0.0620X0.0620*%
%ADD90C,0.0620*%
G04:AMPARAMS|DCode=91|XSize=63mil|YSize=63mil|CornerRadius=15.7mil|HoleSize=0mil|Usage=FLASHONLY|Rotation=90.000|XOffset=0mil|YOffset=0mil|HoleType=Round|Shape=RoundedRectangle|*
%AMROUNDEDRECTD91*
21,1,0.0630,0.0315,0,0,90.0*
21,1,0.0315,0.0630,0,0,90.0*
1,1,0.0315,0.0157,0.0157*
1,1,0.0315,0.0157,-0.0157*
1,1,0.0315,-0.0157,-0.0157*
1,1,0.0315,-0.0157,0.0157*
%
%ADD91ROUNDEDRECTD91*%
%ADD92C,0.1181*%
%ADD93C,0.0709*%
%ADD94R,0.0709X0.0709*%
G04:AMPARAMS|DCode=95|XSize=76.8mil|YSize=76.8mil|CornerRadius=19.2mil|HoleSize=0mil|Usage=FLASHONLY|Rotation=180.000|XOffset=0mil|YOffset=0mil|HoleType=Round|Shape=RoundedRectangle|*
%AMROUNDEDRECTD95*
21,1,0.0768,0.0384,0,0,180.0*
21,1,0.0384,0.0768,0,0,180.0*
1,1,0.0384,-0.0192,0.0192*
1,1,0.0384,0.0192,0.0192*
1,1,0.0384,0.0192,-0.0192*
1,1,0.0384,-0.0192,-0.0192*
%
%ADD95ROUNDEDRECTD95*%
%ADD96C,0.0598*%
G04:AMPARAMS|DCode=97|XSize=59.8mil|YSize=59.8mil|CornerRadius=15mil|HoleSize=0mil|Usage=FLASHONLY|Rotation=270.000|XOffset=0mil|YOffset=0mil|HoleType=Round|Shape=RoundedRectangle|*
%AMROUNDEDRECTD97*
21,1,0.0598,0.0299,0,0,270.0*
21,1,0.0299,0.0598,0,0,270.0*
1,1,0.0299,-0.0150,-0.0150*
1,1,0.0299,-0.0150,0.0150*
1,1,0.0299,0.0150,0.0150*
1,1,0.0299,0.0150,-0.0150*
%
%ADD97ROUNDEDRECTD97*%
G04:AMPARAMS|DCode=98|XSize=59.8mil|YSize=59.8mil|CornerRadius=15mil|HoleSize=0mil|Usage=FLASHONLY|Rotation=180.000|XOffset=0mil|YOffset=0mil|HoleType=Round|Shape=RoundedRectangle|*
%AMROUNDEDRECTD98*
21,1,0.0598,0.0299,0,0,180.0*
21,1,0.0299,0.0598,0,0,180.0*
1,1,0.0299,-0.0150,0.0150*
1,1,0.0299,0.0150,0.0150*
1,1,0.0299,0.0150,-0.0150*
1,1,0.0299,-0.0150,-0.0150*
%
%ADD98ROUNDEDRECTD98*%
%ADD99R,0.0709X0.0709*%
%ADD100C,0.0394*%
G36*
X-1069Y25048D02*
X32147Y25048D01*
X32151Y25047D01*
Y25047D01*
X32151Y25048D01*
X32287Y25034D01*
X32418Y24994D01*
X32538Y24930D01*
X32644Y24843D01*
X32731Y24738D01*
X32795Y24617D01*
X32835Y24486D01*
X32848Y24351D01*
X32848Y24350D01*
X32848Y800D01*
X32848Y799D01*
X32835Y664D01*
X32795Y533D01*
X32731Y412D01*
X32644Y307D01*
X32538Y220D01*
X32418Y156D01*
X32287Y116D01*
X32151Y102D01*
X32151Y103D01*
Y103D01*
X32147Y102D01*
X-1069D01*
X-1071Y102D01*
X-1206Y115D01*
X-1336Y155D01*
X-1457Y219D01*
X-1563Y306D01*
X-1649Y412D01*
X-1714Y532D01*
X-1753Y663D01*
X-1767Y798D01*
X-1767Y799D01*
X-1767Y24351D01*
X-1767Y24352D01*
X-1753Y24487D01*
X-1714Y24618D01*
X-1649Y24738D01*
X-1563Y24844D01*
X-1457Y24931D01*
X-1336Y24995D01*
X-1206Y25035D01*
X-1071Y25048D01*
X-1069Y25048D01*
D02*
G37*
%LPC*%
G36*
X32071Y24959D02*
X31946Y24947D01*
X31825Y24910D01*
X31714Y24851D01*
X31616Y24771D01*
X31536Y24673D01*
X31477Y24562D01*
X31440Y24441D01*
X31428Y24316D01*
X31440Y24190D01*
X31477Y24069D01*
X31536Y23958D01*
X31616Y23861D01*
X31714Y23781D01*
X31825Y23721D01*
X31946Y23684D01*
X32071Y23672D01*
X32197Y23684D01*
X32318Y23721D01*
X32429Y23781D01*
X32526Y23861D01*
X32606Y23958D01*
X32666Y24069D01*
X32703Y24190D01*
X32715Y24316D01*
X32703Y24441D01*
X32666Y24562D01*
X32606Y24673D01*
X32526Y24771D01*
X32429Y24851D01*
X32318Y24910D01*
X32197Y24947D01*
X32071Y24959D01*
D02*
G37*
G36*
X-1023Y24809D02*
X-1149Y24797D01*
X-1270Y24760D01*
X-1381Y24701D01*
X-1478Y24621D01*
X-1558Y24523D01*
X-1618Y24412D01*
X-1655Y24291D01*
X-1667Y24166D01*
X-1655Y24040D01*
X-1618Y23919D01*
X-1558Y23808D01*
X-1478Y23711D01*
X-1381Y23631D01*
X-1270Y23571D01*
X-1149Y23534D01*
X-1023Y23522D01*
X-898Y23534D01*
X-777Y23571D01*
X-666Y23631D01*
X-568Y23711D01*
X-488Y23808D01*
X-429Y23919D01*
X-392Y24040D01*
X-380Y24166D01*
X-392Y24291D01*
X-429Y24412D01*
X-488Y24523D01*
X-568Y24621D01*
X-666Y24701D01*
X-777Y24760D01*
X-898Y24797D01*
X-1023Y24809D01*
D02*
G37*
G36*
X29826Y23776D02*
X29442D01*
X29250Y23757D01*
X29066Y23701D01*
X28896Y23610D01*
X28746Y23488D01*
X28632Y23349D01*
X28576Y23338D01*
X28497Y23431D01*
X28356Y23551D01*
X28199Y23647D01*
X28029Y23717D01*
X27850Y23760D01*
X27666Y23775D01*
X27482Y23760D01*
X27303Y23717D01*
X27132Y23647D01*
X26975Y23551D01*
X26835Y23431D01*
X26715Y23291D01*
X26619Y23133D01*
X26548Y22963D01*
X26505Y22784D01*
X26491Y22600D01*
X26505Y22416D01*
X26548Y22237D01*
X26619Y22067D01*
X26715Y21909D01*
X26835Y21769D01*
X26975Y21649D01*
X27132Y21553D01*
X27303Y21483D01*
X27482Y21440D01*
X27544Y21435D01*
X28940Y20039D01*
Y19316D01*
X28923Y19296D01*
X28830Y19143D01*
X28761Y18977D01*
X28719Y18802D01*
X28705Y18623D01*
X28719Y18444D01*
X28761Y18269D01*
X28830Y18103D01*
X28923Y17950D01*
X29040Y17813D01*
X29177Y17697D01*
X29330Y17603D01*
X29496Y17534D01*
X29671Y17492D01*
X29850Y17478D01*
X30029Y17492D01*
X30204Y17534D01*
X30370Y17603D01*
X30523Y17697D01*
X30660Y17813D01*
X30777Y17950D01*
X30870Y18103D01*
X30939Y18269D01*
X30981Y18444D01*
X30994Y18606D01*
X32692D01*
Y20890D01*
X30623D01*
X30607Y20921D01*
X30493Y21059D01*
X30493Y21059D01*
X30123Y21430D01*
X30135Y21478D01*
X30203Y21499D01*
X30373Y21590D01*
X30522Y21712D01*
X30644Y21861D01*
X30735Y22031D01*
X30791Y22216D01*
X30810Y22408D01*
Y22792D01*
X30791Y22984D01*
X30735Y23169D01*
X30644Y23339D01*
X30522Y23488D01*
X30373Y23610D01*
X30203Y23701D01*
X30018Y23757D01*
X29826Y23776D01*
D02*
G37*
G36*
X23182Y23038D02*
X23068Y23023D01*
X22963Y22979D01*
X22872Y22909D01*
X22803Y22819D01*
X22759Y22713D01*
X22744Y22600D01*
X22759Y22487D01*
X22803Y22381D01*
X22872Y22291D01*
X22963Y22221D01*
X23068Y22177D01*
X23182Y22162D01*
X23295Y22177D01*
X23400Y22221D01*
X23491Y22291D01*
X23560Y22381D01*
X23604Y22487D01*
X23619Y22600D01*
X23604Y22713D01*
X23560Y22819D01*
X23491Y22909D01*
X23400Y22979D01*
X23295Y23023D01*
X23182Y23038D01*
D02*
G37*
G36*
X21213D02*
X21100Y23023D01*
X20994Y22979D01*
X20904Y22909D01*
X20834Y22819D01*
X20790Y22713D01*
X20775Y22600D01*
X20790Y22487D01*
X20834Y22381D01*
X20904Y22291D01*
X20994Y22221D01*
X21100Y22177D01*
X21213Y22162D01*
X21326Y22177D01*
X21432Y22221D01*
X21522Y22291D01*
X21592Y22381D01*
X21636Y22487D01*
X21651Y22600D01*
X21636Y22713D01*
X21592Y22819D01*
X21522Y22909D01*
X21432Y22979D01*
X21326Y23023D01*
X21213Y23038D01*
D02*
G37*
G36*
X15366D02*
X15252Y23023D01*
X15147Y22979D01*
X15056Y22909D01*
X14987Y22819D01*
X14943Y22713D01*
X14928Y22600D01*
X14943Y22487D01*
X14987Y22381D01*
X15056Y22291D01*
X15147Y22221D01*
X15252Y22177D01*
X15366Y22162D01*
X15479Y22177D01*
X15585Y22221D01*
X15675Y22291D01*
X15745Y22381D01*
X15788Y22487D01*
X15803Y22600D01*
X15788Y22713D01*
X15745Y22819D01*
X15675Y22909D01*
X15585Y22979D01*
X15479Y23023D01*
X15366Y23038D01*
D02*
G37*
G36*
X13397D02*
X13284Y23023D01*
X13178Y22979D01*
X13088Y22909D01*
X13018Y22819D01*
X12975Y22713D01*
X12960Y22600D01*
X12975Y22487D01*
X13018Y22381D01*
X13088Y22291D01*
X13178Y22221D01*
X13284Y22177D01*
X13397Y22162D01*
X13511Y22177D01*
X13616Y22221D01*
X13707Y22291D01*
X13776Y22381D01*
X13820Y22487D01*
X13835Y22600D01*
X13820Y22713D01*
X13776Y22819D01*
X13707Y22909D01*
X13616Y22979D01*
X13511Y23023D01*
X13397Y23038D01*
D02*
G37*
G36*
X7366D02*
X7252Y23023D01*
X7147Y22979D01*
X7056Y22909D01*
X6987Y22819D01*
X6943Y22713D01*
X6928Y22600D01*
X6943Y22487D01*
X6987Y22381D01*
X7056Y22291D01*
X7147Y22221D01*
X7252Y22177D01*
X7366Y22162D01*
X7479Y22177D01*
X7585Y22221D01*
X7675Y22291D01*
X7745Y22381D01*
X7788Y22487D01*
X7803Y22600D01*
X7788Y22713D01*
X7745Y22819D01*
X7675Y22909D01*
X7585Y22979D01*
X7479Y23023D01*
X7366Y23038D01*
D02*
G37*
G36*
X2850D02*
X2737Y23023D01*
X2631Y22979D01*
X2541Y22909D01*
X2471Y22819D01*
X2427Y22713D01*
X2412Y22600D01*
X2427Y22487D01*
X2471Y22381D01*
X2541Y22291D01*
X2631Y22221D01*
X2737Y22177D01*
X2850Y22162D01*
X2963Y22177D01*
X3069Y22221D01*
X3159Y22291D01*
X3229Y22381D01*
X3273Y22487D01*
X3288Y22600D01*
X3273Y22713D01*
X3229Y22819D01*
X3159Y22909D01*
X3069Y22979D01*
X2963Y23023D01*
X2850Y23038D01*
D02*
G37*
G36*
X882D02*
X768Y23023D01*
X663Y22979D01*
X572Y22909D01*
X503Y22819D01*
X459Y22713D01*
X444Y22600D01*
X459Y22487D01*
X503Y22381D01*
X572Y22291D01*
X663Y22221D01*
X768Y22177D01*
X882Y22162D01*
X995Y22177D01*
X1100Y22221D01*
X1191Y22291D01*
X1260Y22381D01*
X1304Y22487D01*
X1319Y22600D01*
X1304Y22713D01*
X1260Y22819D01*
X1191Y22909D01*
X1100Y22979D01*
X995Y23023D01*
X882Y23038D01*
D02*
G37*
G36*
X9526Y23039D02*
X9142D01*
X9048Y23020D01*
X8968Y22966D01*
X8914Y22886D01*
X8896Y22792D01*
Y22408D01*
X8914Y22314D01*
X8968Y22234D01*
X9048Y22180D01*
X9142Y22161D01*
X9526D01*
X9621Y22180D01*
X9701Y22234D01*
X9754Y22314D01*
X9773Y22408D01*
Y22792D01*
X9754Y22886D01*
X9701Y22966D01*
X9621Y23020D01*
X9526Y23039D01*
D02*
G37*
G36*
X5010D02*
X4627D01*
X4532Y23020D01*
X4452Y22966D01*
X4399Y22886D01*
X4380Y22792D01*
Y22408D01*
X4399Y22314D01*
X4452Y22234D01*
X4532Y22180D01*
X4627Y22161D01*
X5010D01*
X5105Y22180D01*
X5185Y22234D01*
X5238Y22314D01*
X5257Y22408D01*
Y22792D01*
X5238Y22886D01*
X5185Y22966D01*
X5105Y23020D01*
X5010Y23039D01*
D02*
G37*
G36*
X4388Y20138D02*
X4288Y20125D01*
X4194Y20086D01*
X4114Y20024D01*
X4052Y19944D01*
X4013Y19850D01*
X4000Y19750D01*
X4013Y19650D01*
X4052Y19556D01*
X4114Y19476D01*
X4194Y19414D01*
X4288Y19375D01*
X4388Y19362D01*
X4489Y19375D01*
X4582Y19414D01*
X4663Y19476D01*
X4724Y19556D01*
X4763Y19650D01*
X4776Y19750D01*
X4763Y19850D01*
X4724Y19944D01*
X4663Y20024D01*
X4582Y20086D01*
X4489Y20125D01*
X4388Y20138D01*
D02*
G37*
G36*
X9334Y19918D02*
X9239Y19906D01*
X9150Y19869D01*
X9111Y19839D01*
X8831D01*
X8756Y19829D01*
X8686Y19800D01*
X8627Y19754D01*
X8627Y19754D01*
X8165Y19293D01*
X8120Y19233D01*
X8091Y19163D01*
X8081Y19089D01*
Y17331D01*
X7789Y17039D01*
X4644D01*
X4582Y17086D01*
X4489Y17125D01*
X4388Y17138D01*
X4288Y17125D01*
X4194Y17086D01*
X4114Y17024D01*
X4052Y16944D01*
X4013Y16850D01*
X4000Y16750D01*
X4013Y16650D01*
X4052Y16556D01*
X4114Y16476D01*
X4194Y16414D01*
X4288Y16375D01*
X4388Y16362D01*
X4489Y16375D01*
X4582Y16414D01*
X4644Y16461D01*
X7908D01*
X7983Y16471D01*
X8053Y16500D01*
X8112Y16546D01*
X8574Y17007D01*
X8620Y17067D01*
X8648Y17137D01*
X8658Y17211D01*
Y18969D01*
X8950Y19261D01*
X9111D01*
X9150Y19231D01*
X9239Y19194D01*
X9334Y19182D01*
X9430Y19194D01*
X9518Y19231D01*
X9595Y19290D01*
X9653Y19366D01*
X9690Y19455D01*
X9702Y19550D01*
X9690Y19645D01*
X9653Y19734D01*
X9595Y19810D01*
X9518Y19869D01*
X9430Y19906D01*
X9334Y19918D01*
D02*
G37*
G36*
X7366D02*
X7270Y19906D01*
X7182Y19869D01*
X7105Y19810D01*
X7047Y19734D01*
X7010Y19645D01*
X6998Y19550D01*
X7010Y19455D01*
X7047Y19366D01*
X7105Y19290D01*
X7182Y19231D01*
X7270Y19194D01*
X7366Y19182D01*
X7461Y19194D01*
X7550Y19231D01*
X7626Y19290D01*
X7685Y19366D01*
X7721Y19455D01*
X7734Y19550D01*
X7721Y19645D01*
X7685Y19734D01*
X7626Y19810D01*
X7550Y19869D01*
X7461Y19906D01*
X7366Y19918D01*
D02*
G37*
G36*
X9492Y18919D02*
X9177D01*
X9096Y18903D01*
X9027Y18857D01*
X8981Y18788D01*
X8965Y18707D01*
Y18393D01*
X8981Y18312D01*
X9027Y18243D01*
X9096Y18197D01*
X9177Y18181D01*
X9492D01*
X9573Y18197D01*
X9641Y18243D01*
X9687Y18312D01*
X9703Y18393D01*
Y18707D01*
X9687Y18788D01*
X9641Y18857D01*
X9573Y18903D01*
X9492Y18919D01*
D02*
G37*
G36*
X26792Y20890D02*
X24508D01*
Y18606D01*
X26306D01*
X26319Y18444D01*
X26361Y18269D01*
X26430Y18103D01*
X26523Y17950D01*
X26640Y17813D01*
X26777Y17697D01*
X26930Y17603D01*
X27096Y17534D01*
X27271Y17492D01*
X27450Y17478D01*
X27629Y17492D01*
X27804Y17534D01*
X27970Y17603D01*
X28123Y17697D01*
X28260Y17813D01*
X28377Y17950D01*
X28470Y18103D01*
X28539Y18269D01*
X28581Y18444D01*
X28595Y18623D01*
X28581Y18802D01*
X28539Y18977D01*
X28470Y19143D01*
X28377Y19296D01*
X28260Y19433D01*
X28123Y19550D01*
X27970Y19644D01*
X27804Y19712D01*
X27629Y19754D01*
X27450Y19768D01*
X27271Y19754D01*
X27096Y19712D01*
X26930Y19644D01*
X26835Y19586D01*
X26792Y19610D01*
Y20890D01*
D02*
G37*
G36*
X17526Y23039D02*
X17142D01*
X17048Y23020D01*
X16968Y22966D01*
X16914Y22886D01*
X16896Y22792D01*
Y22408D01*
X16914Y22314D01*
X16968Y22234D01*
X17048Y22180D01*
X17142Y22161D01*
X17163D01*
Y19805D01*
X14708Y17350D01*
X14700Y17352D01*
X14604Y17333D01*
X14522Y17278D01*
X14467Y17196D01*
X14448Y17100D01*
X14467Y17004D01*
X14522Y16922D01*
X14604Y16867D01*
X14700Y16848D01*
X14796Y16867D01*
X14878Y16922D01*
X14882Y16929D01*
X18429D01*
X19079Y16279D01*
Y15891D01*
X19029Y15876D01*
X19014Y15898D01*
X18932Y15952D01*
X18836Y15972D01*
X18740Y15952D01*
X18658Y15898D01*
X18654Y15891D01*
X16670D01*
X16604Y15878D01*
X16549Y15841D01*
X15279Y14571D01*
X15242Y14516D01*
X15229Y14450D01*
Y6471D01*
X14171Y5414D01*
X14163Y5415D01*
X14067Y5396D01*
X13985Y5341D01*
X13931Y5260D01*
X13912Y5163D01*
X13931Y5067D01*
X13985Y4985D01*
X14052Y4941D01*
X14037Y4891D01*
X11701D01*
X8347Y8246D01*
X8351Y8256D01*
X8363Y8350D01*
X8351Y8444D01*
X8314Y8532D01*
X8257Y8607D01*
X8182Y8664D01*
X8094Y8701D01*
X8000Y8713D01*
X7906Y8701D01*
X7818Y8664D01*
X7743Y8607D01*
X7686Y8532D01*
X7649Y8444D01*
X7637Y8350D01*
X7649Y8256D01*
X7686Y8168D01*
X7743Y8093D01*
X7818Y8036D01*
X7906Y7999D01*
X8000Y7987D01*
X8094Y7999D01*
X8104Y8003D01*
X11509Y4599D01*
X11565Y4561D01*
X11630Y4548D01*
X14347D01*
X14413Y4561D01*
X14468Y4599D01*
X15886Y6016D01*
X15923Y6072D01*
X15936Y6137D01*
Y8184D01*
X15986Y8189D01*
X15987Y8184D01*
X16042Y8102D01*
X16124Y8048D01*
X16220Y8028D01*
X16228Y8030D01*
X16529Y7729D01*
X16584Y7692D01*
X16650Y7679D01*
X21643D01*
X21645Y7674D01*
X21701Y7601D01*
X21774Y7545D01*
X21859Y7510D01*
X21950Y7498D01*
X22041Y7510D01*
X22126Y7545D01*
X22199Y7601D01*
X22255Y7674D01*
X22290Y7759D01*
X22302Y7850D01*
X22290Y7941D01*
X22255Y8026D01*
X22199Y8099D01*
X22126Y8155D01*
X22041Y8190D01*
X21950Y8202D01*
X21859Y8190D01*
X21774Y8155D01*
X21701Y8099D01*
X21645Y8026D01*
X21643Y8021D01*
X16721D01*
X16470Y8272D01*
X16472Y8280D01*
X16452Y8376D01*
X16398Y8458D01*
X16316Y8513D01*
X16220Y8532D01*
X16124Y8513D01*
X16042Y8458D01*
X15987Y8376D01*
X15986Y8372D01*
X15936Y8376D01*
Y9394D01*
X17221Y10679D01*
X23268D01*
X23272Y10672D01*
X23354Y10617D01*
X23450Y10598D01*
X23546Y10617D01*
X23628Y10672D01*
X23683Y10754D01*
X23702Y10850D01*
X23683Y10946D01*
X23628Y11028D01*
X23546Y11083D01*
X23450Y11102D01*
X23354Y11083D01*
X23272Y11028D01*
X23268Y11021D01*
X17150D01*
X17084Y11008D01*
X17029Y10971D01*
X15644Y9586D01*
X15621Y9553D01*
X15571Y9568D01*
Y14379D01*
X16741Y15549D01*
X18654D01*
X18658Y15542D01*
X18740Y15487D01*
X18836Y15468D01*
X18932Y15487D01*
X19014Y15542D01*
X19029Y15564D01*
X19079Y15549D01*
Y13050D01*
X19092Y12984D01*
X19129Y12929D01*
X19779Y12279D01*
X19834Y12242D01*
X19900Y12229D01*
X26779D01*
X27129Y11879D01*
Y4355D01*
X27122Y4350D01*
X27067Y4269D01*
X27048Y4172D01*
X27067Y4076D01*
X27122Y3994D01*
X27204Y3940D01*
X27300Y3921D01*
X27396Y3940D01*
X27478Y3994D01*
X27533Y4076D01*
X27552Y4172D01*
X27533Y4269D01*
X27478Y4350D01*
X27471Y4355D01*
Y11950D01*
X27458Y12016D01*
X27421Y12071D01*
X26971Y12521D01*
X26916Y12558D01*
X26850Y12571D01*
X19971D01*
X19421Y13121D01*
Y16350D01*
X19408Y16416D01*
X19371Y16471D01*
X18621Y17221D01*
X18566Y17258D01*
X18500Y17271D01*
X15179D01*
X15160Y17318D01*
X17455Y19613D01*
X17493Y19669D01*
X17506Y19734D01*
Y22161D01*
X17526D01*
X17621Y22180D01*
X17701Y22234D01*
X17754Y22314D01*
X17773Y22408D01*
Y22792D01*
X17754Y22886D01*
X17701Y22966D01*
X17621Y23020D01*
X17526Y23039D01*
D02*
G37*
G36*
X22550Y17628D02*
X22452Y17615D01*
X22361Y17578D01*
X22283Y17517D01*
X22222Y17439D01*
X22185Y17348D01*
X22172Y17250D01*
X22185Y17152D01*
X22222Y17061D01*
X22283Y16983D01*
X22361Y16922D01*
X22452Y16885D01*
X22550Y16872D01*
X22648Y16885D01*
X22739Y16922D01*
X22817Y16983D01*
X22878Y17061D01*
X22915Y17152D01*
X22928Y17250D01*
X22915Y17348D01*
X22878Y17439D01*
X22817Y17517D01*
X22739Y17578D01*
X22648Y17615D01*
X22550Y17628D01*
D02*
G37*
G36*
X25342Y23039D02*
X24958D01*
X24864Y23020D01*
X24784Y22966D01*
X24730Y22886D01*
X24711Y22792D01*
Y22408D01*
X24723Y22348D01*
X24716Y22308D01*
X21429Y19021D01*
X21392Y18966D01*
X21379Y18900D01*
Y17585D01*
X21361Y17578D01*
X21283Y17517D01*
X21222Y17439D01*
X21185Y17348D01*
X21172Y17250D01*
X21185Y17152D01*
X21222Y17061D01*
X21283Y16983D01*
X21361Y16922D01*
X21452Y16885D01*
X21550Y16872D01*
X21648Y16885D01*
X21739Y16922D01*
X21817Y16983D01*
X21878Y17061D01*
X21915Y17152D01*
X21928Y17250D01*
X21915Y17348D01*
X21878Y17439D01*
X21817Y17517D01*
X21739Y17578D01*
X21721Y17585D01*
Y18829D01*
X25005Y22113D01*
X25038Y22161D01*
X25342D01*
X25436Y22180D01*
X25516Y22234D01*
X25570Y22314D01*
X25589Y22408D01*
Y22792D01*
X25570Y22886D01*
X25516Y22966D01*
X25436Y23020D01*
X25342Y23039D01*
D02*
G37*
G36*
X31550Y15983D02*
X31444Y15969D01*
X31346Y15928D01*
X31262Y15863D01*
X31197Y15779D01*
X31183Y15746D01*
X26017D01*
X26003Y15779D01*
X25938Y15863D01*
X25854Y15928D01*
X25756Y15969D01*
X25650Y15983D01*
X25544Y15969D01*
X25446Y15928D01*
X25362Y15863D01*
X25297Y15779D01*
X25273Y15721D01*
X25000D01*
X24934Y15708D01*
X24879Y15671D01*
X24579Y15371D01*
X24542Y15316D01*
X24529Y15250D01*
Y14985D01*
X24511Y14978D01*
X24433Y14917D01*
X24372Y14839D01*
X24335Y14748D01*
X24322Y14650D01*
X24335Y14552D01*
X24372Y14461D01*
X24433Y14383D01*
X24511Y14322D01*
X24602Y14285D01*
X24700Y14272D01*
X24798Y14285D01*
X24889Y14322D01*
X24967Y14383D01*
X25028Y14461D01*
X25065Y14552D01*
X25078Y14650D01*
X25065Y14748D01*
X25028Y14839D01*
X24967Y14917D01*
X24889Y14978D01*
X24871Y14985D01*
Y15179D01*
X25071Y15379D01*
X25294D01*
X25297Y15371D01*
X25362Y15287D01*
X25446Y15222D01*
X25544Y15181D01*
X25650Y15167D01*
X25756Y15181D01*
X25854Y15222D01*
X25938Y15287D01*
X26003Y15371D01*
X26017Y15404D01*
X31183D01*
X31197Y15371D01*
X31262Y15287D01*
X31346Y15222D01*
X31444Y15181D01*
X31550Y15167D01*
X31656Y15181D01*
X31754Y15222D01*
X31838Y15287D01*
X31903Y15371D01*
X31944Y15469D01*
X31958Y15575D01*
X31944Y15681D01*
X31903Y15779D01*
X31838Y15863D01*
X31754Y15928D01*
X31656Y15969D01*
X31550Y15983D01*
D02*
G37*
G36*
X9275Y16225D02*
X8525D01*
Y15475D01*
X9275D01*
Y16225D01*
D02*
G37*
G36*
X26075Y15025D02*
X25325D01*
Y14275D01*
X26075D01*
Y15025D01*
D02*
G37*
G36*
X30254Y14854D02*
X29446D01*
Y14046D01*
X30254D01*
Y14854D01*
D02*
G37*
G36*
X27854D02*
X27046D01*
Y14046D01*
X27854D01*
Y14854D01*
D02*
G37*
G36*
X21925Y14625D02*
X21175D01*
Y13875D01*
X21925D01*
Y14625D01*
D02*
G37*
G36*
X7900Y13228D02*
X7802Y13215D01*
X7711Y13178D01*
X7633Y13117D01*
X7572Y13039D01*
X7535Y12948D01*
X7522Y12850D01*
X7535Y12752D01*
X7572Y12661D01*
X7633Y12583D01*
X7711Y12522D01*
X7802Y12485D01*
X7900Y12472D01*
X7998Y12485D01*
X8089Y12522D01*
X8167Y12583D01*
X8228Y12661D01*
X8265Y12752D01*
X8278Y12850D01*
X8265Y12948D01*
X8228Y13039D01*
X8167Y13117D01*
X8089Y13178D01*
X7998Y13215D01*
X7900Y13228D01*
D02*
G37*
G36*
X4714Y13076D02*
X4063D01*
Y12424D01*
X4714D01*
Y13076D01*
D02*
G37*
G36*
X388Y13078D02*
X303Y13067D01*
X224Y13034D01*
X156Y12982D01*
X104Y12914D01*
X71Y12835D01*
X60Y12750D01*
X71Y12665D01*
X104Y12586D01*
X156Y12518D01*
X224Y12466D01*
X303Y12433D01*
X388Y12422D01*
X473Y12433D01*
X552Y12466D01*
X620Y12518D01*
X673Y12586D01*
X705Y12665D01*
X717Y12750D01*
X705Y12835D01*
X673Y12914D01*
X620Y12982D01*
X552Y13034D01*
X473Y13067D01*
X388Y13078D01*
D02*
G37*
G36*
X25700Y12028D02*
X25602Y12015D01*
X25511Y11978D01*
X25433Y11917D01*
X25372Y11839D01*
X25335Y11748D01*
X25322Y11650D01*
X25335Y11552D01*
X25372Y11461D01*
X25433Y11383D01*
X25511Y11322D01*
X25602Y11285D01*
X25700Y11272D01*
X25798Y11285D01*
X25889Y11322D01*
X25967Y11383D01*
X26028Y11461D01*
X26065Y11552D01*
X26078Y11650D01*
X26065Y11748D01*
X26028Y11839D01*
X25967Y11917D01*
X25889Y11978D01*
X25798Y12015D01*
X25700Y12028D01*
D02*
G37*
G36*
X681Y11904D02*
X-128D01*
Y11096D01*
X681D01*
Y11904D01*
D02*
G37*
G36*
X4450Y11908D02*
X4344Y11894D01*
X4246Y11853D01*
X4162Y11788D01*
X4097Y11704D01*
X4056Y11606D01*
X4042Y11500D01*
X4056Y11394D01*
X4097Y11296D01*
X4162Y11212D01*
X4246Y11147D01*
X4344Y11106D01*
X4450Y11092D01*
X4556Y11106D01*
X4654Y11147D01*
X4738Y11212D01*
X4803Y11296D01*
X4844Y11394D01*
X4858Y11500D01*
X4844Y11606D01*
X4803Y11704D01*
X4738Y11788D01*
X4654Y11853D01*
X4556Y11894D01*
X4450Y11908D01*
D02*
G37*
G36*
X30350Y11622D02*
X30237Y11607D01*
X30131Y11563D01*
X30041Y11494D01*
X29971Y11403D01*
X29927Y11298D01*
X29912Y11184D01*
X29927Y11071D01*
X29971Y10965D01*
X30041Y10875D01*
X30131Y10805D01*
X30237Y10762D01*
X30350Y10747D01*
X30463Y10762D01*
X30569Y10805D01*
X30659Y10875D01*
X30729Y10965D01*
X30773Y11071D01*
X30788Y11184D01*
X30773Y11298D01*
X30729Y11403D01*
X30659Y11494D01*
X30569Y11563D01*
X30463Y11607D01*
X30350Y11622D01*
D02*
G37*
G36*
X26250Y11052D02*
X26154Y11033D01*
X26072Y10978D01*
X26068Y10971D01*
X24231D01*
X24165Y10958D01*
X24110Y10921D01*
X23729Y10540D01*
X23692Y10485D01*
X23679Y10419D01*
Y2221D01*
X22977Y1519D01*
X17283D01*
X17266Y1569D01*
X17294Y1591D01*
X17363Y1681D01*
X17407Y1787D01*
X17422Y1900D01*
X17407Y2013D01*
X17363Y2119D01*
X17294Y2209D01*
X17203Y2279D01*
X17098Y2323D01*
X16984Y2338D01*
X16871Y2323D01*
X16765Y2279D01*
X16675Y2209D01*
X16605Y2119D01*
X16562Y2013D01*
X16547Y1900D01*
X16562Y1787D01*
X16605Y1681D01*
X16675Y1591D01*
X16702Y1569D01*
X16685Y1519D01*
X15433D01*
X15406Y1569D01*
X15436Y1614D01*
X15454Y1708D01*
Y2092D01*
X15436Y2186D01*
X15382Y2266D01*
X15302Y2320D01*
X15208Y2339D01*
X14824D01*
X14729Y2320D01*
X14649Y2266D01*
X14596Y2186D01*
X14577Y2092D01*
Y1708D01*
X14596Y1614D01*
X14625Y1569D01*
X14599Y1519D01*
X11319D01*
X11314Y1532D01*
X11257Y1607D01*
X11182Y1664D01*
X11094Y1701D01*
X11000Y1713D01*
X10906Y1701D01*
X10818Y1664D01*
X10743Y1607D01*
X10686Y1532D01*
X10649Y1444D01*
X10637Y1350D01*
X10649Y1256D01*
X10686Y1168D01*
X10743Y1093D01*
X10818Y1036D01*
X10906Y999D01*
X11000Y987D01*
X11094Y999D01*
X11182Y1036D01*
X11257Y1093D01*
X11314Y1168D01*
X11318Y1177D01*
X23048D01*
X23114Y1190D01*
X23169Y1227D01*
X23971Y2029D01*
X24008Y2084D01*
X24021Y2150D01*
Y10348D01*
X24302Y10629D01*
X26068D01*
X26072Y10622D01*
X26154Y10567D01*
X26250Y10548D01*
X26346Y10567D01*
X26428Y10622D01*
X26483Y10704D01*
X26502Y10800D01*
X26483Y10896D01*
X26428Y10978D01*
X26346Y11033D01*
X26250Y11052D01*
D02*
G37*
G36*
X22100Y10203D02*
X21800D01*
X21723Y10188D01*
X21656Y10144D01*
X21612Y10077D01*
X21597Y10000D01*
Y9700D01*
X21612Y9623D01*
X21656Y9556D01*
X21723Y9512D01*
X21800Y9497D01*
X22100D01*
X22177Y9512D01*
X22244Y9556D01*
X22288Y9623D01*
X22303Y9700D01*
Y10000D01*
X22288Y10077D01*
X22244Y10144D01*
X22177Y10188D01*
X22100Y10203D01*
D02*
G37*
G36*
X8900Y13228D02*
X8802Y13215D01*
X8711Y13178D01*
X8633Y13117D01*
X8572Y13039D01*
X8535Y12948D01*
X8522Y12850D01*
X8535Y12752D01*
X8572Y12661D01*
X8633Y12583D01*
X8711Y12522D01*
X8802Y12485D01*
X8900Y12472D01*
X8998Y12485D01*
X9089Y12522D01*
X9167Y12583D01*
X9228Y12661D01*
X9235Y12679D01*
X11229D01*
X13947Y9961D01*
Y9700D01*
X13962Y9623D01*
X14006Y9556D01*
X14073Y9512D01*
X14150Y9497D01*
X14450D01*
X14527Y9512D01*
X14594Y9556D01*
X14638Y9623D01*
X14653Y9700D01*
Y10000D01*
X14638Y10077D01*
X14594Y10144D01*
X14527Y10188D01*
X14450Y10203D01*
X14189D01*
X11421Y12971D01*
X11366Y13008D01*
X11300Y13021D01*
X9235D01*
X9228Y13039D01*
X9167Y13117D01*
X9089Y13178D01*
X8998Y13215D01*
X8900Y13228D01*
D02*
G37*
G36*
X4000Y9902D02*
X3909Y9890D01*
X3824Y9855D01*
X3751Y9799D01*
X3695Y9726D01*
X3660Y9641D01*
X3648Y9550D01*
X3660Y9459D01*
X3695Y9374D01*
X3751Y9301D01*
X3824Y9245D01*
X3909Y9210D01*
X4000Y9198D01*
X4091Y9210D01*
X4176Y9245D01*
X4249Y9301D01*
X4305Y9374D01*
X4340Y9459D01*
X4352Y9550D01*
X4340Y9641D01*
X4305Y9726D01*
X4249Y9799D01*
X4176Y9855D01*
X4091Y9890D01*
X4000Y9902D01*
D02*
G37*
G36*
X3000D02*
X2909Y9890D01*
X2824Y9855D01*
X2751Y9799D01*
X2695Y9726D01*
X2660Y9641D01*
X2648Y9550D01*
X2660Y9459D01*
X2695Y9374D01*
X2751Y9301D01*
X2824Y9245D01*
X2909Y9210D01*
X3000Y9198D01*
X3091Y9210D01*
X3176Y9245D01*
X3249Y9301D01*
X3305Y9374D01*
X3340Y9459D01*
X3352Y9550D01*
X3340Y9641D01*
X3305Y9726D01*
X3249Y9799D01*
X3176Y9855D01*
X3091Y9890D01*
X3000Y9902D01*
D02*
G37*
G36*
X5150Y9903D02*
X4850D01*
X4773Y9888D01*
X4706Y9844D01*
X4662Y9777D01*
X4647Y9700D01*
Y9400D01*
X4662Y9323D01*
X4706Y9256D01*
X4773Y9212D01*
X4850Y9197D01*
X5150D01*
X5227Y9212D01*
X5294Y9256D01*
X5338Y9323D01*
X5353Y9400D01*
Y9700D01*
X5338Y9777D01*
X5294Y9844D01*
X5227Y9888D01*
X5150Y9903D01*
D02*
G37*
G36*
X30542Y9654D02*
X30158D01*
X30064Y9636D01*
X29984Y9582D01*
X29930Y9502D01*
X29911Y9408D01*
Y9024D01*
X29930Y8929D01*
X29984Y8849D01*
X30064Y8796D01*
X30158Y8777D01*
X30542D01*
X30636Y8796D01*
X30716Y8849D01*
X30770Y8929D01*
X30789Y9024D01*
Y9408D01*
X30770Y9502D01*
X30716Y9582D01*
X30636Y9636D01*
X30542Y9654D01*
D02*
G37*
G36*
X14300Y9202D02*
X14209Y9190D01*
X14124Y9155D01*
X14051Y9099D01*
X13995Y9026D01*
X13960Y8941D01*
X13948Y8850D01*
X13960Y8759D01*
X13995Y8674D01*
X14051Y8601D01*
X14124Y8545D01*
X14209Y8510D01*
X14300Y8498D01*
X14391Y8510D01*
X14476Y8545D01*
X14549Y8601D01*
X14605Y8674D01*
X14640Y8759D01*
X14652Y8850D01*
X14640Y8941D01*
X14605Y9026D01*
X14549Y9099D01*
X14476Y9155D01*
X14391Y9190D01*
X14300Y9202D01*
D02*
G37*
G36*
X11000Y8713D02*
X10906Y8701D01*
X10818Y8664D01*
X10743Y8607D01*
X10686Y8532D01*
X10649Y8444D01*
X10637Y8350D01*
X10649Y8256D01*
X10686Y8168D01*
X10743Y8093D01*
X10818Y8036D01*
X10906Y7999D01*
X11000Y7987D01*
X11094Y7999D01*
X11182Y8036D01*
X11257Y8093D01*
X11314Y8168D01*
X11351Y8256D01*
X11363Y8350D01*
X11351Y8444D01*
X11314Y8532D01*
X11257Y8607D01*
X11182Y8664D01*
X11094Y8701D01*
X11000Y8713D01*
D02*
G37*
G36*
X10000D02*
X9906Y8701D01*
X9818Y8664D01*
X9743Y8607D01*
X9686Y8532D01*
X9649Y8444D01*
X9637Y8350D01*
X9649Y8256D01*
X9686Y8168D01*
X9743Y8093D01*
X9818Y8036D01*
X9906Y7999D01*
X10000Y7987D01*
X10094Y7999D01*
X10182Y8036D01*
X10257Y8093D01*
X10314Y8168D01*
X10351Y8256D01*
X10363Y8350D01*
X10351Y8444D01*
X10314Y8532D01*
X10257Y8607D01*
X10182Y8664D01*
X10094Y8701D01*
X10000Y8713D01*
D02*
G37*
G36*
X9000D02*
X8906Y8701D01*
X8818Y8664D01*
X8743Y8607D01*
X8686Y8532D01*
X8649Y8444D01*
X8637Y8350D01*
X8649Y8256D01*
X8686Y8168D01*
X8743Y8093D01*
X8818Y8036D01*
X8906Y7999D01*
X9000Y7987D01*
X9094Y7999D01*
X9182Y8036D01*
X9257Y8093D01*
X9314Y8168D01*
X9351Y8256D01*
X9363Y8350D01*
X9351Y8444D01*
X9314Y8532D01*
X9257Y8607D01*
X9182Y8664D01*
X9094Y8701D01*
X9000Y8713D01*
D02*
G37*
G36*
X7000D02*
X6906Y8701D01*
X6818Y8664D01*
X6743Y8607D01*
X6686Y8532D01*
X6649Y8444D01*
X6637Y8350D01*
X6649Y8256D01*
X6686Y8168D01*
X6743Y8093D01*
X6818Y8036D01*
X6906Y7999D01*
X7000Y7987D01*
X7094Y7999D01*
X7182Y8036D01*
X7257Y8093D01*
X7314Y8168D01*
X7351Y8256D01*
X7363Y8350D01*
X7351Y8444D01*
X7314Y8532D01*
X7257Y8607D01*
X7182Y8664D01*
X7094Y8701D01*
X7000Y8713D01*
D02*
G37*
G36*
X6000D02*
X5906Y8701D01*
X5818Y8664D01*
X5743Y8607D01*
X5686Y8532D01*
X5649Y8444D01*
X5637Y8350D01*
X5649Y8256D01*
X5686Y8168D01*
X5743Y8093D01*
X5818Y8036D01*
X5906Y7999D01*
X6000Y7987D01*
X6094Y7999D01*
X6182Y8036D01*
X6257Y8093D01*
X6314Y8168D01*
X6351Y8256D01*
X6363Y8350D01*
X6351Y8444D01*
X6314Y8532D01*
X6257Y8607D01*
X6182Y8664D01*
X6094Y8701D01*
X6000Y8713D01*
D02*
G37*
G36*
X5000D02*
X4906Y8701D01*
X4818Y8664D01*
X4743Y8607D01*
X4686Y8532D01*
X4649Y8444D01*
X4637Y8350D01*
X4649Y8256D01*
X4686Y8168D01*
X4743Y8093D01*
X4818Y8036D01*
X4906Y7999D01*
X5000Y7987D01*
X5094Y7999D01*
X5182Y8036D01*
X5257Y8093D01*
X5314Y8168D01*
X5351Y8256D01*
X5363Y8350D01*
X5351Y8444D01*
X5314Y8532D01*
X5257Y8607D01*
X5182Y8664D01*
X5094Y8701D01*
X5000Y8713D01*
D02*
G37*
G36*
X4000D02*
X3906Y8701D01*
X3818Y8664D01*
X3743Y8607D01*
X3686Y8532D01*
X3649Y8444D01*
X3637Y8350D01*
X3649Y8256D01*
X3686Y8168D01*
X3743Y8093D01*
X3818Y8036D01*
X3906Y7999D01*
X4000Y7987D01*
X4094Y7999D01*
X4182Y8036D01*
X4257Y8093D01*
X4314Y8168D01*
X4351Y8256D01*
X4363Y8350D01*
X4351Y8444D01*
X4314Y8532D01*
X4257Y8607D01*
X4182Y8664D01*
X4094Y8701D01*
X4000Y8713D01*
D02*
G37*
G36*
X3000D02*
X2906Y8701D01*
X2818Y8664D01*
X2743Y8607D01*
X2686Y8532D01*
X2649Y8444D01*
X2637Y8350D01*
X2649Y8256D01*
X2686Y8168D01*
X2743Y8093D01*
X2818Y8036D01*
X2906Y7999D01*
X3000Y7987D01*
X3094Y7999D01*
X3182Y8036D01*
X3257Y8093D01*
X3314Y8168D01*
X3351Y8256D01*
X3363Y8350D01*
X3351Y8444D01*
X3314Y8532D01*
X3257Y8607D01*
X3182Y8664D01*
X3094Y8701D01*
X3000Y8713D01*
D02*
G37*
G36*
X14300Y8202D02*
X14209Y8190D01*
X14124Y8155D01*
X14051Y8099D01*
X13995Y8026D01*
X13960Y7941D01*
X13948Y7850D01*
X13960Y7759D01*
X13995Y7674D01*
X14051Y7601D01*
X14124Y7545D01*
X14209Y7510D01*
X14300Y7498D01*
X14391Y7510D01*
X14476Y7545D01*
X14549Y7601D01*
X14605Y7674D01*
X14640Y7759D01*
X14652Y7850D01*
X14640Y7941D01*
X14605Y8026D01*
X14549Y8099D01*
X14476Y8155D01*
X14391Y8190D01*
X14300Y8202D01*
D02*
G37*
G36*
X30425Y7468D02*
X30330Y7456D01*
X30241Y7419D01*
X30165Y7360D01*
X30106Y7284D01*
X30069Y7195D01*
X30057Y7100D01*
X30069Y7005D01*
X30106Y6916D01*
X30165Y6840D01*
X30241Y6781D01*
X30330Y6744D01*
X30425Y6732D01*
X30520Y6744D01*
X30609Y6781D01*
X30685Y6840D01*
X30744Y6916D01*
X30780Y7005D01*
X30793Y7100D01*
X30780Y7195D01*
X30744Y7284D01*
X30685Y7360D01*
X30609Y7419D01*
X30520Y7456D01*
X30425Y7468D01*
D02*
G37*
G36*
X29582Y7469D02*
X29267D01*
X29186Y7453D01*
X29118Y7407D01*
X29072Y7338D01*
X29056Y7257D01*
Y6943D01*
X29072Y6862D01*
X29118Y6793D01*
X29186Y6747D01*
X29267Y6731D01*
X29582D01*
X29663Y6747D01*
X29732Y6793D01*
X29778Y6862D01*
X29794Y6943D01*
Y7257D01*
X29778Y7338D01*
X29732Y7407D01*
X29663Y7453D01*
X29582Y7469D01*
D02*
G37*
G36*
X21950Y7202D02*
X21859Y7190D01*
X21774Y7155D01*
X21701Y7099D01*
X21645Y7026D01*
X21610Y6941D01*
X21598Y6850D01*
X21610Y6759D01*
X21645Y6674D01*
X21701Y6601D01*
X21774Y6545D01*
X21859Y6510D01*
X21950Y6498D01*
X22041Y6510D01*
X22126Y6545D01*
X22199Y6601D01*
X22255Y6674D01*
X22290Y6759D01*
X22302Y6850D01*
X22290Y6941D01*
X22255Y7026D01*
X22199Y7099D01*
X22126Y7155D01*
X22041Y7190D01*
X21950Y7202D01*
D02*
G37*
G36*
X31425Y7468D02*
X31330Y7456D01*
X31241Y7419D01*
X31165Y7360D01*
X31106Y7284D01*
X31069Y7195D01*
X31057Y7100D01*
X31069Y7005D01*
X31106Y6916D01*
X31165Y6840D01*
X31173Y6833D01*
Y6513D01*
X30422Y5762D01*
X30350Y5772D01*
X30237Y5757D01*
X30131Y5713D01*
X30041Y5644D01*
X29971Y5553D01*
X29927Y5448D01*
X29912Y5334D01*
X29927Y5221D01*
X29971Y5115D01*
X30041Y5025D01*
X30131Y4955D01*
X30237Y4912D01*
X30350Y4897D01*
X30463Y4912D01*
X30569Y4955D01*
X30659Y5025D01*
X30729Y5115D01*
X30773Y5221D01*
X30788Y5334D01*
X30778Y5406D01*
X31603Y6231D01*
X31657Y6313D01*
X31676Y6409D01*
Y6833D01*
X31685Y6840D01*
X31744Y6916D01*
X31780Y7005D01*
X31793Y7100D01*
X31780Y7195D01*
X31744Y7284D01*
X31685Y7360D01*
X31609Y7419D01*
X31520Y7456D01*
X31425Y7468D01*
D02*
G37*
G36*
X24750Y10452D02*
X24654Y10433D01*
X24572Y10378D01*
X24517Y10296D01*
X24498Y10200D01*
X24517Y10104D01*
X24572Y10022D01*
X24654Y9967D01*
X24750Y9948D01*
X24815Y9961D01*
X24820Y9960D01*
X26073Y8708D01*
Y3406D01*
X26086Y3340D01*
X26123Y3285D01*
X27000Y2408D01*
X26998Y2400D01*
X27017Y2304D01*
X27072Y2222D01*
X27154Y2167D01*
X27250Y2148D01*
X27346Y2167D01*
X27428Y2222D01*
X27483Y2304D01*
X27502Y2400D01*
X27483Y2496D01*
X27428Y2578D01*
X27346Y2633D01*
X27250Y2652D01*
X27242Y2650D01*
X26416Y3477D01*
Y8779D01*
X26403Y8844D01*
X26365Y8900D01*
X25023Y10242D01*
X24989Y10265D01*
X24983Y10296D01*
X24928Y10378D01*
X24846Y10433D01*
X24750Y10452D01*
D02*
G37*
G36*
X21950Y9202D02*
X21859Y9190D01*
X21774Y9155D01*
X21701Y9099D01*
X21645Y9026D01*
X21610Y8941D01*
X21598Y8850D01*
X21610Y8759D01*
X21645Y8674D01*
X21701Y8601D01*
X21774Y8545D01*
X21859Y8510D01*
X21950Y8498D01*
X22041Y8510D01*
X22126Y8545D01*
X22199Y8601D01*
X22255Y8674D01*
X22257Y8679D01*
X22529D01*
X23079Y8129D01*
Y3871D01*
X22079Y2871D01*
X10350D01*
X10284Y2858D01*
X10229Y2821D01*
X9104Y1697D01*
X9094Y1701D01*
X9000Y1713D01*
X8906Y1701D01*
X8818Y1664D01*
X8743Y1607D01*
X8686Y1532D01*
X8649Y1444D01*
X8637Y1350D01*
X8649Y1256D01*
X8686Y1168D01*
X8743Y1093D01*
X8818Y1036D01*
X8906Y999D01*
X9000Y987D01*
X9094Y999D01*
X9182Y1036D01*
X9257Y1093D01*
X9314Y1168D01*
X9351Y1256D01*
X9363Y1350D01*
X9351Y1444D01*
X9347Y1454D01*
X10421Y2529D01*
X22150D01*
X22216Y2542D01*
X22271Y2579D01*
X23371Y3679D01*
X23408Y3734D01*
X23421Y3800D01*
Y8200D01*
X23408Y8266D01*
X23371Y8321D01*
X22721Y8971D01*
X22666Y9008D01*
X22600Y9021D01*
X22257D01*
X22255Y9026D01*
X22199Y9099D01*
X22126Y9155D01*
X22041Y9190D01*
X21950Y9202D01*
D02*
G37*
G36*
X19087Y5415D02*
X18990Y5396D01*
X18909Y5341D01*
X18854Y5260D01*
X18835Y5163D01*
X18854Y5067D01*
X18909Y4985D01*
X18915Y4981D01*
Y3908D01*
X18429Y3421D01*
X8900D01*
X8834Y3408D01*
X8779Y3371D01*
X7104Y1697D01*
X7094Y1701D01*
X7000Y1713D01*
X6906Y1701D01*
X6818Y1664D01*
X6743Y1607D01*
X6686Y1532D01*
X6649Y1444D01*
X6637Y1350D01*
X6649Y1256D01*
X6686Y1168D01*
X6743Y1093D01*
X6818Y1036D01*
X6906Y999D01*
X7000Y987D01*
X7094Y999D01*
X7182Y1036D01*
X7257Y1093D01*
X7314Y1168D01*
X7351Y1256D01*
X7363Y1350D01*
X7351Y1444D01*
X7347Y1454D01*
X8971Y3079D01*
X18500D01*
X18566Y3092D01*
X18621Y3129D01*
X19208Y3715D01*
X19245Y3771D01*
X19258Y3837D01*
Y4981D01*
X19265Y4985D01*
X19319Y5067D01*
X19338Y5163D01*
X19319Y5260D01*
X19265Y5341D01*
X19183Y5396D01*
X19087Y5415D01*
D02*
G37*
G36*
X10000Y1713D02*
X9906Y1701D01*
X9818Y1664D01*
X9743Y1607D01*
X9686Y1532D01*
X9649Y1444D01*
X9637Y1350D01*
X9649Y1256D01*
X9686Y1168D01*
X9743Y1093D01*
X9818Y1036D01*
X9906Y999D01*
X10000Y987D01*
X10094Y999D01*
X10182Y1036D01*
X10257Y1093D01*
X10314Y1168D01*
X10351Y1256D01*
X10363Y1350D01*
X10351Y1444D01*
X10314Y1532D01*
X10257Y1607D01*
X10182Y1664D01*
X10094Y1701D01*
X10000Y1713D01*
D02*
G37*
G36*
X8000D02*
X7906Y1701D01*
X7818Y1664D01*
X7743Y1607D01*
X7686Y1532D01*
X7649Y1444D01*
X7637Y1350D01*
X7649Y1256D01*
X7686Y1168D01*
X7743Y1093D01*
X7818Y1036D01*
X7906Y999D01*
X8000Y987D01*
X8094Y999D01*
X8182Y1036D01*
X8257Y1093D01*
X8314Y1168D01*
X8351Y1256D01*
X8363Y1350D01*
X8351Y1444D01*
X8314Y1532D01*
X8257Y1607D01*
X8182Y1664D01*
X8094Y1701D01*
X8000Y1713D01*
D02*
G37*
G36*
X6000D02*
X5906Y1701D01*
X5818Y1664D01*
X5743Y1607D01*
X5686Y1532D01*
X5649Y1444D01*
X5637Y1350D01*
X5649Y1256D01*
X5686Y1168D01*
X5743Y1093D01*
X5818Y1036D01*
X5906Y999D01*
X6000Y987D01*
X6094Y999D01*
X6182Y1036D01*
X6257Y1093D01*
X6314Y1168D01*
X6351Y1256D01*
X6363Y1350D01*
X6351Y1444D01*
X6314Y1532D01*
X6257Y1607D01*
X6182Y1664D01*
X6094Y1701D01*
X6000Y1713D01*
D02*
G37*
G36*
X5000D02*
X4906Y1701D01*
X4818Y1664D01*
X4743Y1607D01*
X4686Y1532D01*
X4649Y1444D01*
X4637Y1350D01*
X4649Y1256D01*
X4686Y1168D01*
X4743Y1093D01*
X4818Y1036D01*
X4906Y999D01*
X5000Y987D01*
X5094Y999D01*
X5182Y1036D01*
X5257Y1093D01*
X5314Y1168D01*
X5351Y1256D01*
X5363Y1350D01*
X5351Y1444D01*
X5314Y1532D01*
X5257Y1607D01*
X5182Y1664D01*
X5094Y1701D01*
X5000Y1713D01*
D02*
G37*
G36*
X4000D02*
X3906Y1701D01*
X3818Y1664D01*
X3743Y1607D01*
X3686Y1532D01*
X3649Y1444D01*
X3637Y1350D01*
X3649Y1256D01*
X3686Y1168D01*
X3743Y1093D01*
X3818Y1036D01*
X3906Y999D01*
X4000Y987D01*
X4094Y999D01*
X4182Y1036D01*
X4257Y1093D01*
X4314Y1168D01*
X4351Y1256D01*
X4363Y1350D01*
X4351Y1444D01*
X4314Y1532D01*
X4257Y1607D01*
X4182Y1664D01*
X4094Y1701D01*
X4000Y1713D01*
D02*
G37*
G36*
X3000D02*
X2906Y1701D01*
X2818Y1664D01*
X2743Y1607D01*
X2686Y1532D01*
X2649Y1444D01*
X2637Y1350D01*
X2649Y1256D01*
X2686Y1168D01*
X2743Y1093D01*
X2818Y1036D01*
X2906Y999D01*
X3000Y987D01*
X3094Y999D01*
X3182Y1036D01*
X3257Y1093D01*
X3314Y1168D01*
X3351Y1256D01*
X3363Y1350D01*
X3351Y1444D01*
X3314Y1532D01*
X3257Y1607D01*
X3182Y1664D01*
X3094Y1701D01*
X3000Y1713D01*
D02*
G37*
G36*
X32071Y1478D02*
X31946Y1466D01*
X31825Y1429D01*
X31714Y1370D01*
X31616Y1290D01*
X31536Y1192D01*
X31477Y1081D01*
X31440Y960D01*
X31428Y835D01*
X31440Y709D01*
X31477Y588D01*
X31536Y477D01*
X31616Y380D01*
X31714Y299D01*
X31825Y240D01*
X31946Y203D01*
X32071Y191D01*
X32197Y203D01*
X32318Y240D01*
X32429Y299D01*
X32526Y380D01*
X32606Y477D01*
X32666Y588D01*
X32703Y709D01*
X32715Y835D01*
X32703Y960D01*
X32666Y1081D01*
X32606Y1192D01*
X32526Y1290D01*
X32429Y1370D01*
X32318Y1429D01*
X32197Y1466D01*
X32071Y1478D01*
D02*
G37*
G36*
X-1023D02*
X-1149Y1466D01*
X-1270Y1429D01*
X-1381Y1370D01*
X-1478Y1290D01*
X-1558Y1192D01*
X-1618Y1081D01*
X-1655Y960D01*
X-1667Y835D01*
X-1655Y709D01*
X-1618Y588D01*
X-1558Y477D01*
X-1478Y380D01*
X-1381Y299D01*
X-1270Y240D01*
X-1149Y203D01*
X-1023Y191D01*
X-898Y203D01*
X-777Y240D01*
X-666Y299D01*
X-568Y380D01*
X-488Y477D01*
X-429Y588D01*
X-392Y709D01*
X-380Y835D01*
X-392Y960D01*
X-429Y1081D01*
X-488Y1192D01*
X-568Y1290D01*
X-666Y1370D01*
X-777Y1429D01*
X-898Y1466D01*
X-1023Y1478D01*
D02*
G37*
%LPD*%
D62*
X4388Y12750D02*
D03*
D63*
X388D02*
D03*
D64*
X4388Y16750D02*
D03*
Y19750D02*
D03*
D79*
X17150Y10850D02*
X23450D01*
X15765Y9465D02*
X17150Y10850D01*
X15765Y6137D02*
Y9465D01*
X14347Y4720D02*
X15765Y6137D01*
X11630Y4720D02*
X14347D01*
X8000Y8350D02*
X11630Y4720D01*
X16220Y8280D02*
X16650Y7850D01*
X21950D01*
X24793Y10200D02*
X24871Y10121D01*
X24901D01*
X26244Y8779D01*
X24750Y10200D02*
X24793D01*
X24231Y10800D02*
X26250D01*
X23850Y10419D02*
X24231Y10800D01*
X23850Y2150D02*
Y10419D01*
X23048Y1348D02*
X23850Y2150D01*
X26244Y3406D02*
Y8779D01*
Y3406D02*
X27250Y2400D01*
X25000Y15550D02*
X25625D01*
X25650Y15575D01*
X24700Y15250D02*
X25000Y15550D01*
X24700Y14650D02*
Y15250D01*
X19250Y13050D02*
X19900Y12400D01*
X19250Y13050D02*
Y16350D01*
X19900Y12400D02*
X26850D01*
X27300Y11950D01*
Y4172D02*
Y11950D01*
X27666Y22600D02*
X29850Y20416D01*
Y18548D02*
Y20416D01*
X7000Y1350D02*
X8900Y3250D01*
X18500D01*
X19087Y3837D01*
Y5163D01*
X14163D02*
X15400Y6400D01*
X23250Y3800D02*
Y8200D01*
X22150Y2700D02*
X23250Y3800D01*
X10350Y2700D02*
X22150D01*
X9000Y1350D02*
X10350Y2700D01*
X15400Y6400D02*
Y14450D01*
X16670Y15720D02*
X18836D01*
X15400Y14450D02*
X16670Y15720D01*
X18500Y17100D02*
X19250Y16350D01*
X14700Y17100D02*
X18500D01*
X14700D02*
X17334Y19734D01*
Y22600D01*
X21950Y8850D02*
X22600D01*
X23250Y8200D01*
X11000Y1350D02*
X11002Y1348D01*
X23048D01*
X8900Y12850D02*
X11300D01*
X14300Y9850D01*
X21550Y17250D02*
Y18900D01*
X25150Y22560D02*
Y22600D01*
X24884Y22294D02*
X25150Y22560D01*
X24884Y22234D02*
Y22294D01*
X21550Y18900D02*
X24884Y22234D01*
X25650Y15575D02*
X25675Y15550D01*
X25650Y15575D02*
X31550D01*
D80*
X31425Y6409D02*
Y7100D01*
X30350Y5334D02*
X31425Y6409D01*
D82*
X4388Y16750D02*
X7908D01*
X8370Y17211D01*
Y19089D01*
X8831Y19550D01*
X9334D01*
D83*
X25700Y11650D02*
D03*
X24700D02*
D03*
Y14650D02*
D03*
X8900Y12850D02*
D03*
X7900D02*
D03*
Y15850D02*
D03*
X21550Y17250D02*
D03*
X22550D02*
D03*
Y14250D02*
D03*
D84*
X25700Y14650D02*
D03*
X8900Y15850D02*
D03*
X21550Y14250D02*
D03*
D85*
X29425Y7100D02*
D03*
D86*
X30425D02*
D03*
X31425D02*
D03*
X9334Y19550D02*
D03*
X7366D02*
D03*
D87*
X30350Y9216D02*
D03*
Y3366D02*
D03*
D88*
Y11184D02*
D03*
Y5334D02*
D03*
X882Y22600D02*
D03*
X2850D02*
D03*
X7366D02*
D03*
X13397D02*
D03*
X15366D02*
D03*
X16984Y1900D02*
D03*
X23182Y22600D02*
D03*
X21213D02*
D03*
X27666D02*
D03*
D89*
X2000Y1350D02*
D03*
Y8350D02*
D03*
D90*
X3000Y1350D02*
D03*
X4000D02*
D03*
X5000D02*
D03*
X6000D02*
D03*
X7000D02*
D03*
X8000D02*
D03*
X9000D02*
D03*
X10000D02*
D03*
X11000D02*
D03*
X3000Y8350D02*
D03*
X4000D02*
D03*
X5000D02*
D03*
X6000D02*
D03*
X7000D02*
D03*
X8000D02*
D03*
X9000D02*
D03*
X10000D02*
D03*
X11000D02*
D03*
D91*
X9334Y18550D02*
D03*
X7366D02*
D03*
D92*
X-1023Y835D02*
D03*
X32071D02*
D03*
Y24316D02*
D03*
X-1023Y24166D02*
D03*
D93*
X4450Y11500D02*
D03*
X29850Y18623D02*
D03*
X31550Y15575D02*
D03*
X27450Y18623D02*
D03*
X25650Y15575D02*
D03*
D94*
X277Y11500D02*
D03*
D95*
X4818Y22600D02*
D03*
X9334D02*
D03*
X17334D02*
D03*
X15016Y1900D02*
D03*
X25150Y22600D02*
D03*
X29634D02*
D03*
D96*
X21950Y8850D02*
D03*
Y7850D02*
D03*
Y6850D02*
D03*
X2000Y9550D02*
D03*
X3000D02*
D03*
X4000D02*
D03*
X14300Y8850D02*
D03*
Y7850D02*
D03*
Y6850D02*
D03*
D97*
X21950Y9850D02*
D03*
X14300D02*
D03*
D98*
X5000Y9550D02*
D03*
D99*
X29850Y14450D02*
D03*
X31550Y19748D02*
D03*
X27450Y14450D02*
D03*
X25650Y19748D02*
D03*
D100*
X23450Y10850D02*
D03*
X16220Y8280D02*
D03*
X24750Y10200D02*
D03*
X27250Y2400D02*
D03*
X14163Y5163D02*
D03*
X19087D02*
D03*
X18836Y15720D02*
D03*
X26250Y10800D02*
D03*
X27300Y4172D02*
D03*
X14700Y17100D02*
D03*
M02*
