G04*
G04 #@! TF.GenerationSoftware,Altium Limited,Altium Designer,24.5.2 (23)*
G04*
G04 Layer_Color=8388736*
%FSLAX24Y24*%
%MOIN*%
G70*
G04*
G04 #@! TF.SameCoordinates,E7139566-C2F9-4FF9-B4CB-33A722262EA0*
G04*
G04*
G04 #@! TF.FilePolarity,Negative*
G04*
G01*
G75*
%ADD26R,0.0591X0.0472*%
%ADD27R,0.0591X0.1299*%
%ADD33R,0.0520X0.0220*%
%ADD36R,0.0730X0.0316*%
%ADD37R,0.0488X0.0587*%
%ADD38R,0.0331X0.0449*%
%ADD39R,0.0749X0.0474*%
%ADD40R,0.0587X0.0488*%
%ADD41R,0.0449X0.0587*%
%ADD42R,0.0488X0.0488*%
%ADD43R,0.0449X0.0331*%
%ADD44R,0.1064X0.0513*%
%ADD45R,0.2639X0.2403*%
%ADD46R,0.0493X0.0336*%
%ADD47R,0.0336X0.0493*%
%ADD48R,0.0587X0.0449*%
%ADD49O,0.1064X0.0356*%
%ADD50C,0.0730*%
%ADD51R,0.0730X0.0730*%
G04:AMPARAMS|DCode=52|XSize=71mil|YSize=71mil|CornerRadius=19.7mil|HoleSize=0mil|Usage=FLASHONLY|Rotation=0.000|XOffset=0mil|YOffset=0mil|HoleType=Round|Shape=RoundedRectangle|*
%AMROUNDEDRECTD52*
21,1,0.0710,0.0315,0,0,0.0*
21,1,0.0315,0.0710,0,0,0.0*
1,1,0.0395,0.0157,-0.0157*
1,1,0.0395,-0.0157,-0.0157*
1,1,0.0395,-0.0157,0.0157*
1,1,0.0395,0.0157,0.0157*
%
%ADD52ROUNDEDRECTD52*%
%ADD53C,0.0710*%
G04:AMPARAMS|DCode=54|XSize=84.8mil|YSize=84.8mil|CornerRadius=23.2mil|HoleSize=0mil|Usage=FLASHONLY|Rotation=90.000|XOffset=0mil|YOffset=0mil|HoleType=Round|Shape=RoundedRectangle|*
%AMROUNDEDRECTD54*
21,1,0.0848,0.0384,0,0,90.0*
21,1,0.0384,0.0848,0,0,90.0*
1,1,0.0464,0.0192,0.0192*
1,1,0.0464,0.0192,-0.0192*
1,1,0.0464,-0.0192,-0.0192*
1,1,0.0464,-0.0192,0.0192*
%
%ADD54ROUNDEDRECTD54*%
%ADD55C,0.0848*%
%ADD56R,0.0660X0.0660*%
%ADD57C,0.0660*%
G04:AMPARAMS|DCode=58|XSize=71mil|YSize=71mil|CornerRadius=19.7mil|HoleSize=0mil|Usage=FLASHONLY|Rotation=90.000|XOffset=0mil|YOffset=0mil|HoleType=Round|Shape=RoundedRectangle|*
%AMROUNDEDRECTD58*
21,1,0.0710,0.0315,0,0,90.0*
21,1,0.0315,0.0710,0,0,90.0*
1,1,0.0395,0.0157,0.0157*
1,1,0.0395,0.0157,-0.0157*
1,1,0.0395,-0.0157,-0.0157*
1,1,0.0395,-0.0157,0.0157*
%
%ADD58ROUNDEDRECTD58*%
%ADD59C,0.1261*%
%ADD60C,0.0789*%
%ADD61R,0.0789X0.0789*%
%ADD62R,0.0551X0.0551*%
%ADD63C,0.0551*%
%ADD64C,0.0669*%
G04:AMPARAMS|DCode=65|XSize=84.8mil|YSize=84.8mil|CornerRadius=23.2mil|HoleSize=0mil|Usage=FLASHONLY|Rotation=180.000|XOffset=0mil|YOffset=0mil|HoleType=Round|Shape=RoundedRectangle|*
%AMROUNDEDRECTD65*
21,1,0.0848,0.0384,0,0,180.0*
21,1,0.0384,0.0848,0,0,180.0*
1,1,0.0464,-0.0192,0.0192*
1,1,0.0464,0.0192,0.0192*
1,1,0.0464,0.0192,-0.0192*
1,1,0.0464,-0.0192,-0.0192*
%
%ADD65ROUNDEDRECTD65*%
%ADD66C,0.0678*%
G04:AMPARAMS|DCode=67|XSize=67.8mil|YSize=67.8mil|CornerRadius=19mil|HoleSize=0mil|Usage=FLASHONLY|Rotation=270.000|XOffset=0mil|YOffset=0mil|HoleType=Round|Shape=RoundedRectangle|*
%AMROUNDEDRECTD67*
21,1,0.0678,0.0299,0,0,270.0*
21,1,0.0299,0.0678,0,0,270.0*
1,1,0.0379,-0.0150,-0.0150*
1,1,0.0379,-0.0150,0.0150*
1,1,0.0379,0.0150,0.0150*
1,1,0.0379,0.0150,-0.0150*
%
%ADD67ROUNDEDRECTD67*%
G04:AMPARAMS|DCode=68|XSize=67.8mil|YSize=67.8mil|CornerRadius=19mil|HoleSize=0mil|Usage=FLASHONLY|Rotation=180.000|XOffset=0mil|YOffset=0mil|HoleType=Round|Shape=RoundedRectangle|*
%AMROUNDEDRECTD68*
21,1,0.0678,0.0299,0,0,180.0*
21,1,0.0299,0.0678,0,0,180.0*
1,1,0.0379,-0.0150,0.0150*
1,1,0.0379,0.0150,0.0150*
1,1,0.0379,0.0150,-0.0150*
1,1,0.0379,-0.0150,-0.0150*
%
%ADD68ROUNDEDRECTD68*%
%ADD69R,0.0789X0.0789*%
%ADD70C,0.0474*%
G36*
X16071Y18208D02*
Y18404D01*
X16376D01*
Y18208D01*
X16071D01*
D02*
G37*
G36*
X16494D02*
Y18404D01*
X16799D01*
Y18208D01*
X16494D01*
D02*
G37*
G36*
X16071Y19231D02*
Y19428D01*
X16376D01*
Y19231D01*
X16071D01*
D02*
G37*
G36*
X16494D02*
Y19428D01*
X16799D01*
Y19231D01*
X16494D01*
D02*
G37*
G36*
X28141Y9887D02*
Y9690D01*
X27836D01*
Y9887D01*
X28141D01*
D02*
G37*
G36*
X28564D02*
Y9690D01*
X28259D01*
Y9887D01*
X28564D01*
D02*
G37*
G36*
X28141Y10910D02*
Y10713D01*
X27836D01*
Y10910D01*
X28141D01*
D02*
G37*
G36*
X28564D02*
Y10713D01*
X28259D01*
Y10910D01*
X28564D01*
D02*
G37*
D26*
X24040Y3306D02*
D03*
Y2400D02*
D03*
Y1494D02*
D03*
Y4444D02*
D03*
Y5350D02*
D03*
Y6256D02*
D03*
D27*
X26560Y2400D02*
D03*
Y5350D02*
D03*
D33*
X17265Y17124D02*
D03*
Y16750D02*
D03*
Y16376D02*
D03*
X18205D02*
D03*
Y17124D02*
D03*
D36*
X28200Y9532D02*
D03*
Y11068D02*
D03*
X16435Y19585D02*
D03*
Y18050D02*
D03*
D37*
X25255Y8900D02*
D03*
X26200D02*
D03*
X25672Y10800D02*
D03*
X24728D02*
D03*
X18207Y18050D02*
D03*
X17263D02*
D03*
X18207Y19600D02*
D03*
X17263D02*
D03*
X14072Y15100D02*
D03*
X13128D02*
D03*
X26528Y13650D02*
D03*
X27472D02*
D03*
X14878Y5163D02*
D03*
X15822D02*
D03*
X17228D02*
D03*
X18172D02*
D03*
D38*
X26776Y8647D02*
D03*
X27524D02*
D03*
X27150Y9553D02*
D03*
D39*
X15550Y15024D02*
D03*
Y16323D02*
D03*
D40*
X18500Y2555D02*
D03*
Y3500D02*
D03*
X6750Y12478D02*
D03*
Y13422D02*
D03*
X10000Y14772D02*
D03*
Y13828D02*
D03*
X5750Y14078D02*
D03*
Y15022D02*
D03*
X23500Y17228D02*
D03*
Y18172D02*
D03*
X20070Y18972D02*
D03*
Y18028D02*
D03*
X20300Y13328D02*
D03*
Y14272D02*
D03*
X16550Y5222D02*
D03*
Y4278D02*
D03*
D41*
X26522Y7100D02*
D03*
X25578D02*
D03*
D42*
X5750Y12513D02*
D03*
Y13300D02*
D03*
X20070Y17144D02*
D03*
Y16356D02*
D03*
D43*
X5797Y16250D02*
D03*
X6703Y16624D02*
D03*
Y15876D02*
D03*
X22453Y18476D02*
D03*
Y19224D02*
D03*
X21547Y18850D02*
D03*
D44*
X15300Y18050D02*
D03*
Y19845D02*
D03*
D45*
X12885Y18948D02*
D03*
D46*
X19217Y5977D02*
D03*
X17583D02*
D03*
X19217Y6823D02*
D03*
X17583D02*
D03*
X19217Y9677D02*
D03*
X17583D02*
D03*
X19217Y10523D02*
D03*
X17583D02*
D03*
D47*
X16177Y7433D02*
D03*
Y9067D02*
D03*
X17023Y7433D02*
D03*
Y9067D02*
D03*
X19777Y7433D02*
D03*
Y9067D02*
D03*
X20623Y7433D02*
D03*
Y9067D02*
D03*
D48*
X14715Y15986D02*
D03*
Y15041D02*
D03*
X18222Y14775D02*
D03*
Y15720D02*
D03*
X16435Y16178D02*
D03*
Y17123D02*
D03*
X23014Y3345D02*
D03*
Y2400D02*
D03*
X28050Y3228D02*
D03*
Y4172D02*
D03*
D49*
X21565Y2850D02*
D03*
Y3350D02*
D03*
Y3850D02*
D03*
Y4350D02*
D03*
X19635Y2850D02*
D03*
Y3350D02*
D03*
Y3850D02*
D03*
Y4350D02*
D03*
D50*
X25700Y11650D02*
D03*
X24700D02*
D03*
Y14650D02*
D03*
X8900Y12850D02*
D03*
X7900D02*
D03*
Y15850D02*
D03*
X21550Y17250D02*
D03*
X22550D02*
D03*
Y14250D02*
D03*
D51*
X25700Y14650D02*
D03*
X8900Y15850D02*
D03*
X21550Y14250D02*
D03*
D52*
X29425Y7100D02*
D03*
D53*
X30425D02*
D03*
X31425D02*
D03*
X9334Y19550D02*
D03*
X7366D02*
D03*
D54*
X30350Y9216D02*
D03*
Y3366D02*
D03*
D55*
Y11184D02*
D03*
Y5334D02*
D03*
X882Y22600D02*
D03*
X2850D02*
D03*
X7366D02*
D03*
X13397D02*
D03*
X15366D02*
D03*
X16984Y1900D02*
D03*
X23182Y22600D02*
D03*
X21213D02*
D03*
X27666D02*
D03*
D56*
X2000Y1350D02*
D03*
Y8350D02*
D03*
D57*
X3000Y1350D02*
D03*
X4000D02*
D03*
X5000D02*
D03*
X6000D02*
D03*
X7000D02*
D03*
X8000D02*
D03*
X9000D02*
D03*
X10000D02*
D03*
X11000D02*
D03*
X3000Y8350D02*
D03*
X4000D02*
D03*
X5000D02*
D03*
X6000D02*
D03*
X7000D02*
D03*
X8000D02*
D03*
X9000D02*
D03*
X10000D02*
D03*
X11000D02*
D03*
D58*
X9334Y18550D02*
D03*
X7366D02*
D03*
D59*
X-1023Y835D02*
D03*
X32071D02*
D03*
Y24316D02*
D03*
X-1023Y24166D02*
D03*
D60*
X4450Y11500D02*
D03*
X29850Y18623D02*
D03*
X31550Y15575D02*
D03*
X27450Y18623D02*
D03*
X25650Y15575D02*
D03*
D61*
X277Y11500D02*
D03*
D62*
X4388Y12750D02*
D03*
D63*
X388D02*
D03*
D64*
X4388Y16750D02*
D03*
Y19750D02*
D03*
D65*
X4818Y22600D02*
D03*
X9334D02*
D03*
X17334D02*
D03*
X15016Y1900D02*
D03*
X25150Y22600D02*
D03*
X29634D02*
D03*
D66*
X21950Y8850D02*
D03*
Y7850D02*
D03*
Y6850D02*
D03*
X2000Y9550D02*
D03*
X3000D02*
D03*
X4000D02*
D03*
X14300Y8850D02*
D03*
Y7850D02*
D03*
Y6850D02*
D03*
D67*
X21950Y9850D02*
D03*
X14300D02*
D03*
D68*
X5000Y9550D02*
D03*
D69*
X29850Y14450D02*
D03*
X31550Y19748D02*
D03*
X27450Y14450D02*
D03*
X25650Y19748D02*
D03*
D70*
X23450Y10850D02*
D03*
X16220Y8280D02*
D03*
X24750Y10200D02*
D03*
X27250Y2400D02*
D03*
X14163Y5163D02*
D03*
X19087D02*
D03*
X18836Y15720D02*
D03*
X26250Y10800D02*
D03*
X27300Y4172D02*
D03*
X14700Y17100D02*
D03*
M02*
