M48
;Layer_Color=9474304
;FILE_FORMAT=2:5
INCH,LZ
;TYPE=PLATED
T01F00S00C0.01968
T02F00S00C0.03100
T03F00S00C0.03500
T04F00S00C0.04016
T05F00S00C0.04331
T06F00S00C0.05118
;TYPE=NON_PLATED
T07F00S00C0.11811
%
T01
X0291185Y0024
X0291685Y0041724
X020955Y0051635
X0160319
X0180884Y0082801
X0207046Y0157199
X0165685Y0171
X0253185Y01085
X0266185Y0102
X0281185Y0108
T02
X0097685Y01285
X0107685
Y01585
X0097685
X0234185Y01725
X0244185
Y01425
X0234185
X0265685Y01465
X0275685
Y01165
X0265685
T03
X0058685Y00135
X0068685
X0078685
X0088685
X0098685
X0108685
X0118685
X0128685
X0048685
X0038685
Y00835
X0048685
X0058685
X0068685
X0078685
X0088685
X0098685
X0108685
X0118685
X0128685
T04
X0038685Y00955
X0048685
X0058685
X0068685
X0161685Y00985
Y00885
Y00785
Y00685
X0238185
Y00785
Y00885
Y00985
T05
X0021453Y0115
X0063185
X0092343Y01855
Y01955
X0112028
Y01855
X0275185Y0197482
X0293185Y0186232
X0317185
X0334185Y0197482
Y015575
X0317185Y01445
X0293185
X0275185Y015575
X0312933Y0071
X0322933
X0332933
T06
X0322185Y0033658
Y0053342
X0188528Y0019
X0168842
X0037185Y0136
X0013563Y0143874
Y0191905
X0060807
Y0143874
X0322185Y0111843
Y0092158
X0315027Y0226
X0295342
X0270185
X02505
X0230815
X0192027
X0172343
X0152657
X0112028
X0092343
X006687
X0047185
X00275
T07
X0338583Y0009843
X0009843
X0338583Y0242126
X0009843
M30
