G04*
G04 #@! TF.GenerationSoftware,Altium Limited,Altium Designer,24.5.2 (23)*
G04*
G04 Layer_Physical_Order=1*
G04 Layer_Color=255*
%FSLAX25Y25*%
%MOIN*%
G70*
G04*
G04 #@! TF.SameCoordinates,9D3C8BE1-BED6-42F3-AD52-46E21662786B*
G04*
G04*
G04 #@! TF.FilePolarity,Positive*
G04*
G01*
G75*
%ADD20R,0.06496X0.02362*%
%ADD23R,0.06693X0.03937*%
%ADD26R,0.05906X0.04724*%
%ADD27R,0.05906X0.12992*%
%ADD30R,0.09843X0.04331*%
%ADD31R,0.04134X0.02559*%
%ADD32R,0.02559X0.04134*%
%ADD33R,0.05200X0.02200*%
%ADD35O,0.09843X0.02756*%
%ADD69R,0.04331X0.05315*%
%ADD70R,0.02756X0.03937*%
%ADD71R,0.05315X0.04331*%
%ADD72R,0.03937X0.05315*%
%ADD73R,0.04331X0.04331*%
%ADD74R,0.03937X0.02756*%
%ADD75R,0.25591X0.23228*%
%ADD76R,0.05315X0.03937*%
%ADD77C,0.02362*%
%ADD78C,0.04724*%
%ADD79C,0.03937*%
%ADD80C,0.07874*%
%ADD81C,0.03150*%
%ADD82C,0.11811*%
%ADD83C,0.09843*%
%ADD84C,0.07087*%
%ADD85R,0.07087X0.07087*%
%ADD86C,0.07677*%
G04:AMPARAMS|DCode=87|XSize=76.77mil|YSize=76.77mil|CornerRadius=19.19mil|HoleSize=0mil|Usage=FLASHONLY|Rotation=180.000|XOffset=0mil|YOffset=0mil|HoleType=Round|Shape=RoundedRectangle|*
%AMROUNDEDRECTD87*
21,1,0.07677,0.03839,0,0,180.0*
21,1,0.03839,0.07677,0,0,180.0*
1,1,0.03839,-0.01919,0.01919*
1,1,0.03839,0.01919,0.01919*
1,1,0.03839,0.01919,-0.01919*
1,1,0.03839,-0.01919,-0.01919*
%
%ADD87ROUNDEDRECTD87*%
%ADD88C,0.06500*%
%ADD89R,0.06500X0.06500*%
G04:AMPARAMS|DCode=90|XSize=62.99mil|YSize=62.99mil|CornerRadius=15.75mil|HoleSize=0mil|Usage=FLASHONLY|Rotation=0.000|XOffset=0mil|YOffset=0mil|HoleType=Round|Shape=RoundedRectangle|*
%AMROUNDEDRECTD90*
21,1,0.06299,0.03150,0,0,0.0*
21,1,0.03150,0.06299,0,0,0.0*
1,1,0.03150,0.01575,-0.01575*
1,1,0.03150,-0.01575,-0.01575*
1,1,0.03150,-0.01575,0.01575*
1,1,0.03150,0.01575,0.01575*
%
%ADD90ROUNDEDRECTD90*%
%ADD91C,0.06299*%
G04:AMPARAMS|DCode=92|XSize=76.77mil|YSize=76.77mil|CornerRadius=19.19mil|HoleSize=0mil|Usage=FLASHONLY|Rotation=90.000|XOffset=0mil|YOffset=0mil|HoleType=Round|Shape=RoundedRectangle|*
%AMROUNDEDRECTD92*
21,1,0.07677,0.03839,0,0,90.0*
21,1,0.03839,0.07677,0,0,90.0*
1,1,0.03839,0.01919,0.01919*
1,1,0.03839,0.01919,-0.01919*
1,1,0.03839,-0.01919,-0.01919*
1,1,0.03839,-0.01919,0.01919*
%
%ADD92ROUNDEDRECTD92*%
%ADD93R,0.06200X0.06200*%
%ADD94C,0.06200*%
G04:AMPARAMS|DCode=95|XSize=62.99mil|YSize=62.99mil|CornerRadius=15.75mil|HoleSize=0mil|Usage=FLASHONLY|Rotation=90.000|XOffset=0mil|YOffset=0mil|HoleType=Round|Shape=RoundedRectangle|*
%AMROUNDEDRECTD95*
21,1,0.06299,0.03150,0,0,90.0*
21,1,0.03150,0.06299,0,0,90.0*
1,1,0.03150,0.01575,0.01575*
1,1,0.03150,0.01575,-0.01575*
1,1,0.03150,-0.01575,-0.01575*
1,1,0.03150,-0.01575,0.01575*
%
%ADD95ROUNDEDRECTD95*%
%ADD96R,0.07087X0.07087*%
%ADD97C,0.05984*%
G04:AMPARAMS|DCode=98|XSize=59.84mil|YSize=59.84mil|CornerRadius=14.96mil|HoleSize=0mil|Usage=FLASHONLY|Rotation=270.000|XOffset=0mil|YOffset=0mil|HoleType=Round|Shape=RoundedRectangle|*
%AMROUNDEDRECTD98*
21,1,0.05984,0.02992,0,0,270.0*
21,1,0.02992,0.05984,0,0,270.0*
1,1,0.02992,-0.01496,-0.01496*
1,1,0.02992,-0.01496,0.01496*
1,1,0.02992,0.01496,0.01496*
1,1,0.02992,0.01496,-0.01496*
%
%ADD98ROUNDEDRECTD98*%
G04:AMPARAMS|DCode=99|XSize=59.84mil|YSize=59.84mil|CornerRadius=14.96mil|HoleSize=0mil|Usage=FLASHONLY|Rotation=180.000|XOffset=0mil|YOffset=0mil|HoleType=Round|Shape=RoundedRectangle|*
%AMROUNDEDRECTD99*
21,1,0.05984,0.02992,0,0,180.0*
21,1,0.02992,0.05984,0,0,180.0*
1,1,0.02992,-0.01496,0.01496*
1,1,0.02992,0.01496,0.01496*
1,1,0.02992,0.01496,-0.01496*
1,1,0.02992,-0.01496,-0.01496*
%
%ADD99ROUNDEDRECTD99*%
%ADD100C,0.03937*%
G36*
X341794Y250818D02*
X343103Y250421D01*
X344309Y249777D01*
X345366Y248909D01*
X346233Y247852D01*
X346878Y246646D01*
X347275Y245337D01*
X347408Y243987D01*
X347406Y243976D01*
Y8000D01*
X347408Y7989D01*
X347275Y6639D01*
X346878Y5331D01*
X346233Y4124D01*
X345366Y3067D01*
X344309Y2200D01*
X343103Y1555D01*
X341794Y1158D01*
X340915Y1072D01*
X340433Y1027D01*
X339933Y1027D01*
X7990Y1020D01*
X7980Y1017D01*
X6630Y1150D01*
X5322Y1547D01*
X4116Y2192D01*
X3059Y3059D01*
X2192Y4116D01*
X1547Y5322D01*
X1150Y6630D01*
X1017Y7980D01*
X1020Y7990D01*
X1020Y243978D01*
X1017Y243989D01*
X1150Y245339D01*
X1547Y246647D01*
X2192Y247853D01*
X3059Y248909D01*
X4116Y249777D01*
X5322Y250421D01*
X6630Y250818D01*
X7980Y250951D01*
X7990Y250949D01*
X340433D01*
X340444Y250951D01*
X341794Y250818D01*
D02*
G37*
%LPC*%
G36*
X9843Y248563D02*
X8587Y248439D01*
X7379Y248073D01*
X6267Y247478D01*
X5291Y246677D01*
X4491Y245702D01*
X3896Y244589D01*
X3530Y243382D01*
X3406Y242126D01*
X3530Y240870D01*
X3896Y239663D01*
X4491Y238550D01*
X5291Y237575D01*
X6267Y236774D01*
X7379Y236179D01*
X8587Y235813D01*
X9843Y235689D01*
X11098Y235813D01*
X12306Y236179D01*
X13419Y236774D01*
X14394Y237575D01*
X15194Y238550D01*
X15789Y239663D01*
X16155Y240870D01*
X16279Y242126D01*
X16155Y243382D01*
X15789Y244589D01*
X15194Y245702D01*
X14394Y246677D01*
X13419Y247478D01*
X12306Y248073D01*
X11098Y248439D01*
X9843Y248563D01*
D02*
G37*
G36*
X250500Y230376D02*
X249367Y230227D01*
X248312Y229790D01*
X247406Y229094D01*
X246710Y228188D01*
X246273Y227133D01*
X246124Y226000D01*
X246273Y224867D01*
X246710Y223812D01*
X247406Y222906D01*
X248312Y222210D01*
X249367Y221773D01*
X250500Y221624D01*
X251633Y221773D01*
X252688Y222210D01*
X253594Y222906D01*
X254290Y223812D01*
X254727Y224867D01*
X254876Y226000D01*
X254727Y227133D01*
X254290Y228188D01*
X253594Y229094D01*
X252688Y229790D01*
X251633Y230227D01*
X250500Y230376D01*
D02*
G37*
G36*
X230815D02*
X229682Y230227D01*
X228627Y229790D01*
X227721Y229094D01*
X227025Y228188D01*
X226588Y227133D01*
X226439Y226000D01*
X226588Y224867D01*
X226784Y224393D01*
X218176Y215785D01*
X217805Y215229D01*
X217674Y214573D01*
Y192390D01*
X216231D01*
Y187059D01*
X222546D01*
Y188010D01*
X225751D01*
X226473Y187288D01*
X227029Y186916D01*
X227685Y186786D01*
X231689D01*
Y186622D01*
X236626D01*
Y190378D01*
X231689D01*
Y190214D01*
X228395D01*
X227673Y190936D01*
X227117Y191308D01*
X226461Y191438D01*
X222546D01*
Y192390D01*
X221102D01*
Y213863D01*
X229208Y221969D01*
X229682Y221773D01*
X230815Y221624D01*
X231948Y221773D01*
X233003Y222210D01*
X233909Y222906D01*
X234605Y223812D01*
X235042Y224867D01*
X235191Y226000D01*
X235042Y227133D01*
X234605Y228188D01*
X233909Y229094D01*
X233003Y229790D01*
X231948Y230227D01*
X230815Y230376D01*
D02*
G37*
G36*
X172343D02*
X171210Y230227D01*
X170155Y229790D01*
X169248Y229094D01*
X168553Y228188D01*
X168116Y227133D01*
X167966Y226000D01*
X168116Y224867D01*
X168553Y223812D01*
X169248Y222906D01*
X170155Y222210D01*
X171210Y221773D01*
X172343Y221624D01*
X173475Y221773D01*
X174530Y222210D01*
X175437Y222906D01*
X176132Y223812D01*
X176569Y224867D01*
X176719Y226000D01*
X176569Y227133D01*
X176132Y228188D01*
X175437Y229094D01*
X174530Y229790D01*
X173475Y230227D01*
X172343Y230376D01*
D02*
G37*
G36*
X47185D02*
X46052Y230227D01*
X44997Y229790D01*
X44091Y229094D01*
X43395Y228188D01*
X42958Y227133D01*
X42809Y226000D01*
X42958Y224867D01*
X43395Y223812D01*
X44091Y222906D01*
X44997Y222210D01*
X46052Y221773D01*
X47185Y221624D01*
X48318Y221773D01*
X49373Y222210D01*
X50279Y222906D01*
X50975Y223812D01*
X51412Y224867D01*
X51561Y226000D01*
X51412Y227133D01*
X50975Y228188D01*
X50279Y229094D01*
X49373Y229790D01*
X48318Y230227D01*
X47185Y230376D01*
D02*
G37*
G36*
X193947Y230386D02*
X190108D01*
X189164Y230198D01*
X188364Y229663D01*
X187829Y228863D01*
X187642Y227919D01*
Y224081D01*
X187829Y223137D01*
X188364Y222337D01*
X189164Y221802D01*
X190108Y221614D01*
X193947D01*
X194891Y221802D01*
X195691Y222337D01*
X196226Y223137D01*
X196414Y224081D01*
Y227919D01*
X196226Y228863D01*
X195691Y229663D01*
X194891Y230198D01*
X193947Y230386D01*
D02*
G37*
G36*
X193976Y199158D02*
X188646D01*
Y197569D01*
X183035D01*
X182879Y197538D01*
X179787D01*
X179783Y197536D01*
X179287D01*
Y197096D01*
X179246Y196997D01*
Y192705D01*
X179405Y192323D01*
X179787Y192164D01*
X182051D01*
X182434Y192323D01*
X182592Y192705D01*
Y194133D01*
X183478D01*
Y192705D01*
X183637Y192323D01*
X184020Y192164D01*
X186283D01*
X186666Y192323D01*
X186825Y192705D01*
Y194141D01*
X188646D01*
Y192843D01*
X193976D01*
Y199158D01*
D02*
G37*
G36*
X113947Y230386D02*
X110108D01*
X109164Y230198D01*
X108364Y229663D01*
X107829Y228863D01*
X107642Y227919D01*
Y224081D01*
X107829Y223137D01*
X108364Y222337D01*
X109141Y221818D01*
Y197733D01*
X108840Y197341D01*
X108472Y196453D01*
X108346Y195500D01*
X108472Y194547D01*
X108840Y193659D01*
X109425Y192897D01*
X110187Y192312D01*
X111075Y191944D01*
X112028Y191819D01*
X112980Y191944D01*
X113868Y192312D01*
X114630Y192897D01*
X115216Y193659D01*
X115583Y194547D01*
X115709Y195500D01*
X115583Y196453D01*
X115216Y197341D01*
X114914Y197733D01*
Y221818D01*
X115691Y222337D01*
X116226Y223137D01*
X116413Y224081D01*
Y227919D01*
X116226Y228863D01*
X115691Y229663D01*
X114891Y230198D01*
X113947Y230386D01*
D02*
G37*
G36*
X68789D02*
X64951D01*
X64007Y230198D01*
X63206Y229663D01*
X62672Y228863D01*
X62484Y227919D01*
Y224081D01*
X62672Y223137D01*
X63206Y222337D01*
X64007Y221802D01*
X64951Y221614D01*
X68789D01*
X69733Y221802D01*
X70534Y222337D01*
X71052Y223113D01*
X89089D01*
X89248Y222906D01*
X89456Y222746D01*
Y197733D01*
X89155Y197341D01*
X88787Y196453D01*
X88661Y195500D01*
X88787Y194547D01*
X89155Y193659D01*
X89740Y192897D01*
X90502Y192312D01*
X91390Y191944D01*
X92343Y191819D01*
X93295Y191944D01*
X94183Y192312D01*
X94946Y192897D01*
X95530Y193659D01*
X95898Y194547D01*
X96024Y195500D01*
X95898Y196453D01*
X95530Y197341D01*
X95229Y197733D01*
Y222746D01*
X95437Y222906D01*
X96132Y223812D01*
X96569Y224867D01*
X96719Y226000D01*
X96569Y227133D01*
X96132Y228188D01*
X95437Y229094D01*
X94530Y229790D01*
X93475Y230227D01*
X92343Y230376D01*
X91210Y230227D01*
X90154Y229790D01*
X89248Y229094D01*
X89089Y228887D01*
X71052D01*
X70534Y229663D01*
X69733Y230198D01*
X68789Y230386D01*
D02*
G37*
G36*
X60807Y197374D02*
X59392Y197187D01*
X58073Y196641D01*
X56941Y195772D01*
X56072Y194640D01*
X55525Y193321D01*
X55339Y191905D01*
X55525Y190490D01*
X56072Y189172D01*
X56941Y188039D01*
X58073Y187170D01*
X59392Y186624D01*
X60807Y186437D01*
X62222Y186624D01*
X63541Y187170D01*
X64674Y188039D01*
X65543Y189172D01*
X66089Y190490D01*
X66275Y191905D01*
X66089Y193321D01*
X65543Y194640D01*
X64674Y195772D01*
X63541Y196641D01*
X62222Y197187D01*
X60807Y197374D01*
D02*
G37*
G36*
X13563D02*
X12148Y197187D01*
X10829Y196641D01*
X9697Y195772D01*
X8828Y194640D01*
X8281Y193321D01*
X8095Y191905D01*
X8281Y190490D01*
X8828Y189172D01*
X9697Y188039D01*
X10829Y187170D01*
X12148Y186624D01*
X13563Y186437D01*
X14978Y186624D01*
X16297Y187170D01*
X17429Y188039D01*
X18298Y189172D01*
X18845Y190490D01*
X19031Y191905D01*
X18845Y193321D01*
X18298Y194640D01*
X17429Y195772D01*
X16297Y196641D01*
X14978Y197187D01*
X13563Y197374D01*
D02*
G37*
G36*
X186283Y184192D02*
X184020D01*
X183637Y184033D01*
X183478Y183650D01*
Y182223D01*
X182592D01*
Y183650D01*
X182434Y184033D01*
X182051Y184192D01*
X179787D01*
X179405Y184033D01*
X179246Y183650D01*
Y182214D01*
X177106D01*
Y183165D01*
X166264D01*
Y177835D01*
X177106D01*
Y178786D01*
X179768D01*
X179787Y178778D01*
X186283D01*
X186303Y178786D01*
X188646D01*
Y177343D01*
X193976D01*
Y183658D01*
X188646D01*
Y182214D01*
X186825D01*
Y183650D01*
X186666Y184033D01*
X186283Y184192D01*
D02*
G37*
G36*
X245681Y186638D02*
X240744D01*
Y182882D01*
X245681D01*
Y183046D01*
X249447D01*
X250528Y181966D01*
Y179059D01*
X256842D01*
Y184390D01*
X252952D01*
X251370Y185972D01*
X250813Y186343D01*
X250157Y186474D01*
X245681D01*
Y186638D01*
D02*
G37*
G36*
X159685Y247041D02*
X159685Y247041D01*
X132685D01*
X132302Y246883D01*
X129302Y243883D01*
X129144Y243500D01*
X129144Y243500D01*
Y178500D01*
X129302Y178117D01*
X132302Y175117D01*
X132685Y174959D01*
X132685Y174959D01*
X160185D01*
X160568Y175117D01*
X163568Y178117D01*
X163726Y178500D01*
X163726Y178500D01*
Y243000D01*
X163726Y243000D01*
X163568Y243383D01*
X163568Y243383D01*
X160068Y246883D01*
X159685Y247041D01*
D02*
G37*
G36*
X203425Y199158D02*
X198094D01*
Y192843D01*
X199046D01*
Y183658D01*
X198094D01*
Y177343D01*
X199034D01*
Y172841D01*
X197635D01*
Y169641D01*
X203835D01*
Y172841D01*
X202462D01*
Y177343D01*
X203425D01*
Y183658D01*
X202474D01*
Y192843D01*
X203425D01*
Y199158D01*
D02*
G37*
G36*
X244185Y176282D02*
X243206Y176154D01*
X242294Y175776D01*
X241511Y175174D01*
X240909Y174391D01*
X240532Y173479D01*
X240403Y172500D01*
X240532Y171521D01*
X240909Y170609D01*
X241511Y169825D01*
X242294Y169224D01*
X243206Y168846D01*
X244185Y168718D01*
X245164Y168846D01*
X246076Y169224D01*
X246860Y169825D01*
X247461Y170609D01*
X247488Y170674D01*
X250528D01*
Y169610D01*
X256842D01*
Y174941D01*
X250528D01*
Y174102D01*
X247581D01*
X247461Y174391D01*
X246860Y175174D01*
X246076Y175776D01*
X245164Y176154D01*
X244185Y176282D01*
D02*
G37*
G36*
X222546Y182941D02*
X216231D01*
Y177610D01*
X217674D01*
Y174103D01*
X216723D01*
Y168772D01*
X222054D01*
Y174103D01*
X221102D01*
Y177610D01*
X222546D01*
Y182941D01*
D02*
G37*
G36*
X113602Y189190D02*
X110453D01*
X109643Y189029D01*
X108957Y188571D01*
X108498Y187884D01*
X108337Y187075D01*
Y183925D01*
X108498Y183116D01*
X108957Y182429D01*
X109643Y181971D01*
X110313Y181837D01*
Y178157D01*
X110444Y177502D01*
X110816Y176945D01*
X117748Y170013D01*
X118304Y169641D01*
X118960Y169511D01*
X163711D01*
X163905Y169220D01*
X164722Y168675D01*
X165685Y168483D01*
X166648Y168675D01*
X167465Y169220D01*
X167659Y169511D01*
X179878D01*
Y168756D01*
X186193D01*
Y169519D01*
X191328D01*
X191940Y169641D01*
X194435D01*
Y172841D01*
X191909D01*
X191335Y172955D01*
X191296Y172947D01*
X186193D01*
Y173694D01*
X179878D01*
Y172939D01*
X167226D01*
X166648Y173325D01*
X165685Y173517D01*
X164722Y173325D01*
X164144Y172939D01*
X119670D01*
X113742Y178867D01*
Y181837D01*
X114412Y181971D01*
X115098Y182429D01*
X115557Y183116D01*
X115718Y183925D01*
Y187075D01*
X115557Y187884D01*
X115098Y188571D01*
X114412Y189029D01*
X113602Y189190D01*
D02*
G37*
G36*
X234185Y176282D02*
X233206Y176154D01*
X232294Y175776D01*
X231510Y175174D01*
X230909Y174391D01*
X230532Y173479D01*
X230403Y172500D01*
X230429Y172303D01*
X224206Y166080D01*
X222054D01*
Y166229D01*
X216723D01*
Y160898D01*
X222054D01*
Y161047D01*
X225249D01*
X226212Y161238D01*
X227028Y161784D01*
X231206Y165962D01*
X231668Y165770D01*
Y163500D01*
X231860Y162537D01*
X232405Y161720D01*
X237905Y156220D01*
X238722Y155675D01*
X239685Y155483D01*
X248143D01*
X250668Y152957D01*
Y125042D01*
X239142Y113517D01*
X174185D01*
X173222Y113325D01*
X172405Y112780D01*
X161657Y102031D01*
X160189D01*
X159410Y101876D01*
X158750Y101435D01*
X158309Y100775D01*
X158154Y99996D01*
Y97004D01*
X158309Y96225D01*
X158750Y95565D01*
X159410Y95124D01*
X160189Y94969D01*
X163181D01*
X163960Y95124D01*
X164620Y95565D01*
X165061Y96225D01*
X165216Y97004D01*
Y98472D01*
X175227Y108483D01*
X239142D01*
X266905Y80720D01*
X267722Y80175D01*
X268685Y79983D01*
X280561D01*
X281393Y79151D01*
Y71000D01*
Y60496D01*
X280831D01*
Y56017D01*
X262539D01*
Y56362D01*
X255634D01*
Y50638D01*
X262539D01*
Y50983D01*
X280831D01*
Y46504D01*
X287736D01*
Y60496D01*
X286426D01*
Y64271D01*
X286888Y64462D01*
X292130Y59220D01*
X292946Y58675D01*
X293909Y58483D01*
X326336D01*
X327168Y57651D01*
Y14849D01*
X326336Y14017D01*
X263779D01*
X262539Y15256D01*
Y17807D01*
X255634D01*
Y12083D01*
X258594D01*
X260957Y9720D01*
X261773Y9175D01*
X262736Y8983D01*
X327379D01*
X328342Y9175D01*
X329158Y9720D01*
X331465Y12027D01*
X332010Y12843D01*
X332202Y13806D01*
Y58694D01*
X332010Y59657D01*
X331465Y60473D01*
X329158Y62780D01*
X328342Y63325D01*
X327379Y63517D01*
X309663D01*
X309471Y63979D01*
X312802Y67310D01*
X314508D01*
X315317Y67471D01*
X316004Y67929D01*
X316462Y68616D01*
X316623Y69425D01*
Y72575D01*
X316462Y73384D01*
X316004Y74071D01*
X315317Y74529D01*
X314508Y74690D01*
X311358D01*
X310549Y74529D01*
X309862Y74071D01*
X309404Y73384D01*
X309243Y72575D01*
Y70869D01*
X301890Y63517D01*
X294952D01*
X286426Y72043D01*
Y80194D01*
X286235Y81157D01*
X285689Y81973D01*
X283383Y84280D01*
X282566Y84825D01*
X281603Y85017D01*
X269728D01*
X269364Y85381D01*
X269555Y85843D01*
X273902D01*
Y92158D01*
X270995D01*
X255528Y107625D01*
X255702Y108500D01*
X255510Y109463D01*
X254965Y110280D01*
X254148Y110825D01*
X253185Y111017D01*
X252222Y110825D01*
X251405Y110280D01*
X250860Y109463D01*
X250668Y108500D01*
X250860Y107537D01*
X251405Y106720D01*
X252142Y106228D01*
X252274Y106030D01*
X268571Y89733D01*
Y86827D01*
X268109Y86636D01*
X243744Y111000D01*
X254965Y122220D01*
X255510Y123037D01*
X255702Y124000D01*
Y154000D01*
X255510Y154963D01*
X254965Y155780D01*
X250965Y159780D01*
X250148Y160325D01*
X249185Y160517D01*
X240728D01*
X236702Y164542D01*
Y169704D01*
X236860Y169825D01*
X237461Y170609D01*
X237839Y171521D01*
X237967Y172500D01*
X237839Y173479D01*
X237461Y174391D01*
X236860Y175174D01*
X236076Y175776D01*
X235164Y176154D01*
X234185Y176282D01*
D02*
G37*
G36*
X203835Y165360D02*
X197635D01*
Y162161D01*
X198387D01*
Y159668D01*
X197746D01*
Y154731D01*
X200660D01*
X200904Y154682D01*
X201147Y154731D01*
X204061D01*
Y155485D01*
X205222D01*
X205266Y155420D01*
X206083Y154874D01*
X207046Y154682D01*
X208009Y154874D01*
X208825Y155420D01*
X209371Y156236D01*
X209563Y157199D01*
X209371Y158162D01*
X208825Y158979D01*
X208009Y159525D01*
X207046Y159716D01*
X206083Y159525D01*
X205266Y158979D01*
X205222Y158913D01*
X204061D01*
Y159668D01*
X203420D01*
Y162161D01*
X203835D01*
Y165360D01*
D02*
G37*
G36*
X191335Y165409D02*
X191092Y165360D01*
X188235D01*
Y162161D01*
X188819D01*
Y153588D01*
X187987Y152756D01*
X168992D01*
Y152877D01*
X166767D01*
X166524Y152926D01*
X165835D01*
X165592Y152877D01*
X162677D01*
Y152756D01*
X162075D01*
Y154157D01*
X156744D01*
Y147843D01*
X158805D01*
X159409Y147722D01*
X165835D01*
X166264Y147808D01*
X166693Y147722D01*
X189029D01*
X189992Y147914D01*
X190809Y148459D01*
X193115Y150766D01*
X193661Y151582D01*
X193852Y152545D01*
Y162161D01*
X194435D01*
Y165360D01*
X191578D01*
X191335Y165409D01*
D02*
G37*
G36*
X79126Y164378D02*
X74189D01*
Y160622D01*
X74471D01*
Y152890D01*
X73027D01*
Y151938D01*
X67158D01*
X66501Y151808D01*
X65946Y151436D01*
X63242Y148733D01*
X62222Y149156D01*
X60807Y149342D01*
X59392Y149156D01*
X58073Y148609D01*
X56941Y147740D01*
X56072Y146608D01*
X55525Y145289D01*
X55339Y143874D01*
X55525Y142459D01*
X56072Y141140D01*
X56941Y140007D01*
X58073Y139139D01*
X58290Y139049D01*
Y118230D01*
X58482Y117267D01*
X59027Y116451D01*
X59298Y116180D01*
X59246Y116056D01*
X59107Y115000D01*
X59246Y113944D01*
X59653Y112961D01*
X60301Y112116D01*
X61146Y111468D01*
X62129Y111061D01*
X63185Y110922D01*
X64240Y111061D01*
X65224Y111468D01*
X66069Y112116D01*
X66717Y112961D01*
X67124Y113944D01*
X67263Y115000D01*
X67124Y116056D01*
X66717Y117039D01*
X66069Y117884D01*
X65224Y118532D01*
X64240Y118939D01*
X63569Y119028D01*
X63324Y119273D01*
Y139049D01*
X63541Y139139D01*
X64674Y140007D01*
X65543Y141140D01*
X66089Y142459D01*
X66275Y143874D01*
X66089Y145289D01*
X65666Y146309D01*
X67867Y148510D01*
X73027D01*
Y147559D01*
X79343D01*
Y152890D01*
X77899D01*
Y160622D01*
X79126D01*
Y164378D01*
D02*
G37*
G36*
X111435Y162250D02*
X103935D01*
Y154750D01*
X111435D01*
Y156786D01*
X113975D01*
X116971Y153790D01*
Y150390D01*
X115527D01*
Y145059D01*
X121843D01*
Y150390D01*
X120399D01*
Y154500D01*
X120269Y155156D01*
X119897Y155712D01*
X115897Y159712D01*
X115341Y160084D01*
X114685Y160214D01*
X111435D01*
Y162250D01*
D02*
G37*
G36*
X237935Y146250D02*
X230435D01*
Y144326D01*
X224843D01*
Y145390D01*
X218528D01*
Y140059D01*
X224843D01*
Y140898D01*
X230435D01*
Y138750D01*
X237935D01*
Y146250D01*
D02*
G37*
G36*
X338583Y248563D02*
X337327Y248439D01*
X336120Y248073D01*
X335007Y247478D01*
X334031Y246677D01*
X333231Y245702D01*
X332856Y245000D01*
X268685D01*
X259954Y236269D01*
X260421Y142764D01*
X266185Y137000D01*
X275761D01*
X277473Y135288D01*
X278029Y134916D01*
X278685Y134786D01*
X281295D01*
Y133343D01*
X286626D01*
Y137000D01*
X290744D01*
Y133343D01*
X296075D01*
Y137000D01*
X339185D01*
X346185Y144000D01*
Y236500D01*
X344004Y238681D01*
X344529Y239663D01*
X344896Y240870D01*
X345019Y242126D01*
X344896Y243382D01*
X344529Y244589D01*
X343934Y245702D01*
X343134Y246677D01*
X342159Y247478D01*
X341046Y248073D01*
X339838Y248439D01*
X338583Y248563D01*
D02*
G37*
G36*
X88181Y160638D02*
X83244D01*
Y156882D01*
X84235D01*
Y136890D01*
X83027D01*
Y131559D01*
X89342D01*
Y136890D01*
X87663D01*
Y156882D01*
X88181D01*
Y160638D01*
D02*
G37*
G36*
X224843Y135941D02*
X218528D01*
Y134990D01*
X178461D01*
X177805Y134859D01*
X177249Y134488D01*
X129726Y86965D01*
X129625Y87007D01*
X128685Y87131D01*
X127745Y87007D01*
X126869Y86645D01*
X126118Y86068D01*
X125540Y85316D01*
X125178Y84440D01*
X125054Y83500D01*
X125178Y82560D01*
X125540Y81684D01*
X126118Y80932D01*
X126869Y80355D01*
X127745Y79993D01*
X128685Y79869D01*
X129625Y79993D01*
X130501Y80355D01*
X131253Y80932D01*
X131830Y81684D01*
X132192Y82560D01*
X132316Y83500D01*
X132192Y84440D01*
X132150Y84541D01*
X179171Y131562D01*
X218528D01*
Y130610D01*
X224843D01*
Y135941D01*
D02*
G37*
G36*
X27500Y230376D02*
X26367Y230227D01*
X25312Y229790D01*
X24406Y229094D01*
X23710Y228188D01*
X23273Y227133D01*
X23124Y226000D01*
X23273Y224867D01*
X23710Y223812D01*
X24406Y222906D01*
X25312Y222210D01*
X26367Y221773D01*
X27500Y221624D01*
X27759Y221658D01*
X34298Y215119D01*
Y140618D01*
X33318Y139866D01*
X32450Y138734D01*
X31903Y137415D01*
X31717Y136000D01*
X31903Y134585D01*
X32450Y133266D01*
X33318Y132133D01*
X34451Y131264D01*
X35770Y130718D01*
X37185Y130532D01*
X38600Y130718D01*
X39919Y131264D01*
X41052Y132133D01*
X41921Y133266D01*
X42467Y134585D01*
X42653Y136000D01*
X42467Y137415D01*
X41921Y138734D01*
X41052Y139866D01*
X40072Y140618D01*
Y216315D01*
X40072Y216315D01*
X39974Y217062D01*
X39685Y217758D01*
X39226Y218356D01*
X31842Y225741D01*
X31876Y226000D01*
X31727Y227133D01*
X31290Y228188D01*
X30594Y229094D01*
X29688Y229790D01*
X28633Y230227D01*
X27500Y230376D01*
D02*
G37*
G36*
X79343Y143441D02*
X73027D01*
Y138110D01*
X74471D01*
Y135665D01*
X73520D01*
Y130335D01*
X78850D01*
Y135665D01*
X77899D01*
Y138110D01*
X79343D01*
Y143441D01*
D02*
G37*
G36*
X97685Y132282D02*
X96706Y132153D01*
X95794Y131776D01*
X95011Y131175D01*
X94409Y130391D01*
X94032Y129479D01*
X93903Y128500D01*
X93930Y128289D01*
X92131Y126490D01*
X89342D01*
Y127441D01*
X83027D01*
Y122110D01*
X89342D01*
Y123062D01*
X92841D01*
X93497Y123192D01*
X94053Y123564D01*
X95749Y125259D01*
X95794Y125224D01*
X96706Y124846D01*
X97685Y124718D01*
X98664Y124846D01*
X99576Y125224D01*
X100360Y125826D01*
X100961Y126609D01*
X101339Y127521D01*
X101467Y128500D01*
X101339Y129479D01*
X100961Y130391D01*
X100360Y131175D01*
X99576Y131776D01*
X98664Y132153D01*
X97685Y132282D01*
D02*
G37*
G36*
X322185Y116218D02*
X321052Y116069D01*
X319997Y115632D01*
X319091Y114937D01*
X318395Y114031D01*
X317958Y112975D01*
X317881Y112391D01*
X303953D01*
X303933Y112399D01*
X297437D01*
X297417Y112391D01*
X292862D01*
X292206Y112261D01*
X291650Y111889D01*
X288973Y109212D01*
X288601Y108656D01*
X288471Y108000D01*
Y97996D01*
X288307D01*
Y93059D01*
X292063D01*
Y97996D01*
X291899D01*
Y107290D01*
X293572Y108963D01*
X296896D01*
Y107528D01*
X297054Y107145D01*
X297437Y106986D01*
X299701D01*
X300083Y107145D01*
X300242Y107528D01*
Y108955D01*
X301128D01*
Y107528D01*
X301287Y107145D01*
X301669Y106986D01*
X303933D01*
X304316Y107145D01*
X304474Y107528D01*
Y108963D01*
X318926D01*
X319091Y108748D01*
X319997Y108053D01*
X321052Y107616D01*
X322185Y107466D01*
X323318Y107616D01*
X324373Y108053D01*
X325279Y108748D01*
X325975Y109654D01*
X326412Y110710D01*
X326561Y111843D01*
X326412Y112975D01*
X325975Y114031D01*
X325279Y114937D01*
X324373Y115632D01*
X323318Y116069D01*
X322185Y116218D01*
D02*
G37*
G36*
X275685Y120282D02*
X274706Y120153D01*
X273794Y119776D01*
X273010Y119175D01*
X272409Y118391D01*
X272032Y117479D01*
X271903Y116500D01*
X272032Y115521D01*
X272409Y114609D01*
X273010Y113826D01*
X273794Y113224D01*
X274109Y113094D01*
Y111158D01*
X272744D01*
Y104842D01*
X278075D01*
Y106286D01*
X279362D01*
X279405Y106220D01*
X280222Y105675D01*
X281185Y105483D01*
X282148Y105675D01*
X282965Y106220D01*
X283510Y107037D01*
X283702Y108000D01*
X283510Y108963D01*
X282965Y109780D01*
X282148Y110325D01*
X281185Y110517D01*
X280222Y110325D01*
X279405Y109780D01*
X279362Y109714D01*
X278075D01*
Y111158D01*
X277537D01*
Y113208D01*
X277576Y113224D01*
X278360Y113826D01*
X278961Y114609D01*
X279339Y115521D01*
X279467Y116500D01*
X279339Y117479D01*
X278961Y118391D01*
X278360Y119175D01*
X277576Y119776D01*
X276664Y120153D01*
X275685Y120282D01*
D02*
G37*
G36*
X268626Y111158D02*
X263295D01*
Y104842D01*
X264359D01*
Y103710D01*
X263860Y102963D01*
X263668Y102000D01*
X263860Y101037D01*
X264405Y100220D01*
X265222Y99675D01*
X266185Y99483D01*
X267148Y99675D01*
X267965Y100220D01*
X268510Y101037D01*
X268702Y102000D01*
X268510Y102963D01*
X267965Y103780D01*
X267787Y103899D01*
Y104842D01*
X268626D01*
Y111158D01*
D02*
G37*
G36*
X239681Y102031D02*
X236689D01*
X235910Y101876D01*
X235250Y101435D01*
X234809Y100775D01*
X234697Y100214D01*
X227685D01*
X227029Y100084D01*
X226473Y99712D01*
X225243Y98482D01*
X213421D01*
Y98547D01*
X208287D01*
Y98482D01*
X197083D01*
Y98547D01*
X191949D01*
Y98482D01*
X187453D01*
X186797Y98351D01*
X186241Y97980D01*
X183973Y95712D01*
X183601Y95156D01*
X183471Y94500D01*
Y84617D01*
X182971Y84396D01*
X182785Y84565D01*
Y88400D01*
X182654Y89056D01*
X182283Y89612D01*
X182265Y89629D01*
Y90571D01*
X182232Y90736D01*
Y93236D01*
X178673D01*
Y88102D01*
X179075D01*
X179339Y87707D01*
X179357Y87690D01*
Y84887D01*
X163395D01*
X163296Y85387D01*
X163446Y85450D01*
X164176Y86009D01*
X164735Y86739D01*
X165087Y87588D01*
X165207Y88500D01*
X165087Y89412D01*
X164735Y90261D01*
X164176Y90991D01*
X163446Y91550D01*
X162597Y91902D01*
X161685Y92022D01*
X160773Y91902D01*
X159924Y91550D01*
X159194Y90991D01*
X158635Y90261D01*
X158615Y90214D01*
X146185D01*
X145529Y90084D01*
X144973Y89712D01*
X133475Y78214D01*
X86395D01*
X82150Y82459D01*
X82192Y82560D01*
X82316Y83500D01*
X82192Y84440D01*
X81830Y85316D01*
X81253Y86068D01*
X80501Y86645D01*
X79625Y87007D01*
X78685Y87131D01*
X77745Y87007D01*
X76869Y86645D01*
X76117Y86068D01*
X75540Y85316D01*
X75178Y84440D01*
X75054Y83500D01*
X75178Y82560D01*
X75540Y81684D01*
X76117Y80932D01*
X76869Y80355D01*
X77745Y79993D01*
X78685Y79869D01*
X79625Y79993D01*
X79726Y80035D01*
X83947Y75814D01*
X83756Y75352D01*
X69257D01*
X62150Y82459D01*
X62192Y82560D01*
X62316Y83500D01*
X62192Y84440D01*
X61830Y85316D01*
X61253Y86068D01*
X60501Y86645D01*
X59625Y87007D01*
X58685Y87131D01*
X57745Y87007D01*
X56870Y86645D01*
X56117Y86068D01*
X55540Y85316D01*
X55178Y84440D01*
X55054Y83500D01*
X55178Y82560D01*
X55540Y81684D01*
X56117Y80932D01*
X56870Y80355D01*
X57745Y79993D01*
X58685Y79869D01*
X59625Y79993D01*
X59726Y80035D01*
X67335Y72426D01*
X67891Y72054D01*
X68547Y71924D01*
X135371D01*
X136027Y72054D01*
X136583Y72426D01*
X145616Y81459D01*
X159035D01*
X159133Y81172D01*
X159170Y80959D01*
X158635Y80261D01*
X158283Y79412D01*
X158163Y78500D01*
X158283Y77588D01*
X158635Y76739D01*
X159194Y76009D01*
X159924Y75450D01*
X160773Y75098D01*
X161685Y74978D01*
X162597Y75098D01*
X163446Y75450D01*
X164176Y76009D01*
X164735Y76739D01*
X165087Y77588D01*
X165207Y78500D01*
X165087Y79412D01*
X164735Y80261D01*
X164200Y80959D01*
X164237Y81172D01*
X164335Y81459D01*
X178753D01*
X178859Y81388D01*
X179104Y81022D01*
X179170Y80978D01*
Y80326D01*
X178869Y79877D01*
X178739Y79221D01*
Y76898D01*
X178673D01*
Y71764D01*
X182232D01*
Y76898D01*
X182167D01*
Y78546D01*
X182467Y78996D01*
X182598Y79652D01*
Y80978D01*
X182663Y81022D01*
X182971Y81482D01*
X183471Y81330D01*
Y69710D01*
X178105Y64344D01*
X147815D01*
X147159Y64214D01*
X146603Y63842D01*
X99726Y16965D01*
X99625Y17007D01*
X98685Y17131D01*
X97745Y17007D01*
X96869Y16645D01*
X96118Y16068D01*
X95540Y15315D01*
X95178Y14440D01*
X95054Y13500D01*
X95178Y12560D01*
X95540Y11684D01*
X96118Y10932D01*
X96869Y10355D01*
X97745Y9993D01*
X98685Y9869D01*
X99625Y9993D01*
X100501Y10355D01*
X101253Y10932D01*
X101830Y11684D01*
X102192Y12560D01*
X102316Y13500D01*
X102192Y14440D01*
X102150Y14541D01*
X148525Y60916D01*
X151524D01*
X151715Y60454D01*
X117473Y26212D01*
X117102Y25656D01*
X116971Y25000D01*
Y16687D01*
X116869Y16645D01*
X116118Y16068D01*
X115540Y15315D01*
X115178Y14440D01*
X115054Y13500D01*
X115178Y12560D01*
X115540Y11684D01*
X116118Y10932D01*
X116869Y10355D01*
X117745Y9993D01*
X118685Y9869D01*
X119625Y9993D01*
X120501Y10355D01*
X121253Y10932D01*
X121830Y11684D01*
X122192Y12560D01*
X122316Y13500D01*
X122192Y14440D01*
X121830Y15315D01*
X121253Y16068D01*
X120501Y16645D01*
X120399Y16687D01*
Y24290D01*
X154163Y58054D01*
X191949D01*
Y57988D01*
X197083D01*
Y58054D01*
X208287D01*
Y57988D01*
X213421D01*
Y58054D01*
X229453D01*
X230109Y58184D01*
X230665Y58556D01*
X237226Y65117D01*
X237273Y65098D01*
X238185Y64978D01*
X239097Y65098D01*
X239946Y65450D01*
X240676Y66009D01*
X241235Y66739D01*
X241587Y67588D01*
X241707Y68500D01*
X241587Y69412D01*
X241235Y70261D01*
X240676Y70991D01*
X239946Y71550D01*
X239097Y71902D01*
X238185Y72022D01*
X237273Y71902D01*
X236424Y71550D01*
X235694Y70991D01*
X235135Y70261D01*
X234783Y69412D01*
X234663Y68500D01*
X234783Y67588D01*
X234802Y67541D01*
X228743Y61482D01*
X213421D01*
Y61547D01*
X208287D01*
Y61482D01*
X197083D01*
Y61547D01*
X191949D01*
Y61482D01*
X180744D01*
X180553Y61944D01*
X186397Y67788D01*
X186769Y68344D01*
X186899Y69000D01*
Y93790D01*
X188163Y95054D01*
X191949D01*
Y94988D01*
X197083D01*
Y95054D01*
X208287D01*
Y94988D01*
X213421D01*
Y95054D01*
X225953D01*
X226609Y95184D01*
X227165Y95556D01*
X228395Y96786D01*
X234697D01*
X234809Y96225D01*
X235250Y95565D01*
X235910Y95124D01*
X236689Y94969D01*
X239681D01*
X240460Y95124D01*
X241120Y95565D01*
X241561Y96225D01*
X241716Y97004D01*
Y99996D01*
X241561Y100775D01*
X241120Y101435D01*
X240460Y101876D01*
X239681Y102031D01*
D02*
G37*
G36*
X303933Y99014D02*
X301669D01*
X301287Y98855D01*
X301128Y98472D01*
Y97045D01*
X300242D01*
Y98472D01*
X300083Y98855D01*
X299701Y99014D01*
X297437D01*
X297054Y98855D01*
X296896Y98472D01*
Y94181D01*
X296937Y94082D01*
Y93642D01*
X297433D01*
X297437Y93640D01*
X299217D01*
X299374Y93609D01*
X317799D01*
Y90238D01*
X317987Y89294D01*
X318521Y88494D01*
X319322Y87959D01*
X320266Y87771D01*
X320845D01*
Y73998D01*
X320330Y73603D01*
X319745Y72840D01*
X319377Y71953D01*
X319252Y71000D01*
X319377Y70047D01*
X319745Y69160D01*
X320330Y68397D01*
X321093Y67812D01*
X321980Y67444D01*
X322933Y67319D01*
X323886Y67444D01*
X324774Y67812D01*
X325536Y68397D01*
X326121Y69160D01*
X326489Y70047D01*
X326614Y71000D01*
X326489Y71953D01*
X326121Y72840D01*
X325536Y73603D01*
X324774Y74188D01*
X324273Y74395D01*
Y87805D01*
X325048Y87959D01*
X325849Y88494D01*
X326383Y89294D01*
X326571Y90238D01*
Y94077D01*
X326383Y95021D01*
X325849Y95821D01*
X325048Y96356D01*
X324104Y96544D01*
X320266D01*
X320230Y96536D01*
X319676Y96906D01*
X319020Y97037D01*
X304474D01*
Y98472D01*
X304316Y98855D01*
X303933Y99014D01*
D02*
G37*
G36*
X121843Y140941D02*
X115527D01*
Y135610D01*
X116971D01*
Y95210D01*
X108868Y87107D01*
X108685Y87131D01*
X107745Y87007D01*
X106869Y86645D01*
X106117Y86068D01*
X105540Y85316D01*
X105178Y84440D01*
X105054Y83500D01*
X105178Y82560D01*
X105540Y81684D01*
X106117Y80932D01*
X106869Y80355D01*
X107745Y79993D01*
X108685Y79869D01*
X109625Y79993D01*
X110501Y80355D01*
X111253Y80932D01*
X111830Y81684D01*
X112192Y82560D01*
X112316Y83500D01*
X112192Y84440D01*
X111857Y85248D01*
X119897Y93288D01*
X120269Y93844D01*
X120399Y94500D01*
Y135610D01*
X121843D01*
Y140941D01*
D02*
G37*
G36*
X152626Y154157D02*
X147295D01*
Y147843D01*
X148247D01*
Y115486D01*
X119726Y86965D01*
X119625Y87007D01*
X118685Y87131D01*
X117745Y87007D01*
X116869Y86645D01*
X116118Y86068D01*
X115540Y85316D01*
X115178Y84440D01*
X115054Y83500D01*
X115178Y82560D01*
X115540Y81684D01*
X116118Y80932D01*
X116869Y80355D01*
X117745Y79993D01*
X118685Y79869D01*
X119625Y79993D01*
X120501Y80355D01*
X121253Y80932D01*
X121830Y81684D01*
X122192Y82560D01*
X122316Y83500D01*
X122192Y84440D01*
X122150Y84541D01*
X151173Y113564D01*
X151544Y114120D01*
X151675Y114776D01*
Y147843D01*
X152626D01*
Y154157D01*
D02*
G37*
G36*
X218232Y93236D02*
X214673D01*
Y88102D01*
X214739D01*
Y76898D01*
X214673D01*
Y71764D01*
X218232D01*
Y74474D01*
X230545Y86786D01*
X235115D01*
X235135Y86739D01*
X235694Y86009D01*
X236424Y85450D01*
X237273Y85098D01*
X238185Y84978D01*
X239097Y85098D01*
X239946Y85450D01*
X240676Y86009D01*
X241235Y86739D01*
X241587Y87588D01*
X241707Y88500D01*
X241587Y89412D01*
X241235Y90261D01*
X240676Y90991D01*
X239946Y91550D01*
X239097Y91902D01*
X238185Y92022D01*
X237273Y91902D01*
X236424Y91550D01*
X235694Y90991D01*
X235135Y90261D01*
X235115Y90214D01*
X229835D01*
X229179Y90084D01*
X228623Y89712D01*
X218629Y79718D01*
X218167Y79909D01*
Y88102D01*
X218232D01*
Y93236D01*
D02*
G37*
G36*
X283350Y92158D02*
X278020D01*
Y85843D01*
X283350D01*
Y86597D01*
X283896D01*
X284567Y85926D01*
Y84004D01*
X288323D01*
Y88941D01*
X286400D01*
X285818Y89523D01*
X285262Y89895D01*
X284606Y90025D01*
X283350D01*
Y92158D01*
D02*
G37*
G36*
X98685Y87131D02*
X97745Y87007D01*
X96869Y86645D01*
X96118Y86068D01*
X95540Y85316D01*
X95178Y84440D01*
X95054Y83500D01*
X95178Y82560D01*
X95540Y81684D01*
X96118Y80932D01*
X96869Y80355D01*
X97745Y79993D01*
X98685Y79869D01*
X99625Y79993D01*
X100501Y80355D01*
X101253Y80932D01*
X101830Y81684D01*
X102192Y82560D01*
X102316Y83500D01*
X102192Y84440D01*
X101830Y85316D01*
X101253Y86068D01*
X100501Y86645D01*
X99625Y87007D01*
X98685Y87131D01*
D02*
G37*
G36*
X70181Y99031D02*
X67189D01*
X66410Y98876D01*
X65750Y98435D01*
X65309Y97775D01*
X65154Y96996D01*
Y94004D01*
X65309Y93225D01*
X65750Y92565D01*
X66410Y92124D01*
X67189Y91969D01*
X70181D01*
X70960Y92124D01*
X71620Y92565D01*
X72061Y93225D01*
X72173Y93786D01*
X75975D01*
X85220Y84541D01*
X85178Y84440D01*
X85054Y83500D01*
X85178Y82560D01*
X85540Y81684D01*
X86118Y80932D01*
X86870Y80355D01*
X87745Y79993D01*
X88685Y79869D01*
X89625Y79993D01*
X90501Y80355D01*
X91253Y80932D01*
X91830Y81684D01*
X92192Y82560D01*
X92316Y83500D01*
X92192Y84440D01*
X91830Y85316D01*
X91253Y86068D01*
X90501Y86645D01*
X89625Y87007D01*
X88685Y87131D01*
X87745Y87007D01*
X87644Y86965D01*
X77897Y96712D01*
X77341Y97084D01*
X76685Y97214D01*
X72173D01*
X72061Y97775D01*
X71620Y98435D01*
X70960Y98876D01*
X70181Y99031D01*
D02*
G37*
G36*
X58685Y99022D02*
X57773Y98902D01*
X56924Y98550D01*
X56194Y97991D01*
X55635Y97261D01*
X55283Y96412D01*
X55163Y95500D01*
X55283Y94588D01*
X55635Y93739D01*
X56194Y93009D01*
X56924Y92450D01*
X57773Y92098D01*
X58685Y91978D01*
X58806Y91994D01*
X65524Y85276D01*
X65178Y84440D01*
X65054Y83500D01*
X65178Y82560D01*
X65540Y81684D01*
X66118Y80932D01*
X66869Y80355D01*
X67745Y79993D01*
X68685Y79869D01*
X69625Y79993D01*
X70501Y80355D01*
X71253Y80932D01*
X71830Y81684D01*
X72192Y82560D01*
X72316Y83500D01*
X72192Y84440D01*
X71830Y85316D01*
X71253Y86068D01*
X70501Y86645D01*
X69625Y87007D01*
X68685Y87131D01*
X68536Y87112D01*
X61786Y93861D01*
X62087Y94588D01*
X62207Y95500D01*
X62087Y96412D01*
X61735Y97261D01*
X61176Y97991D01*
X60446Y98550D01*
X59597Y98902D01*
X58685Y99022D01*
D02*
G37*
G36*
X13563Y149342D02*
X12148Y149156D01*
X10829Y148609D01*
X9697Y147740D01*
X8828Y146608D01*
X8281Y145289D01*
X8095Y143874D01*
X8281Y142459D01*
X8828Y141140D01*
X9697Y140007D01*
X10829Y139139D01*
X11046Y139049D01*
Y122890D01*
X11238Y121927D01*
X11783Y121110D01*
X17410Y115484D01*
Y110957D01*
X21937D01*
X30361Y102532D01*
X31178Y101987D01*
X32141Y101795D01*
X38831D01*
X45168Y95457D01*
X45283Y94588D01*
X45635Y93739D01*
X46168Y93044D01*
Y86106D01*
X46117Y86068D01*
X45540Y85316D01*
X45178Y84440D01*
X45054Y83500D01*
X45178Y82560D01*
X45540Y81684D01*
X46117Y80932D01*
X46870Y80355D01*
X47745Y79993D01*
X48685Y79869D01*
X49625Y79993D01*
X50501Y80355D01*
X51253Y80932D01*
X51830Y81684D01*
X52192Y82560D01*
X52316Y83500D01*
X52192Y84440D01*
X51830Y85316D01*
X51253Y86068D01*
X51202Y86106D01*
Y93044D01*
X51735Y93739D01*
X52087Y94588D01*
X52202Y95457D01*
X58824Y102080D01*
X96782D01*
X97745Y102271D01*
X98561Y102817D01*
X109465Y113720D01*
X110010Y114537D01*
X110202Y115500D01*
X110202Y115500D01*
Y125705D01*
X110360Y125826D01*
X110961Y126609D01*
X111338Y127521D01*
X111467Y128500D01*
X111338Y129479D01*
X110961Y130391D01*
X110360Y131175D01*
X109576Y131776D01*
X108664Y132153D01*
X107685Y132282D01*
X106706Y132153D01*
X105794Y131776D01*
X105010Y131175D01*
X104409Y130391D01*
X104032Y129479D01*
X103903Y128500D01*
X104032Y127521D01*
X104409Y126609D01*
X105010Y125826D01*
X105168Y125705D01*
Y116542D01*
X95739Y107113D01*
X73511D01*
X73320Y107575D01*
X77965Y112220D01*
X78510Y113037D01*
X78702Y114000D01*
Y122461D01*
X78850D01*
Y127791D01*
X73520D01*
Y122461D01*
X73668D01*
Y115042D01*
X65739Y107113D01*
X57782D01*
X56818Y106922D01*
X56002Y106376D01*
X48685Y99059D01*
X41653Y106091D01*
X40836Y106637D01*
X39873Y106829D01*
X33184D01*
X25496Y114516D01*
Y119043D01*
X20969D01*
X16080Y123932D01*
Y139049D01*
X16297Y139139D01*
X17429Y140007D01*
X18298Y141140D01*
X18845Y142459D01*
X19031Y143874D01*
X18845Y145289D01*
X18298Y146608D01*
X17429Y147740D01*
X16297Y148609D01*
X14978Y149156D01*
X13563Y149342D01*
D02*
G37*
G36*
X238185Y82022D02*
X237273Y81902D01*
X236424Y81550D01*
X235694Y80991D01*
X235135Y80261D01*
X234783Y79412D01*
X234663Y78500D01*
X234783Y77588D01*
X235135Y76739D01*
X235694Y76009D01*
X236424Y75450D01*
X237273Y75098D01*
X238185Y74978D01*
X239097Y75098D01*
X239946Y75450D01*
X240676Y76009D01*
X241235Y76739D01*
X241587Y77588D01*
X241707Y78500D01*
X241587Y79412D01*
X241235Y80261D01*
X240676Y80991D01*
X239946Y81550D01*
X239097Y81902D01*
X238185Y82022D01*
D02*
G37*
G36*
X332933Y74681D02*
X331980Y74556D01*
X331093Y74188D01*
X330330Y73603D01*
X329745Y72840D01*
X329377Y71953D01*
X329252Y71000D01*
X329377Y70047D01*
X329745Y69160D01*
X330330Y68397D01*
X331093Y67812D01*
X331980Y67444D01*
X332933Y67319D01*
X333886Y67444D01*
X334774Y67812D01*
X335536Y68397D01*
X336121Y69160D01*
X336489Y70047D01*
X336614Y71000D01*
X336489Y71953D01*
X336121Y72840D01*
X335536Y73603D01*
X334774Y74188D01*
X333886Y74556D01*
X332933Y74681D01*
D02*
G37*
G36*
X187343Y54890D02*
X181027D01*
Y54045D01*
X179575D01*
Y54792D01*
X174244D01*
Y48477D01*
X179575D01*
Y49814D01*
X181027D01*
Y49559D01*
X187343D01*
Y49814D01*
X188295D01*
Y48477D01*
X188845D01*
Y44845D01*
X189006Y44035D01*
X189465Y43349D01*
X191310Y41504D01*
X191996Y41046D01*
X192806Y40885D01*
X203470D01*
X206227Y38127D01*
X206036Y37665D01*
X200528D01*
Y37115D01*
X184843D01*
X184033Y36954D01*
X183347Y36496D01*
X170237Y23386D01*
X166923D01*
X165979Y23198D01*
X165179Y22663D01*
X164644Y21863D01*
X164456Y20919D01*
Y17081D01*
X164644Y16137D01*
X165179Y15337D01*
X165979Y14802D01*
X166923Y14614D01*
X170762D01*
X171706Y14802D01*
X172506Y15337D01*
X173041Y16137D01*
X173229Y17081D01*
Y20394D01*
X185719Y32885D01*
X200528D01*
Y32335D01*
X206842D01*
X206842Y32335D01*
Y32335D01*
X207185Y32009D01*
X207189Y32004D01*
X207875Y31546D01*
X208685Y31385D01*
X218685D01*
X219495Y31546D01*
X220181Y32004D01*
X220639Y32690D01*
X220800Y33500D01*
X220639Y34310D01*
X220181Y34996D01*
X219495Y35454D01*
X218685Y35615D01*
X209676D01*
X209449Y35906D01*
X209662Y36385D01*
X218685D01*
X219495Y36546D01*
X220181Y37004D01*
X220639Y37690D01*
X220800Y38500D01*
X220639Y39310D01*
X220181Y39996D01*
X219495Y40454D01*
X218685Y40615D01*
X209723D01*
X205842Y44496D01*
X205156Y44954D01*
X204346Y45115D01*
X193682D01*
X193076Y45721D01*
Y48477D01*
X193626D01*
Y54792D01*
X188295D01*
Y54045D01*
X187343D01*
Y54890D01*
D02*
G37*
G36*
X322185Y57718D02*
X321052Y57569D01*
X319997Y57132D01*
X319091Y56437D01*
X318648Y55859D01*
X313527D01*
X312564Y55668D01*
X311748Y55122D01*
X300867Y44241D01*
X263420D01*
X262539Y45121D01*
Y47307D01*
X255634D01*
Y46560D01*
X243630D01*
X242820Y46399D01*
X242134Y45941D01*
X241809Y45615D01*
X230685D01*
X229875Y45454D01*
X229189Y44996D01*
X228731Y44310D01*
X228570Y43500D01*
X228731Y42690D01*
X229189Y42004D01*
X229875Y41546D01*
X230685Y41385D01*
X242685D01*
X243495Y41546D01*
X244181Y42004D01*
X244506Y42329D01*
X255634D01*
Y41583D01*
X258960D01*
X260597Y39945D01*
X261414Y39399D01*
X262377Y39208D01*
X301909D01*
X302153Y39256D01*
X302343D01*
Y39294D01*
X302873Y39399D01*
X303689Y39945D01*
X314570Y50826D01*
X318648D01*
X319091Y50248D01*
X319997Y49553D01*
X321052Y49116D01*
X322185Y48967D01*
X323318Y49116D01*
X324373Y49553D01*
X325279Y50248D01*
X325975Y51155D01*
X326412Y52210D01*
X326561Y53342D01*
X326412Y54475D01*
X325975Y55531D01*
X325279Y56437D01*
X324373Y57132D01*
X323318Y57569D01*
X322185Y57718D01*
D02*
G37*
G36*
X170126Y54792D02*
X164795D01*
Y54151D01*
X160319D01*
X159356Y53960D01*
X158540Y53414D01*
X153405Y48280D01*
X152860Y47463D01*
X152668Y46500D01*
Y15043D01*
X145142Y7517D01*
X53728D01*
X51383Y9862D01*
Y11102D01*
X51830Y11684D01*
X52192Y12560D01*
X52316Y13500D01*
X52192Y14440D01*
X51830Y15315D01*
X51253Y16068D01*
X50501Y16645D01*
X49625Y17007D01*
X48685Y17131D01*
X47745Y17007D01*
X46870Y16645D01*
X46117Y16068D01*
X45540Y15315D01*
X45178Y14440D01*
X45054Y13500D01*
X45178Y12560D01*
X45540Y11684D01*
X46117Y10932D01*
X46349Y10755D01*
Y8819D01*
X46541Y7856D01*
X47086Y7040D01*
X50905Y3220D01*
X51722Y2675D01*
X52685Y2483D01*
X186221D01*
X187184Y2675D01*
X188001Y3220D01*
X190307Y5527D01*
X190853Y6343D01*
X191044Y7306D01*
Y15463D01*
X191622Y15906D01*
X192065Y16483D01*
X237685D01*
X238648Y16675D01*
X239465Y17220D01*
X243728Y21483D01*
X255634D01*
Y21138D01*
X262539D01*
Y21483D01*
X280831D01*
Y17004D01*
X287736D01*
Y22286D01*
X289362D01*
X289405Y22220D01*
X290222Y21675D01*
X291185Y21483D01*
X292148Y21675D01*
X292965Y22220D01*
X293510Y23037D01*
X293702Y24000D01*
X293510Y24963D01*
X292965Y25780D01*
X292148Y26325D01*
X291185Y26517D01*
X290222Y26325D01*
X289405Y25780D01*
X289362Y25714D01*
X287736D01*
Y30996D01*
X280831D01*
Y26517D01*
X262539D01*
Y26862D01*
X255634D01*
Y26517D01*
X242685D01*
X241722Y26325D01*
X240905Y25780D01*
X236643Y21517D01*
X192065D01*
X191622Y22094D01*
X190716Y22790D01*
X189660Y23227D01*
X188528Y23376D01*
X187395Y23227D01*
X186339Y22790D01*
X185433Y22094D01*
X184738Y21188D01*
X184301Y20133D01*
X184151Y19000D01*
X184301Y17867D01*
X184738Y16812D01*
X185433Y15906D01*
X186011Y15463D01*
Y8349D01*
X185179Y7517D01*
X152915D01*
X152723Y7979D01*
X156965Y12220D01*
X157510Y13037D01*
X157702Y14000D01*
Y45458D01*
X161362Y49118D01*
X164795D01*
Y48477D01*
X170126D01*
Y54792D01*
D02*
G37*
G36*
X203075D02*
X197744D01*
Y48477D01*
X203075D01*
Y49519D01*
X208273D01*
X208587Y49309D01*
X208958Y49236D01*
X212317Y45877D01*
X212125Y45415D01*
X211496D01*
X210763Y45269D01*
X210142Y44854D01*
X209727Y44233D01*
X209581Y43500D01*
X209727Y42767D01*
X210142Y42146D01*
X210763Y41731D01*
X211496Y41585D01*
X218583D01*
X219315Y41731D01*
X219937Y42146D01*
X220352Y42767D01*
X220497Y43500D01*
X220352Y44233D01*
X219937Y44854D01*
X219315Y45269D01*
X218583Y45415D01*
X217155D01*
Y46146D01*
X216994Y46955D01*
X216535Y47642D01*
X211949Y52227D01*
X211876Y52598D01*
X211330Y53414D01*
X210514Y53960D01*
X209550Y54151D01*
X208587Y53960D01*
X208273Y53750D01*
X203075D01*
Y54792D01*
D02*
G37*
G36*
X237874Y40415D02*
X230787D01*
X230055Y40269D01*
X229433Y39854D01*
X229018Y39233D01*
X228873Y38500D01*
X229018Y37767D01*
X229433Y37146D01*
X230055Y36731D01*
X230787Y36585D01*
X237874D01*
X238607Y36731D01*
X239228Y37146D01*
X239643Y37767D01*
X239789Y38500D01*
X239643Y39233D01*
X239228Y39854D01*
X238607Y40269D01*
X237874Y40415D01*
D02*
G37*
G36*
Y35415D02*
X230787D01*
X230055Y35269D01*
X229433Y34854D01*
X229018Y34233D01*
X228873Y33500D01*
X229018Y32767D01*
X229433Y32146D01*
X230055Y31731D01*
X230787Y31585D01*
X237874D01*
X238607Y31731D01*
X239228Y32146D01*
X239643Y32767D01*
X239789Y33500D01*
X239643Y34233D01*
X239228Y34854D01*
X238607Y35269D01*
X237874Y35415D01*
D02*
G37*
G36*
Y30415D02*
X230787D01*
X230055Y30269D01*
X229433Y29854D01*
X229018Y29233D01*
X228873Y28500D01*
X229018Y27767D01*
X229433Y27146D01*
X230055Y26731D01*
X230787Y26585D01*
X237874D01*
X238607Y26731D01*
X239228Y27146D01*
X239643Y27767D01*
X239789Y28500D01*
X239643Y29233D01*
X239228Y29854D01*
X238607Y30269D01*
X237874Y30415D01*
D02*
G37*
G36*
X128685Y17131D02*
X127745Y17007D01*
X126869Y16645D01*
X126118Y16068D01*
X125540Y15315D01*
X125178Y14440D01*
X125054Y13500D01*
X125178Y12560D01*
X125540Y11684D01*
X126118Y10932D01*
X126869Y10355D01*
X127745Y9993D01*
X128685Y9869D01*
X129625Y9993D01*
X130501Y10355D01*
X131253Y10932D01*
X131830Y11684D01*
X132192Y12560D01*
X132316Y13500D01*
X132192Y14440D01*
X131830Y15315D01*
X131253Y16068D01*
X130501Y16645D01*
X129625Y17007D01*
X128685Y17131D01*
D02*
G37*
G36*
X108685D02*
X107745Y17007D01*
X106869Y16645D01*
X106117Y16068D01*
X105540Y15315D01*
X105178Y14440D01*
X105054Y13500D01*
X105178Y12560D01*
X105540Y11684D01*
X106117Y10932D01*
X106869Y10355D01*
X107745Y9993D01*
X108685Y9869D01*
X109625Y9993D01*
X110501Y10355D01*
X111253Y10932D01*
X111830Y11684D01*
X112192Y12560D01*
X112316Y13500D01*
X112192Y14440D01*
X111830Y15315D01*
X111253Y16068D01*
X110501Y16645D01*
X109625Y17007D01*
X108685Y17131D01*
D02*
G37*
G36*
X88685D02*
X87745Y17007D01*
X86870Y16645D01*
X86118Y16068D01*
X85540Y15315D01*
X85178Y14440D01*
X85054Y13500D01*
X85178Y12560D01*
X85540Y11684D01*
X86118Y10932D01*
X86870Y10355D01*
X87745Y9993D01*
X88685Y9869D01*
X89625Y9993D01*
X90501Y10355D01*
X91253Y10932D01*
X91830Y11684D01*
X92192Y12560D01*
X92316Y13500D01*
X92192Y14440D01*
X91830Y15315D01*
X91253Y16068D01*
X90501Y16645D01*
X89625Y17007D01*
X88685Y17131D01*
D02*
G37*
G36*
X78685D02*
X77745Y17007D01*
X76869Y16645D01*
X76117Y16068D01*
X75540Y15315D01*
X75178Y14440D01*
X75054Y13500D01*
X75178Y12560D01*
X75540Y11684D01*
X76117Y10932D01*
X76869Y10355D01*
X77745Y9993D01*
X78685Y9869D01*
X79625Y9993D01*
X80501Y10355D01*
X81253Y10932D01*
X81830Y11684D01*
X82192Y12560D01*
X82316Y13500D01*
X82192Y14440D01*
X81830Y15315D01*
X81253Y16068D01*
X80501Y16645D01*
X79625Y17007D01*
X78685Y17131D01*
D02*
G37*
G36*
X68685D02*
X67745Y17007D01*
X66869Y16645D01*
X66118Y16068D01*
X65540Y15315D01*
X65178Y14440D01*
X65054Y13500D01*
X65178Y12560D01*
X65540Y11684D01*
X66118Y10932D01*
X66869Y10355D01*
X67745Y9993D01*
X68685Y9869D01*
X69625Y9993D01*
X70501Y10355D01*
X71253Y10932D01*
X71830Y11684D01*
X72192Y12560D01*
X72316Y13500D01*
X72192Y14440D01*
X71830Y15315D01*
X71253Y16068D01*
X70501Y16645D01*
X69625Y17007D01*
X68685Y17131D01*
D02*
G37*
G36*
X58685D02*
X57745Y17007D01*
X56870Y16645D01*
X56117Y16068D01*
X55540Y15315D01*
X55178Y14440D01*
X55054Y13500D01*
X55178Y12560D01*
X55540Y11684D01*
X56117Y10932D01*
X56870Y10355D01*
X57745Y9993D01*
X58685Y9869D01*
X59625Y9993D01*
X60501Y10355D01*
X61253Y10932D01*
X61830Y11684D01*
X62192Y12560D01*
X62316Y13500D01*
X62192Y14440D01*
X61830Y15315D01*
X61253Y16068D01*
X60501Y16645D01*
X59625Y17007D01*
X58685Y17131D01*
D02*
G37*
G36*
X338583Y16279D02*
X337327Y16155D01*
X336120Y15789D01*
X335007Y15194D01*
X334031Y14394D01*
X333231Y13419D01*
X332636Y12306D01*
X332270Y11098D01*
X332146Y9843D01*
X332270Y8587D01*
X332636Y7379D01*
X333231Y6267D01*
X334031Y5291D01*
X335007Y4491D01*
X336120Y3896D01*
X337327Y3530D01*
X338583Y3406D01*
X339838Y3530D01*
X341046Y3896D01*
X342159Y4491D01*
X343134Y5291D01*
X343934Y6267D01*
X344529Y7379D01*
X344896Y8587D01*
X345019Y9843D01*
X344896Y11098D01*
X344529Y12306D01*
X343934Y13419D01*
X343134Y14394D01*
X342159Y15194D01*
X341046Y15789D01*
X339838Y16155D01*
X338583Y16279D01*
D02*
G37*
G36*
X9843D02*
X8587Y16155D01*
X7379Y15789D01*
X6267Y15194D01*
X5291Y14394D01*
X4491Y13419D01*
X3896Y12306D01*
X3530Y11098D01*
X3406Y9843D01*
X3530Y8587D01*
X3896Y7379D01*
X4491Y6267D01*
X5291Y5291D01*
X6267Y4491D01*
X7379Y3896D01*
X8587Y3530D01*
X9843Y3406D01*
X11098Y3530D01*
X12306Y3896D01*
X13419Y4491D01*
X14394Y5291D01*
X15194Y6267D01*
X15789Y7379D01*
X16155Y8587D01*
X16279Y9843D01*
X16155Y11098D01*
X15789Y12306D01*
X15194Y13419D01*
X14394Y14394D01*
X13419Y15194D01*
X12306Y15789D01*
X11098Y16155D01*
X9843Y16279D01*
D02*
G37*
%LPD*%
G36*
X186283Y192705D02*
X184020D01*
Y194674D01*
X182051D01*
Y192705D01*
X179787D01*
Y196997D01*
X186283D01*
Y192705D01*
D02*
G37*
G36*
Y179320D02*
X179787D01*
Y183650D01*
X182051D01*
Y181682D01*
X184020D01*
Y183650D01*
X186283D01*
Y179320D01*
D02*
G37*
G36*
X163185Y243000D02*
Y178500D01*
X160185Y175500D01*
X132685D01*
X129685Y178500D01*
Y243500D01*
X132685Y246500D01*
X159685D01*
X163185Y243000D01*
D02*
G37*
G36*
X303933Y107528D02*
X301669D01*
Y109496D01*
X299701D01*
Y107528D01*
X297437D01*
Y111858D01*
X303933D01*
Y107528D01*
D02*
G37*
G36*
X158635Y86739D02*
X159194Y86009D01*
X159924Y85450D01*
X160074Y85387D01*
X159975Y84887D01*
X145650D01*
X145458Y85349D01*
X146895Y86786D01*
X158615D01*
X158635Y86739D01*
D02*
G37*
G36*
X303933Y94181D02*
X297437D01*
Y98472D01*
X299701D01*
Y96504D01*
X301669D01*
Y98472D01*
X303933D01*
Y94181D01*
D02*
G37*
D20*
X300685Y95323D02*
D03*
Y110677D02*
D03*
X183035Y195855D02*
D03*
Y180501D02*
D03*
D23*
X174185Y150239D02*
D03*
Y163231D02*
D03*
D26*
X259087Y33055D02*
D03*
Y24000D02*
D03*
Y14945D02*
D03*
Y44445D02*
D03*
Y53500D02*
D03*
Y62555D02*
D03*
D27*
X284283Y24000D02*
D03*
Y53500D02*
D03*
D30*
X171685Y180500D02*
D03*
Y198453D02*
D03*
D31*
X210854Y59768D02*
D03*
X194516D02*
D03*
X210854Y68232D02*
D03*
X194516D02*
D03*
X210854Y96768D02*
D03*
X194516D02*
D03*
X210854Y105232D02*
D03*
X194516D02*
D03*
D32*
X180453Y74331D02*
D03*
Y90669D02*
D03*
X188917Y74331D02*
D03*
Y90669D02*
D03*
X216453Y74331D02*
D03*
Y90669D02*
D03*
X224917Y74331D02*
D03*
Y90669D02*
D03*
D33*
X191335Y171241D02*
D03*
Y167501D02*
D03*
Y163760D02*
D03*
X200735D02*
D03*
Y171241D02*
D03*
D35*
X234331Y28500D02*
D03*
Y33500D02*
D03*
Y38500D02*
D03*
Y43500D02*
D03*
X215039Y28500D02*
D03*
Y33500D02*
D03*
Y38500D02*
D03*
Y43500D02*
D03*
D69*
X271236Y89000D02*
D03*
X280685D02*
D03*
X275409Y108000D02*
D03*
X265961D02*
D03*
X200760Y180501D02*
D03*
X191311D02*
D03*
X200760Y196001D02*
D03*
X191311D02*
D03*
X159409Y151000D02*
D03*
X149961D02*
D03*
X283961Y136500D02*
D03*
X293409D02*
D03*
X167461Y51635D02*
D03*
X176909D02*
D03*
X190961D02*
D03*
X200409D02*
D03*
D70*
X286445Y86472D02*
D03*
X293925D02*
D03*
X290185Y95528D02*
D03*
D71*
X203685Y25551D02*
D03*
Y35000D02*
D03*
X86185Y124776D02*
D03*
Y134224D02*
D03*
X118685Y147724D02*
D03*
Y138276D02*
D03*
X76185Y140776D02*
D03*
Y150224D02*
D03*
X253685Y172276D02*
D03*
Y181724D02*
D03*
X219388Y189724D02*
D03*
Y180276D02*
D03*
X221685Y133276D02*
D03*
Y142724D02*
D03*
X184185Y52224D02*
D03*
Y42776D02*
D03*
D72*
X283909Y71000D02*
D03*
X274461D02*
D03*
D73*
X76185Y125126D02*
D03*
Y133000D02*
D03*
X219388Y171438D02*
D03*
Y163564D02*
D03*
D74*
X76657Y162500D02*
D03*
X85713Y166240D02*
D03*
Y158760D02*
D03*
X243213Y184760D02*
D03*
Y192240D02*
D03*
X234157Y188500D02*
D03*
D75*
X147531Y189476D02*
D03*
D76*
X165835Y159858D02*
D03*
Y150409D02*
D03*
X200904Y147750D02*
D03*
Y157199D02*
D03*
X183035Y161776D02*
D03*
Y171225D02*
D03*
X248830Y33449D02*
D03*
Y24000D02*
D03*
X299185Y32276D02*
D03*
Y41724D02*
D03*
D77*
X59387Y93836D02*
Y94702D01*
X60185Y95500D01*
X68685Y83500D02*
Y84539D01*
X59387Y93836D02*
X68685Y84539D01*
X60807Y143874D02*
X67158Y150224D01*
X76185D01*
X253486Y107242D02*
X271236Y89492D01*
X253185Y108500D02*
X253486Y108199D01*
X271236Y89000D02*
Y89492D01*
X253486Y107242D02*
Y108199D01*
X180884Y82801D02*
X181071Y82988D01*
X180453Y74331D02*
Y79221D01*
X180884Y79652D01*
Y82801D01*
X181071Y82988D02*
Y88400D01*
X179770Y82801D02*
X180884D01*
X144906Y83173D02*
X179398D01*
X179770Y82801D01*
X180551Y88919D02*
X181071Y88400D01*
X180551Y88919D02*
Y90571D01*
X180453Y90669D02*
X180551Y90571D01*
X194516Y96768D02*
X210854D01*
X178815Y62630D02*
X185185Y69000D01*
Y94500D01*
X187453Y96768D02*
X194516D01*
X185185Y94500D02*
X187453Y96768D01*
X280882Y88311D02*
X284606D01*
X280685Y88508D02*
Y89000D01*
X284606Y88311D02*
X286445Y86472D01*
X280685Y88508D02*
X280882Y88311D01*
X300685Y95323D02*
X319020D01*
X299374D02*
X300685D01*
X321173Y111843D02*
X322185D01*
X292862Y110677D02*
X320008D01*
X321173Y111843D01*
X290185Y108000D02*
X292862Y110677D01*
X290185Y95528D02*
Y108000D01*
X319020Y95323D02*
X322185Y92158D01*
X322559Y91783D01*
Y71374D02*
X322933Y71000D01*
X322559Y71374D02*
Y91783D01*
X266073Y102112D02*
Y107888D01*
X265961Y108000D02*
X266073Y107888D01*
Y102112D02*
X266185Y102000D01*
X275823Y108000D02*
Y116362D01*
Y107638D02*
Y108000D01*
X281185D01*
X275409D02*
X275823D01*
X275685Y139500D02*
Y146500D01*
X278685Y136500D02*
X283961D01*
X275685Y139500D02*
X278685Y136500D01*
X293409D02*
Y144276D01*
X293185Y144500D02*
X293409Y144276D01*
X314823Y142138D02*
X317185Y144500D01*
X275823Y107638D02*
X275961Y107500D01*
X275685Y116500D02*
X275823Y116362D01*
X200904Y157199D02*
X207046D01*
X284283Y24000D02*
X291185D01*
X128685Y83500D02*
X178461Y133276D01*
X221685D01*
X118960Y171225D02*
X183035D01*
X98685Y13500D02*
X147815Y62630D01*
X178815D01*
X153453Y59768D02*
X194516D01*
X118685Y25000D02*
X153453Y59768D01*
X194516D02*
X210854D01*
X118685Y13500D02*
Y25000D01*
X135371Y73638D02*
X144906Y83173D01*
X68547Y73638D02*
X135371D01*
X58685Y83500D02*
X68547Y73638D01*
X85685Y76500D02*
X134185D01*
X146185Y88500D02*
X161685D01*
X134185Y76500D02*
X146185Y88500D01*
X78685Y83500D02*
X85685Y76500D01*
X112028Y178157D02*
X118960Y171225D01*
X112028Y178157D02*
Y185500D01*
X76185Y133000D02*
Y140776D01*
Y150224D02*
Y162303D01*
X76382Y162500D01*
X76657D01*
X86185Y124776D02*
X92841D01*
X96565Y128500D01*
X97685D01*
X85713Y158760D02*
X85752D01*
X85949Y158563D01*
Y134461D02*
Y158563D01*
Y134461D02*
X86185Y134224D01*
X118685Y147724D02*
Y154500D01*
X107685Y158500D02*
X114685D01*
X118685Y154500D01*
X200735Y171500D02*
X200748Y171512D01*
Y180488D01*
X200760Y180501D01*
X191328Y171233D02*
X191335Y171241D01*
X183043Y171233D02*
X191328D01*
X183035Y171225D02*
X183043Y171233D01*
X200760Y180501D02*
Y196001D01*
X183035Y195855D02*
X191165D01*
X191311Y196001D01*
X187685Y180500D02*
X191311D01*
X171685D02*
X187685D01*
X191311D02*
X191311Y180501D01*
X171685Y180500D02*
X171685Y180500D01*
X219388Y189724D02*
Y214573D01*
X230815Y226000D01*
X244297Y172388D02*
X253573D01*
X244185Y172500D02*
X244297Y172388D01*
X253573D02*
X253685Y172276D01*
X250157Y184760D02*
X253193Y181724D01*
X243213Y184760D02*
X250157D01*
X253193Y181724D02*
X253685D01*
X227685Y188500D02*
X234157D01*
X226461Y189724D02*
X227685Y188500D01*
X219388Y189724D02*
X226461D01*
X219388Y171438D02*
Y180276D01*
X234073Y142612D02*
X234185Y142500D01*
X221685Y142724D02*
X221797Y142612D01*
X234073D01*
X216453Y75118D02*
X229835Y88500D01*
X238185D01*
X216453Y75118D02*
Y90669D01*
Y74331D02*
Y75118D01*
X210854Y59768D02*
X229453D01*
X238185Y68500D01*
X210854Y96768D02*
X225953D01*
X227685Y98500D02*
X238185D01*
X225953Y96768D02*
X227685Y98500D01*
X38685Y83500D02*
Y95500D01*
X76685D02*
X88685Y83500D01*
X70185Y95500D02*
X76685D01*
X108685Y83500D02*
Y84500D01*
X118685Y94500D01*
Y138276D01*
X149961Y114776D02*
Y151000D01*
X118685Y83500D02*
X149961Y114776D01*
D78*
X27500Y226000D02*
X37185Y216315D01*
Y136000D02*
Y216315D01*
X112028Y226000D02*
X112028Y226000D01*
Y195500D02*
Y226000D01*
X92343Y195500D02*
Y226000D01*
X66870D02*
X92343D01*
D79*
X21453Y115000D02*
X32141Y104312D01*
X13563Y122890D02*
X21453Y115000D01*
X13563Y122890D02*
Y143874D01*
X60807Y118230D02*
X63185Y115852D01*
X60807Y118230D02*
Y143874D01*
X63185Y115000D02*
Y115852D01*
X302933Y61000D02*
X327379D01*
X293909D02*
X302933D01*
X312933Y71000D01*
X283909D02*
X293909Y61000D01*
X327379D02*
X329685Y58694D01*
Y13806D02*
Y58694D01*
X327379Y11500D02*
X329685Y13806D01*
X262736Y11500D02*
X327379D01*
X293185Y144500D02*
X317185D01*
X174185Y111000D02*
X240185D01*
X161685Y98500D02*
X174185Y111000D01*
X191335Y152545D02*
Y162892D01*
X189029Y150239D02*
X191335Y152545D01*
X166693Y150239D02*
X189029D01*
X155185Y46500D02*
X160319Y51635D01*
X155185Y14000D02*
Y46500D01*
X160319Y51635D02*
X167461D01*
X299185Y41724D02*
X301909D01*
X291685D02*
X299185D01*
X262377D02*
X291685D01*
X283909Y53874D02*
Y71000D01*
X268685Y82500D02*
X281603D01*
X283909Y71000D02*
Y80194D01*
X281603Y82500D02*
X283909Y80194D01*
Y53874D02*
X284283Y53500D01*
X260071Y14165D02*
Y14551D01*
Y14165D02*
X262736Y11500D01*
X248830Y24000D02*
X259087D01*
X242685D02*
X248830D01*
X259087Y53500D02*
X284283D01*
X260071Y44031D02*
Y44051D01*
X259087Y44445D02*
X259677D01*
X260071Y44051D01*
Y44031D02*
X262377Y41724D01*
X159409Y150239D02*
X165835D01*
Y150409D02*
X166524D01*
X166693Y150239D01*
X200904Y157199D02*
Y162500D01*
X146185Y5000D02*
X186221D01*
X52685D02*
X146185D01*
X155185Y14000D01*
X186221Y5000D02*
X188528Y7306D01*
Y19000D01*
X48685Y13500D02*
X48866Y13319D01*
Y8819D02*
Y13319D01*
Y8819D02*
X52685Y5000D01*
X259087Y24000D02*
X284283D01*
X253185Y124000D02*
Y154000D01*
X240185Y111000D02*
X253185Y124000D01*
X240185Y111000D02*
X268685Y82500D01*
X237685Y19000D02*
X242685Y24000D01*
X188528Y19000D02*
X237685D01*
X320803Y32276D02*
X322185Y33658D01*
X299874Y32276D02*
X320803D01*
X298496D02*
X299185D01*
X301909Y41724D02*
X313527Y53342D01*
X249185Y158000D02*
X253185Y154000D01*
X239685Y158000D02*
X249185D01*
X234185Y163500D02*
X239685Y158000D01*
X234185Y163500D02*
Y172500D01*
X225249Y163564D02*
X234185Y172500D01*
X107685Y115500D02*
Y128500D01*
X96782Y104596D02*
X107685Y115500D01*
X66782Y104596D02*
X96782D01*
X57782D02*
X66782D01*
X48685Y95500D02*
X57782Y104596D01*
X32141Y104312D02*
X39873D01*
X48685Y95500D01*
X76185Y114000D02*
Y125126D01*
X66782Y104596D02*
X76185Y114000D01*
X219388Y163564D02*
X225249D01*
X313527Y53342D02*
X322185D01*
X48685Y83500D02*
Y95500D01*
D80*
X293185Y186232D02*
X295342Y188390D01*
Y226000D01*
X315027Y188390D02*
X317185Y186232D01*
X315027Y188390D02*
Y226000D01*
X317824Y186872D02*
X328435Y197482D01*
X317185Y186232D02*
X317824Y186872D01*
X328435Y197482D02*
X334185D01*
X275185D02*
X281935D01*
X293185Y186232D01*
D81*
X192806Y43000D02*
X204346D01*
X190961Y44845D02*
Y51635D01*
X215039Y38500D02*
X218685D01*
X190961Y44845D02*
X192806Y43000D01*
X243630Y44445D02*
X259087D01*
X234331Y43500D02*
X242685D01*
X230685D02*
X234331D01*
X242685D02*
X243630Y44445D01*
X177204Y51929D02*
X183890D01*
X176909Y51635D02*
X177204Y51929D01*
X183890D02*
X184185Y52224D01*
X184480Y51929D02*
X190666D01*
X184185Y52224D02*
X184480Y51929D01*
X190666D02*
X190961Y51635D01*
X208846Y38500D02*
X215039D01*
X204346Y43000D02*
X208846Y38500D01*
X215039Y44500D02*
Y46146D01*
X200409Y51635D02*
X209550D01*
X215039Y46146D01*
Y28500D02*
X218685D01*
X209685D02*
X215039D01*
X203685Y25551D02*
X206736D01*
X209685Y28500D01*
X184843Y35000D02*
X203685D01*
X168842Y19000D02*
X184843Y35000D01*
X215039Y33500D02*
X218685D01*
X208685D02*
X215039D01*
X203685Y35000D02*
X207185D01*
X208685Y33500D01*
D82*
X9843Y242126D02*
D03*
Y9843D02*
D03*
X338583D02*
D03*
Y242126D02*
D03*
D83*
X60807Y191905D02*
D03*
X13563D02*
D03*
X60807Y143874D02*
D03*
X13563D02*
D03*
X37185Y136000D02*
D03*
D84*
X275185Y155750D02*
D03*
X63185Y115000D02*
D03*
X317185Y186232D02*
D03*
X334185Y155750D02*
D03*
X293185Y186232D02*
D03*
D85*
X275185Y197482D02*
D03*
X317185Y144500D02*
D03*
X334185Y197482D02*
D03*
X293185Y144500D02*
D03*
D86*
X295342Y226000D02*
D03*
X322185Y111843D02*
D03*
Y53342D02*
D03*
X27500Y226000D02*
D03*
X47185D02*
D03*
X92343D02*
D03*
X152657D02*
D03*
X172343D02*
D03*
X188528Y19000D02*
D03*
X250500Y226000D02*
D03*
X230815D02*
D03*
D87*
X315027D02*
D03*
X66870D02*
D03*
X112028D02*
D03*
X192027D02*
D03*
X168842Y19000D02*
D03*
X270185Y226000D02*
D03*
D88*
X275685Y116500D02*
D03*
X265685D02*
D03*
Y146500D02*
D03*
X107685Y128500D02*
D03*
X97685D02*
D03*
Y158500D02*
D03*
X234185Y172500D02*
D03*
X244185D02*
D03*
Y142500D02*
D03*
D89*
X275685Y146500D02*
D03*
X107685Y158500D02*
D03*
X234185Y142500D02*
D03*
D90*
X312933Y71000D02*
D03*
D91*
X322933D02*
D03*
X332933D02*
D03*
X112028Y195500D02*
D03*
X92343D02*
D03*
D92*
X322185Y92158D02*
D03*
Y33658D02*
D03*
D93*
X38685Y13500D02*
D03*
Y83500D02*
D03*
D94*
X48685Y13500D02*
D03*
X58685D02*
D03*
X68685D02*
D03*
X78685D02*
D03*
X88685D02*
D03*
X98685D02*
D03*
X108685D02*
D03*
X118685D02*
D03*
X128685D02*
D03*
X48685Y83500D02*
D03*
X58685D02*
D03*
X68685D02*
D03*
X78685D02*
D03*
X88685D02*
D03*
X98685D02*
D03*
X108685D02*
D03*
X118685D02*
D03*
X128685D02*
D03*
D95*
X112028Y185500D02*
D03*
X92343D02*
D03*
D96*
X21453Y115000D02*
D03*
D97*
X238185Y88500D02*
D03*
Y78500D02*
D03*
Y68500D02*
D03*
X38685Y95500D02*
D03*
X48685D02*
D03*
X58685D02*
D03*
X161685Y88500D02*
D03*
Y78500D02*
D03*
Y68500D02*
D03*
D98*
X238185Y98500D02*
D03*
X161685D02*
D03*
D99*
X68685Y95500D02*
D03*
D100*
X253185Y108500D02*
D03*
X180884Y82801D02*
D03*
X266185Y102000D02*
D03*
X291185Y24000D02*
D03*
X160319Y51635D02*
D03*
X209550D02*
D03*
X207046Y157199D02*
D03*
X281185Y108000D02*
D03*
X291685Y41724D02*
D03*
X165685Y171000D02*
D03*
M02*
