G04*
G04 #@! TF.GenerationSoftware,Altium Limited,Altium Designer,24.5.2 (23)*
G04*
G04 Layer_Color=16711935*
%FSLAX25Y25*%
%MOIN*%
G70*
G04*
G04 #@! TF.SameCoordinates,9D3C8BE1-BED6-42F3-AD52-46E21662786B*
G04*
G04*
G04 #@! TF.FilePolarity,Positive*
G04*
G01*
G75*
%ADD11C,0.00787*%
%ADD12C,0.00250*%
%ADD13C,0.00500*%
%ADD14C,0.01000*%
%ADD16C,0.00394*%
%ADD101C,0.00100*%
D11*
X174589Y176176D02*
G03*
X174589Y176176I-394J0D01*
G01*
D12*
X171180Y149846D02*
X177184D01*
Y163625D01*
X171180D02*
X177184D01*
X171180Y149846D02*
Y163625D01*
D13*
X7264Y205291D02*
X67106D01*
X7264Y130488D02*
Y205291D01*
Y130488D02*
X67106D01*
Y205291D01*
X274247Y73460D02*
X284122D01*
Y68539D02*
Y73460D01*
X274247Y68539D02*
X284122D01*
X274247D02*
Y73460D01*
X274258Y68539D02*
X284122D01*
X274247Y68550D02*
X274258Y68539D01*
X274247Y68550D02*
Y73460D01*
X284122D01*
Y68539D02*
Y73460D01*
X141016Y176484D02*
X165032D01*
Y202468D01*
X141016D02*
X165032D01*
X141016Y176484D02*
Y202468D01*
X163373Y150196D02*
X168294D01*
Y160072D01*
X163384D02*
X168294D01*
X163373Y160061D02*
X163384Y160072D01*
X163373Y150196D02*
Y160061D01*
Y160072D02*
X168294D01*
X163373Y150196D02*
Y160072D01*
Y150196D02*
X168294D01*
Y160072D01*
X198444Y157412D02*
X203365D01*
X198444Y147537D02*
Y157412D01*
Y147537D02*
X203354D01*
X203365Y147547D01*
Y157412D01*
X198444Y147537D02*
X203365D01*
Y157412D01*
X198444D02*
X203365D01*
X198444Y147537D02*
Y157412D01*
X180576Y171438D02*
X185497D01*
X180576Y161562D02*
Y171438D01*
Y161562D02*
X185486D01*
X185497Y161573D01*
Y171438D01*
X180576Y161562D02*
X185497D01*
Y171438D01*
X180576D02*
X185497D01*
X180576Y161562D02*
Y171438D01*
X246369Y23787D02*
X251290D01*
Y33663D01*
X246379D02*
X251290D01*
X246369Y33652D02*
X246379Y33663D01*
X246369Y23787D02*
Y33652D01*
Y33663D02*
X251290D01*
X246369Y23787D02*
Y33663D01*
Y23787D02*
X251290D01*
Y33663D01*
X296725Y41937D02*
X301646D01*
X296725Y32062D02*
Y41937D01*
Y32062D02*
X301635D01*
X301646Y32073D01*
Y41937D01*
X296725Y32062D02*
X301646D01*
Y41937D01*
X296725D02*
X301646D01*
X296725Y32062D02*
Y41937D01*
D14*
X348425Y243976D02*
G03*
X340433Y251969I-7992J0D01*
G01*
X7990Y251969D02*
G03*
X0Y243978I0J-7990D01*
G01*
X340433Y8D02*
G03*
X348425Y8000I0J7992D01*
G01*
X0Y7990D02*
G03*
X7990Y0I7990J0D01*
G01*
X7990Y251969D02*
X340433Y251969D01*
X0Y7990D02*
X0Y243978D01*
X7990Y0D02*
X340433Y0D01*
X348425Y8000D02*
X348425Y243976D01*
X72357Y132411D02*
X76885D01*
X72357Y125915D02*
Y132411D01*
Y125915D02*
X76885D01*
Y132411D01*
X220088Y164353D02*
Y170849D01*
X215561Y164353D02*
X220088D01*
X215561D02*
Y170849D01*
X220088D01*
D16*
X296091Y86039D02*
Y95882D01*
X284279Y86039D02*
Y95882D01*
X296091D01*
X284279Y86039D02*
X296091D01*
X86146Y156595D02*
Y168405D01*
X76303Y156595D02*
Y168405D01*
Y156595D02*
X86146D01*
X76303Y168405D02*
X86146D01*
X233803Y194405D02*
X243646D01*
X233803Y182595D02*
X243646D01*
X233803D02*
Y194405D01*
X243646Y182595D02*
Y194405D01*
D101*
X271022Y86528D02*
Y91449D01*
Y86528D02*
X280898D01*
Y91449D01*
X271022D02*
X280898D01*
X280898Y86528D02*
Y91449D01*
X271022D02*
X280898D01*
X271022Y86528D02*
Y91449D01*
Y86528D02*
X280898D01*
X201213Y25339D02*
Y35214D01*
X206134D01*
Y25339D02*
Y35214D01*
X201213Y25339D02*
X206134D01*
Y25339D02*
Y35214D01*
X201213Y25339D02*
X206134D01*
X201213D02*
Y35214D01*
X206134D01*
X83736Y124562D02*
X88657D01*
Y134437D01*
X83736D02*
X88657D01*
X83736Y124562D02*
Y134437D01*
Y134437D02*
X88657D01*
X83736Y124562D02*
Y134437D01*
Y124562D02*
X88657D01*
Y134437D01*
X121157Y138062D02*
Y147937D01*
X116236Y138062D02*
X121157D01*
X116236D02*
Y147937D01*
X121157D01*
X116236Y138062D02*
Y147937D01*
X121157D01*
Y138062D02*
Y147937D01*
X116236Y138062D02*
X121157D01*
X73713Y140563D02*
Y150438D01*
X78634D01*
Y140563D02*
Y150438D01*
X73713Y140563D02*
X78634D01*
Y140563D02*
Y150438D01*
X73713Y140563D02*
X78634D01*
X73713D02*
Y150438D01*
X78634D01*
X251236Y172062D02*
X256157D01*
Y181937D01*
X251236D02*
X256157D01*
X251236Y172062D02*
Y181937D01*
Y181937D02*
X256157D01*
X251236Y172062D02*
Y181937D01*
Y172062D02*
X256157D01*
Y181937D01*
X275623Y105551D02*
Y110472D01*
X265748D02*
X275623D01*
X265748Y105551D02*
Y110472D01*
Y105551D02*
X275623D01*
X265748D02*
Y110472D01*
Y105551D02*
X275623D01*
Y110472D01*
X265748D02*
X275623D01*
X200974Y178051D02*
Y182973D01*
X191098D02*
X200974D01*
X191098Y178051D02*
Y182973D01*
Y178051D02*
X200974D01*
X191098D02*
Y182973D01*
Y178051D02*
X200974D01*
Y182973D01*
X191098D02*
X200974D01*
X200974Y193552D02*
Y198472D01*
X191098D02*
X200974D01*
X191098Y193552D02*
Y198472D01*
Y193552D02*
X200974D01*
X191098D02*
Y198472D01*
Y193552D02*
X200974D01*
Y198472D01*
X191098D02*
X200974D01*
X159623Y148551D02*
Y153472D01*
X149748D02*
X159623D01*
X149748Y148551D02*
Y153472D01*
Y148551D02*
X159623D01*
X149748D02*
Y153472D01*
Y148551D02*
X159623D01*
Y153472D01*
X149748D02*
X159623D01*
X216916Y189938D02*
X221837D01*
X216916Y180063D02*
Y189938D01*
Y180063D02*
X221837D01*
Y189938D01*
X216916Y180063D02*
X221837D01*
Y189938D01*
X216916D02*
X221837D01*
X216916Y180063D02*
Y189938D01*
X283747Y134028D02*
Y138949D01*
Y134028D02*
X293622D01*
Y138949D01*
X283747D02*
X293622D01*
X293622Y134028D02*
Y138949D01*
X283747D02*
X293622D01*
X283747Y134028D02*
Y138949D01*
Y134028D02*
X293622D01*
X219236Y133062D02*
X224157D01*
Y142937D01*
X219236D02*
X224157D01*
X219236Y133062D02*
Y142937D01*
Y142937D02*
X224157D01*
X219236Y133062D02*
Y142937D01*
Y133062D02*
X224157D01*
Y142937D01*
X167247Y49163D02*
Y54084D01*
Y49163D02*
X177122D01*
Y54084D01*
X167247D02*
X177122D01*
X177122Y49163D02*
Y54084D01*
X167247D02*
X177122D01*
X167247Y49163D02*
Y54084D01*
Y49163D02*
X177122D01*
X190747D02*
Y54084D01*
Y49163D02*
X200622D01*
Y54084D01*
X190747D02*
X200622D01*
X200622Y49163D02*
Y54084D01*
X190747D02*
X200622D01*
X190747Y49163D02*
Y54084D01*
Y49163D02*
X200622D01*
X181713Y52438D02*
X186634D01*
X181713Y42563D02*
Y52438D01*
Y42563D02*
X186634D01*
Y52438D01*
X181713Y42563D02*
X186634D01*
Y52438D01*
X181713D02*
X186634D01*
X181713Y42563D02*
Y52438D01*
M02*
