G04*
G04 #@! TF.GenerationSoftware,Altium Limited,Altium Designer,24.5.2 (23)*
G04*
G04 Layer_Color=2752767*
%FSLAX25Y25*%
%MOIN*%
G70*
G04*
G04 #@! TF.SameCoordinates,9D3C8BE1-BED6-42F3-AD52-46E21662786B*
G04*
G04*
G04 #@! TF.FilePolarity,Positive*
G04*
G01*
G75*
%ADD13C,0.00500*%
%ADD105C,0.00667*%
D13*
X8843Y241126D02*
Y240126D01*
X10842D01*
Y241126D01*
X11842D01*
Y243126D01*
X10842D01*
Y244126D01*
X8843D01*
Y243126D01*
X7842D01*
Y241126D01*
X8843D01*
X58807Y189906D02*
Y193905D01*
X62807D01*
Y189906D01*
X58807D01*
X11563D02*
Y193905D01*
X15563D01*
Y189906D01*
X11563D01*
X58807Y141874D02*
Y145874D01*
X62807D01*
Y141874D01*
X58807D01*
X11563D02*
Y145874D01*
X15563D01*
Y141874D01*
X11563D01*
X35185Y134000D02*
Y138000D01*
X39185D01*
Y134000D01*
X35185D01*
X293342Y224000D02*
Y228000D01*
X297342D01*
Y224000D01*
X293342D01*
X313028D02*
Y228000D01*
X317027D01*
Y224000D01*
X313028D01*
X273685Y114500D02*
X274685Y116500D01*
X273685Y118500D01*
X275685Y117500D01*
X277685Y118500D01*
X276685Y116500D01*
X277685Y114500D01*
X275685Y115500D01*
X273685Y114500D01*
X263685D02*
X264685Y116500D01*
X263685Y118500D01*
X265685Y117500D01*
X267685Y118500D01*
X266685Y116500D01*
X267685Y114500D01*
X265685Y115500D01*
X263685Y114500D01*
Y144500D02*
X264685Y146500D01*
X263685Y148500D01*
X265685Y147500D01*
X267685Y148500D01*
X266685Y146500D01*
X267685Y144500D01*
X265685Y145500D01*
X263685Y144500D01*
X273685D02*
X274685Y146500D01*
X273685Y148500D01*
X275685Y147500D01*
X277685Y148500D01*
X276685Y146500D01*
X277685Y144500D01*
X275685Y145500D01*
X273685Y144500D01*
X320185Y90158D02*
Y94157D01*
X324185D01*
Y90158D01*
X320185D01*
Y109843D02*
Y113842D01*
X324185D01*
Y109843D01*
X320185D01*
Y31657D02*
Y35658D01*
X324185D01*
Y31657D01*
X320185D01*
Y51342D02*
Y55343D01*
X324185D01*
Y51342D01*
X320185D01*
X38685Y11500D02*
X39685Y12500D01*
X40685D01*
X39685Y13500D01*
X40685Y14500D01*
X39685D01*
X38685Y15500D01*
X37685Y14500D01*
X36685D01*
X37685Y13500D01*
X36685Y12500D01*
X37685D01*
X38685Y11500D01*
X48685D02*
X49685Y12500D01*
X50685D01*
X49685Y13500D01*
X50685Y14500D01*
X49685D01*
X48685Y15500D01*
X47685Y14500D01*
X46685D01*
X47685Y13500D01*
X46685Y12500D01*
X47685D01*
X48685Y11500D01*
X58685D02*
X59685Y12500D01*
X60685D01*
X59685Y13500D01*
X60685Y14500D01*
X59685D01*
X58685Y15500D01*
X57685Y14500D01*
X56685D01*
X57685Y13500D01*
X56685Y12500D01*
X57685D01*
X58685Y11500D01*
X68685D02*
X69685Y12500D01*
X70685D01*
X69685Y13500D01*
X70685Y14500D01*
X69685D01*
X68685Y15500D01*
X67685Y14500D01*
X66685D01*
X67685Y13500D01*
X66685Y12500D01*
X67685D01*
X68685Y11500D01*
X78685D02*
X79685Y12500D01*
X80685D01*
X79685Y13500D01*
X80685Y14500D01*
X79685D01*
X78685Y15500D01*
X77685Y14500D01*
X76685D01*
X77685Y13500D01*
X76685Y12500D01*
X77685D01*
X78685Y11500D01*
X88685D02*
X89685Y12500D01*
X90685D01*
X89685Y13500D01*
X90685Y14500D01*
X89685D01*
X88685Y15500D01*
X87685Y14500D01*
X86685D01*
X87685Y13500D01*
X86685Y12500D01*
X87685D01*
X88685Y11500D01*
X98685D02*
X99685Y12500D01*
X100685D01*
X99685Y13500D01*
X100685Y14500D01*
X99685D01*
X98685Y15500D01*
X97685Y14500D01*
X96685D01*
X97685Y13500D01*
X96685Y12500D01*
X97685D01*
X98685Y11500D01*
X108685D02*
X109685Y12500D01*
X110685D01*
X109685Y13500D01*
X110685Y14500D01*
X109685D01*
X108685Y15500D01*
X107685Y14500D01*
X106685D01*
X107685Y13500D01*
X106685Y12500D01*
X107685D01*
X108685Y11500D01*
X118685D02*
X119685Y12500D01*
X120685D01*
X119685Y13500D01*
X120685Y14500D01*
X119685D01*
X118685Y15500D01*
X117685Y14500D01*
X116685D01*
X117685Y13500D01*
X116685Y12500D01*
X117685D01*
X118685Y11500D01*
X128685D02*
X129685Y12500D01*
X130685D01*
X129685Y13500D01*
X130685Y14500D01*
X129685D01*
X128685Y15500D01*
X127685Y14500D01*
X126685D01*
X127685Y13500D01*
X126685Y12500D01*
X127685D01*
X128685Y11500D01*
X38685Y81500D02*
X39685Y82500D01*
X40685D01*
X39685Y83500D01*
X40685Y84500D01*
X39685D01*
X38685Y85500D01*
X37685Y84500D01*
X36685D01*
X37685Y83500D01*
X36685Y82500D01*
X37685D01*
X38685Y81500D01*
X48685D02*
X49685Y82500D01*
X50685D01*
X49685Y83500D01*
X50685Y84500D01*
X49685D01*
X48685Y85500D01*
X47685Y84500D01*
X46685D01*
X47685Y83500D01*
X46685Y82500D01*
X47685D01*
X48685Y81500D01*
X58685D02*
X59685Y82500D01*
X60685D01*
X59685Y83500D01*
X60685Y84500D01*
X59685D01*
X58685Y85500D01*
X57685Y84500D01*
X56685D01*
X57685Y83500D01*
X56685Y82500D01*
X57685D01*
X58685Y81500D01*
X68685D02*
X69685Y82500D01*
X70685D01*
X69685Y83500D01*
X70685Y84500D01*
X69685D01*
X68685Y85500D01*
X67685Y84500D01*
X66685D01*
X67685Y83500D01*
X66685Y82500D01*
X67685D01*
X68685Y81500D01*
X78685D02*
X79685Y82500D01*
X80685D01*
X79685Y83500D01*
X80685Y84500D01*
X79685D01*
X78685Y85500D01*
X77685Y84500D01*
X76685D01*
X77685Y83500D01*
X76685Y82500D01*
X77685D01*
X78685Y81500D01*
X88685D02*
X89685Y82500D01*
X90685D01*
X89685Y83500D01*
X90685Y84500D01*
X89685D01*
X88685Y85500D01*
X87685Y84500D01*
X86685D01*
X87685Y83500D01*
X86685Y82500D01*
X87685D01*
X88685Y81500D01*
X98685D02*
X99685Y82500D01*
X100685D01*
X99685Y83500D01*
X100685Y84500D01*
X99685D01*
X98685Y85500D01*
X97685Y84500D01*
X96685D01*
X97685Y83500D01*
X96685Y82500D01*
X97685D01*
X98685Y81500D01*
X108685D02*
X109685Y82500D01*
X110685D01*
X109685Y83500D01*
X110685Y84500D01*
X109685D01*
X108685Y85500D01*
X107685Y84500D01*
X106685D01*
X107685Y83500D01*
X106685Y82500D01*
X107685D01*
X108685Y81500D01*
X118685D02*
X119685Y82500D01*
X120685D01*
X119685Y83500D01*
X120685Y84500D01*
X119685D01*
X118685Y85500D01*
X117685Y84500D01*
X116685D01*
X117685Y83500D01*
X116685Y82500D01*
X117685D01*
X118685Y81500D01*
X128685D02*
X129685Y82500D01*
X130685D01*
X129685Y83500D01*
X130685Y84500D01*
X129685D01*
X128685Y85500D01*
X127685Y84500D01*
X126685D01*
X127685Y83500D01*
X126685Y82500D01*
X127685D01*
X128685Y81500D01*
X8843Y8843D02*
Y7842D01*
X10842D01*
Y8843D01*
X11842D01*
Y10842D01*
X10842D01*
Y11842D01*
X8843D01*
Y10842D01*
X7842D01*
Y8843D01*
X8843D01*
X337583D02*
Y7842D01*
X339583D01*
Y8843D01*
X340583D01*
Y10842D01*
X339583D01*
Y11842D01*
X337583D01*
Y10842D01*
X336583D01*
Y8843D01*
X337583D01*
Y241126D02*
Y240126D01*
X339583D01*
Y241126D01*
X340583D01*
Y243126D01*
X339583D01*
Y244126D01*
X337583D01*
Y243126D01*
X336583D01*
Y241126D01*
X337583D01*
X25500Y224000D02*
Y228000D01*
X29500D01*
Y224000D01*
X25500D01*
X64870D02*
Y228000D01*
X68870D01*
Y224000D01*
X64870D01*
X45185D02*
Y228000D01*
X49185D01*
Y224000D01*
X45185D01*
X90342D02*
Y228000D01*
X94342D01*
Y224000D01*
X90342D01*
X110028D02*
Y228000D01*
X114028D01*
Y224000D01*
X110028D01*
X105685Y126500D02*
X106685Y128500D01*
X105685Y130500D01*
X107685Y129500D01*
X109685Y130500D01*
X108685Y128500D01*
X109685Y126500D01*
X107685Y127500D01*
X105685Y126500D01*
X95685D02*
X96685Y128500D01*
X95685Y130500D01*
X97685Y129500D01*
X99685Y130500D01*
X98685Y128500D01*
X99685Y126500D01*
X97685Y127500D01*
X95685Y126500D01*
Y156500D02*
X96685Y158500D01*
X95685Y160500D01*
X97685Y159500D01*
X99685Y160500D01*
X98685Y158500D01*
X99685Y156500D01*
X97685Y157500D01*
X95685Y156500D01*
X105685D02*
X106685Y158500D01*
X105685Y160500D01*
X107685Y159500D01*
X109685Y160500D01*
X108685Y158500D01*
X109685Y156500D01*
X107685Y157500D01*
X105685Y156500D01*
X150657Y224000D02*
Y228000D01*
X154657D01*
Y224000D01*
X150657D01*
X190027D02*
Y228000D01*
X194027D01*
Y224000D01*
X190027D01*
X170343D02*
Y228000D01*
X174343D01*
Y224000D01*
X170343D01*
X232185Y170500D02*
X233185Y172500D01*
X232185Y174500D01*
X234185Y173500D01*
X236185Y174500D01*
X235185Y172500D01*
X236185Y170500D01*
X234185Y171500D01*
X232185Y170500D01*
X242185D02*
X243185Y172500D01*
X242185Y174500D01*
X244185Y173500D01*
X246185Y174500D01*
X245185Y172500D01*
X246185Y170500D01*
X244185Y171500D01*
X242185Y170500D01*
Y140500D02*
X243185Y142500D01*
X242185Y144500D01*
X244185Y143500D01*
X246185Y144500D01*
X245185Y142500D01*
X246185Y140500D01*
X244185Y141500D01*
X242185Y140500D01*
X232185D02*
X233185Y142500D01*
X232185Y144500D01*
X234185Y143500D01*
X236185Y144500D01*
X235185Y142500D01*
X236185Y140500D01*
X234185Y141500D01*
X232185Y140500D01*
X236185Y88500D02*
X238185Y90500D01*
X240185Y88500D01*
X238185Y86500D01*
X236185Y88500D01*
Y98500D02*
X238185Y100500D01*
X240185Y98500D01*
X238185Y96500D01*
X236185Y98500D01*
Y78500D02*
X238185Y80500D01*
X240185Y78500D01*
X238185Y76500D01*
X236185Y78500D01*
Y68500D02*
X238185Y70500D01*
X240185Y68500D01*
X238185Y66500D01*
X236185Y68500D01*
X36685Y95500D02*
X38685Y97500D01*
X40685Y95500D01*
X38685Y93500D01*
X36685Y95500D01*
X46685D02*
X48685Y97500D01*
X50685Y95500D01*
X48685Y93500D01*
X46685Y95500D01*
X66685D02*
X68685Y97500D01*
X70685Y95500D01*
X68685Y93500D01*
X66685Y95500D01*
X56685D02*
X58685Y97500D01*
X60685Y95500D01*
X58685Y93500D01*
X56685Y95500D01*
X166842Y17000D02*
Y21000D01*
X170843D01*
Y17000D01*
X166842D01*
X186528D02*
Y21000D01*
X190527D01*
Y17000D01*
X186528D01*
X159685Y88500D02*
X161685Y90500D01*
X163685Y88500D01*
X161685Y86500D01*
X159685Y88500D01*
Y98500D02*
X161685Y100500D01*
X163685Y98500D01*
X161685Y96500D01*
X159685Y98500D01*
Y78500D02*
X161685Y80500D01*
X163685Y78500D01*
X161685Y76500D01*
X159685Y78500D01*
Y68500D02*
X161685Y70500D01*
X163685Y68500D01*
X161685Y66500D01*
X159685Y68500D01*
X248500Y224000D02*
Y228000D01*
X252500D01*
Y224000D01*
X248500D01*
X268185D02*
Y228000D01*
X272185D01*
Y224000D01*
X268185D01*
X228815D02*
Y228000D01*
X232815D01*
Y224000D01*
X228815D01*
X251185Y106500D02*
X252185D01*
X253185Y107500D01*
X254185Y106500D01*
X255185D01*
Y107500D01*
X254185Y108500D01*
X255185Y109500D01*
Y110500D01*
X254185D01*
X253185Y109500D01*
X252185Y110500D01*
X251185D01*
Y109500D01*
X252185Y108500D01*
X251185Y107500D01*
Y106500D01*
X178884Y80801D02*
X179884D01*
X180884Y81801D01*
X181884Y80801D01*
X182884D01*
Y81801D01*
X181884Y82801D01*
X182884Y83801D01*
Y84801D01*
X181884D01*
X180884Y83801D01*
X179884Y84801D01*
X178884D01*
Y83801D01*
X179884Y82801D01*
X178884Y81801D01*
Y80801D01*
X264185Y100000D02*
X265185D01*
X266185Y101000D01*
X267185Y100000D01*
X268185D01*
Y101000D01*
X267185Y102000D01*
X268185Y103000D01*
Y104000D01*
X267185D01*
X266185Y103000D01*
X265185Y104000D01*
X264185D01*
Y103000D01*
X265185Y102000D01*
X264185Y101000D01*
Y100000D01*
X289185Y22000D02*
X290185D01*
X291185Y23000D01*
X292185Y22000D01*
X293185D01*
Y23000D01*
X292185Y24000D01*
X293185Y25000D01*
Y26000D01*
X292185D01*
X291185Y25000D01*
X290185Y26000D01*
X289185D01*
Y25000D01*
X290185Y24000D01*
X289185Y23000D01*
Y22000D01*
X158319Y49635D02*
X159319D01*
X160319Y50634D01*
X161319Y49635D01*
X162320D01*
Y50634D01*
X161319Y51635D01*
X162320Y52635D01*
Y53635D01*
X161319D01*
X160319Y52635D01*
X159319Y53635D01*
X158319D01*
Y52635D01*
X159319Y51635D01*
X158319Y50634D01*
Y49635D01*
X207551D02*
X208551D01*
X209550Y50634D01*
X210550Y49635D01*
X211550D01*
Y50634D01*
X210550Y51635D01*
X211550Y52635D01*
Y53635D01*
X210550D01*
X209550Y52635D01*
X208551Y53635D01*
X207551D01*
Y52635D01*
X208551Y51635D01*
X207551Y50634D01*
Y49635D01*
X205046Y155199D02*
X206046D01*
X207046Y156199D01*
X208046Y155199D01*
X209046D01*
Y156199D01*
X208046Y157199D01*
X209046Y158199D01*
Y159199D01*
X208046D01*
X207046Y158199D01*
X206046Y159199D01*
X205046D01*
Y158199D01*
X206046Y157199D01*
X205046Y156199D01*
Y155199D01*
X279185Y106000D02*
X280185D01*
X281185Y107000D01*
X282185Y106000D01*
X283185D01*
Y107000D01*
X282185Y108000D01*
X283185Y109000D01*
Y110000D01*
X282185D01*
X281185Y109000D01*
X280185Y110000D01*
X279185D01*
Y109000D01*
X280185Y108000D01*
X279185Y107000D01*
Y106000D01*
X289685Y39724D02*
X290685D01*
X291685Y40724D01*
X292685Y39724D01*
X293685D01*
Y40724D01*
X292685Y41724D01*
X293685Y42724D01*
Y43724D01*
X292685D01*
X291685Y42724D01*
X290685Y43724D01*
X289685D01*
Y42724D01*
X290685Y41724D01*
X289685Y40724D01*
Y39724D01*
X163685Y169000D02*
X164685D01*
X165685Y170000D01*
X166685Y169000D01*
X167685D01*
Y170000D01*
X166685Y171000D01*
X167685Y172000D01*
Y173000D01*
X166685D01*
X165685Y172000D01*
X164685Y173000D01*
X163685D01*
Y172000D01*
X164685Y171000D01*
X163685Y170000D01*
Y169000D01*
D105*
X277185Y155750D02*
G03*
X277185Y155750I-2000J0D01*
G01*
Y197482D02*
G03*
X277185Y197482I-2000J0D01*
G01*
X314933Y71000D02*
G03*
X314933Y71000I-2000J0D01*
G01*
X324933D02*
G03*
X324933Y71000I-2000J0D01*
G01*
X334933D02*
G03*
X334933Y71000I-2000J0D01*
G01*
X114028Y195500D02*
G03*
X114028Y195500I-2000J0D01*
G01*
Y185500D02*
G03*
X114028Y185500I-2000J0D01*
G01*
X94342Y195500D02*
G03*
X94342Y195500I-2000J0D01*
G01*
Y185500D02*
G03*
X94342Y185500I-2000J0D01*
G01*
X65185Y115000D02*
G03*
X65185Y115000I-2000J0D01*
G01*
X23453D02*
G03*
X23453Y115000I-2000J0D01*
G01*
X319185Y144500D02*
G03*
X319185Y144500I-2000J0D01*
G01*
Y186232D02*
G03*
X319185Y186232I-2000J0D01*
G01*
X336185Y197482D02*
G03*
X336185Y197482I-2000J0D01*
G01*
Y155750D02*
G03*
X336185Y155750I-2000J0D01*
G01*
X295185Y144500D02*
G03*
X295185Y144500I-2000J0D01*
G01*
Y186232D02*
G03*
X295185Y186232I-2000J0D01*
G01*
M02*
