G04*
G04 #@! TF.GenerationSoftware,Altium Limited,Altium Designer,24.5.2 (23)*
G04*
G04 Layer_Color=16711935*
%FSLAX25Y25*%
%MOIN*%
G70*
G04*
G04 #@! TF.SameCoordinates,9D3C8BE1-BED6-42F3-AD52-46E21662786B*
G04*
G04*
G04 #@! TF.FilePolarity,Positive*
G04*
G01*
G75*
%ADD11C,0.00787*%
G36*
X273668Y25107D02*
Y25102D01*
Y25090D01*
Y25070D01*
X273665Y25043D01*
Y25011D01*
X273663Y24974D01*
X273660Y24932D01*
X273658Y24888D01*
X273653Y24841D01*
X273646Y24792D01*
X273631Y24691D01*
X273611Y24593D01*
X273596Y24546D01*
X273582Y24502D01*
Y24499D01*
X273577Y24492D01*
X273572Y24480D01*
X273564Y24465D01*
X273555Y24445D01*
X273542Y24423D01*
X273528Y24398D01*
X273510Y24371D01*
X273491Y24344D01*
X273468Y24315D01*
X273441Y24285D01*
X273414Y24253D01*
X273382Y24224D01*
X273348Y24194D01*
X273311Y24165D01*
X273269Y24138D01*
X273267Y24135D01*
X273259Y24133D01*
X273247Y24125D01*
X273230Y24116D01*
X273205Y24106D01*
X273178Y24093D01*
X273149Y24081D01*
X273112Y24069D01*
X273072Y24057D01*
X273028Y24044D01*
X272979Y24032D01*
X272927Y24022D01*
X272871Y24012D01*
X272812Y24005D01*
X272748Y24002D01*
X272681Y24000D01*
X272647D01*
X272622Y24002D01*
X272593Y24005D01*
X272558Y24007D01*
X272519Y24010D01*
X272477Y24015D01*
X272430Y24022D01*
X272384Y24029D01*
X272288Y24052D01*
X272238Y24064D01*
X272192Y24081D01*
X272145Y24098D01*
X272101Y24121D01*
X272098Y24123D01*
X272091Y24125D01*
X272079Y24133D01*
X272064Y24143D01*
X272047Y24155D01*
X272024Y24172D01*
X272002Y24189D01*
X271978Y24212D01*
X271951Y24234D01*
X271924Y24261D01*
X271897Y24290D01*
X271872Y24322D01*
X271847Y24357D01*
X271823Y24394D01*
X271801Y24433D01*
X271781Y24475D01*
Y24477D01*
X271776Y24485D01*
X271771Y24499D01*
X271766Y24517D01*
X271759Y24541D01*
X271751Y24568D01*
X271742Y24603D01*
X271734Y24640D01*
X271724Y24684D01*
X271714Y24731D01*
X271707Y24782D01*
X271700Y24839D01*
X271695Y24900D01*
X271690Y24964D01*
X271685Y25033D01*
Y25107D01*
Y26563D01*
X272020D01*
Y25107D01*
Y25104D01*
Y25092D01*
Y25075D01*
Y25053D01*
X272022Y25026D01*
Y24996D01*
X272024Y24962D01*
X272027Y24925D01*
X272034Y24844D01*
X272044Y24765D01*
X272052Y24726D01*
X272059Y24689D01*
X272069Y24654D01*
X272079Y24622D01*
Y24620D01*
X272081Y24615D01*
X272086Y24608D01*
X272091Y24598D01*
X272106Y24568D01*
X272128Y24534D01*
X272157Y24497D01*
X272192Y24457D01*
X272236Y24418D01*
X272288Y24384D01*
X272290D01*
X272295Y24381D01*
X272302Y24376D01*
X272315Y24371D01*
X272329Y24364D01*
X272347Y24357D01*
X272366Y24349D01*
X272389Y24342D01*
X272416Y24335D01*
X272443Y24327D01*
X272504Y24312D01*
X272575Y24303D01*
X272652Y24300D01*
X272686D01*
X272711Y24303D01*
X272743Y24305D01*
X272777Y24310D01*
X272814Y24315D01*
X272856Y24320D01*
X272942Y24339D01*
X272984Y24354D01*
X273028Y24369D01*
X273070Y24389D01*
X273109Y24411D01*
X273144Y24435D01*
X273176Y24465D01*
X273178Y24467D01*
X273183Y24472D01*
X273190Y24485D01*
X273200Y24499D01*
X273213Y24519D01*
X273225Y24544D01*
X273240Y24573D01*
X273254Y24608D01*
X273269Y24649D01*
X273284Y24696D01*
X273296Y24748D01*
X273309Y24807D01*
X273318Y24871D01*
X273326Y24942D01*
X273331Y25021D01*
X273333Y25107D01*
Y26563D01*
X273668D01*
Y25107D01*
D02*
G37*
G36*
X274967Y26571D02*
X274994D01*
X275023Y26568D01*
X275058Y26563D01*
X275097Y26556D01*
X275141Y26548D01*
X275186Y26536D01*
X275232Y26524D01*
X275282Y26507D01*
X275328Y26487D01*
X275377Y26465D01*
X275422Y26438D01*
X275466Y26406D01*
X275508Y26371D01*
X275510Y26369D01*
X275518Y26362D01*
X275528Y26352D01*
X275540Y26335D01*
X275557Y26315D01*
X275574Y26293D01*
X275594Y26266D01*
X275614Y26234D01*
X275633Y26199D01*
X275653Y26160D01*
X275670Y26120D01*
X275687Y26076D01*
X275700Y26030D01*
X275710Y25978D01*
X275717Y25926D01*
X275719Y25872D01*
Y25870D01*
Y25865D01*
Y25857D01*
Y25847D01*
X275717Y25833D01*
Y25818D01*
X275712Y25778D01*
X275705Y25734D01*
X275692Y25683D01*
X275678Y25629D01*
X275655Y25574D01*
Y25572D01*
X275653Y25567D01*
X275648Y25560D01*
X275643Y25550D01*
X275636Y25535D01*
X275628Y25520D01*
X275606Y25481D01*
X275579Y25437D01*
X275542Y25383D01*
X275500Y25326D01*
X275449Y25267D01*
X275446Y25264D01*
X275441Y25260D01*
X275434Y25250D01*
X275422Y25237D01*
X275405Y25220D01*
X275387Y25200D01*
X275363Y25178D01*
X275336Y25151D01*
X275306Y25122D01*
X275269Y25087D01*
X275232Y25050D01*
X275188Y25011D01*
X275141Y24969D01*
X275090Y24923D01*
X275033Y24876D01*
X274974Y24824D01*
X274972Y24822D01*
X274962Y24814D01*
X274947Y24802D01*
X274930Y24787D01*
X274908Y24768D01*
X274883Y24745D01*
X274824Y24696D01*
X274765Y24645D01*
X274706Y24593D01*
X274679Y24568D01*
X274654Y24544D01*
X274632Y24524D01*
X274615Y24507D01*
X274612Y24504D01*
X274603Y24492D01*
X274588Y24475D01*
X274568Y24455D01*
X274548Y24428D01*
X274526Y24401D01*
X274504Y24371D01*
X274484Y24339D01*
X275722D01*
Y24042D01*
X274056D01*
Y24044D01*
Y24047D01*
Y24061D01*
Y24081D01*
X274059Y24111D01*
X274064Y24143D01*
X274069Y24180D01*
X274079Y24216D01*
X274091Y24256D01*
Y24258D01*
X274093Y24263D01*
X274098Y24273D01*
X274103Y24285D01*
X274111Y24300D01*
X274118Y24317D01*
X274140Y24362D01*
X274170Y24413D01*
X274204Y24470D01*
X274246Y24529D01*
X274295Y24590D01*
X274297Y24593D01*
X274302Y24598D01*
X274310Y24608D01*
X274322Y24620D01*
X274337Y24635D01*
X274354Y24654D01*
X274374Y24676D01*
X274398Y24701D01*
X274425Y24726D01*
X274455Y24755D01*
X274489Y24787D01*
X274524Y24822D01*
X274563Y24856D01*
X274605Y24893D01*
X274652Y24932D01*
X274698Y24972D01*
X274703Y24977D01*
X274716Y24986D01*
X274738Y25004D01*
X274765Y25028D01*
X274799Y25055D01*
X274836Y25090D01*
X274878Y25127D01*
X274922Y25166D01*
X275016Y25252D01*
X275107Y25341D01*
X275149Y25385D01*
X275188Y25429D01*
X275225Y25469D01*
X275254Y25508D01*
X275257Y25510D01*
X275262Y25518D01*
X275269Y25528D01*
X275277Y25542D01*
X275289Y25560D01*
X275301Y25579D01*
X275313Y25604D01*
X275328Y25629D01*
X275355Y25685D01*
X275380Y25747D01*
X275387Y25781D01*
X275395Y25813D01*
X275400Y25847D01*
X275402Y25879D01*
Y25882D01*
Y25887D01*
Y25897D01*
X275400Y25911D01*
X275397Y25926D01*
X275395Y25943D01*
X275385Y25988D01*
X275370Y26037D01*
X275345Y26089D01*
X275331Y26113D01*
X275313Y26140D01*
X275294Y26165D01*
X275269Y26189D01*
X275267Y26192D01*
X275264Y26194D01*
X275254Y26202D01*
X275245Y26209D01*
X275232Y26219D01*
X275215Y26229D01*
X275198Y26241D01*
X275176Y26253D01*
X275154Y26266D01*
X275127Y26278D01*
X275067Y26298D01*
X275001Y26312D01*
X274964Y26315D01*
X274925Y26317D01*
X274903D01*
X274888Y26315D01*
X274868Y26312D01*
X274846Y26310D01*
X274821Y26305D01*
X274797Y26300D01*
X274738Y26285D01*
X274679Y26261D01*
X274649Y26246D01*
X274620Y26226D01*
X274593Y26207D01*
X274566Y26182D01*
X274563Y26180D01*
X274561Y26177D01*
X274553Y26167D01*
X274546Y26157D01*
X274536Y26145D01*
X274524Y26128D01*
X274512Y26108D01*
X274499Y26086D01*
X274487Y26061D01*
X274475Y26034D01*
X274465Y26002D01*
X274452Y25970D01*
X274445Y25936D01*
X274438Y25897D01*
X274435Y25857D01*
X274433Y25813D01*
X274115Y25845D01*
Y25850D01*
X274118Y25860D01*
X274120Y25879D01*
X274123Y25904D01*
X274130Y25934D01*
X274138Y25968D01*
X274147Y26005D01*
X274157Y26047D01*
X274172Y26089D01*
X274189Y26133D01*
X274209Y26177D01*
X274231Y26224D01*
X274258Y26268D01*
X274288Y26310D01*
X274322Y26349D01*
X274359Y26386D01*
X274361Y26389D01*
X274369Y26393D01*
X274381Y26403D01*
X274398Y26416D01*
X274420Y26430D01*
X274445Y26445D01*
X274477Y26462D01*
X274512Y26480D01*
X274551Y26497D01*
X274593Y26514D01*
X274639Y26529D01*
X274691Y26544D01*
X274745Y26556D01*
X274804Y26566D01*
X274866Y26571D01*
X274932Y26573D01*
X274949D01*
X274967Y26571D01*
D02*
G37*
G36*
X273668Y54607D02*
Y54602D01*
Y54590D01*
Y54570D01*
X273665Y54543D01*
Y54511D01*
X273663Y54474D01*
X273660Y54432D01*
X273658Y54388D01*
X273653Y54341D01*
X273646Y54292D01*
X273631Y54191D01*
X273611Y54093D01*
X273596Y54046D01*
X273582Y54002D01*
Y53999D01*
X273577Y53992D01*
X273572Y53980D01*
X273564Y53965D01*
X273555Y53945D01*
X273542Y53923D01*
X273528Y53899D01*
X273510Y53871D01*
X273491Y53844D01*
X273468Y53815D01*
X273441Y53785D01*
X273414Y53753D01*
X273382Y53724D01*
X273348Y53694D01*
X273311Y53665D01*
X273269Y53638D01*
X273267Y53635D01*
X273259Y53633D01*
X273247Y53625D01*
X273230Y53616D01*
X273205Y53606D01*
X273178Y53593D01*
X273149Y53581D01*
X273112Y53569D01*
X273072Y53557D01*
X273028Y53544D01*
X272979Y53532D01*
X272927Y53522D01*
X272871Y53512D01*
X272812Y53505D01*
X272748Y53502D01*
X272681Y53500D01*
X272647D01*
X272622Y53502D01*
X272593Y53505D01*
X272558Y53507D01*
X272519Y53510D01*
X272477Y53515D01*
X272430Y53522D01*
X272384Y53530D01*
X272288Y53552D01*
X272238Y53564D01*
X272192Y53581D01*
X272145Y53598D01*
X272101Y53620D01*
X272098Y53623D01*
X272091Y53625D01*
X272079Y53633D01*
X272064Y53643D01*
X272047Y53655D01*
X272024Y53672D01*
X272002Y53689D01*
X271978Y53711D01*
X271951Y53734D01*
X271924Y53761D01*
X271897Y53790D01*
X271872Y53822D01*
X271847Y53857D01*
X271823Y53894D01*
X271801Y53933D01*
X271781Y53975D01*
Y53977D01*
X271776Y53985D01*
X271771Y53999D01*
X271766Y54017D01*
X271759Y54041D01*
X271751Y54068D01*
X271742Y54103D01*
X271734Y54140D01*
X271724Y54184D01*
X271714Y54231D01*
X271707Y54282D01*
X271700Y54339D01*
X271695Y54400D01*
X271690Y54464D01*
X271685Y54533D01*
Y54607D01*
Y56063D01*
X272020D01*
Y54607D01*
Y54605D01*
Y54592D01*
Y54575D01*
Y54553D01*
X272022Y54526D01*
Y54496D01*
X272024Y54462D01*
X272027Y54425D01*
X272034Y54344D01*
X272044Y54265D01*
X272052Y54226D01*
X272059Y54189D01*
X272069Y54154D01*
X272079Y54122D01*
Y54120D01*
X272081Y54115D01*
X272086Y54108D01*
X272091Y54098D01*
X272106Y54068D01*
X272128Y54034D01*
X272157Y53997D01*
X272192Y53957D01*
X272236Y53918D01*
X272288Y53884D01*
X272290D01*
X272295Y53881D01*
X272302Y53876D01*
X272315Y53871D01*
X272329Y53864D01*
X272347Y53857D01*
X272366Y53849D01*
X272389Y53842D01*
X272416Y53834D01*
X272443Y53827D01*
X272504Y53812D01*
X272575Y53803D01*
X272652Y53800D01*
X272686D01*
X272711Y53803D01*
X272743Y53805D01*
X272777Y53810D01*
X272814Y53815D01*
X272856Y53820D01*
X272942Y53839D01*
X272984Y53854D01*
X273028Y53869D01*
X273070Y53889D01*
X273109Y53911D01*
X273144Y53935D01*
X273176Y53965D01*
X273178Y53967D01*
X273183Y53972D01*
X273190Y53985D01*
X273200Y53999D01*
X273213Y54019D01*
X273225Y54044D01*
X273240Y54073D01*
X273254Y54108D01*
X273269Y54149D01*
X273284Y54196D01*
X273296Y54248D01*
X273309Y54307D01*
X273318Y54371D01*
X273326Y54442D01*
X273331Y54521D01*
X273333Y54607D01*
Y56063D01*
X273668D01*
Y54607D01*
D02*
G37*
G36*
X275262Y53542D02*
X274952D01*
Y55512D01*
X274949D01*
X274947Y55507D01*
X274940Y55502D01*
X274932Y55495D01*
X274908Y55473D01*
X274873Y55446D01*
X274831Y55414D01*
X274780Y55377D01*
X274721Y55338D01*
X274657Y55298D01*
X274654D01*
X274649Y55293D01*
X274639Y55288D01*
X274627Y55281D01*
X274610Y55271D01*
X274593Y55261D01*
X274548Y55239D01*
X274499Y55215D01*
X274445Y55187D01*
X274389Y55163D01*
X274334Y55141D01*
Y55438D01*
X274337Y55441D01*
X274347Y55443D01*
X274359Y55451D01*
X274379Y55461D01*
X274401Y55473D01*
X274425Y55488D01*
X274455Y55502D01*
X274487Y55522D01*
X274558Y55564D01*
X274635Y55616D01*
X274711Y55672D01*
X274787Y55734D01*
X274790Y55736D01*
X274794Y55741D01*
X274807Y55751D01*
X274819Y55763D01*
X274834Y55780D01*
X274853Y55798D01*
X274873Y55820D01*
X274895Y55842D01*
X274940Y55893D01*
X274984Y55950D01*
X275026Y56012D01*
X275045Y56041D01*
X275060Y56073D01*
X275262D01*
Y53542D01*
D02*
G37*
D11*
X255740Y37583D02*
X287630D01*
Y10417D02*
Y37583D01*
X255740Y10417D02*
X287630D01*
X255740D02*
Y37583D01*
Y39917D02*
Y67083D01*
Y39917D02*
X287630D01*
Y67083D01*
X255740D02*
X287630D01*
M02*
