G04*
G04 #@! TF.GenerationSoftware,Altium Limited,Altium Designer,24.5.2 (23)*
G04*
G04 Layer_Color=12632256*
%FSLAX25Y25*%
%MOIN*%
G70*
G04*
G04 #@! TF.SameCoordinates,9D3C8BE1-BED6-42F3-AD52-46E21662786B*
G04*
G04*
G04 #@! TF.FilePolarity,Positive*
G04*
G01*
G75*
%ADD82C,0.11811*%
%ADD83C,0.09843*%
%ADD84C,0.07087*%
%ADD85R,0.07087X0.07087*%
%ADD86C,0.07677*%
G04:AMPARAMS|DCode=87|XSize=76.77mil|YSize=76.77mil|CornerRadius=19.19mil|HoleSize=0mil|Usage=FLASHONLY|Rotation=180.000|XOffset=0mil|YOffset=0mil|HoleType=Round|Shape=RoundedRectangle|*
%AMROUNDEDRECTD87*
21,1,0.07677,0.03839,0,0,180.0*
21,1,0.03839,0.07677,0,0,180.0*
1,1,0.03839,-0.01919,0.01919*
1,1,0.03839,0.01919,0.01919*
1,1,0.03839,0.01919,-0.01919*
1,1,0.03839,-0.01919,-0.01919*
%
%ADD87ROUNDEDRECTD87*%
%ADD88C,0.06500*%
%ADD89R,0.06500X0.06500*%
G04:AMPARAMS|DCode=90|XSize=62.99mil|YSize=62.99mil|CornerRadius=15.75mil|HoleSize=0mil|Usage=FLASHONLY|Rotation=0.000|XOffset=0mil|YOffset=0mil|HoleType=Round|Shape=RoundedRectangle|*
%AMROUNDEDRECTD90*
21,1,0.06299,0.03150,0,0,0.0*
21,1,0.03150,0.06299,0,0,0.0*
1,1,0.03150,0.01575,-0.01575*
1,1,0.03150,-0.01575,-0.01575*
1,1,0.03150,-0.01575,0.01575*
1,1,0.03150,0.01575,0.01575*
%
%ADD90ROUNDEDRECTD90*%
%ADD91C,0.06299*%
G04:AMPARAMS|DCode=92|XSize=76.77mil|YSize=76.77mil|CornerRadius=19.19mil|HoleSize=0mil|Usage=FLASHONLY|Rotation=90.000|XOffset=0mil|YOffset=0mil|HoleType=Round|Shape=RoundedRectangle|*
%AMROUNDEDRECTD92*
21,1,0.07677,0.03839,0,0,90.0*
21,1,0.03839,0.07677,0,0,90.0*
1,1,0.03839,0.01919,0.01919*
1,1,0.03839,0.01919,-0.01919*
1,1,0.03839,-0.01919,-0.01919*
1,1,0.03839,-0.01919,0.01919*
%
%ADD92ROUNDEDRECTD92*%
%ADD93R,0.06200X0.06200*%
%ADD94C,0.06200*%
G04:AMPARAMS|DCode=95|XSize=62.99mil|YSize=62.99mil|CornerRadius=15.75mil|HoleSize=0mil|Usage=FLASHONLY|Rotation=90.000|XOffset=0mil|YOffset=0mil|HoleType=Round|Shape=RoundedRectangle|*
%AMROUNDEDRECTD95*
21,1,0.06299,0.03150,0,0,90.0*
21,1,0.03150,0.06299,0,0,90.0*
1,1,0.03150,0.01575,0.01575*
1,1,0.03150,0.01575,-0.01575*
1,1,0.03150,-0.01575,-0.01575*
1,1,0.03150,-0.01575,0.01575*
%
%ADD95ROUNDEDRECTD95*%
%ADD96R,0.07087X0.07087*%
%ADD97C,0.05984*%
G04:AMPARAMS|DCode=98|XSize=59.84mil|YSize=59.84mil|CornerRadius=14.96mil|HoleSize=0mil|Usage=FLASHONLY|Rotation=270.000|XOffset=0mil|YOffset=0mil|HoleType=Round|Shape=RoundedRectangle|*
%AMROUNDEDRECTD98*
21,1,0.05984,0.02992,0,0,270.0*
21,1,0.02992,0.05984,0,0,270.0*
1,1,0.02992,-0.01496,-0.01496*
1,1,0.02992,-0.01496,0.01496*
1,1,0.02992,0.01496,0.01496*
1,1,0.02992,0.01496,-0.01496*
%
%ADD98ROUNDEDRECTD98*%
G04:AMPARAMS|DCode=99|XSize=59.84mil|YSize=59.84mil|CornerRadius=14.96mil|HoleSize=0mil|Usage=FLASHONLY|Rotation=180.000|XOffset=0mil|YOffset=0mil|HoleType=Round|Shape=RoundedRectangle|*
%AMROUNDEDRECTD99*
21,1,0.05984,0.02992,0,0,180.0*
21,1,0.02992,0.05984,0,0,180.0*
1,1,0.02992,-0.01496,0.01496*
1,1,0.02992,0.01496,0.01496*
1,1,0.02992,0.01496,-0.01496*
1,1,0.02992,-0.01496,-0.01496*
%
%ADD99ROUNDEDRECTD99*%
D82*
X9843Y242126D02*
D03*
Y9843D02*
D03*
X338583D02*
D03*
Y242126D02*
D03*
D83*
X60807Y191905D02*
D03*
X13563D02*
D03*
X60807Y143874D02*
D03*
X13563D02*
D03*
X37185Y136000D02*
D03*
D84*
X275185Y155750D02*
D03*
X63185Y115000D02*
D03*
X317185Y186232D02*
D03*
X334185Y155750D02*
D03*
X293185Y186232D02*
D03*
D85*
X275185Y197482D02*
D03*
X317185Y144500D02*
D03*
X334185Y197482D02*
D03*
X293185Y144500D02*
D03*
D86*
X295342Y226000D02*
D03*
X322185Y111843D02*
D03*
Y53342D02*
D03*
X27500Y226000D02*
D03*
X47185D02*
D03*
X92343D02*
D03*
X152657D02*
D03*
X172343D02*
D03*
X188528Y19000D02*
D03*
X250500Y226000D02*
D03*
X230815D02*
D03*
D87*
X315027D02*
D03*
X66870D02*
D03*
X112028D02*
D03*
X192027D02*
D03*
X168842Y19000D02*
D03*
X270185Y226000D02*
D03*
D88*
X275685Y116500D02*
D03*
X265685D02*
D03*
Y146500D02*
D03*
X107685Y128500D02*
D03*
X97685D02*
D03*
Y158500D02*
D03*
X234185Y172500D02*
D03*
X244185D02*
D03*
Y142500D02*
D03*
D89*
X275685Y146500D02*
D03*
X107685Y158500D02*
D03*
X234185Y142500D02*
D03*
D90*
X312933Y71000D02*
D03*
D91*
X322933D02*
D03*
X332933D02*
D03*
X112028Y195500D02*
D03*
X92343D02*
D03*
D92*
X322185Y92158D02*
D03*
Y33658D02*
D03*
D93*
X38685Y13500D02*
D03*
Y83500D02*
D03*
D94*
X48685Y13500D02*
D03*
X58685D02*
D03*
X68685D02*
D03*
X78685D02*
D03*
X88685D02*
D03*
X98685D02*
D03*
X108685D02*
D03*
X118685D02*
D03*
X128685D02*
D03*
X48685Y83500D02*
D03*
X58685D02*
D03*
X68685D02*
D03*
X78685D02*
D03*
X88685D02*
D03*
X98685D02*
D03*
X108685D02*
D03*
X118685D02*
D03*
X128685D02*
D03*
D95*
X112028Y185500D02*
D03*
X92343D02*
D03*
D96*
X21453Y115000D02*
D03*
D97*
X238185Y88500D02*
D03*
Y78500D02*
D03*
Y68500D02*
D03*
X38685Y95500D02*
D03*
X48685D02*
D03*
X58685D02*
D03*
X161685Y88500D02*
D03*
Y78500D02*
D03*
Y68500D02*
D03*
D98*
X238185Y98500D02*
D03*
X161685D02*
D03*
D99*
X68685Y95500D02*
D03*
M02*
