G04*
G04 #@! TF.GenerationSoftware,Altium Limited,Altium Designer,24.5.2 (23)*
G04*
G04 Layer_Color=32768*
%FSLAX25Y25*%
%MOIN*%
G70*
G04*
G04 #@! TF.SameCoordinates,9D3C8BE1-BED6-42F3-AD52-46E21662786B*
G04*
G04*
G04 #@! TF.FilePolarity,Positive*
G04*
G01*
G75*
%ADD16C,0.00394*%
D16*
X324870Y214189D02*
Y237811D01*
Y239386D02*
Y242339D01*
Y237811D02*
X327232Y237319D01*
X324870Y239386D02*
X327232Y239878D01*
Y237319D02*
Y239878D01*
X324870Y209661D02*
Y212614D01*
X327232Y212122D01*
X324870Y214189D02*
X327232Y214681D01*
Y212122D02*
Y214681D01*
X285500Y209661D02*
Y242339D01*
X324870D01*
X285500Y209661D02*
X324870D01*
X307933Y76000D02*
X337933D01*
X307933Y66000D02*
X337933D01*
X307933D02*
Y76000D01*
X337933Y66000D02*
Y76000D01*
X305846Y82315D02*
Y121685D01*
X338524Y82315D02*
Y121685D01*
X305846D02*
X338524D01*
X308307Y79953D02*
X310866D01*
X310374Y82315D02*
X310866Y79953D01*
X308307D02*
X308799Y82315D01*
X305846D02*
X308799D01*
X333504Y79953D02*
X336063D01*
X335571Y82315D02*
X336063Y79953D01*
X333504D02*
X333996Y82315D01*
X335571D02*
X338524D01*
X310374D02*
X333996D01*
X305846Y23815D02*
Y63185D01*
X338524Y23815D02*
Y63185D01*
X305846D02*
X338524D01*
X308307Y21453D02*
X310866D01*
X310374Y23815D02*
X310866Y21453D01*
X308307D02*
X308799Y23815D01*
X305846D02*
X308799D01*
X333504Y21453D02*
X336063D01*
X335571Y23815D02*
X336063Y21453D01*
X333504D02*
X333996Y23815D01*
X335571D02*
X338524D01*
X310374D02*
X333996D01*
X107027Y180500D02*
Y200500D01*
X117027D01*
Y180500D02*
Y200500D01*
X107027Y180500D02*
X117027D01*
X87343D02*
Y200500D01*
X97342D01*
Y180500D02*
Y200500D01*
X87343Y180500D02*
X97342D01*
X17658Y209661D02*
X76713D01*
X17658Y242339D02*
X76713D01*
X17658Y209661D02*
Y242339D01*
X79075Y212122D02*
Y214681D01*
X76713Y214189D02*
X79075Y214681D01*
X76713Y212614D02*
X79075Y212122D01*
X76713Y209661D02*
Y212614D01*
X79075Y237319D02*
Y239878D01*
X76713Y239386D02*
X79075Y239878D01*
X76713Y237811D02*
X79075Y237319D01*
X76713Y239386D02*
Y242339D01*
Y214189D02*
Y237811D01*
X121870Y214189D02*
Y237811D01*
Y239386D02*
Y242339D01*
Y237811D02*
X124232Y237319D01*
X121870Y239386D02*
X124232Y239878D01*
Y237319D02*
Y239878D01*
X121870Y209661D02*
Y212614D01*
X124232Y212122D01*
X121870Y214189D02*
X124232Y214681D01*
Y212122D02*
Y214681D01*
X82500Y209661D02*
Y242339D01*
X121870D01*
X82500Y209661D02*
X121870D01*
X142815D02*
X201870D01*
X142815Y242339D02*
X201870D01*
X142815Y209661D02*
Y242339D01*
X204232Y212122D02*
Y214681D01*
X201870Y214189D02*
X204232Y214681D01*
X201870Y212614D02*
X204232Y212122D01*
X201870Y209661D02*
Y212614D01*
X204232Y237319D02*
Y239878D01*
X201870Y239386D02*
X204232Y239878D01*
X201870Y237811D02*
X204232Y237319D01*
X201870Y239386D02*
Y242339D01*
Y214189D02*
Y237811D01*
X194417Y57701D02*
X210953D01*
X194417D02*
Y70299D01*
X210953D01*
Y57701D02*
Y70299D01*
X194417Y94701D02*
X210953D01*
X194417D02*
Y107299D01*
X210953D01*
Y94701D02*
Y107299D01*
X243106Y62516D02*
Y104484D01*
X233264Y62516D02*
X243106D01*
X233264D02*
Y104484D01*
X243106D01*
X178386Y74232D02*
Y90768D01*
X190984D01*
Y74232D02*
Y90768D01*
X178386Y74232D02*
X190984D01*
X214386D02*
Y90768D01*
X226984D01*
Y74232D02*
Y90768D01*
X214386Y74232D02*
X226984D01*
X74669Y90579D02*
Y100421D01*
X32701D02*
X74669D01*
X32701Y90579D02*
Y100421D01*
Y90579D02*
X74669D01*
X159000Y35339D02*
X198370D01*
X159000Y2661D02*
X198370D01*
Y35339D01*
X156638Y30319D02*
Y32878D01*
Y30319D02*
X159000Y30811D01*
X156638Y32878D02*
X159000Y32386D01*
Y35339D01*
X156638Y5122D02*
Y7681D01*
Y5122D02*
X159000Y5614D01*
X156638Y7681D02*
X159000Y7189D01*
Y2661D02*
Y5614D01*
Y7189D02*
Y30811D01*
X166606Y62516D02*
Y104484D01*
X156764Y62516D02*
X166606D01*
X156764D02*
Y104484D01*
X166606D01*
X280028Y214189D02*
Y237811D01*
Y239386D02*
Y242339D01*
Y237811D02*
X282390Y237319D01*
X280028Y239386D02*
X282390Y239878D01*
Y237319D02*
Y239878D01*
X280028Y209661D02*
Y212614D01*
X282390Y212122D01*
X280028Y214189D02*
X282390Y214681D01*
Y212122D02*
Y214681D01*
X220972Y209661D02*
Y242339D01*
X280028D01*
X220972Y209661D02*
X280028D01*
M02*
