G04*
G04 #@! TF.GenerationSoftware,Altium Limited,Altium Designer,24.5.2 (23)*
G04*
G04 Layer_Color=32768*
%FSLAX25Y25*%
%MOIN*%
G70*
G04*
G04 #@! TF.SameCoordinates,9D3C8BE1-BED6-42F3-AD52-46E21662786B*
G04*
G04*
G04 #@! TF.FilePolarity,Positive*
G04*
G01*
G75*
%ADD13C,0.00500*%
%ADD14C,0.01000*%
%ADD16C,0.00394*%
%ADD17C,0.00400*%
%ADD102C,0.00591*%
D13*
X67106Y130488D02*
Y205291D01*
X7264Y130488D02*
X67106D01*
X7264D02*
Y205291D01*
X67106D01*
X271022Y86539D02*
Y91460D01*
X280898Y86539D02*
Y91460D01*
X271022Y86539D02*
X280898D01*
X271022Y91460D02*
X280898D01*
X271022D02*
X280898D01*
X271022Y86539D02*
Y91460D01*
Y86539D02*
X280898D01*
X280898D02*
Y91460D01*
X201224Y25339D02*
X206145D01*
X201224Y25339D02*
Y35214D01*
X206145D01*
Y25339D02*
Y35214D01*
Y25339D02*
Y35214D01*
X201224Y25339D02*
Y35214D01*
Y25339D02*
X206145D01*
X201224Y35214D02*
X206145D01*
X274247Y73460D02*
X284122D01*
X274247Y68550D02*
X274258Y68539D01*
X274247D02*
Y73460D01*
Y68550D02*
Y73460D01*
X284122D01*
X274247Y68539D02*
X284122D01*
X274258D02*
X284122D01*
Y73460D01*
Y68539D02*
Y73460D01*
X83725Y124562D02*
X88646D01*
X83725Y134437D02*
X88646D01*
Y124562D02*
Y134437D01*
X83725Y124562D02*
Y134437D01*
Y124562D02*
Y134437D01*
Y124562D02*
X88646D01*
Y134437D01*
X83725Y134437D02*
X88646D01*
X116225Y147937D02*
X121146D01*
Y138062D02*
Y147937D01*
X116225Y138062D02*
X121146D01*
X116225D02*
Y147937D01*
Y138062D02*
Y147937D01*
X121146Y138062D02*
Y147937D01*
X116225Y147937D02*
X121146D01*
X116225Y138062D02*
X121146D01*
X73724Y140563D02*
X78645D01*
X73724Y140563D02*
Y150438D01*
X78645D01*
Y140563D02*
Y150438D01*
Y140563D02*
Y150438D01*
X73724Y140563D02*
Y150438D01*
Y140563D02*
X78645D01*
X73724Y150438D02*
X78645D01*
X251225Y172062D02*
X256146D01*
X251225Y181937D02*
X256146D01*
Y172062D02*
Y181937D01*
X251225Y172062D02*
Y181937D01*
Y172062D02*
Y181937D01*
Y172062D02*
X256146D01*
Y181937D01*
X251225Y181937D02*
X256146D01*
X275623Y105540D02*
Y110461D01*
X265748Y105540D02*
Y110461D01*
X265748D02*
X275623D01*
X265748Y105540D02*
X275623D01*
X265748D02*
X275623D01*
Y110461D01*
X265748D02*
X275623D01*
X265748Y105540D02*
Y110461D01*
X200974Y178041D02*
Y182962D01*
X191098Y178041D02*
Y182962D01*
X191098D02*
X200974D01*
X191098Y178041D02*
X200974D01*
X191098D02*
X200974D01*
Y182962D01*
X191098D02*
X200974D01*
X191098Y178041D02*
Y182962D01*
X163373Y150196D02*
X168294D01*
X163373D02*
X168294D01*
X163373D02*
Y160061D01*
Y150196D02*
Y160072D01*
X168294Y150196D02*
Y160072D01*
X163384D02*
X168294D01*
X163373D02*
X168294D01*
X163373Y160061D02*
X163384Y160072D01*
X168294Y150196D02*
Y160072D01*
X198444Y157412D02*
X203365D01*
X198444D02*
X203365D01*
Y147547D02*
Y157412D01*
Y147537D02*
Y157412D01*
X198444Y147537D02*
Y157412D01*
Y147537D02*
X203354D01*
X198444D02*
X203365D01*
X203354D02*
X203365Y147547D01*
X198444Y147537D02*
Y157412D01*
X200974Y193541D02*
Y198462D01*
X191098Y193541D02*
Y198462D01*
X191098D02*
X200974D01*
X191098Y193541D02*
X200974D01*
X191098D02*
X200974D01*
Y198462D01*
X191098D02*
X200974D01*
X191098Y193541D02*
Y198462D01*
X180576Y171438D02*
X185497D01*
X180576D02*
X185497D01*
Y161573D02*
Y171438D01*
Y161562D02*
Y171438D01*
X180576Y161562D02*
Y171438D01*
Y161562D02*
X185486D01*
X180576D02*
X185497D01*
X185486D02*
X185497Y161573D01*
X180576Y161562D02*
Y171438D01*
X159623Y148540D02*
Y153461D01*
X149748Y148540D02*
Y153461D01*
X149748D02*
X159623D01*
X149748Y148540D02*
X159623D01*
X149748D02*
X159623D01*
Y153461D01*
X149748D02*
X159623D01*
X149748Y148540D02*
Y153461D01*
X246369Y23787D02*
X251290D01*
X246369D02*
X251290D01*
X246369D02*
Y33652D01*
Y23787D02*
Y33663D01*
X251290Y23787D02*
Y33663D01*
X246379D02*
X251290D01*
X246369D02*
X251290D01*
X246369Y33652D02*
X246379Y33663D01*
X251290Y23787D02*
Y33663D01*
X216927Y189938D02*
X221848D01*
X216927Y180063D02*
X221848D01*
X216927Y180063D02*
Y189938D01*
X221848Y180063D02*
Y189938D01*
Y180063D02*
Y189938D01*
X216927D02*
X221848D01*
X216927Y180063D02*
Y189938D01*
Y180063D02*
X221848D01*
X283747Y134039D02*
Y138960D01*
X293622Y134039D02*
Y138960D01*
X283747Y134039D02*
X293622D01*
X283747Y138960D02*
X293622D01*
X283747D02*
X293622D01*
X283747Y134039D02*
Y138960D01*
Y134039D02*
X293622D01*
X293622D02*
Y138960D01*
X219225Y133062D02*
X224146D01*
X219225Y142937D02*
X224146D01*
Y133062D02*
Y142937D01*
X219225Y133062D02*
Y142937D01*
Y133062D02*
Y142937D01*
Y133062D02*
X224146D01*
Y142937D01*
X219225Y142937D02*
X224146D01*
X296725Y41937D02*
X301646D01*
X296725D02*
X301646D01*
Y32073D02*
Y41937D01*
Y32062D02*
Y41937D01*
X296725Y32062D02*
Y41937D01*
Y32062D02*
X301635D01*
X296725D02*
X301646D01*
X301635D02*
X301646Y32073D01*
X296725Y32062D02*
Y41937D01*
X167247Y49173D02*
Y54094D01*
X177122Y49173D02*
Y54094D01*
X167247Y49173D02*
X177122D01*
X167247Y54094D02*
X177122D01*
X167247D02*
X177122D01*
X167247Y49173D02*
Y54094D01*
Y49173D02*
X177122D01*
X177122D02*
Y54094D01*
X190747Y49173D02*
Y54094D01*
X200622Y49173D02*
Y54094D01*
X190747Y49173D02*
X200622D01*
X190747Y54094D02*
X200622D01*
X190747D02*
X200622D01*
X190747Y49173D02*
Y54094D01*
Y49173D02*
X200622D01*
X200622D02*
Y54094D01*
X181724Y52438D02*
X186645D01*
X181724Y42563D02*
X186645D01*
X181724Y42563D02*
Y52438D01*
X186645Y42563D02*
Y52438D01*
Y42563D02*
Y52438D01*
X181724D02*
X186645D01*
X181724Y42563D02*
Y52438D01*
Y42563D02*
X186645D01*
X37585Y197880D02*
X35186D01*
X35985D01*
X37585Y196281D01*
X36385Y197480D01*
X35186Y196281D01*
Y195481D02*
Y194681D01*
Y195081D01*
X37585D01*
X37185Y195481D01*
X280207Y90951D02*
Y88552D01*
X279007D01*
X278608Y88952D01*
Y89752D01*
X279007Y90152D01*
X280207D01*
X279407D02*
X278608Y90951D01*
X277808D02*
X277008D01*
X277408D01*
Y88552D01*
X277808Y88952D01*
X274209Y88552D02*
X275009Y88952D01*
X275808Y89752D01*
Y90552D01*
X275409Y90951D01*
X274609D01*
X274209Y90552D01*
Y90152D01*
X274609Y89752D01*
X275808D01*
X205636Y26029D02*
X203237D01*
Y27229D01*
X203637Y27629D01*
X204437D01*
X204837Y27229D01*
Y26029D01*
Y26829D02*
X205636Y27629D01*
Y29628D02*
X203237D01*
X204437Y28428D01*
Y30028D01*
X281810Y70742D02*
X282210Y70342D01*
X283010D01*
X283409Y70742D01*
Y72342D01*
X283010Y72742D01*
X282210D01*
X281810Y72342D01*
X279411Y72742D02*
X281010D01*
X279411Y71142D01*
Y70742D01*
X279811Y70342D01*
X280610D01*
X281010Y70742D01*
X84234Y133746D02*
X86633D01*
Y132547D01*
X86233Y132147D01*
X85433D01*
X85033Y132547D01*
Y133746D01*
Y132947D02*
X84234Y132147D01*
X84633Y131347D02*
X84234Y130947D01*
Y130148D01*
X84633Y129748D01*
X86233D01*
X86633Y130148D01*
Y130947D01*
X86233Y131347D01*
X85833D01*
X85433Y130947D01*
Y129748D01*
X116734Y147246D02*
X119133D01*
Y146047D01*
X118733Y145647D01*
X117933D01*
X117533Y146047D01*
Y147246D01*
Y146447D02*
X116734Y145647D01*
X119133Y144847D02*
Y143248D01*
X118733D01*
X117133Y144847D01*
X116734D01*
X78136Y141254D02*
X75737D01*
Y142453D01*
X76137Y142853D01*
X76937D01*
X77337Y142453D01*
Y141254D01*
Y142053D02*
X78136Y142853D01*
X76137Y143653D02*
X75737Y144053D01*
Y144852D01*
X76137Y145252D01*
X76537D01*
X76937Y144852D01*
X77337Y145252D01*
X77737D01*
X78136Y144852D01*
Y144053D01*
X77737Y143653D01*
X77337D01*
X76937Y144053D01*
X76537Y143653D01*
X76137D01*
X76937Y144053D02*
Y144852D01*
X251734Y181246D02*
X254133D01*
Y180047D01*
X253733Y179647D01*
X252933D01*
X252533Y180047D01*
Y181246D01*
Y180447D02*
X251734Y179647D01*
Y178847D02*
Y178047D01*
Y178447D01*
X254133D01*
X253733Y178847D01*
X254133Y175248D02*
Y176848D01*
X252933D01*
X253333Y176048D01*
Y175648D01*
X252933Y175248D01*
X252133D01*
X251734Y175648D01*
Y176448D01*
X252133Y176848D01*
X266439Y106049D02*
Y108448D01*
X267638D01*
X268038Y108048D01*
Y107248D01*
X267638Y106848D01*
X266439D01*
X267238D02*
X268038Y106049D01*
X268838D02*
X269638D01*
X269238D01*
Y108448D01*
X268838Y108048D01*
X270837D02*
X271237Y108448D01*
X272037D01*
X272437Y108048D01*
Y107648D01*
X272037Y107248D01*
X271637D01*
X272037D01*
X272437Y106848D01*
Y106448D01*
X272037Y106049D01*
X271237D01*
X270837Y106448D01*
X191789Y178549D02*
Y180948D01*
X192989D01*
X193388Y180549D01*
Y179749D01*
X192989Y179349D01*
X191789D01*
X192589D02*
X193388Y178549D01*
X195788Y180948D02*
X194188D01*
Y179749D01*
X194988Y180149D01*
X195388D01*
X195788Y179749D01*
Y178949D01*
X195388Y178549D01*
X194588D01*
X194188Y178949D01*
X165577Y152508D02*
X165177Y152109D01*
Y151309D01*
X165577Y150909D01*
X167176D01*
X167576Y151309D01*
Y152109D01*
X167176Y152508D01*
X165177Y154908D02*
X165577Y154108D01*
X166377Y153308D01*
X167176D01*
X167576Y153708D01*
Y154508D01*
X167176Y154908D01*
X166777D01*
X166377Y154508D01*
Y153308D01*
X201161Y155100D02*
X201561Y155499D01*
Y156299D01*
X201161Y156699D01*
X199562D01*
X199162Y156299D01*
Y155499D01*
X199562Y155100D01*
X201561Y152700D02*
Y154300D01*
X200361D01*
X200761Y153500D01*
Y153100D01*
X200361Y152700D01*
X199562D01*
X199162Y153100D01*
Y153900D01*
X199562Y154300D01*
X191789Y194049D02*
Y196449D01*
X192989D01*
X193388Y196049D01*
Y195249D01*
X192989Y194849D01*
X191789D01*
X192589D02*
X193388Y194049D01*
X195788Y196449D02*
X194988Y196049D01*
X194188Y195249D01*
Y194449D01*
X194588Y194049D01*
X195388D01*
X195788Y194449D01*
Y194849D01*
X195388Y195249D01*
X194188D01*
X183293Y169125D02*
X183693Y169525D01*
Y170325D01*
X183293Y170725D01*
X181693D01*
X181294Y170325D01*
Y169525D01*
X181693Y169125D01*
X181294Y167126D02*
X183693D01*
X182493Y168326D01*
Y166726D01*
X150439Y149049D02*
Y151448D01*
X151638D01*
X152038Y151048D01*
Y150248D01*
X151638Y149848D01*
X150439D01*
X151238D02*
X152038Y149049D01*
X152838D02*
X153638D01*
X153238D01*
Y151448D01*
X152838Y151048D01*
X154837D02*
X155237Y151448D01*
X156037D01*
X156437Y151048D01*
Y149449D01*
X156037Y149049D01*
X155237D01*
X154837Y149449D01*
Y151048D01*
X248572Y26100D02*
X248172Y25700D01*
Y24900D01*
X248572Y24500D01*
X250172D01*
X250571Y24900D01*
Y25700D01*
X250172Y26100D01*
X248572Y26899D02*
X248172Y27299D01*
Y28099D01*
X248572Y28499D01*
X248972D01*
X249372Y28099D01*
Y27699D01*
Y28099D01*
X249772Y28499D01*
X250172D01*
X250571Y28099D01*
Y27299D01*
X250172Y26899D01*
X221340Y180754D02*
X218940D01*
Y181953D01*
X219340Y182353D01*
X220140D01*
X220540Y181953D01*
Y180754D01*
Y181553D02*
X221340Y182353D01*
Y183153D02*
Y183953D01*
Y183553D01*
X218940D01*
X219340Y183153D01*
X221340Y186752D02*
Y185152D01*
X219740Y186752D01*
X219340D01*
X218940Y186352D01*
Y185552D01*
X219340Y185152D01*
X292931Y138451D02*
Y136052D01*
X291732D01*
X291332Y136452D01*
Y137252D01*
X291732Y137652D01*
X292931D01*
X292132D02*
X291332Y138451D01*
X290532D02*
X289733D01*
X290132D01*
Y136052D01*
X290532Y136452D01*
X287333Y138451D02*
Y136052D01*
X288533Y137252D01*
X286933D01*
X219734Y142246D02*
X222133D01*
Y141047D01*
X221733Y140647D01*
X220933D01*
X220533Y141047D01*
Y142246D01*
Y141447D02*
X219734Y140647D01*
Y139847D02*
Y139047D01*
Y139447D01*
X222133D01*
X221733Y139847D01*
X219734Y137848D02*
Y137048D01*
Y137448D01*
X222133D01*
X221733Y137848D01*
X299443Y39625D02*
X299843Y40025D01*
Y40824D01*
X299443Y41224D01*
X297843D01*
X297443Y40824D01*
Y40025D01*
X297843Y39625D01*
X297443Y38825D02*
Y38025D01*
Y38425D01*
X299843D01*
X299443Y38825D01*
X176431Y53586D02*
Y51187D01*
X175232D01*
X174832Y51587D01*
Y52386D01*
X175232Y52786D01*
X176431D01*
X175632D02*
X174832Y53586D01*
X174032D02*
X173232D01*
X173632D01*
Y51187D01*
X174032Y51587D01*
X199931Y53586D02*
Y51187D01*
X198732D01*
X198332Y51587D01*
Y52386D01*
X198732Y52786D01*
X199931D01*
X199132D02*
X198332Y53586D01*
X195933D02*
X197532D01*
X195933Y51986D01*
Y51587D01*
X196333Y51187D01*
X197132D01*
X197532Y51587D01*
X186136Y43254D02*
X183737D01*
Y44453D01*
X184137Y44853D01*
X184937D01*
X185337Y44453D01*
Y43254D01*
Y44053D02*
X186136Y44853D01*
X184137Y45653D02*
X183737Y46053D01*
Y46852D01*
X184137Y47252D01*
X184537D01*
X184937Y46852D01*
Y46453D01*
Y46852D01*
X185337Y47252D01*
X185737D01*
X186136Y46852D01*
Y46053D01*
X185737Y45653D01*
D14*
X286202Y87381D02*
G03*
X286202Y87381I-376J0D01*
G01*
X85179Y158142D02*
G03*
X85179Y158142I-376J0D01*
G01*
X242679Y184142D02*
G03*
X242679Y184142I-376J0D01*
G01*
X279184Y206606D02*
X273186D01*
Y203607D01*
X274185Y202607D01*
X278184D01*
X279184Y203607D01*
Y206606D01*
Y200608D02*
Y196609D01*
X278184D01*
X274185Y200608D01*
X273186D01*
X170186Y126769D02*
X176184D01*
Y129768D01*
X175185Y130767D01*
X171186D01*
X170186Y129768D01*
Y126769D01*
X176184Y135766D02*
X170186D01*
X173185Y132767D01*
Y136765D01*
X12329Y118999D02*
Y113001D01*
X15328D01*
X16327Y114000D01*
Y117999D01*
X15328Y118999D01*
X12329D01*
X18327Y117999D02*
X19326Y118999D01*
X21326D01*
X22325Y117999D01*
Y116999D01*
X21326Y116000D01*
X20326D01*
X21326D01*
X22325Y115000D01*
Y114000D01*
X21326Y113001D01*
X19326D01*
X18327Y114000D01*
X79683Y157500D02*
X73685D01*
Y154501D01*
X74685Y153501D01*
X78683D01*
X79683Y154501D01*
Y157500D01*
X73685Y147503D02*
Y151502D01*
X77684Y147503D01*
X78683D01*
X79683Y148503D01*
Y150502D01*
X78683Y151502D01*
X182972Y190058D02*
Y186060D01*
X183972Y185060D01*
X185971D01*
X186971Y186060D01*
Y190058D01*
X185971Y191058D01*
X183972D01*
X184971Y189059D02*
X182972Y191058D01*
X183972D02*
X182972Y190058D01*
X180973Y191058D02*
X178973D01*
X179973D01*
Y185060D01*
X180973Y186060D01*
X222998Y197969D02*
X217000D01*
Y194970D01*
X218000Y193971D01*
X221998D01*
X222998Y194970D01*
Y197969D01*
X218000Y191971D02*
X217000Y190972D01*
Y188972D01*
X218000Y187973D01*
X221998D01*
X222998Y188972D01*
Y190972D01*
X221998Y191971D01*
X220999D01*
X219999Y190972D01*
Y187973D01*
X313186Y135376D02*
X319184D01*
Y138375D01*
X318185Y139375D01*
X314186D01*
X313186Y138375D01*
Y135376D01*
Y145373D02*
X314186Y143373D01*
X316185Y141374D01*
X318185D01*
X319184Y142374D01*
Y144373D01*
X318185Y145373D01*
X317185D01*
X316185Y144373D01*
Y141374D01*
X338184Y206606D02*
X332186D01*
Y203607D01*
X333185Y202607D01*
X337184D01*
X338184Y203607D01*
Y206606D01*
X337184Y200608D02*
X338184Y199608D01*
Y197609D01*
X337184Y196609D01*
X336184D01*
X335185Y197609D01*
X334185Y196609D01*
X333185D01*
X332186Y197609D01*
Y199608D01*
X333185Y200608D01*
X334185D01*
X335185Y199608D01*
X336184Y200608D01*
X337184D01*
X335185Y199608D02*
Y197609D01*
X289186Y135376D02*
X295184D01*
Y138375D01*
X294185Y139375D01*
X290186D01*
X289186Y138375D01*
Y135376D01*
Y145373D02*
Y141374D01*
X292185D01*
X291186Y143373D01*
Y144373D01*
X292185Y145373D01*
X294185D01*
X295184Y144373D01*
Y142374D01*
X294185Y141374D01*
D16*
X296091Y86039D02*
Y95882D01*
X284279Y86039D02*
Y95882D01*
X296091D01*
X284279Y86039D02*
X296091D01*
X86146Y156595D02*
Y168405D01*
X76303Y156595D02*
Y168405D01*
Y156595D02*
X86146D01*
X76303Y168405D02*
X86146D01*
X233803Y194405D02*
X243646D01*
X233803Y182595D02*
X243646D01*
X233803D02*
Y194405D01*
X243646Y182595D02*
Y194405D01*
X205965Y62032D02*
Y65968D01*
X203997D01*
X203341Y65312D01*
Y64656D01*
X203997Y64000D01*
X205965D01*
X203997D01*
X203341Y63344D01*
Y62688D01*
X203997Y62032D01*
X205965D01*
X199405Y65968D02*
X202029D01*
X199405Y63344D01*
Y62688D01*
X200061Y62032D01*
X201373D01*
X202029Y62688D01*
X205309Y99032D02*
Y102968D01*
X203341D01*
X202685Y102312D01*
Y101656D01*
X203341Y101000D01*
X205309D01*
X203341D01*
X202685Y100344D01*
Y99688D01*
X203341Y99032D01*
X205309D01*
X201373Y102968D02*
X200061D01*
X200717D01*
Y99032D01*
X201373Y99688D01*
X182717Y79220D02*
X186653D01*
Y81188D01*
X185997Y81844D01*
X185341D01*
X184685Y81188D01*
Y79220D01*
Y81188D01*
X184029Y81844D01*
X183373D01*
X182717Y81188D01*
Y79220D01*
X186653Y85124D02*
X182717D01*
X184685Y83156D01*
Y85780D01*
X218717Y79220D02*
X222653D01*
Y81188D01*
X221997Y81844D01*
X221341D01*
X220685Y81188D01*
Y79220D01*
Y81188D01*
X220029Y81844D01*
X219373D01*
X218717Y81188D01*
Y79220D01*
X219373Y83156D02*
X218717Y83812D01*
Y85124D01*
X219373Y85780D01*
X220029D01*
X220685Y85124D01*
Y84468D01*
Y85124D01*
X221341Y85780D01*
X221997D01*
X222653Y85124D01*
Y83812D01*
X221997Y83156D01*
D17*
X286784Y92166D02*
Y93765D01*
X286384Y94165D01*
X285584D01*
X285184Y93765D01*
Y92166D01*
X285584Y91766D01*
X286384D01*
X285984Y92566D02*
X286784Y91766D01*
X286384D02*
X286784Y92166D01*
X288783Y91766D02*
Y94165D01*
X287583Y92965D01*
X289183D01*
X80019Y159098D02*
X78420D01*
X78020Y158699D01*
Y157899D01*
X78420Y157499D01*
X80019D01*
X80419Y157899D01*
Y158699D01*
X79619Y158299D02*
X80419Y159098D01*
Y158699D02*
X80019Y159098D01*
X80419Y161498D02*
Y159898D01*
X78820Y161498D01*
X78420D01*
X78020Y161098D01*
Y160298D01*
X78420Y159898D01*
X237519Y185099D02*
X235920D01*
X235520Y184699D01*
Y183899D01*
X235920Y183499D01*
X237519D01*
X237919Y183899D01*
Y184699D01*
X237120Y184299D02*
X237919Y185099D01*
Y184699D02*
X237519Y185099D01*
X235920Y185898D02*
X235520Y186298D01*
Y187098D01*
X235920Y187498D01*
X236320D01*
X236720Y187098D01*
Y186698D01*
Y187098D01*
X237120Y187498D01*
X237519D01*
X237919Y187098D01*
Y186298D01*
X237519Y185898D01*
D102*
X306169Y223048D02*
X308137D01*
X307153D01*
Y227968D01*
X308137Y228952D01*
X309121D01*
X310105Y227968D01*
X304201Y223048D02*
X300265D01*
Y224032D01*
X304201Y227968D01*
Y228952D01*
X318013Y68048D02*
Y73952D01*
X320965D01*
X321949Y72968D01*
Y71000D01*
X320965Y70016D01*
X318013D01*
X323917Y72968D02*
X324901Y73952D01*
X326869D01*
X327853Y72968D01*
Y71984D01*
X326869Y71000D01*
X325885D01*
X326869D01*
X327853Y70016D01*
Y69032D01*
X326869Y68048D01*
X324901D01*
X323917Y69032D01*
X319233Y98556D02*
Y96588D01*
Y97572D01*
X324153D01*
X325137Y96588D01*
Y95604D01*
X324153Y94621D01*
X325137Y100524D02*
Y102492D01*
Y101508D01*
X319233D01*
X320217Y100524D01*
Y105444D02*
X319233Y106428D01*
Y108396D01*
X320217Y109379D01*
X324153D01*
X325137Y108396D01*
Y106428D01*
X324153Y105444D01*
X320217D01*
X319233Y43500D02*
Y41532D01*
Y42516D01*
X324153D01*
X325137Y41532D01*
Y40548D01*
X324153Y39564D01*
X325137Y45468D02*
Y47436D01*
Y46452D01*
X319233D01*
X320217Y45468D01*
X114979Y186564D02*
X109076D01*
Y189516D01*
X110060Y190500D01*
X112028D01*
X113012Y189516D01*
Y186564D01*
X114979Y192468D02*
Y194436D01*
Y193452D01*
X109076D01*
X110060Y192468D01*
X95294Y185580D02*
X89391D01*
Y188532D01*
X90375Y189516D01*
X92343D01*
X93326Y188532D01*
Y185580D01*
X95294Y195420D02*
Y191484D01*
X91359Y195420D01*
X90375D01*
X89391Y194436D01*
Y192468D01*
X90375Y191484D01*
X48169Y223048D02*
X50137D01*
X49153D01*
Y227968D01*
X50137Y228952D01*
X51121D01*
X52105Y227968D01*
X42265Y223048D02*
X44233Y224032D01*
X46201Y226000D01*
Y227968D01*
X45217Y228952D01*
X43249D01*
X42265Y227968D01*
Y226984D01*
X43249Y226000D01*
X46201D01*
X103169Y223048D02*
X105137D01*
X104153D01*
Y227968D01*
X105137Y228952D01*
X106121D01*
X107105Y227968D01*
X97265Y223048D02*
X101201D01*
Y226000D01*
X99233Y225016D01*
X98249D01*
X97265Y226000D01*
Y227968D01*
X98249Y228952D01*
X100217D01*
X101201Y227968D01*
X173326Y223048D02*
X175294D01*
X174310D01*
Y227968D01*
X175294Y228952D01*
X176278D01*
X177262Y227968D01*
X168407Y228952D02*
Y223048D01*
X171359Y226000D01*
X167423D01*
X241137Y84484D02*
Y86452D01*
Y85468D01*
X236217D01*
X235233Y86452D01*
Y87436D01*
X236217Y88420D01*
Y82516D02*
X235233Y81532D01*
Y79564D01*
X236217Y78580D01*
X240153D01*
X241137Y79564D01*
Y81532D01*
X240153Y82516D01*
X239169D01*
X238185Y81532D01*
Y78580D01*
X54669Y92548D02*
X56637D01*
X55653D01*
Y97468D01*
X56637Y98452D01*
X57621D01*
X58605Y97468D01*
X52701Y93532D02*
X51717Y92548D01*
X49749D01*
X48765Y93532D01*
Y94516D01*
X49749Y95500D01*
X50733D01*
X49749D01*
X48765Y96484D01*
Y97468D01*
X49749Y98452D01*
X51717D01*
X52701Y97468D01*
X168846Y16048D02*
Y21952D01*
X172781Y16048D01*
Y21952D01*
X174749D02*
X178685D01*
X176717D01*
Y16048D01*
X184589Y20968D02*
X183605Y21952D01*
X181637D01*
X180653Y20968D01*
Y17032D01*
X181637Y16048D01*
X183605D01*
X184589Y17032D01*
X186556Y16048D02*
X188524D01*
X187540D01*
Y21952D01*
X186556Y20968D01*
X164637Y84484D02*
Y86452D01*
Y85468D01*
X159717D01*
X158733Y86452D01*
Y87436D01*
X159717Y88420D01*
X158733Y78580D02*
Y82516D01*
X162669Y78580D01*
X163653D01*
X164637Y79564D01*
Y81532D01*
X163653Y82516D01*
X251484Y223048D02*
X253452D01*
X252468D01*
Y227968D01*
X253452Y228952D01*
X254436D01*
X255420Y227968D01*
X249516Y224032D02*
X248532Y223048D01*
X246564D01*
X245580Y224032D01*
Y225016D01*
X246564Y226000D01*
X245580Y226984D01*
Y227968D01*
X246564Y228952D01*
X248532D01*
X249516Y227968D01*
Y226984D01*
X248532Y226000D01*
X249516Y225016D01*
Y224032D01*
X248532Y226000D02*
X246564D01*
M02*
