G04*
G04 #@! TF.GenerationSoftware,Altium Limited,Altium Designer,24.5.2 (23)*
G04*
G04 Layer_Color=128*
%FSLAX25Y25*%
%MOIN*%
G70*
G04*
G04 #@! TF.SameCoordinates,9D3C8BE1-BED6-42F3-AD52-46E21662786B*
G04*
G04*
G04 #@! TF.FilePolarity,Positive*
G04*
G01*
G75*
%ADD13C,0.00500*%
D13*
X3937Y242126D02*
X15748D01*
X9843Y236221D02*
Y248031D01*
X58248Y191905D02*
X63366D01*
X60807Y189347D02*
Y194465D01*
X11004Y191905D02*
X16122D01*
X13563Y189347D02*
Y194465D01*
X58248Y143874D02*
X63366D01*
X60807Y141315D02*
Y146433D01*
X11004Y143874D02*
X16122D01*
X13563Y141315D02*
Y146433D01*
X34626Y136000D02*
X39744D01*
X37185Y133441D02*
Y138559D01*
X273020Y155750D02*
X277350D01*
X275185Y153584D02*
Y157915D01*
X273020Y197482D02*
X277350D01*
X275185Y195317D02*
Y199647D01*
X292783Y226000D02*
X297902D01*
X295342Y223441D02*
Y228559D01*
X312469Y226000D02*
X317587D01*
X315027Y223441D02*
Y228559D01*
X274135Y116500D02*
X277235D01*
X275685Y114950D02*
Y118050D01*
X264135Y116500D02*
X267235D01*
X265685Y114950D02*
Y118050D01*
X264135Y146500D02*
X267235D01*
X265685Y144950D02*
Y148050D01*
X274135Y146500D02*
X277235D01*
X275685Y144950D02*
Y148050D01*
X310768Y71000D02*
X315098D01*
X312933Y68835D02*
Y73165D01*
X320768Y71000D02*
X325098D01*
X322933Y68835D02*
Y73165D01*
X330768Y71000D02*
X335098D01*
X332933Y68835D02*
Y73165D01*
X319626Y92158D02*
X324744D01*
X322185Y89599D02*
Y94717D01*
X319626Y111843D02*
X324744D01*
X322185Y109283D02*
Y114401D01*
X319626Y33658D02*
X324744D01*
X322185Y31098D02*
Y36217D01*
X319626Y53342D02*
X324744D01*
X322185Y50783D02*
Y55901D01*
X36935Y13500D02*
X40435D01*
X38685Y11750D02*
Y15250D01*
X46935Y13500D02*
X50435D01*
X48685Y11750D02*
Y15250D01*
X56935Y13500D02*
X60435D01*
X58685Y11750D02*
Y15250D01*
X66935Y13500D02*
X70435D01*
X68685Y11750D02*
Y15250D01*
X76935Y13500D02*
X80435D01*
X78685Y11750D02*
Y15250D01*
X86935Y13500D02*
X90435D01*
X88685Y11750D02*
Y15250D01*
X96935Y13500D02*
X100435D01*
X98685Y11750D02*
Y15250D01*
X106935Y13500D02*
X110435D01*
X108685Y11750D02*
Y15250D01*
X116935Y13500D02*
X120435D01*
X118685Y11750D02*
Y15250D01*
X126935Y13500D02*
X130435D01*
X128685Y11750D02*
Y15250D01*
X36935Y83500D02*
X40435D01*
X38685Y81750D02*
Y85250D01*
X46935Y83500D02*
X50435D01*
X48685Y81750D02*
Y85250D01*
X56935Y83500D02*
X60435D01*
X58685Y81750D02*
Y85250D01*
X66935Y83500D02*
X70435D01*
X68685Y81750D02*
Y85250D01*
X76935Y83500D02*
X80435D01*
X78685Y81750D02*
Y85250D01*
X86935Y83500D02*
X90435D01*
X88685Y81750D02*
Y85250D01*
X96935Y83500D02*
X100435D01*
X98685Y81750D02*
Y85250D01*
X106935Y83500D02*
X110435D01*
X108685Y81750D02*
Y85250D01*
X116935Y83500D02*
X120435D01*
X118685Y81750D02*
Y85250D01*
X126935Y83500D02*
X130435D01*
X128685Y81750D02*
Y85250D01*
X109862Y195500D02*
X114193D01*
X112028Y193335D02*
Y197665D01*
X109862Y185500D02*
X114193D01*
X112028Y183335D02*
Y187665D01*
X90177Y195500D02*
X94508D01*
X92343Y193335D02*
Y197665D01*
X90177Y185500D02*
X94508D01*
X92343Y183335D02*
Y187665D01*
X3937Y9843D02*
X15748D01*
X9843Y3937D02*
Y15748D01*
X332677Y9843D02*
X344488D01*
X338583Y3937D02*
Y15748D01*
X332677Y242126D02*
X344488D01*
X338583Y236221D02*
Y248031D01*
X61020Y115000D02*
X65350D01*
X63185Y112835D02*
Y117165D01*
X19287Y115000D02*
X23618D01*
X21453Y112835D02*
Y117165D01*
X24941Y226000D02*
X30059D01*
X27500Y223441D02*
Y228559D01*
X64311Y226000D02*
X69429D01*
X66870Y223441D02*
Y228559D01*
X44626Y226000D02*
X49744D01*
X47185Y223441D02*
Y228559D01*
X89784Y226000D02*
X94902D01*
X92343Y223441D02*
Y228559D01*
X109468Y226000D02*
X114587D01*
X112028Y223441D02*
Y228559D01*
X106135Y128500D02*
X109235D01*
X107685Y126950D02*
Y130050D01*
X96135Y128500D02*
X99235D01*
X97685Y126950D02*
Y130050D01*
X96135Y158500D02*
X99235D01*
X97685Y156950D02*
Y160050D01*
X106135Y158500D02*
X109235D01*
X107685Y156950D02*
Y160050D01*
X150099Y226000D02*
X155217D01*
X152657Y223441D02*
Y228559D01*
X189469Y226000D02*
X194587D01*
X192027Y223441D02*
Y228559D01*
X169783Y226000D02*
X174902D01*
X172343Y223441D02*
Y228559D01*
X232635Y172500D02*
X235735D01*
X234185Y170950D02*
Y174050D01*
X242635Y172500D02*
X245735D01*
X244185Y170950D02*
Y174050D01*
X242635Y142500D02*
X245735D01*
X244185Y140950D02*
Y144050D01*
X232635Y142500D02*
X235735D01*
X234185Y140950D02*
Y144050D01*
X236177Y88500D02*
X240193D01*
X238185Y86492D02*
Y90508D01*
X236177Y98500D02*
X240193D01*
X238185Y96492D02*
Y100508D01*
X236177Y78500D02*
X240193D01*
X238185Y76492D02*
Y80508D01*
X236177Y68500D02*
X240193D01*
X238185Y66492D02*
Y70508D01*
X36677Y95500D02*
X40693D01*
X38685Y93492D02*
Y97508D01*
X46677Y95500D02*
X50693D01*
X48685Y93492D02*
Y97508D01*
X66677Y95500D02*
X70693D01*
X68685Y93492D02*
Y97508D01*
X56677Y95500D02*
X60693D01*
X58685Y93492D02*
Y97508D01*
X166284Y19000D02*
X171402D01*
X168842Y16441D02*
Y21559D01*
X185968Y19000D02*
X191087D01*
X188528Y16441D02*
Y21559D01*
X159677Y88500D02*
X163693D01*
X161685Y86492D02*
Y90508D01*
X159677Y98500D02*
X163693D01*
X161685Y96492D02*
Y100508D01*
X159677Y78500D02*
X163693D01*
X161685Y76492D02*
Y80508D01*
X159677Y68500D02*
X163693D01*
X161685Y66492D02*
Y70508D01*
X247941Y226000D02*
X253059D01*
X250500Y223441D02*
Y228559D01*
X267626Y226000D02*
X272744D01*
X270185Y223441D02*
Y228559D01*
X228256Y226000D02*
X233374D01*
X230815Y223441D02*
Y228559D01*
X315020Y144500D02*
X319350D01*
X317185Y142335D02*
Y146665D01*
X315020Y186232D02*
X319350D01*
X317185Y184067D02*
Y188398D01*
X332020Y197482D02*
X336350D01*
X334185Y195317D02*
Y199647D01*
X332020Y155750D02*
X336350D01*
X334185Y153584D02*
Y157915D01*
X291020Y144500D02*
X295350D01*
X293185Y142335D02*
Y146665D01*
X291020Y186232D02*
X295350D01*
X293185Y184067D02*
Y188398D01*
X252201Y108500D02*
X254169D01*
X253185Y107516D02*
Y109484D01*
X179900Y82801D02*
X181868D01*
X180884Y81817D02*
Y83786D01*
X265201Y102000D02*
X267169D01*
X266185Y101016D02*
Y102984D01*
X290201Y24000D02*
X292169D01*
X291185Y23016D02*
Y24984D01*
X159335Y51635D02*
X161304D01*
X160319Y50650D02*
Y52619D01*
X208566Y51635D02*
X210535D01*
X209550Y50650D02*
Y52619D01*
X206062Y157199D02*
X208030D01*
X207046Y156215D02*
Y158184D01*
X280201Y108000D02*
X282169D01*
X281185Y107016D02*
Y108984D01*
X290701Y41724D02*
X292669D01*
X291685Y40740D02*
Y42709D01*
X164701Y171000D02*
X166669D01*
X165685Y170016D02*
Y171984D01*
M02*
